<svg width="32" height="32" viewBox="0 0 32 32" fill="none" xmlns="http://www.w3.org/2000/svg">
<mask id="path-1-inside-1_7596_87090" fill="white">
<path fill-rule="evenodd" clip-rule="evenodd" d="M9.46504 1.66412C9.52911 1.66414 9.59412 1.66417 9.66011 1.66417H22.3401C22.406 1.66417 22.4711 1.66414 22.5352 1.66412C23.8908 1.66353 24.8237 1.66312 25.6096 1.93653C27.0935 2.45288 28.2456 3.64708 28.7396 5.15152C29.0009 5.94768 29.0007 6.89412 29.0001 8.29946C29.0001 8.36236 29.0001 8.42617 29.0001 8.49092V27.1631C29.0001 29.1167 26.6975 30.2798 25.1809 28.8921C25.0749 28.7951 24.9253 28.7951 24.8193 28.8921L24.1752 29.4815C22.9376 30.6139 21.0625 30.6139 19.8251 29.4815C19.3517 29.0483 18.6485 29.0483 18.1752 29.4815C16.9376 30.6139 15.0625 30.6139 13.8251 29.4815C13.3517 29.0483 12.6485 29.0483 12.1752 29.4815C10.9376 30.6139 9.06259 30.6139 7.825 29.4815L7.18088 28.8921C7.07491 28.7951 6.92527 28.7951 6.81931 28.8921C5.30274 30.2798 3.0001 29.1167 3.0001 27.1631V8.49092C3.0001 8.42617 3.00007 8.36236 3.00004 8.29946C2.99954 6.89413 2.99919 5.94768 3.2606 5.15152C3.75455 3.64708 4.9067 2.45288 6.39064 1.93653C7.1764 1.66312 8.10938 1.66353 9.46504 1.66412ZM9.66011 3.66417C8.032 3.66417 7.4712 3.67816 7.04791 3.82544C6.16874 4.13136 5.46559 4.8471 5.1608 5.7754C5.01268 6.2265 5.0001 6.82134 5.0001 8.49092V27.1631C5.0001 27.3218 5.07999 27.4189 5.18023 27.4653C5.23246 27.4894 5.28352 27.4957 5.32608 27.4899C5.3636 27.4849 5.41215 27.4687 5.46914 27.4166C6.33938 26.6202 7.66082 26.6202 8.53104 27.4166L9.17518 28.0061C9.6485 28.4391 10.3517 28.4391 10.825 28.0061C12.0626 26.8735 13.9376 26.8735 15.1752 28.0061C15.6485 28.4391 16.3517 28.4391 16.8251 28.0061C18.0625 26.8735 19.9376 26.8735 21.1752 28.0061C21.6485 28.4391 22.3517 28.4391 22.8251 28.0061L23.4692 27.4166C24.3393 26.6202 25.6608 26.6202 26.5311 27.4166C26.588 27.4687 26.6365 27.4849 26.6741 27.4899C26.7167 27.4957 26.7677 27.4894 26.82 27.4653C26.9201 27.4189 27.0001 27.3219 27.0001 27.1631V8.49092C27.0001 6.82136 26.9875 6.2265 26.8393 5.7754C26.5345 4.8471 25.8315 4.13136 24.9523 3.82544C24.5289 3.67816 23.9681 3.66417 22.3401 3.66417H9.66011ZM8.33343 9.9975C8.33343 9.44522 8.78114 8.9975 9.33343 8.9975H10.0001C10.5524 8.9975 11.0001 9.44522 11.0001 9.9975C11.0001 10.5498 10.5524 10.9975 10.0001 10.9975H9.33343C8.78114 10.9975 8.33343 10.5498 8.33343 9.9975ZM13.0001 9.9975C13.0001 9.44522 13.4479 8.9975 14.0001 8.9975H22.6668C23.2191 8.9975 23.6668 9.44522 23.6668 9.9975C23.6668 10.5498 23.2191 10.9975 22.6668 10.9975H14.0001C13.4479 10.9975 13.0001 10.5498 13.0001 9.9975ZM8.33343 14.6642C8.33343 14.1119 8.78114 13.6642 9.33343 13.6642H10.0001C10.5524 13.6642 11.0001 14.1119 11.0001 14.6642C11.0001 15.2165 10.5524 15.6642 10.0001 15.6642H9.33343C8.78114 15.6642 8.33343 15.2165 8.33343 14.6642ZM13.0001 14.6642C13.0001 14.1119 13.4479 13.6642 14.0001 13.6642H22.6668C23.2191 13.6642 23.6668 14.1119 23.6668 14.6642C23.6668 15.2165 23.2191 15.6642 22.6668 15.6642H14.0001C13.4479 15.6642 13.0001 15.2165 13.0001 14.6642ZM8.33343 19.3309C8.33343 18.7786 8.78114 18.3309 9.33343 18.3309H10.0001C10.5524 18.3309 11.0001 18.7786 11.0001 19.3309C11.0001 19.8831 10.5524 20.3309 10.0001 20.3309H9.33343C8.78114 20.3309 8.33343 19.8831 8.33343 19.3309ZM13.0001 19.3309C13.0001 18.7786 13.4479 18.3309 14.0001 18.3309H22.6668C23.2191 18.3309 23.6668 18.7786 23.6668 19.3309C23.6668 19.8831 23.2191 20.3309 22.6668 20.3309H14.0001C13.4479 20.3309 13.0001 19.8831 13.0001 19.3309Z"/>
</mask>
<path fill-rule="evenodd" clip-rule="evenodd" d="M9.46504 1.66412C9.52911 1.66414 9.59412 1.66417 9.66011 1.66417H22.3401C22.406 1.66417 22.4711 1.66414 22.5352 1.66412C23.8908 1.66353 24.8237 1.66312 25.6096 1.93653C27.0935 2.45288 28.2456 3.64708 28.7396 5.15152C29.0009 5.94768 29.0007 6.89412 29.0001 8.29946C29.0001 8.36236 29.0001 8.42617 29.0001 8.49092V27.1631C29.0001 29.1167 26.6975 30.2798 25.1809 28.8921C25.0749 28.7951 24.9253 28.7951 24.8193 28.8921L24.1752 29.4815C22.9376 30.6139 21.0625 30.6139 19.8251 29.4815C19.3517 29.0483 18.6485 29.0483 18.1752 29.4815C16.9376 30.6139 15.0625 30.6139 13.8251 29.4815C13.3517 29.0483 12.6485 29.0483 12.1752 29.4815C10.9376 30.6139 9.06259 30.6139 7.825 29.4815L7.18088 28.8921C7.07491 28.7951 6.92527 28.7951 6.81931 28.8921C5.30274 30.2798 3.0001 29.1167 3.0001 27.1631V8.49092C3.0001 8.42617 3.00007 8.36236 3.00004 8.29946C2.99954 6.89413 2.99919 5.94768 3.2606 5.15152C3.75455 3.64708 4.9067 2.45288 6.39064 1.93653C7.1764 1.66312 8.10938 1.66353 9.46504 1.66412ZM9.66011 3.66417C8.032 3.66417 7.4712 3.67816 7.04791 3.82544C6.16874 4.13136 5.46559 4.8471 5.1608 5.7754C5.01268 6.2265 5.0001 6.82134 5.0001 8.49092V27.1631C5.0001 27.3218 5.07999 27.4189 5.18023 27.4653C5.23246 27.4894 5.28352 27.4957 5.32608 27.4899C5.3636 27.4849 5.41215 27.4687 5.46914 27.4166C6.33938 26.6202 7.66082 26.6202 8.53104 27.4166L9.17518 28.0061C9.6485 28.4391 10.3517 28.4391 10.825 28.0061C12.0626 26.8735 13.9376 26.8735 15.1752 28.0061C15.6485 28.4391 16.3517 28.4391 16.8251 28.0061C18.0625 26.8735 19.9376 26.8735 21.1752 28.0061C21.6485 28.4391 22.3517 28.4391 22.8251 28.0061L23.4692 27.4166C24.3393 26.6202 25.6608 26.6202 26.5311 27.4166C26.588 27.4687 26.6365 27.4849 26.6741 27.4899C26.7167 27.4957 26.7677 27.4894 26.82 27.4653C26.9201 27.4189 27.0001 27.3219 27.0001 27.1631V8.49092C27.0001 6.82136 26.9875 6.2265 26.8393 5.7754C26.5345 4.8471 25.8315 4.13136 24.9523 3.82544C24.5289 3.67816 23.9681 3.66417 22.3401 3.66417H9.66011ZM8.33343 9.9975C8.33343 9.44522 8.78114 8.9975 9.33343 8.9975H10.0001C10.5524 8.9975 11.0001 9.44522 11.0001 9.9975C11.0001 10.5498 10.5524 10.9975 10.0001 10.9975H9.33343C8.78114 10.9975 8.33343 10.5498 8.33343 9.9975ZM13.0001 9.9975C13.0001 9.44522 13.4479 8.9975 14.0001 8.9975H22.6668C23.2191 8.9975 23.6668 9.44522 23.6668 9.9975C23.6668 10.5498 23.2191 10.9975 22.6668 10.9975H14.0001C13.4479 10.9975 13.0001 10.5498 13.0001 9.9975ZM8.33343 14.6642C8.33343 14.1119 8.78114 13.6642 9.33343 13.6642H10.0001C10.5524 13.6642 11.0001 14.1119 11.0001 14.6642C11.0001 15.2165 10.5524 15.6642 10.0001 15.6642H9.33343C8.78114 15.6642 8.33343 15.2165 8.33343 14.6642ZM13.0001 14.6642C13.0001 14.1119 13.4479 13.6642 14.0001 13.6642H22.6668C23.2191 13.6642 23.6668 14.1119 23.6668 14.6642C23.6668 15.2165 23.2191 15.6642 22.6668 15.6642H14.0001C13.4479 15.6642 13.0001 15.2165 13.0001 14.6642ZM8.33343 19.3309C8.33343 18.7786 8.78114 18.3309 9.33343 18.3309H10.0001C10.5524 18.3309 11.0001 18.7786 11.0001 19.3309C11.0001 19.8831 10.5524 20.3309 10.0001 20.3309H9.33343C8.78114 20.3309 8.33343 19.8831 8.33343 19.3309ZM13.0001 19.3309C13.0001 18.7786 13.4479 18.3309 14.0001 18.3309H22.6668C23.2191 18.3309 23.6668 18.7786 23.6668 19.3309C23.6668 19.8831 23.2191 20.3309 22.6668 20.3309H14.0001C13.4479 20.3309 13.0001 19.8831 13.0001 19.3309Z" fill="#CD6200"/>
<path d="M28.7396 5.15152L28.3497 3.96388L27.3996 4.27582L27.7895 5.46345L28.1794 6.65108L29.1295 6.33915L28.7396 5.15152ZM9.46504 1.66412L9.46396 4.16412H9.464L9.46504 1.66412ZM22.5352 1.66412L22.5362 4.16412H22.5363L22.5352 1.66412ZM25.6096 1.93653L26.4312 -0.424605L26.4311 -0.424649L25.6096 1.93653ZM28.7396 5.15152L31.1149 4.37184L31.1148 4.37158L28.7396 5.15152ZM29.0001 8.29946L26.5001 8.29851V8.29946H29.0001ZM25.1809 28.8921L26.8686 27.0477L26.868 27.0472L25.1809 28.8921ZM24.8193 28.8921L23.1322 27.0472L23.1316 27.0478L24.8193 28.8921ZM24.1752 29.4815L25.8628 31.3259L25.863 31.3258L24.1752 29.4815ZM19.8251 29.4815L18.1372 31.3258L18.1373 31.3259L19.8251 29.4815ZM18.1752 29.4815L19.8628 31.3259L19.8631 31.3258L18.1752 29.4815ZM13.8251 29.4815L12.1372 31.3258L12.1373 31.3259L13.8251 29.4815ZM12.1752 29.4815L13.8628 31.3259L13.8631 31.3257L12.1752 29.4815ZM7.825 29.4815L6.13721 31.3258L6.13736 31.3259L7.825 29.4815ZM7.18088 28.8921L8.86868 27.0478L8.86822 27.0474L7.18088 28.8921ZM6.81931 28.8921L5.13186 27.0475L5.13162 27.0477L6.81931 28.8921ZM3.00004 8.29946L0.500044 8.30036V8.30052L3.00004 8.29946ZM3.2606 5.15152L5.63584 5.93141L5.63586 5.93137L3.2606 5.15152ZM6.39064 1.93653L7.21222 4.29768L7.21223 4.29767L6.39064 1.93653ZM7.04791 3.82544L6.22637 1.46428L6.22632 1.46429L7.04791 3.82544ZM5.1608 5.7754L7.53604 6.5553L7.53605 6.55526L5.1608 5.7754ZM5.18023 27.4653L4.13006 29.734L4.13156 29.7347L5.18023 27.4653ZM5.32608 27.4899L5.65985 29.9676L5.66064 29.9674L5.32608 27.4899ZM5.46914 27.4166L7.15661 29.2612L7.15693 29.2609L5.46914 27.4166ZM8.53104 27.4166L6.84324 29.2609L6.84327 29.2609L8.53104 27.4166ZM9.17518 28.0061L7.4874 29.8504L7.48758 29.8505L9.17518 28.0061ZM10.825 28.0061L12.5126 29.8505L12.5128 29.8504L10.825 28.0061ZM15.1752 28.0061L13.4875 29.8504L13.4876 29.8505L15.1752 28.0061ZM16.8251 28.0061L18.5126 29.8505L18.5129 29.8503L16.8251 28.0061ZM21.1752 28.0061L19.4875 29.8504L19.4876 29.8505L21.1752 28.0061ZM22.8251 28.0061L24.5126 29.8505L24.5128 29.8504L22.8251 28.0061ZM23.4692 27.4166L25.157 29.2609L25.1571 29.2608L23.4692 27.4166ZM26.5311 27.4166L28.2194 25.5728L28.2188 25.5723L26.5311 27.4166ZM26.6741 27.4899L27.0081 25.0123L27.008 25.0123L26.6741 27.4899ZM26.82 27.4653L27.868 29.735L27.8711 29.7336L26.82 27.4653ZM26.8393 5.7754L24.4641 6.55529L24.4641 6.55536L26.8393 5.7754ZM24.9523 3.82544L25.7738 1.46429L25.7737 1.46425L24.9523 3.82544ZM9.46504 1.66412L9.464 4.16412C9.52801 4.16414 9.59353 4.16417 9.66011 4.16417V1.66417V-0.835831C9.59472 -0.835831 9.53021 -0.835857 9.46608 -0.835884L9.46504 1.66412ZM9.66011 1.66417V4.16417H22.3401V1.66417V-0.835831H9.66011V1.66417ZM22.3401 1.66417V4.16417C22.4066 4.16417 22.4722 4.16414 22.5362 4.16412L22.5352 1.66412L22.5342 -0.835884C22.47 -0.835857 22.4054 -0.835831 22.3401 -0.835831V1.66417ZM22.5352 1.66412L22.5363 4.16412C24.0461 4.16346 24.4905 4.19415 24.7881 4.29771L25.6096 1.93653L26.4311 -0.424649C25.157 -0.867921 23.7355 -0.836404 22.5341 -0.835884L22.5352 1.66412ZM25.6096 1.93653L24.788 4.29766C25.5155 4.55083 26.1067 5.14674 26.3644 5.93145L28.7396 5.15152L31.1148 4.37158C30.3845 2.14741 28.6714 0.354922 26.4312 -0.424605L25.6096 1.93653ZM28.7396 5.15152L26.3643 5.93119C26.4727 6.2616 26.5007 6.74354 26.5001 8.29851L29.0001 8.29946L31.5001 8.30041C31.5006 7.0447 31.5291 5.63375 31.1149 4.37184L28.7396 5.15152ZM29.0001 8.29946H26.5001C26.5001 8.29959 26.5001 8.29971 26.5001 8.29983C26.5001 8.29995 26.5001 8.30008 26.5001 8.3002C26.5001 8.30032 26.5001 8.30045 26.5001 8.30057C26.5001 8.30069 26.5001 8.30081 26.5001 8.30094C26.5001 8.30106 26.5001 8.30118 26.5001 8.30131C26.5001 8.30143 26.5001 8.30155 26.5001 8.30167C26.5001 8.3018 26.5001 8.30192 26.5001 8.30204C26.5001 8.30217 26.5001 8.30229 26.5001 8.30241C26.5001 8.30253 26.5001 8.30266 26.5001 8.30278C26.5001 8.3029 26.5001 8.30303 26.5001 8.30315C26.5001 8.30327 26.5001 8.30339 26.5001 8.30352C26.5001 8.30364 26.5001 8.30376 26.5001 8.30389C26.5001 8.30401 26.5001 8.30413 26.5001 8.30426C26.5001 8.30438 26.5001 8.3045 26.5001 8.30462C26.5001 8.30475 26.5001 8.30487 26.5001 8.30499C26.5001 8.30512 26.5001 8.30524 26.5001 8.30536C26.5001 8.30548 26.5001 8.30561 26.5001 8.30573C26.5001 8.30585 26.5001 8.30598 26.5001 8.3061C26.5001 8.30622 26.5001 8.30635 26.5001 8.30647C26.5001 8.30659 26.5001 8.30671 26.5001 8.30684C26.5001 8.30696 26.5001 8.30708 26.5001 8.30721C26.5001 8.30733 26.5001 8.30745 26.5001 8.30758C26.5001 8.3077 26.5001 8.30782 26.5001 8.30794C26.5001 8.30807 26.5001 8.30819 26.5001 8.30831C26.5001 8.30844 26.5001 8.30856 26.5001 8.30868C26.5001 8.30881 26.5001 8.30893 26.5001 8.30905C26.5001 8.30917 26.5001 8.3093 26.5001 8.30942C26.5001 8.30954 26.5001 8.30967 26.5001 8.30979C26.5001 8.30991 26.5001 8.31004 26.5001 8.31016C26.5001 8.31028 26.5001 8.3104 26.5001 8.31053C26.5001 8.31065 26.5001 8.31077 26.5001 8.3109C26.5001 8.31102 26.5001 8.31114 26.5001 8.31127C26.5001 8.31139 26.5001 8.31151 26.5001 8.31164C26.5001 8.31176 26.5001 8.31188 26.5001 8.312C26.5001 8.31213 26.5001 8.31225 26.5001 8.31237C26.5001 8.3125 26.5001 8.31262 26.5001 8.31274C26.5001 8.31287 26.5001 8.31299 26.5001 8.31311C26.5001 8.31324 26.5001 8.31336 26.5001 8.31348C26.5001 8.3136 26.5001 8.31373 26.5001 8.31385C26.5001 8.31397 26.5001 8.3141 26.5001 8.31422C26.5001 8.31434 26.5001 8.31447 26.5001 8.31459C26.5001 8.31471 26.5001 8.31484 26.5001 8.31496C26.5001 8.31508 26.5001 8.31521 26.5001 8.31533C26.5001 8.31545 26.5001 8.31557 26.5001 8.3157C26.5001 8.31582 26.5001 8.31594 26.5001 8.31607C26.5001 8.31619 26.5001 8.31631 26.5001 8.31644C26.5001 8.31656 26.5001 8.31668 26.5001 8.31681C26.5001 8.31693 26.5001 8.31705 26.5001 8.31718C26.5001 8.3173 26.5001 8.31742 26.5001 8.31755C26.5001 8.31767 26.5001 8.31779 26.5001 8.31791C26.5001 8.31804 26.5001 8.31816 26.5001 8.31828C26.5001 8.31841 26.5001 8.31853 26.5001 8.31865C26.5001 8.31878 26.5001 8.3189 26.5001 8.31902C26.5001 8.31915 26.5001 8.31927 26.5001 8.31939C26.5001 8.31952 26.5001 8.31964 26.5001 8.31976C26.5001 8.31989 26.5001 8.32001 26.5001 8.32013C26.5001 8.32026 26.5001 8.32038 26.5001 8.3205C26.5001 8.32063 26.5001 8.32075 26.5001 8.32087C26.5001 8.321 26.5001 8.32112 26.5001 8.32124C26.5001 8.32137 26.5001 8.32149 26.5001 8.32161C26.5001 8.32173 26.5001 8.32186 26.5001 8.32198C26.5001 8.3221 26.5001 8.32223 26.5001 8.32235C26.5001 8.32247 26.5001 8.3226 26.5001 8.32272C26.5001 8.32284 26.5001 8.32297 26.5001 8.32309C26.5001 8.32321 26.5001 8.32334 26.5001 8.32346C26.5001 8.32358 26.5001 8.32371 26.5001 8.32383C26.5001 8.32395 26.5001 8.32408 26.5001 8.3242C26.5001 8.32432 26.5001 8.32445 26.5001 8.32457C26.5001 8.32469 26.5001 8.32482 26.5001 8.32494C26.5001 8.32506 26.5001 8.32519 26.5001 8.32531C26.5001 8.32543 26.5001 8.32556 26.5001 8.32568C26.5001 8.3258 26.5001 8.32593 26.5001 8.32605C26.5001 8.32617 26.5001 8.3263 26.5001 8.32642C26.5001 8.32654 26.5001 8.32667 26.5001 8.32679C26.5001 8.32691 26.5001 8.32704 26.5001 8.32716C26.5001 8.32728 26.5001 8.32741 26.5001 8.32753C26.5001 8.32765 26.5001 8.32778 26.5001 8.3279C26.5001 8.32802 26.5001 8.32815 26.5001 8.32827C26.5001 8.32839 26.5001 8.32852 26.5001 8.32864C26.5001 8.32876 26.5001 8.32889 26.5001 8.32901C26.5001 8.32913 26.5001 8.32926 26.5001 8.32938C26.5001 8.3295 26.5001 8.32963 26.5001 8.32975C26.5001 8.32988 26.5001 8.33 26.5001 8.33012C26.5001 8.33025 26.5001 8.33037 26.5001 8.33049C26.5001 8.33062 26.5001 8.33074 26.5001 8.33086C26.5001 8.33099 26.5001 8.33111 26.5001 8.33123C26.5001 8.33136 26.5001 8.33148 26.5001 8.3316C26.5001 8.33173 26.5001 8.33185 26.5001 8.33197C26.5001 8.3321 26.5001 8.33222 26.5001 8.33234C26.5001 8.33247 26.5001 8.33259 26.5001 8.33271C26.5001 8.33284 26.5001 8.33296 26.5001 8.33309C26.5001 8.33321 26.5001 8.33333 26.5001 8.33346C26.5001 8.33358 26.5001 8.3337 26.5001 8.33383C26.5001 8.33395 26.5001 8.33407 26.5001 8.3342C26.5001 8.33432 26.5001 8.33444 26.5001 8.33457C26.5001 8.33469 26.5001 8.33481 26.5001 8.33494C26.5001 8.33506 26.5001 8.33518 26.5001 8.33531C26.5001 8.33543 26.5001 8.33556 26.5001 8.33568C26.5001 8.3358 26.5001 8.33593 26.5001 8.33605C26.5001 8.33617 26.5001 8.3363 26.5001 8.33642C26.5001 8.33654 26.5001 8.33667 26.5001 8.33679C26.5001 8.33691 26.5001 8.33704 26.5001 8.33716C26.5001 8.33728 26.5001 8.33741 26.5001 8.33753C26.5001 8.33766 26.5001 8.33778 26.5001 8.3379C26.5001 8.33803 26.5001 8.33815 26.5001 8.33827C26.5001 8.3384 26.5001 8.33852 26.5001 8.33864C26.5001 8.33877 26.5001 8.33889 26.5001 8.33901C26.5001 8.33914 26.5001 8.33926 26.5001 8.33939C26.5001 8.33951 26.5001 8.33963 26.5001 8.33976C26.5001 8.33988 26.5001 8.34 26.5001 8.34013C26.5001 8.34025 26.5001 8.34037 26.5001 8.3405C26.5001 8.34062 26.5001 8.34074 26.5001 8.34087C26.5001 8.34099 26.5001 8.34112 26.5001 8.34124C26.5001 8.34136 26.5001 8.34149 26.5001 8.34161C26.5001 8.34173 26.5001 8.34186 26.5001 8.34198C26.5001 8.34211 26.5001 8.34223 26.5001 8.34235C26.5001 8.34248 26.5001 8.3426 26.5001 8.34272C26.5001 8.34285 26.5001 8.34297 26.5001 8.34309C26.5001 8.34322 26.5001 8.34334 26.5001 8.34347C26.5001 8.34359 26.5001 8.34371 26.5001 8.34384C26.5001 8.34396 26.5001 8.34408 26.5001 8.34421C26.5001 8.34433 26.5001 8.34445 26.5001 8.34458C26.5001 8.3447 26.5001 8.34483 26.5001 8.34495C26.5001 8.34507 26.5001 8.3452 26.5001 8.34532C26.5001 8.34544 26.5001 8.34557 26.5001 8.34569C26.5001 8.34582 26.5001 8.34594 26.5001 8.34606C26.5001 8.34619 26.5001 8.34631 26.5001 8.34643C26.5001 8.34656 26.5001 8.34668 26.5001 8.34681C26.5001 8.34693 26.5001 8.34705 26.5001 8.34718C26.5001 8.3473 26.5001 8.34742 26.5001 8.34755C26.5001 8.34767 26.5001 8.3478 26.5001 8.34792C26.5001 8.34804 26.5001 8.34817 26.5001 8.34829C26.5001 8.34841 26.5001 8.34854 26.5001 8.34866C26.5001 8.34879 26.5001 8.34891 26.5001 8.34903C26.5001 8.34916 26.5001 8.34928 26.5001 8.3494C26.5001 8.34953 26.5001 8.34965 26.5001 8.34978C26.5001 8.3499 26.5001 8.35002 26.5001 8.35015C26.5001 8.35027 26.5001 8.35039 26.5001 8.35052C26.5001 8.35064 26.5001 8.35077 26.5001 8.35089C26.5001 8.35101 26.5001 8.35114 26.5001 8.35126C26.5001 8.35139 26.5001 8.35151 26.5001 8.35163C26.5001 8.35176 26.5001 8.35188 26.5001 8.352C26.5001 8.35213 26.5001 8.35225 26.5001 8.35238C26.5001 8.3525 26.5001 8.35262 26.5001 8.35275C26.5001 8.35287 26.5001 8.353 26.5001 8.35312C26.5001 8.35324 26.5001 8.35337 26.5001 8.35349C26.5001 8.35361 26.5001 8.35374 26.5001 8.35386C26.5001 8.35399 26.5001 8.35411 26.5001 8.35423C26.5001 8.35436 26.5001 8.35448 26.5001 8.35461C26.5001 8.35473 26.5001 8.35485 26.5001 8.35498C26.5001 8.3551 26.5001 8.35523 26.5001 8.35535C26.5001 8.35547 26.5001 8.3556 26.5001 8.35572C26.5001 8.35584 26.5001 8.35597 26.5001 8.35609C26.5001 8.35622 26.5001 8.35634 26.5001 8.35646C26.5001 8.35659 26.5001 8.35671 26.5001 8.35684C26.5001 8.35696 26.5001 8.35708 26.5001 8.35721C26.5001 8.35733 26.5001 8.35746 26.5001 8.35758C26.5001 8.3577 26.5001 8.35783 26.5001 8.35795C26.5001 8.35808 26.5001 8.3582 26.5001 8.35832C26.5001 8.35845 26.5001 8.35857 26.5001 8.3587C26.5001 8.35882 26.5001 8.35894 26.5001 8.35907C26.5001 8.35919 26.5001 8.35931 26.5001 8.35944C26.5001 8.35956 26.5001 8.35969 26.5001 8.35981C26.5001 8.35993 26.5001 8.36006 26.5001 8.36018C26.5001 8.36031 26.5001 8.36043 26.5001 8.36056C26.5001 8.36068 26.5001 8.3608 26.5001 8.36093C26.5001 8.36105 26.5001 8.36118 26.5001 8.3613C26.5001 8.36142 26.5001 8.36155 26.5001 8.36167C26.5001 8.36179 26.5001 8.36192 26.5001 8.36204C26.5001 8.36217 26.5001 8.36229 26.5001 8.36242C26.5001 8.36254 26.5001 8.36266 26.5001 8.36279C26.5001 8.36291 26.5001 8.36304 26.5001 8.36316C26.5001 8.36328 26.5001 8.36341 26.5001 8.36353C26.5001 8.36366 26.5001 8.36378 26.5001 8.3639C26.5001 8.36403 26.5001 8.36415 26.5001 8.36428C26.5001 8.3644 26.5001 8.36452 26.5001 8.36465C26.5001 8.36477 26.5001 8.3649 26.5001 8.36502C26.5001 8.36514 26.5001 8.36527 26.5001 8.36539C26.5001 8.36552 26.5001 8.36564 26.5001 8.36577C26.5001 8.36589 26.5001 8.36601 26.5001 8.36614C26.5001 8.36626 26.5001 8.36639 26.5001 8.36651C26.5001 8.36663 26.5001 8.36676 26.5001 8.36688C26.5001 8.36701 26.5001 8.36713 26.5001 8.36725C26.5001 8.36738 26.5001 8.3675 26.5001 8.36763C26.5001 8.36775 26.5001 8.36788 26.5001 8.368C26.5001 8.36812 26.5001 8.36825 26.5001 8.36837C26.5001 8.3685 26.5001 8.36862 26.5001 8.36874C26.5001 8.36887 26.5001 8.36899 26.5001 8.36912C26.5001 8.36924 26.5001 8.36936 26.5001 8.36949C26.5001 8.36961 26.5001 8.36974 26.5001 8.36986C26.5001 8.36999 26.5001 8.37011 26.5001 8.37023C26.5001 8.37036 26.5001 8.37048 26.5001 8.37061C26.5001 8.37073 26.5001 8.37085 26.5001 8.37098C26.5001 8.3711 26.5001 8.37123 26.5001 8.37135C26.5001 8.37148 26.5001 8.3716 26.5001 8.37172C26.5001 8.37185 26.5001 8.37197 26.5001 8.3721C26.5001 8.37222 26.5001 8.37235 26.5001 8.37247C26.5001 8.37259 26.5001 8.37272 26.5001 8.37284C26.5001 8.37297 26.5001 8.37309 26.5001 8.37322C26.5001 8.37334 26.5001 8.37346 26.5001 8.37359C26.5001 8.37371 26.5001 8.37384 26.5001 8.37396C26.5001 8.37408 26.5001 8.37421 26.5001 8.37433C26.5001 8.37446 26.5001 8.37458 26.5001 8.37471C26.5001 8.37483 26.5001 8.37495 26.5001 8.37508C26.5001 8.3752 26.5001 8.37533 26.5001 8.37545C26.5001 8.37558 26.5001 8.3757 26.5001 8.37582C26.5001 8.37595 26.5001 8.37607 26.5001 8.3762C26.5001 8.37632 26.5001 8.37645 26.5001 8.37657C26.5001 8.37669 26.5001 8.37682 26.5001 8.37694C26.5001 8.37707 26.5001 8.37719 26.5001 8.37732C26.5001 8.37744 26.5001 8.37756 26.5001 8.37769C26.5001 8.37781 26.5001 8.37794 26.5001 8.37806C26.5001 8.37819 26.5001 8.37831 26.5001 8.37844C26.5001 8.37856 26.5001 8.37868 26.5001 8.37881C26.5001 8.37893 26.5001 8.37906 26.5001 8.37918C26.5001 8.37931 26.5001 8.37943 26.5001 8.37955C26.5001 8.37968 26.5001 8.3798 26.5001 8.37993C26.5001 8.38005 26.5001 8.38018 26.5001 8.3803C26.5001 8.38042 26.5001 8.38055 26.5001 8.38067C26.5001 8.3808 26.5001 8.38092 26.5001 8.38105C26.5001 8.38117 26.5001 8.3813 26.5001 8.38142C26.5001 8.38154 26.5001 8.38167 26.5001 8.38179C26.5001 8.38192 26.5001 8.38204 26.5001 8.38217C26.5001 8.38229 26.5001 8.38242 26.5001 8.38254C26.5001 8.38266 26.5001 8.38279 26.5001 8.38291C26.5001 8.38304 26.5001 8.38316 26.5001 8.38329C26.5001 8.38341 26.5001 8.38353 26.5001 8.38366C26.5001 8.38378 26.5001 8.38391 26.5001 8.38403C26.5001 8.38416 26.5001 8.38428 26.5001 8.38441C26.5001 8.38453 26.5001 8.38465 26.5001 8.38478C26.5001 8.3849 26.5001 8.38503 26.5001 8.38515C26.5001 8.38528 26.5001 8.3854 26.5001 8.38553C26.5001 8.38565 26.5001 8.38578 26.5001 8.3859C26.5001 8.38602 26.5001 8.38615 26.5001 8.38627C26.5001 8.3864 26.5001 8.38652 26.5001 8.38665C26.5001 8.38677 26.5001 8.3869 26.5001 8.38702C26.5001 8.38714 26.5001 8.38727 26.5001 8.38739C26.5001 8.38752 26.5001 8.38764 26.5001 8.38777C26.5001 8.38789 26.5001 8.38802 26.5001 8.38814C26.5001 8.38827 26.5001 8.38839 26.5001 8.38851C26.5001 8.38864 26.5001 8.38876 26.5001 8.38889C26.5001 8.38901 26.5001 8.38914 26.5001 8.38926C26.5001 8.38939 26.5001 8.38951 26.5001 8.38964C26.5001 8.38976 26.5001 8.38988 26.5001 8.39001C26.5001 8.39013 26.5001 8.39026 26.5001 8.39038C26.5001 8.39051 26.5001 8.39063 26.5001 8.39076C26.5001 8.39088 26.5001 8.39101 26.5001 8.39113C26.5001 8.39125 26.5001 8.39138 26.5001 8.3915C26.5001 8.39163 26.5001 8.39175 26.5001 8.39188C26.5001 8.392 26.5001 8.39213 26.5001 8.39225C26.5001 8.39238 26.5001 8.3925 26.5001 8.39263C26.5001 8.39275 26.5001 8.39287 26.5001 8.393C26.5001 8.39312 26.5001 8.39325 26.5001 8.39337C26.5001 8.3935 26.5001 8.39362 26.5001 8.39375C26.5001 8.39387 26.5001 8.394 26.5001 8.39412C26.5001 8.39425 26.5001 8.39437 26.5001 8.39449C26.5001 8.39462 26.5001 8.39474 26.5001 8.39487C26.5001 8.39499 26.5001 8.39512 26.5001 8.39524C26.5001 8.39537 26.5001 8.39549 26.5001 8.39562C26.5001 8.39574 26.5001 8.39587 26.5001 8.39599C26.5001 8.39611 26.5001 8.39624 26.5001 8.39636C26.5001 8.39649 26.5001 8.39661 26.5001 8.39674C26.5001 8.39686 26.5001 8.39699 26.5001 8.39711C26.5001 8.39724 26.5001 8.39736 26.5001 8.39749C26.5001 8.39761 26.5001 8.39774 26.5001 8.39786C26.5001 8.39799 26.5001 8.39811 26.5001 8.39823C26.5001 8.39836 26.5001 8.39848 26.5001 8.39861C26.5001 8.39873 26.5001 8.39886 26.5001 8.39898C26.5001 8.39911 26.5001 8.39923 26.5001 8.39936C26.5001 8.39948 26.5001 8.39961 26.5001 8.39973C26.5001 8.39986 26.5001 8.39998 26.5001 8.40011C26.5001 8.40023 26.5001 8.40036 26.5001 8.40048C26.5001 8.4006 26.5001 8.40073 26.5001 8.40085C26.5001 8.40098 26.5001 8.4011 26.5001 8.40123C26.5001 8.40135 26.5001 8.40148 26.5001 8.4016C26.5001 8.40173 26.5001 8.40185 26.5001 8.40198C26.5001 8.4021 26.5001 8.40223 26.5001 8.40235C26.5001 8.40248 26.5001 8.4026 26.5001 8.40273C26.5001 8.40285 26.5001 8.40298 26.5001 8.4031C26.5001 8.40323 26.5001 8.40335 26.5001 8.40347C26.5001 8.4036 26.5001 8.40372 26.5001 8.40385C26.5001 8.40397 26.5001 8.4041 26.5001 8.40422C26.5001 8.40435 26.5001 8.40447 26.5001 8.4046C26.5001 8.40472 26.5001 8.40485 26.5001 8.40497C26.5001 8.4051 26.5001 8.40522 26.5001 8.40535C26.5001 8.40547 26.5001 8.4056 26.5001 8.40572C26.5001 8.40585 26.5001 8.40597 26.5001 8.4061C26.5001 8.40622 26.5001 8.40635 26.5001 8.40647C26.5001 8.4066 26.5001 8.40672 26.5001 8.40685C26.5001 8.40697 26.5001 8.4071 26.5001 8.40722C26.5001 8.40735 26.5001 8.40747 26.5001 8.40759C26.5001 8.40772 26.5001 8.40784 26.5001 8.40797C26.5001 8.40809 26.5001 8.40822 26.5001 8.40834C26.5001 8.40847 26.5001 8.40859 26.5001 8.40872C26.5001 8.40884 26.5001 8.40897 26.5001 8.40909C26.5001 8.40922 26.5001 8.40934 26.5001 8.40947C26.5001 8.40959 26.5001 8.40972 26.5001 8.40984C26.5001 8.40997 26.5001 8.41009 26.5001 8.41022C26.5001 8.41034 26.5001 8.41047 26.5001 8.41059C26.5001 8.41072 26.5001 8.41084 26.5001 8.41097C26.5001 8.41109 26.5001 8.41122 26.5001 8.41134C26.5001 8.41147 26.5001 8.41159 26.5001 8.41172C26.5001 8.41184 26.5001 8.41197 26.5001 8.41209C26.5001 8.41222 26.5001 8.41234 26.5001 8.41247C26.5001 8.41259 26.5001 8.41272 26.5001 8.41284C26.5001 8.41297 26.5001 8.41309 26.5001 8.41322C26.5001 8.41334 26.5001 8.41347 26.5001 8.41359C26.5001 8.41372 26.5001 8.41384 26.5001 8.41397C26.5001 8.41409 26.5001 8.41422 26.5001 8.41434C26.5001 8.41447 26.5001 8.41459 26.5001 8.41472C26.5001 8.41484 26.5001 8.41497 26.5001 8.41509C26.5001 8.41522 26.5001 8.41534 26.5001 8.41547C26.5001 8.41559 26.5001 8.41572 26.5001 8.41584C26.5001 8.41597 26.5001 8.41609 26.5001 8.41622C26.5001 8.41634 26.5001 8.41647 26.5001 8.41659C26.5001 8.41672 26.5001 8.41684 26.5001 8.41697C26.5001 8.41709 26.5001 8.41722 26.5001 8.41734C26.5001 8.41747 26.5001 8.41759 26.5001 8.41772C26.5001 8.41784 26.5001 8.41797 26.5001 8.41809C26.5001 8.41822 26.5001 8.41834 26.5001 8.41847C26.5001 8.41859 26.5001 8.41872 26.5001 8.41884C26.5001 8.41897 26.5001 8.41909 26.5001 8.41922C26.5001 8.41934 26.5001 8.41947 26.5001 8.4196C26.5001 8.41972 26.5001 8.41985 26.5001 8.41997C26.5001 8.4201 26.5001 8.42022 26.5001 8.42035C26.5001 8.42047 26.5001 8.4206 26.5001 8.42072C26.5001 8.42085 26.5001 8.42097 26.5001 8.4211C26.5001 8.42122 26.5001 8.42135 26.5001 8.42147C26.5001 8.4216 26.5001 8.42172 26.5001 8.42185C26.5001 8.42197 26.5001 8.4221 26.5001 8.42222C26.5001 8.42235 26.5001 8.42247 26.5001 8.4226C26.5001 8.42272 26.5001 8.42285 26.5001 8.42297C26.5001 8.4231 26.5001 8.42322 26.5001 8.42335C26.5001 8.42347 26.5001 8.4236 26.5001 8.42373C26.5001 8.42385 26.5001 8.42398 26.5001 8.4241C26.5001 8.42423 26.5001 8.42435 26.5001 8.42448C26.5001 8.4246 26.5001 8.42473 26.5001 8.42485C26.5001 8.42498 26.5001 8.4251 26.5001 8.42523C26.5001 8.42535 26.5001 8.42548 26.5001 8.4256C26.5001 8.42573 26.5001 8.42585 26.5001 8.42598C26.5001 8.4261 26.5001 8.42623 26.5001 8.42635C26.5001 8.42648 26.5001 8.42661 26.5001 8.42673C26.5001 8.42686 26.5001 8.42698 26.5001 8.42711C26.5001 8.42723 26.5001 8.42736 26.5001 8.42748C26.5001 8.42761 26.5001 8.42773 26.5001 8.42786C26.5001 8.42798 26.5001 8.42811 26.5001 8.42823C26.5001 8.42836 26.5001 8.42848 26.5001 8.42861C26.5001 8.42873 26.5001 8.42886 26.5001 8.42899C26.5001 8.42911 26.5001 8.42924 26.5001 8.42936C26.5001 8.42949 26.5001 8.42961 26.5001 8.42974C26.5001 8.42986 26.5001 8.42999 26.5001 8.43011C26.5001 8.43024 26.5001 8.43036 26.5001 8.43049C26.5001 8.43061 26.5001 8.43074 26.5001 8.43087C26.5001 8.43099 26.5001 8.43112 26.5001 8.43124C26.5001 8.43137 26.5001 8.43149 26.5001 8.43162C26.5001 8.43174 26.5001 8.43187 26.5001 8.43199C26.5001 8.43212 26.5001 8.43224 26.5001 8.43237C26.5001 8.43249 26.5001 8.43262 26.5001 8.43275C26.5001 8.43287 26.5001 8.433 26.5001 8.43312C26.5001 8.43325 26.5001 8.43337 26.5001 8.4335C26.5001 8.43362 26.5001 8.43375 26.5001 8.43387C26.5001 8.434 26.5001 8.43412 26.5001 8.43425C26.5001 8.43438 26.5001 8.4345 26.5001 8.43463C26.5001 8.43475 26.5001 8.43488 26.5001 8.435C26.5001 8.43513 26.5001 8.43525 26.5001 8.43538C26.5001 8.4355 26.5001 8.43563 26.5001 8.43575C26.5001 8.43588 26.5001 8.43601 26.5001 8.43613C26.5001 8.43626 26.5001 8.43638 26.5001 8.43651C26.5001 8.43663 26.5001 8.43676 26.5001 8.43688C26.5001 8.43701 26.5001 8.43713 26.5001 8.43726C26.5001 8.43739 26.5001 8.43751 26.5001 8.43764C26.5001 8.43776 26.5001 8.43789 26.5001 8.43801C26.5001 8.43814 26.5001 8.43826 26.5001 8.43839C26.5001 8.43851 26.5001 8.43864 26.5001 8.43877C26.5001 8.43889 26.5001 8.43902 26.5001 8.43914C26.5001 8.43927 26.5001 8.43939 26.5001 8.43952C26.5001 8.43964 26.5001 8.43977 26.5001 8.4399C26.5001 8.44002 26.5001 8.44015 26.5001 8.44027C26.5001 8.4404 26.5001 8.44052 26.5001 8.44065C26.5001 8.44077 26.5001 8.4409 26.5001 8.44102C26.5001 8.44115 26.5001 8.44128 26.5001 8.4414C26.5001 8.44153 26.5001 8.44165 26.5001 8.44178C26.5001 8.4419 26.5001 8.44203 26.5001 8.44215C26.5001 8.44228 26.5001 8.44241 26.5001 8.44253C26.5001 8.44266 26.5001 8.44278 26.5001 8.44291C26.5001 8.44303 26.5001 8.44316 26.5001 8.44328C26.5001 8.44341 26.5001 8.44354 26.5001 8.44366C26.5001 8.44379 26.5001 8.44391 26.5001 8.44404C26.5001 8.44416 26.5001 8.44429 26.5001 8.44441C26.5001 8.44454 26.5001 8.44467 26.5001 8.44479C26.5001 8.44492 26.5001 8.44504 26.5001 8.44517C26.5001 8.44529 26.5001 8.44542 26.5001 8.44554C26.5001 8.44567 26.5001 8.4458 26.5001 8.44592C26.5001 8.44605 26.5001 8.44617 26.5001 8.4463C26.5001 8.44642 26.5001 8.44655 26.5001 8.44668C26.5001 8.4468 26.5001 8.44693 26.5001 8.44705C26.5001 8.44718 26.5001 8.4473 26.5001 8.44743C26.5001 8.44755 26.5001 8.44768 26.5001 8.44781C26.5001 8.44793 26.5001 8.44806 26.5001 8.44818C26.5001 8.44831 26.5001 8.44843 26.5001 8.44856C26.5001 8.44869 26.5001 8.44881 26.5001 8.44894C26.5001 8.44906 26.5001 8.44919 26.5001 8.44931C26.5001 8.44944 26.5001 8.44957 26.5001 8.44969C26.5001 8.44982 26.5001 8.44994 26.5001 8.45007C26.5001 8.45019 26.5001 8.45032 26.5001 8.45045C26.5001 8.45057 26.5001 8.4507 26.5001 8.45082C26.5001 8.45095 26.5001 8.45107 26.5001 8.4512C26.5001 8.45132 26.5001 8.45145 26.5001 8.45158C26.5001 8.4517 26.5001 8.45183 26.5001 8.45195C26.5001 8.45208 26.5001 8.45221 26.5001 8.45233C26.5001 8.45246 26.5001 8.45258 26.5001 8.45271C26.5001 8.45283 26.5001 8.45296 26.5001 8.45309C26.5001 8.45321 26.5001 8.45334 26.5001 8.45346C26.5001 8.45359 26.5001 8.45371 26.5001 8.45384C26.5001 8.45397 26.5001 8.45409 26.5001 8.45422C26.5001 8.45434 26.5001 8.45447 26.5001 8.45459C26.5001 8.45472 26.5001 8.45485 26.5001 8.45497C26.5001 8.4551 26.5001 8.45522 26.5001 8.45535C26.5001 8.45547 26.5001 8.4556 26.5001 8.45573C26.5001 8.45585 26.5001 8.45598 26.5001 8.4561C26.5001 8.45623 26.5001 8.45636 26.5001 8.45648C26.5001 8.45661 26.5001 8.45673 26.5001 8.45686C26.5001 8.45698 26.5001 8.45711 26.5001 8.45724C26.5001 8.45736 26.5001 8.45749 26.5001 8.45761C26.5001 8.45774 26.5001 8.45787 26.5001 8.45799C26.5001 8.45812 26.5001 8.45824 26.5001 8.45837C26.5001 8.45849 26.5001 8.45862 26.5001 8.45875C26.5001 8.45887 26.5001 8.459 26.5001 8.45912C26.5001 8.45925 26.5001 8.45938 26.5001 8.4595C26.5001 8.45963 26.5001 8.45975 26.5001 8.45988C26.5001 8.46 26.5001 8.46013 26.5001 8.46026C26.5001 8.46038 26.5001 8.46051 26.5001 8.46063C26.5001 8.46076 26.5001 8.46089 26.5001 8.46101C26.5001 8.46114 26.5001 8.46126 26.5001 8.46139C26.5001 8.46152 26.5001 8.46164 26.5001 8.46177C26.5001 8.46189 26.5001 8.46202 26.5001 8.46215C26.5001 8.46227 26.5001 8.4624 26.5001 8.46252C26.5001 8.46265 26.5001 8.46277 26.5001 8.4629C26.5001 8.46303 26.5001 8.46315 26.5001 8.46328C26.5001 8.4634 26.5001 8.46353 26.5001 8.46366C26.5001 8.46378 26.5001 8.46391 26.5001 8.46403C26.5001 8.46416 26.5001 8.46429 26.5001 8.46441C26.5001 8.46454 26.5001 8.46466 26.5001 8.46479C26.5001 8.46492 26.5001 8.46504 26.5001 8.46517C26.5001 8.46529 26.5001 8.46542 26.5001 8.46555C26.5001 8.46567 26.5001 8.4658 26.5001 8.46592C26.5001 8.46605 26.5001 8.46618 26.5001 8.4663C26.5001 8.46643 26.5001 8.46655 26.5001 8.46668C26.5001 8.46681 26.5001 8.46693 26.5001 8.46706C26.5001 8.46718 26.5001 8.46731 26.5001 8.46744C26.5001 8.46756 26.5001 8.46769 26.5001 8.46781C26.5001 8.46794 26.5001 8.46807 26.5001 8.46819C26.5001 8.46832 26.5001 8.46844 26.5001 8.46857C26.5001 8.4687 26.5001 8.46882 26.5001 8.46895C26.5001 8.46907 26.5001 8.4692 26.5001 8.46933C26.5001 8.46945 26.5001 8.46958 26.5001 8.4697C26.5001 8.46983 26.5001 8.46996 26.5001 8.47008C26.5001 8.47021 26.5001 8.47034 26.5001 8.47046C26.5001 8.47059 26.5001 8.47071 26.5001 8.47084C26.5001 8.47097 26.5001 8.47109 26.5001 8.47122C26.5001 8.47134 26.5001 8.47147 26.5001 8.4716C26.5001 8.47172 26.5001 8.47185 26.5001 8.47197C26.5001 8.4721 26.5001 8.47223 26.5001 8.47235C26.5001 8.47248 26.5001 8.4726 26.5001 8.47273C26.5001 8.47286 26.5001 8.47298 26.5001 8.47311C26.5001 8.47324 26.5001 8.47336 26.5001 8.47349C26.5001 8.47361 26.5001 8.47374 26.5001 8.47387C26.5001 8.47399 26.5001 8.47412 26.5001 8.47424C26.5001 8.47437 26.5001 8.4745 26.5001 8.47462C26.5001 8.47475 26.5001 8.47487 26.5001 8.475C26.5001 8.47513 26.5001 8.47525 26.5001 8.47538C26.5001 8.47551 26.5001 8.47563 26.5001 8.47576C26.5001 8.47588 26.5001 8.47601 26.5001 8.47614C26.5001 8.47626 26.5001 8.47639 26.5001 8.47652C26.5001 8.47664 26.5001 8.47677 26.5001 8.47689C26.5001 8.47702 26.5001 8.47715 26.5001 8.47727C26.5001 8.4774 26.5001 8.47752 26.5001 8.47765C26.5001 8.47778 26.5001 8.4779 26.5001 8.47803C26.5001 8.47816 26.5001 8.47828 26.5001 8.47841C26.5001 8.47853 26.5001 8.47866 26.5001 8.47879C26.5001 8.47891 26.5001 8.47904 26.5001 8.47917C26.5001 8.47929 26.5001 8.47942 26.5001 8.47954C26.5001 8.47967 26.5001 8.4798 26.5001 8.47992C26.5001 8.48005 26.5001 8.48018 26.5001 8.4803C26.5001 8.48043 26.5001 8.48055 26.5001 8.48068C26.5001 8.48081 26.5001 8.48093 26.5001 8.48106C26.5001 8.48119 26.5001 8.48131 26.5001 8.48144C26.5001 8.48156 26.5001 8.48169 26.5001 8.48182C26.5001 8.48194 26.5001 8.48207 26.5001 8.4822C26.5001 8.48232 26.5001 8.48245 26.5001 8.48257C26.5001 8.4827 26.5001 8.48283 26.5001 8.48295C26.5001 8.48308 26.5001 8.48321 26.5001 8.48333C26.5001 8.48346 26.5001 8.48359 26.5001 8.48371C26.5001 8.48384 26.5001 8.48396 26.5001 8.48409C26.5001 8.48422 26.5001 8.48434 26.5001 8.48447C26.5001 8.4846 26.5001 8.48472 26.5001 8.48485C26.5001 8.48498 26.5001 8.4851 26.5001 8.48523C26.5001 8.48535 26.5001 8.48548 26.5001 8.48561C26.5001 8.48573 26.5001 8.48586 26.5001 8.48599C26.5001 8.48611 26.5001 8.48624 26.5001 8.48637C26.5001 8.48649 26.5001 8.48662 26.5001 8.48674C26.5001 8.48687 26.5001 8.487 26.5001 8.48712C26.5001 8.48725 26.5001 8.48738 26.5001 8.4875C26.5001 8.48763 26.5001 8.48776 26.5001 8.48788C26.5001 8.48801 26.5001 8.48813 26.5001 8.48826C26.5001 8.48839 26.5001 8.48851 26.5001 8.48864C26.5001 8.48877 26.5001 8.48889 26.5001 8.48902C26.5001 8.48915 26.5001 8.48927 26.5001 8.4894C26.5001 8.48953 26.5001 8.48965 26.5001 8.48978C26.5001 8.4899 26.5001 8.49003 26.5001 8.49016C26.5001 8.49028 26.5001 8.49041 26.5001 8.49054C26.5001 8.49066 26.5001 8.49079 26.5001 8.49092H29.0001H31.5001C31.5001 8.49079 31.5001 8.49066 31.5001 8.49054C31.5001 8.49041 31.5001 8.49028 31.5001 8.49016C31.5001 8.49003 31.5001 8.4899 31.5001 8.48978C31.5001 8.48965 31.5001 8.48953 31.5001 8.4894C31.5001 8.48927 31.5001 8.48915 31.5001 8.48902C31.5001 8.48889 31.5001 8.48877 31.5001 8.48864C31.5001 8.48851 31.5001 8.48839 31.5001 8.48826C31.5001 8.48813 31.5001 8.48801 31.5001 8.48788C31.5001 8.48776 31.5001 8.48763 31.5001 8.4875C31.5001 8.48738 31.5001 8.48725 31.5001 8.48712C31.5001 8.487 31.5001 8.48687 31.5001 8.48674C31.5001 8.48662 31.5001 8.48649 31.5001 8.48637C31.5001 8.48624 31.5001 8.48611 31.5001 8.48599C31.5001 8.48586 31.5001 8.48573 31.5001 8.48561C31.5001 8.48548 31.5001 8.48535 31.5001 8.48523C31.5001 8.4851 31.5001 8.48498 31.5001 8.48485C31.5001 8.48472 31.5001 8.4846 31.5001 8.48447C31.5001 8.48434 31.5001 8.48422 31.5001 8.48409C31.5001 8.48396 31.5001 8.48384 31.5001 8.48371C31.5001 8.48359 31.5001 8.48346 31.5001 8.48333C31.5001 8.48321 31.5001 8.48308 31.5001 8.48295C31.5001 8.48283 31.5001 8.4827 31.5001 8.48257C31.5001 8.48245 31.5001 8.48232 31.5001 8.4822C31.5001 8.48207 31.5001 8.48194 31.5001 8.48182C31.5001 8.48169 31.5001 8.48156 31.5001 8.48144C31.5001 8.48131 31.5001 8.48119 31.5001 8.48106C31.5001 8.48093 31.5001 8.48081 31.5001 8.48068C31.5001 8.48055 31.5001 8.48043 31.5001 8.4803C31.5001 8.48018 31.5001 8.48005 31.5001 8.47992C31.5001 8.4798 31.5001 8.47967 31.5001 8.47954C31.5001 8.47942 31.5001 8.47929 31.5001 8.47917C31.5001 8.47904 31.5001 8.47891 31.5001 8.47879C31.5001 8.47866 31.5001 8.47853 31.5001 8.47841C31.5001 8.47828 31.5001 8.47816 31.5001 8.47803C31.5001 8.4779 31.5001 8.47778 31.5001 8.47765C31.5001 8.47752 31.5001 8.4774 31.5001 8.47727C31.5001 8.47715 31.5001 8.47702 31.5001 8.47689C31.5001 8.47677 31.5001 8.47664 31.5001 8.47652C31.5001 8.47639 31.5001 8.47626 31.5001 8.47614C31.5001 8.47601 31.5001 8.47588 31.5001 8.47576C31.5001 8.47563 31.5001 8.47551 31.5001 8.47538C31.5001 8.47525 31.5001 8.47513 31.5001 8.475C31.5001 8.47487 31.5001 8.47475 31.5001 8.47462C31.5001 8.4745 31.5001 8.47437 31.5001 8.47424C31.5001 8.47412 31.5001 8.47399 31.5001 8.47387C31.5001 8.47374 31.5001 8.47361 31.5001 8.47349C31.5001 8.47336 31.5001 8.47324 31.5001 8.47311C31.5001 8.47298 31.5001 8.47286 31.5001 8.47273C31.5001 8.4726 31.5001 8.47248 31.5001 8.47235C31.5001 8.47223 31.5001 8.4721 31.5001 8.47197C31.5001 8.47185 31.5001 8.47172 31.5001 8.4716C31.5001 8.47147 31.5001 8.47134 31.5001 8.47122C31.5001 8.47109 31.5001 8.47097 31.5001 8.47084C31.5001 8.47071 31.5001 8.47059 31.5001 8.47046C31.5001 8.47034 31.5001 8.47021 31.5001 8.47008C31.5001 8.46996 31.5001 8.46983 31.5001 8.4697C31.5001 8.46958 31.5001 8.46945 31.5001 8.46933C31.5001 8.4692 31.5001 8.46907 31.5001 8.46895C31.5001 8.46882 31.5001 8.4687 31.5001 8.46857C31.5001 8.46844 31.5001 8.46832 31.5001 8.46819C31.5001 8.46807 31.5001 8.46794 31.5001 8.46781C31.5001 8.46769 31.5001 8.46756 31.5001 8.46744C31.5001 8.46731 31.5001 8.46718 31.5001 8.46706C31.5001 8.46693 31.5001 8.46681 31.5001 8.46668C31.5001 8.46655 31.5001 8.46643 31.5001 8.4663C31.5001 8.46618 31.5001 8.46605 31.5001 8.46592C31.5001 8.4658 31.5001 8.46567 31.5001 8.46555C31.5001 8.46542 31.5001 8.46529 31.5001 8.46517C31.5001 8.46504 31.5001 8.46492 31.5001 8.46479C31.5001 8.46466 31.5001 8.46454 31.5001 8.46441C31.5001 8.46429 31.5001 8.46416 31.5001 8.46403C31.5001 8.46391 31.5001 8.46378 31.5001 8.46366C31.5001 8.46353 31.5001 8.4634 31.5001 8.46328C31.5001 8.46315 31.5001 8.46303 31.5001 8.4629C31.5001 8.46277 31.5001 8.46265 31.5001 8.46252C31.5001 8.4624 31.5001 8.46227 31.5001 8.46215C31.5001 8.46202 31.5001 8.46189 31.5001 8.46177C31.5001 8.46164 31.5001 8.46152 31.5001 8.46139C31.5001 8.46126 31.5001 8.46114 31.5001 8.46101C31.5001 8.46089 31.5001 8.46076 31.5001 8.46063C31.5001 8.46051 31.5001 8.46038 31.5001 8.46026C31.5001 8.46013 31.5001 8.46 31.5001 8.45988C31.5001 8.45975 31.5001 8.45963 31.5001 8.4595C31.5001 8.45938 31.5001 8.45925 31.5001 8.45912C31.5001 8.459 31.5001 8.45887 31.5001 8.45875C31.5001 8.45862 31.5001 8.45849 31.5001 8.45837C31.5001 8.45824 31.5001 8.45812 31.5001 8.45799C31.5001 8.45787 31.5001 8.45774 31.5001 8.45761C31.5001 8.45749 31.5001 8.45736 31.5001 8.45724C31.5001 8.45711 31.5001 8.45698 31.5001 8.45686C31.5001 8.45673 31.5001 8.45661 31.5001 8.45648C31.5001 8.45636 31.5001 8.45623 31.5001 8.4561C31.5001 8.45598 31.5001 8.45585 31.5001 8.45573C31.5001 8.4556 31.5001 8.45547 31.5001 8.45535C31.5001 8.45522 31.5001 8.4551 31.5001 8.45497C31.5001 8.45485 31.5001 8.45472 31.5001 8.45459C31.5001 8.45447 31.5001 8.45434 31.5001 8.45422C31.5001 8.45409 31.5001 8.45397 31.5001 8.45384C31.5001 8.45371 31.5001 8.45359 31.5001 8.45346C31.5001 8.45334 31.5001 8.45321 31.5001 8.45309C31.5001 8.45296 31.5001 8.45283 31.5001 8.45271C31.5001 8.45258 31.5001 8.45246 31.5001 8.45233C31.5001 8.45221 31.5001 8.45208 31.5001 8.45195C31.5001 8.45183 31.5001 8.4517 31.5001 8.45158C31.5001 8.45145 31.5001 8.45132 31.5001 8.4512C31.5001 8.45107 31.5001 8.45095 31.5001 8.45082C31.5001 8.4507 31.5001 8.45057 31.5001 8.45045C31.5001 8.45032 31.5001 8.45019 31.5001 8.45007C31.5001 8.44994 31.5001 8.44982 31.5001 8.44969C31.5001 8.44957 31.5001 8.44944 31.5001 8.44931C31.5001 8.44919 31.5001 8.44906 31.5001 8.44894C31.5001 8.44881 31.5001 8.44869 31.5001 8.44856C31.5001 8.44843 31.5001 8.44831 31.5001 8.44818C31.5001 8.44806 31.5001 8.44793 31.5001 8.44781C31.5001 8.44768 31.5001 8.44755 31.5001 8.44743C31.5001 8.4473 31.5001 8.44718 31.5001 8.44705C31.5001 8.44693 31.5001 8.4468 31.5001 8.44668C31.5001 8.44655 31.5001 8.44642 31.5001 8.4463C31.5001 8.44617 31.5001 8.44605 31.5001 8.44592C31.5001 8.4458 31.5001 8.44567 31.5001 8.44554C31.5001 8.44542 31.5001 8.44529 31.5001 8.44517C31.5001 8.44504 31.5001 8.44492 31.5001 8.44479C31.5001 8.44467 31.5001 8.44454 31.5001 8.44441C31.5001 8.44429 31.5001 8.44416 31.5001 8.44404C31.5001 8.44391 31.5001 8.44379 31.5001 8.44366C31.5001 8.44354 31.5001 8.44341 31.5001 8.44328C31.5001 8.44316 31.5001 8.44303 31.5001 8.44291C31.5001 8.44278 31.5001 8.44266 31.5001 8.44253C31.5001 8.44241 31.5001 8.44228 31.5001 8.44215C31.5001 8.44203 31.5001 8.4419 31.5001 8.44178C31.5001 8.44165 31.5001 8.44153 31.5001 8.4414C31.5001 8.44128 31.5001 8.44115 31.5001 8.44102C31.5001 8.4409 31.5001 8.44077 31.5001 8.44065C31.5001 8.44052 31.5001 8.4404 31.5001 8.44027C31.5001 8.44015 31.5001 8.44002 31.5001 8.4399C31.5001 8.43977 31.5001 8.43964 31.5001 8.43952C31.5001 8.43939 31.5001 8.43927 31.5001 8.43914C31.5001 8.43902 31.5001 8.43889 31.5001 8.43877C31.5001 8.43864 31.5001 8.43851 31.5001 8.43839C31.5001 8.43826 31.5001 8.43814 31.5001 8.43801C31.5001 8.43789 31.5001 8.43776 31.5001 8.43764C31.5001 8.43751 31.5001 8.43739 31.5001 8.43726C31.5001 8.43713 31.5001 8.43701 31.5001 8.43688C31.5001 8.43676 31.5001 8.43663 31.5001 8.43651C31.5001 8.43638 31.5001 8.43626 31.5001 8.43613C31.5001 8.43601 31.5001 8.43588 31.5001 8.43575C31.5001 8.43563 31.5001 8.4355 31.5001 8.43538C31.5001 8.43525 31.5001 8.43513 31.5001 8.435C31.5001 8.43488 31.5001 8.43475 31.5001 8.43463C31.5001 8.4345 31.5001 8.43438 31.5001 8.43425C31.5001 8.43412 31.5001 8.434 31.5001 8.43387C31.5001 8.43375 31.5001 8.43362 31.5001 8.4335C31.5001 8.43337 31.5001 8.43325 31.5001 8.43312C31.5001 8.433 31.5001 8.43287 31.5001 8.43275C31.5001 8.43262 31.5001 8.43249 31.5001 8.43237C31.5001 8.43224 31.5001 8.43212 31.5001 8.43199C31.5001 8.43187 31.5001 8.43174 31.5001 8.43162C31.5001 8.43149 31.5001 8.43137 31.5001 8.43124C31.5001 8.43112 31.5001 8.43099 31.5001 8.43087C31.5001 8.43074 31.5001 8.43061 31.5001 8.43049C31.5001 8.43036 31.5001 8.43024 31.5001 8.43011C31.5001 8.42999 31.5001 8.42986 31.5001 8.42974C31.5001 8.42961 31.5001 8.42949 31.5001 8.42936C31.5001 8.42924 31.5001 8.42911 31.5001 8.42899C31.5001 8.42886 31.5001 8.42873 31.5001 8.42861C31.5001 8.42848 31.5001 8.42836 31.5001 8.42823C31.5001 8.42811 31.5001 8.42798 31.5001 8.42786C31.5001 8.42773 31.5001 8.42761 31.5001 8.42748C31.5001 8.42736 31.5001 8.42723 31.5001 8.42711C31.5001 8.42698 31.5001 8.42686 31.5001 8.42673C31.5001 8.42661 31.5001 8.42648 31.5001 8.42635C31.5001 8.42623 31.5001 8.4261 31.5001 8.42598C31.5001 8.42585 31.5001 8.42573 31.5001 8.4256C31.5001 8.42548 31.5001 8.42535 31.5001 8.42523C31.5001 8.4251 31.5001 8.42498 31.5001 8.42485C31.5001 8.42473 31.5001 8.4246 31.5001 8.42448C31.5001 8.42435 31.5001 8.42423 31.5001 8.4241C31.5001 8.42398 31.5001 8.42385 31.5001 8.42373C31.5001 8.4236 31.5001 8.42347 31.5001 8.42335C31.5001 8.42322 31.5001 8.4231 31.5001 8.42297C31.5001 8.42285 31.5001 8.42272 31.5001 8.4226C31.5001 8.42247 31.5001 8.42235 31.5001 8.42222C31.5001 8.4221 31.5001 8.42197 31.5001 8.42185C31.5001 8.42172 31.5001 8.4216 31.5001 8.42147C31.5001 8.42135 31.5001 8.42122 31.5001 8.4211C31.5001 8.42097 31.5001 8.42085 31.5001 8.42072C31.5001 8.4206 31.5001 8.42047 31.5001 8.42035C31.5001 8.42022 31.5001 8.4201 31.5001 8.41997C31.5001 8.41985 31.5001 8.41972 31.5001 8.4196C31.5001 8.41947 31.5001 8.41934 31.5001 8.41922C31.5001 8.41909 31.5001 8.41897 31.5001 8.41884C31.5001 8.41872 31.5001 8.41859 31.5001 8.41847C31.5001 8.41834 31.5001 8.41822 31.5001 8.41809C31.5001 8.41797 31.5001 8.41784 31.5001 8.41772C31.5001 8.41759 31.5001 8.41747 31.5001 8.41734C31.5001 8.41722 31.5001 8.41709 31.5001 8.41697C31.5001 8.41684 31.5001 8.41672 31.5001 8.41659C31.5001 8.41647 31.5001 8.41634 31.5001 8.41622C31.5001 8.41609 31.5001 8.41597 31.5001 8.41584C31.5001 8.41572 31.5001 8.41559 31.5001 8.41547C31.5001 8.41534 31.5001 8.41522 31.5001 8.41509C31.5001 8.41497 31.5001 8.41484 31.5001 8.41472C31.5001 8.41459 31.5001 8.41447 31.5001 8.41434C31.5001 8.41422 31.5001 8.41409 31.5001 8.41397C31.5001 8.41384 31.5001 8.41372 31.5001 8.41359C31.5001 8.41347 31.5001 8.41334 31.5001 8.41322C31.5001 8.41309 31.5001 8.41297 31.5001 8.41284C31.5001 8.41272 31.5001 8.41259 31.5001 8.41247C31.5001 8.41234 31.5001 8.41222 31.5001 8.41209C31.5001 8.41197 31.5001 8.41184 31.5001 8.41172C31.5001 8.41159 31.5001 8.41147 31.5001 8.41134C31.5001 8.41122 31.5001 8.41109 31.5001 8.41097C31.5001 8.41084 31.5001 8.41072 31.5001 8.41059C31.5001 8.41047 31.5001 8.41034 31.5001 8.41022C31.5001 8.41009 31.5001 8.40997 31.5001 8.40984C31.5001 8.40972 31.5001 8.40959 31.5001 8.40947C31.5001 8.40934 31.5001 8.40922 31.5001 8.40909C31.5001 8.40897 31.5001 8.40884 31.5001 8.40872C31.5001 8.40859 31.5001 8.40847 31.5001 8.40834C31.5001 8.40822 31.5001 8.40809 31.5001 8.40797C31.5001 8.40784 31.5001 8.40772 31.5001 8.40759C31.5001 8.40747 31.5001 8.40735 31.5001 8.40722C31.5001 8.4071 31.5001 8.40697 31.5001 8.40685C31.5001 8.40672 31.5001 8.4066 31.5001 8.40647C31.5001 8.40635 31.5001 8.40622 31.5001 8.4061C31.5001 8.40597 31.5001 8.40585 31.5001 8.40572C31.5001 8.4056 31.5001 8.40547 31.5001 8.40535C31.5001 8.40522 31.5001 8.4051 31.5001 8.40497C31.5001 8.40485 31.5001 8.40472 31.5001 8.4046C31.5001 8.40447 31.5001 8.40435 31.5001 8.40422C31.5001 8.4041 31.5001 8.40397 31.5001 8.40385C31.5001 8.40372 31.5001 8.4036 31.5001 8.40347C31.5001 8.40335 31.5001 8.40323 31.5001 8.4031C31.5001 8.40298 31.5001 8.40285 31.5001 8.40273C31.5001 8.4026 31.5001 8.40248 31.5001 8.40235C31.5001 8.40223 31.5001 8.4021 31.5001 8.40198C31.5001 8.40185 31.5001 8.40173 31.5001 8.4016C31.5001 8.40148 31.5001 8.40135 31.5001 8.40123C31.5001 8.4011 31.5001 8.40098 31.5001 8.40085C31.5001 8.40073 31.5001 8.4006 31.5001 8.40048C31.5001 8.40036 31.5001 8.40023 31.5001 8.40011C31.5001 8.39998 31.5001 8.39986 31.5001 8.39973C31.5001 8.39961 31.5001 8.39948 31.5001 8.39936C31.5001 8.39923 31.5001 8.39911 31.5001 8.39898C31.5001 8.39886 31.5001 8.39873 31.5001 8.39861C31.5001 8.39848 31.5001 8.39836 31.5001 8.39823C31.5001 8.39811 31.5001 8.39799 31.5001 8.39786C31.5001 8.39774 31.5001 8.39761 31.5001 8.39749C31.5001 8.39736 31.5001 8.39724 31.5001 8.39711C31.5001 8.39699 31.5001 8.39686 31.5001 8.39674C31.5001 8.39661 31.5001 8.39649 31.5001 8.39636C31.5001 8.39624 31.5001 8.39611 31.5001 8.39599C31.5001 8.39587 31.5001 8.39574 31.5001 8.39562C31.5001 8.39549 31.5001 8.39537 31.5001 8.39524C31.5001 8.39512 31.5001 8.39499 31.5001 8.39487C31.5001 8.39474 31.5001 8.39462 31.5001 8.39449C31.5001 8.39437 31.5001 8.39425 31.5001 8.39412C31.5001 8.394 31.5001 8.39387 31.5001 8.39375C31.5001 8.39362 31.5001 8.3935 31.5001 8.39337C31.5001 8.39325 31.5001 8.39312 31.5001 8.393C31.5001 8.39287 31.5001 8.39275 31.5001 8.39263C31.5001 8.3925 31.5001 8.39238 31.5001 8.39225C31.5001 8.39213 31.5001 8.392 31.5001 8.39188C31.5001 8.39175 31.5001 8.39163 31.5001 8.3915C31.5001 8.39138 31.5001 8.39125 31.5001 8.39113C31.5001 8.39101 31.5001 8.39088 31.5001 8.39076C31.5001 8.39063 31.5001 8.39051 31.5001 8.39038C31.5001 8.39026 31.5001 8.39013 31.5001 8.39001C31.5001 8.38988 31.5001 8.38976 31.5001 8.38964C31.5001 8.38951 31.5001 8.38939 31.5001 8.38926C31.5001 8.38914 31.5001 8.38901 31.5001 8.38889C31.5001 8.38876 31.5001 8.38864 31.5001 8.38851C31.5001 8.38839 31.5001 8.38827 31.5001 8.38814C31.5001 8.38802 31.5001 8.38789 31.5001 8.38777C31.5001 8.38764 31.5001 8.38752 31.5001 8.38739C31.5001 8.38727 31.5001 8.38714 31.5001 8.38702C31.5001 8.3869 31.5001 8.38677 31.5001 8.38665C31.5001 8.38652 31.5001 8.3864 31.5001 8.38627C31.5001 8.38615 31.5001 8.38602 31.5001 8.3859C31.5001 8.38578 31.5001 8.38565 31.5001 8.38553C31.5001 8.3854 31.5001 8.38528 31.5001 8.38515C31.5001 8.38503 31.5001 8.3849 31.5001 8.38478C31.5001 8.38465 31.5001 8.38453 31.5001 8.38441C31.5001 8.38428 31.5001 8.38416 31.5001 8.38403C31.5001 8.38391 31.5001 8.38378 31.5001 8.38366C31.5001 8.38353 31.5001 8.38341 31.5001 8.38329C31.5001 8.38316 31.5001 8.38304 31.5001 8.38291C31.5001 8.38279 31.5001 8.38266 31.5001 8.38254C31.5001 8.38242 31.5001 8.38229 31.5001 8.38217C31.5001 8.38204 31.5001 8.38192 31.5001 8.38179C31.5001 8.38167 31.5001 8.38154 31.5001 8.38142C31.5001 8.3813 31.5001 8.38117 31.5001 8.38105C31.5001 8.38092 31.5001 8.3808 31.5001 8.38067C31.5001 8.38055 31.5001 8.38042 31.5001 8.3803C31.5001 8.38018 31.5001 8.38005 31.5001 8.37993C31.5001 8.3798 31.5001 8.37968 31.5001 8.37955C31.5001 8.37943 31.5001 8.37931 31.5001 8.37918C31.5001 8.37906 31.5001 8.37893 31.5001 8.37881C31.5001 8.37868 31.5001 8.37856 31.5001 8.37844C31.5001 8.37831 31.5001 8.37819 31.5001 8.37806C31.5001 8.37794 31.5001 8.37781 31.5001 8.37769C31.5001 8.37756 31.5001 8.37744 31.5001 8.37732C31.5001 8.37719 31.5001 8.37707 31.5001 8.37694C31.5001 8.37682 31.5001 8.37669 31.5001 8.37657C31.5001 8.37645 31.5001 8.37632 31.5001 8.3762C31.5001 8.37607 31.5001 8.37595 31.5001 8.37582C31.5001 8.3757 31.5001 8.37558 31.5001 8.37545C31.5001 8.37533 31.5001 8.3752 31.5001 8.37508C31.5001 8.37495 31.5001 8.37483 31.5001 8.37471C31.5001 8.37458 31.5001 8.37446 31.5001 8.37433C31.5001 8.37421 31.5001 8.37408 31.5001 8.37396C31.5001 8.37384 31.5001 8.37371 31.5001 8.37359C31.5001 8.37346 31.5001 8.37334 31.5001 8.37322C31.5001 8.37309 31.5001 8.37297 31.5001 8.37284C31.5001 8.37272 31.5001 8.37259 31.5001 8.37247C31.5001 8.37235 31.5001 8.37222 31.5001 8.3721C31.5001 8.37197 31.5001 8.37185 31.5001 8.37172C31.5001 8.3716 31.5001 8.37148 31.5001 8.37135C31.5001 8.37123 31.5001 8.3711 31.5001 8.37098C31.5001 8.37085 31.5001 8.37073 31.5001 8.37061C31.5001 8.37048 31.5001 8.37036 31.5001 8.37023C31.5001 8.37011 31.5001 8.36999 31.5001 8.36986C31.5001 8.36974 31.5001 8.36961 31.5001 8.36949C31.5001 8.36936 31.5001 8.36924 31.5001 8.36912C31.5001 8.36899 31.5001 8.36887 31.5001 8.36874C31.5001 8.36862 31.5001 8.3685 31.5001 8.36837C31.5001 8.36825 31.5001 8.36812 31.5001 8.368C31.5001 8.36788 31.5001 8.36775 31.5001 8.36763C31.5001 8.3675 31.5001 8.36738 31.5001 8.36725C31.5001 8.36713 31.5001 8.36701 31.5001 8.36688C31.5001 8.36676 31.5001 8.36663 31.5001 8.36651C31.5001 8.36639 31.5001 8.36626 31.5001 8.36614C31.5001 8.36601 31.5001 8.36589 31.5001 8.36577C31.5001 8.36564 31.5001 8.36552 31.5001 8.36539C31.5001 8.36527 31.5001 8.36514 31.5001 8.36502C31.5001 8.3649 31.5001 8.36477 31.5001 8.36465C31.5001 8.36452 31.5001 8.3644 31.5001 8.36428C31.5001 8.36415 31.5001 8.36403 31.5001 8.3639C31.5001 8.36378 31.5001 8.36366 31.5001 8.36353C31.5001 8.36341 31.5001 8.36328 31.5001 8.36316C31.5001 8.36304 31.5001 8.36291 31.5001 8.36279C31.5001 8.36266 31.5001 8.36254 31.5001 8.36242C31.5001 8.36229 31.5001 8.36217 31.5001 8.36204C31.5001 8.36192 31.5001 8.36179 31.5001 8.36167C31.5001 8.36155 31.5001 8.36142 31.5001 8.3613C31.5001 8.36118 31.5001 8.36105 31.5001 8.36093C31.5001 8.3608 31.5001 8.36068 31.5001 8.36056C31.5001 8.36043 31.5001 8.36031 31.5001 8.36018C31.5001 8.36006 31.5001 8.35993 31.5001 8.35981C31.5001 8.35969 31.5001 8.35956 31.5001 8.35944C31.5001 8.35931 31.5001 8.35919 31.5001 8.35907C31.5001 8.35894 31.5001 8.35882 31.5001 8.3587C31.5001 8.35857 31.5001 8.35845 31.5001 8.35832C31.5001 8.3582 31.5001 8.35808 31.5001 8.35795C31.5001 8.35783 31.5001 8.3577 31.5001 8.35758C31.5001 8.35746 31.5001 8.35733 31.5001 8.35721C31.5001 8.35708 31.5001 8.35696 31.5001 8.35684C31.5001 8.35671 31.5001 8.35659 31.5001 8.35646C31.5001 8.35634 31.5001 8.35622 31.5001 8.35609C31.5001 8.35597 31.5001 8.35584 31.5001 8.35572C31.5001 8.3556 31.5001 8.35547 31.5001 8.35535C31.5001 8.35523 31.5001 8.3551 31.5001 8.35498C31.5001 8.35485 31.5001 8.35473 31.5001 8.35461C31.5001 8.35448 31.5001 8.35436 31.5001 8.35423C31.5001 8.35411 31.5001 8.35399 31.5001 8.35386C31.5001 8.35374 31.5001 8.35361 31.5001 8.35349C31.5001 8.35337 31.5001 8.35324 31.5001 8.35312C31.5001 8.353 31.5001 8.35287 31.5001 8.35275C31.5001 8.35262 31.5001 8.3525 31.5001 8.35238C31.5001 8.35225 31.5001 8.35213 31.5001 8.352C31.5001 8.35188 31.5001 8.35176 31.5001 8.35163C31.5001 8.35151 31.5001 8.35139 31.5001 8.35126C31.5001 8.35114 31.5001 8.35101 31.5001 8.35089C31.5001 8.35077 31.5001 8.35064 31.5001 8.35052C31.5001 8.35039 31.5001 8.35027 31.5001 8.35015C31.5001 8.35002 31.5001 8.3499 31.5001 8.34978C31.5001 8.34965 31.5001 8.34953 31.5001 8.3494C31.5001 8.34928 31.5001 8.34916 31.5001 8.34903C31.5001 8.34891 31.5001 8.34879 31.5001 8.34866C31.5001 8.34854 31.5001 8.34841 31.5001 8.34829C31.5001 8.34817 31.5001 8.34804 31.5001 8.34792C31.5001 8.3478 31.5001 8.34767 31.5001 8.34755C31.5001 8.34742 31.5001 8.3473 31.5001 8.34718C31.5001 8.34705 31.5001 8.34693 31.5001 8.34681C31.5001 8.34668 31.5001 8.34656 31.5001 8.34643C31.5001 8.34631 31.5001 8.34619 31.5001 8.34606C31.5001 8.34594 31.5001 8.34582 31.5001 8.34569C31.5001 8.34557 31.5001 8.34544 31.5001 8.34532C31.5001 8.3452 31.5001 8.34507 31.5001 8.34495C31.5001 8.34483 31.5001 8.3447 31.5001 8.34458C31.5001 8.34445 31.5001 8.34433 31.5001 8.34421C31.5001 8.34408 31.5001 8.34396 31.5001 8.34384C31.5001 8.34371 31.5001 8.34359 31.5001 8.34347C31.5001 8.34334 31.5001 8.34322 31.5001 8.34309C31.5001 8.34297 31.5001 8.34285 31.5001 8.34272C31.5001 8.3426 31.5001 8.34248 31.5001 8.34235C31.5001 8.34223 31.5001 8.34211 31.5001 8.34198C31.5001 8.34186 31.5001 8.34173 31.5001 8.34161C31.5001 8.34149 31.5001 8.34136 31.5001 8.34124C31.5001 8.34112 31.5001 8.34099 31.5001 8.34087C31.5001 8.34074 31.5001 8.34062 31.5001 8.3405C31.5001 8.34037 31.5001 8.34025 31.5001 8.34013C31.5001 8.34 31.5001 8.33988 31.5001 8.33976C31.5001 8.33963 31.5001 8.33951 31.5001 8.33939C31.5001 8.33926 31.5001 8.33914 31.5001 8.33901C31.5001 8.33889 31.5001 8.33877 31.5001 8.33864C31.5001 8.33852 31.5001 8.3384 31.5001 8.33827C31.5001 8.33815 31.5001 8.33803 31.5001 8.3379C31.5001 8.33778 31.5001 8.33766 31.5001 8.33753C31.5001 8.33741 31.5001 8.33728 31.5001 8.33716C31.5001 8.33704 31.5001 8.33691 31.5001 8.33679C31.5001 8.33667 31.5001 8.33654 31.5001 8.33642C31.5001 8.3363 31.5001 8.33617 31.5001 8.33605C31.5001 8.33593 31.5001 8.3358 31.5001 8.33568C31.5001 8.33556 31.5001 8.33543 31.5001 8.33531C31.5001 8.33518 31.5001 8.33506 31.5001 8.33494C31.5001 8.33481 31.5001 8.33469 31.5001 8.33457C31.5001 8.33444 31.5001 8.33432 31.5001 8.3342C31.5001 8.33407 31.5001 8.33395 31.5001 8.33383C31.5001 8.3337 31.5001 8.33358 31.5001 8.33346C31.5001 8.33333 31.5001 8.33321 31.5001 8.33309C31.5001 8.33296 31.5001 8.33284 31.5001 8.33271C31.5001 8.33259 31.5001 8.33247 31.5001 8.33234C31.5001 8.33222 31.5001 8.3321 31.5001 8.33197C31.5001 8.33185 31.5001 8.33173 31.5001 8.3316C31.5001 8.33148 31.5001 8.33136 31.5001 8.33123C31.5001 8.33111 31.5001 8.33099 31.5001 8.33086C31.5001 8.33074 31.5001 8.33062 31.5001 8.33049C31.5001 8.33037 31.5001 8.33025 31.5001 8.33012C31.5001 8.33 31.5001 8.32988 31.5001 8.32975C31.5001 8.32963 31.5001 8.3295 31.5001 8.32938C31.5001 8.32926 31.5001 8.32913 31.5001 8.32901C31.5001 8.32889 31.5001 8.32876 31.5001 8.32864C31.5001 8.32852 31.5001 8.32839 31.5001 8.32827C31.5001 8.32815 31.5001 8.32802 31.5001 8.3279C31.5001 8.32778 31.5001 8.32765 31.5001 8.32753C31.5001 8.32741 31.5001 8.32728 31.5001 8.32716C31.5001 8.32704 31.5001 8.32691 31.5001 8.32679C31.5001 8.32667 31.5001 8.32654 31.5001 8.32642C31.5001 8.3263 31.5001 8.32617 31.5001 8.32605C31.5001 8.32593 31.5001 8.3258 31.5001 8.32568C31.5001 8.32556 31.5001 8.32543 31.5001 8.32531C31.5001 8.32519 31.5001 8.32506 31.5001 8.32494C31.5001 8.32482 31.5001 8.32469 31.5001 8.32457C31.5001 8.32445 31.5001 8.32432 31.5001 8.3242C31.5001 8.32408 31.5001 8.32395 31.5001 8.32383C31.5001 8.32371 31.5001 8.32358 31.5001 8.32346C31.5001 8.32334 31.5001 8.32321 31.5001 8.32309C31.5001 8.32297 31.5001 8.32284 31.5001 8.32272C31.5001 8.3226 31.5001 8.32247 31.5001 8.32235C31.5001 8.32223 31.5001 8.3221 31.5001 8.32198C31.5001 8.32186 31.5001 8.32173 31.5001 8.32161C31.5001 8.32149 31.5001 8.32137 31.5001 8.32124C31.5001 8.32112 31.5001 8.321 31.5001 8.32087C31.5001 8.32075 31.5001 8.32063 31.5001 8.3205C31.5001 8.32038 31.5001 8.32026 31.5001 8.32013C31.5001 8.32001 31.5001 8.31989 31.5001 8.31976C31.5001 8.31964 31.5001 8.31952 31.5001 8.31939C31.5001 8.31927 31.5001 8.31915 31.5001 8.31902C31.5001 8.3189 31.5001 8.31878 31.5001 8.31865C31.5001 8.31853 31.5001 8.31841 31.5001 8.31828C31.5001 8.31816 31.5001 8.31804 31.5001 8.31791C31.5001 8.31779 31.5001 8.31767 31.5001 8.31755C31.5001 8.31742 31.5001 8.3173 31.5001 8.31718C31.5001 8.31705 31.5001 8.31693 31.5001 8.31681C31.5001 8.31668 31.5001 8.31656 31.5001 8.31644C31.5001 8.31631 31.5001 8.31619 31.5001 8.31607C31.5001 8.31594 31.5001 8.31582 31.5001 8.3157C31.5001 8.31557 31.5001 8.31545 31.5001 8.31533C31.5001 8.31521 31.5001 8.31508 31.5001 8.31496C31.5001 8.31484 31.5001 8.31471 31.5001 8.31459C31.5001 8.31447 31.5001 8.31434 31.5001 8.31422C31.5001 8.3141 31.5001 8.31397 31.5001 8.31385C31.5001 8.31373 31.5001 8.3136 31.5001 8.31348C31.5001 8.31336 31.5001 8.31324 31.5001 8.31311C31.5001 8.31299 31.5001 8.31287 31.5001 8.31274C31.5001 8.31262 31.5001 8.3125 31.5001 8.31237C31.5001 8.31225 31.5001 8.31213 31.5001 8.312C31.5001 8.31188 31.5001 8.31176 31.5001 8.31164C31.5001 8.31151 31.5001 8.31139 31.5001 8.31127C31.5001 8.31114 31.5001 8.31102 31.5001 8.3109C31.5001 8.31077 31.5001 8.31065 31.5001 8.31053C31.5001 8.3104 31.5001 8.31028 31.5001 8.31016C31.5001 8.31004 31.5001 8.30991 31.5001 8.30979C31.5001 8.30967 31.5001 8.30954 31.5001 8.30942C31.5001 8.3093 31.5001 8.30917 31.5001 8.30905C31.5001 8.30893 31.5001 8.30881 31.5001 8.30868C31.5001 8.30856 31.5001 8.30844 31.5001 8.30831C31.5001 8.30819 31.5001 8.30807 31.5001 8.30794C31.5001 8.30782 31.5001 8.3077 31.5001 8.30758C31.5001 8.30745 31.5001 8.30733 31.5001 8.30721C31.5001 8.30708 31.5001 8.30696 31.5001 8.30684C31.5001 8.30671 31.5001 8.30659 31.5001 8.30647C31.5001 8.30635 31.5001 8.30622 31.5001 8.3061C31.5001 8.30598 31.5001 8.30585 31.5001 8.30573C31.5001 8.30561 31.5001 8.30548 31.5001 8.30536C31.5001 8.30524 31.5001 8.30512 31.5001 8.30499C31.5001 8.30487 31.5001 8.30475 31.5001 8.30462C31.5001 8.3045 31.5001 8.30438 31.5001 8.30426C31.5001 8.30413 31.5001 8.30401 31.5001 8.30389C31.5001 8.30376 31.5001 8.30364 31.5001 8.30352C31.5001 8.30339 31.5001 8.30327 31.5001 8.30315C31.5001 8.30303 31.5001 8.3029 31.5001 8.30278C31.5001 8.30266 31.5001 8.30253 31.5001 8.30241C31.5001 8.30229 31.5001 8.30217 31.5001 8.30204C31.5001 8.30192 31.5001 8.3018 31.5001 8.30167C31.5001 8.30155 31.5001 8.30143 31.5001 8.30131C31.5001 8.30118 31.5001 8.30106 31.5001 8.30094C31.5001 8.30081 31.5001 8.30069 31.5001 8.30057C31.5001 8.30045 31.5001 8.30032 31.5001 8.3002C31.5001 8.30008 31.5001 8.29995 31.5001 8.29983C31.5001 8.29971 31.5001 8.29959 31.5001 8.29946H29.0001ZM29.0001 8.49092H26.5001V27.1631H29.0001H31.5001V8.49092H29.0001ZM29.0001 27.1631H26.5001C26.5001 27.1475 26.5081 27.1088 26.5317 27.0731C26.5497 27.0459 26.5698 27.0303 26.5914 27.0201C26.6145 27.0092 26.6647 26.9932 26.7386 27.0028C26.7758 27.0076 26.8103 27.0181 26.8384 27.0312C26.8668 27.0445 26.8762 27.0546 26.8686 27.0477L25.1809 28.8921L23.4932 30.7364C26.7743 33.7388 31.5001 31.0708 31.5001 27.1631H29.0001ZM25.1809 28.8921L26.868 27.0472C25.8069 26.0768 24.1934 26.0768 23.1322 27.0472L24.8193 28.8921L26.5064 30.737C25.6573 31.5135 24.343 31.5135 23.4938 30.737L25.1809 28.8921ZM24.8193 28.8921L23.1316 27.0478L22.4874 27.6372L24.1752 29.4815L25.863 31.3258L26.5071 30.7364L24.8193 28.8921ZM24.1752 29.4815L22.4876 27.6371C22.2052 27.8955 21.7949 27.8953 21.5128 27.6372L19.8251 29.4815L18.1373 31.3259C20.3302 33.3325 23.67 33.3324 25.8628 31.3259L24.1752 29.4815ZM19.8251 29.4815L21.5129 27.6373C20.0842 26.3297 17.9161 26.3297 16.4874 27.6373L18.1752 29.4815L19.8631 31.3258C19.381 31.7669 18.6193 31.7669 18.1372 31.3258L19.8251 29.4815ZM18.1752 29.4815L16.4876 27.6371C16.2052 27.8955 15.7949 27.8953 15.5128 27.6372L13.8251 29.4815L12.1373 31.3259C14.3302 33.3325 17.67 33.3324 19.8628 31.3259L18.1752 29.4815ZM13.8251 29.4815L15.5129 27.6373C14.0842 26.3298 11.916 26.3297 10.4873 27.6373L12.1752 29.4815L13.8631 31.3257C13.381 31.7669 12.6192 31.7669 12.1372 31.3258L13.8251 29.4815ZM12.1752 29.4815L10.4875 27.6371C10.2053 27.8954 9.79492 27.8954 9.51265 27.6371L7.825 29.4815L6.13736 31.3259C8.33026 33.3325 11.6699 33.3325 13.8628 31.3259L12.1752 29.4815ZM7.825 29.4815L9.5128 27.6373L8.86868 27.0478L7.18088 28.8921L5.49309 30.7363L6.13721 31.3258L7.825 29.4815ZM7.18088 28.8921L8.86822 27.0474C7.80708 26.0767 6.19314 26.0766 5.13186 27.0475L6.81931 28.8921L8.50676 30.7367C7.6574 31.5137 6.34274 31.5135 5.49355 30.7368L7.18088 28.8921ZM6.81931 28.8921L5.13162 27.0477C5.12406 27.0546 5.13344 27.0445 5.16188 27.0312C5.18996 27.0181 5.22443 27.0076 5.26161 27.0028C5.33547 26.9932 5.38577 27.0092 5.40884 27.0201C5.43039 27.0303 5.4505 27.0459 5.46852 27.0731C5.49214 27.1088 5.5001 27.1475 5.5001 27.1631H3.0001H0.500097C0.500097 31.0708 5.22589 33.7388 8.507 30.7364L6.81931 28.8921ZM3.0001 27.1631H5.5001V8.49092H3.0001H0.500097V27.1631H3.0001ZM3.0001 8.49092H5.5001C5.5001 8.42556 5.50007 8.36123 5.50004 8.2984L3.00004 8.29946L0.500044 8.30052C0.500071 8.36348 0.500097 8.42678 0.500097 8.49092H3.0001ZM3.00004 8.29946L5.50004 8.29856C5.49948 6.74332 5.52741 6.26166 5.63584 5.93141L3.2606 5.15152L0.885363 4.37162C0.470972 5.63369 0.499591 7.04494 0.500044 8.30036L3.00004 8.29946ZM3.2606 5.15152L5.63586 5.93137C5.89346 5.14676 6.48459 4.55086 7.21222 4.29768L6.39064 1.93653L5.56907 -0.424618C3.3288 0.354894 1.61564 2.14739 0.885351 4.37166L3.2606 5.15152ZM6.39064 1.93653L7.21223 4.29767C7.5097 4.19416 7.95404 4.16346 9.46396 4.16412L9.46504 1.66412L9.46613 -0.835884C8.26471 -0.836404 6.84311 -0.867933 5.56906 -0.424615L6.39064 1.93653ZM9.66011 3.66417V1.16417C8.86395 1.16417 8.24332 1.16692 7.76433 1.19338C7.27208 1.22057 6.75884 1.27901 6.22637 1.46428L7.04791 3.82544L7.86945 6.1866C7.76028 6.22458 7.73908 6.20239 8.04008 6.18577C8.35434 6.16841 8.82816 6.16417 9.66011 6.16417V3.66417ZM7.04791 3.82544L6.22632 1.46429C4.59173 2.03307 3.32698 3.3465 2.78555 4.99553L5.1608 5.7754L7.53605 6.55526C7.6042 6.34771 7.74574 6.22964 7.8695 6.18658L7.04791 3.82544ZM5.1608 5.7754L2.78557 4.99549C2.61107 5.52692 2.55471 6.04149 2.52832 6.54554C2.50256 7.03762 2.5001 7.67382 2.5001 8.49092H5.0001H7.5001C7.5001 7.63844 7.50392 7.14243 7.52149 6.80692C7.53842 6.48338 7.56241 6.47498 7.53604 6.5553L5.1608 5.7754ZM5.0001 8.49092H2.5001V27.1631H5.0001H7.5001V8.49092H5.0001ZM5.0001 27.1631H2.5001C2.5001 28.3301 3.17725 29.2929 4.13006 29.734L5.18023 27.4653L6.2304 25.1965C6.5561 25.3473 6.8948 25.6041 7.14737 25.9918C7.40523 26.3877 7.5001 26.8078 7.5001 27.1631H5.0001ZM5.18023 27.4653L4.13156 29.7347C4.59526 29.949 5.12452 30.0397 5.65985 29.9676L5.32608 27.4899L4.99232 25.0123C5.44253 24.9517 5.86965 25.0298 6.2289 25.1958L5.18023 27.4653ZM5.32608 27.4899L5.66064 29.9674C6.20057 29.8945 6.72181 29.6589 7.15661 29.2612L5.46914 27.4166L3.78166 25.572C3.92207 25.4436 4.10488 25.312 4.33257 25.2057C4.56482 25.0973 4.79154 25.0394 4.99152 25.0124L5.32608 27.4899ZM5.46914 27.4166L7.15693 29.2609C7.07182 29.3388 6.92838 29.3388 6.84324 29.2609L8.53104 27.4166L10.2188 25.5723C8.39325 23.9016 5.60694 23.9016 3.78135 25.5723L5.46914 27.4166ZM8.53104 27.4166L6.84327 29.2609L7.4874 29.8504L9.17518 28.0061L10.863 26.1618L10.2188 25.5723L8.53104 27.4166ZM9.17518 28.0061L7.48758 29.8505C8.91619 31.1576 11.084 31.1577 12.5126 29.8505L10.825 28.0061L9.13738 26.1616C9.6194 25.7206 10.3808 25.7206 10.8628 26.1616L9.17518 28.0061ZM10.825 28.0061L12.5128 29.8504C12.795 29.5921 13.2052 29.5921 13.4875 29.8504L15.1752 28.0061L16.8629 26.1617C14.67 24.155 11.3302 24.155 9.13725 26.1618L10.825 28.0061ZM15.1752 28.0061L13.4876 29.8505C14.9163 31.1576 17.084 31.1576 18.5126 29.8505L16.8251 28.0061L15.1375 26.1616C15.6195 25.7206 16.3808 25.7206 16.8628 26.1616L15.1752 28.0061ZM16.8251 28.0061L18.5129 29.8503C18.795 29.5922 19.2052 29.592 19.4875 29.8504L21.1752 28.0061L22.8629 26.1617C20.6701 24.155 17.3301 24.1549 15.1372 26.1618L16.8251 28.0061ZM21.1752 28.0061L19.4876 29.8505C20.9163 31.1576 23.084 31.1576 24.5126 29.8505L22.8251 28.0061L21.1375 26.1616C21.6195 25.7206 22.3808 25.7206 22.8628 26.1616L21.1752 28.0061ZM22.8251 28.0061L24.5128 29.8504L25.157 29.2609L23.4692 27.4166L21.7814 25.5723L21.1373 26.1618L22.8251 28.0061ZM23.4692 27.4166L25.1571 29.2608C25.0718 29.3389 24.9283 29.3387 24.8433 29.2609L26.5311 27.4166L28.2188 25.5723C26.3933 23.9017 23.6069 23.9015 21.7813 25.5724L23.4692 27.4166ZM26.5311 27.4166L24.8427 29.2604C25.278 29.659 25.7999 29.8947 26.3403 29.9675L26.6741 27.4899L27.008 25.0123C27.2079 25.0393 27.4349 25.097 27.6676 25.2057C27.8957 25.3122 28.0788 25.4441 28.2194 25.5728L26.5311 27.4166ZM26.6741 27.4899L26.3402 29.9675C26.8759 30.0397 27.4049 29.9488 27.868 29.735L26.82 27.4653L25.772 25.1955C26.1305 25.03 26.5575 24.9516 27.0081 25.0123L26.6741 27.4899ZM26.82 27.4653L27.8711 29.7336C28.8213 29.2932 29.5001 28.332 29.5001 27.1631H27.0001H24.5001C24.5001 26.8075 24.5952 26.3871 24.8533 25.9912C25.106 25.6035 25.4445 25.3473 25.7689 25.197L26.82 27.4653ZM27.0001 27.1631H29.5001V8.49092H27.0001H24.5001V27.1631H27.0001ZM27.0001 8.49092H29.5001C29.5001 7.67377 29.4976 7.03756 29.4719 6.54541C29.4454 6.04129 29.389 5.52678 29.2146 4.99543L26.8393 5.7754L24.4641 6.55536C24.4378 6.47512 24.4618 6.48359 24.4787 6.80706C24.4963 7.14251 24.5001 7.6385 24.5001 8.49092H27.0001ZM26.8393 5.7754L29.2146 4.9955C28.6732 3.34659 27.4086 2.0331 25.7738 1.46429L24.9523 3.82544L24.1307 6.18658C24.2544 6.22962 24.3959 6.34761 24.4641 6.55529L26.8393 5.7754ZM24.9523 3.82544L25.7737 1.46425C25.2413 1.27901 24.7281 1.22057 24.2358 1.19338C23.7569 1.16692 23.1362 1.16417 22.3401 1.16417V3.66417V6.16417C23.172 6.16417 23.6458 6.16841 23.9601 6.18577C24.2611 6.20239 24.2399 6.22458 24.1308 6.18662L24.9523 3.82544ZM22.3401 3.66417V1.16417H9.66011V3.66417V6.16417H22.3401V3.66417ZM8.33343 9.9975H10.8334C10.8334 10.8259 10.1619 11.4975 9.33343 11.4975V8.9975V6.4975C7.4004 6.4975 5.83343 8.06453 5.83343 9.9975H8.33343ZM9.33343 8.9975V11.4975H10.0001V8.9975V6.4975H9.33343V8.9975ZM10.0001 8.9975V11.4975C9.17166 11.4975 8.5001 10.8259 8.5001 9.9975H11.0001H13.5001C13.5001 8.06451 11.9331 6.4975 10.0001 6.4975V8.9975ZM11.0001 9.9975H8.5001C8.5001 9.16906 9.17169 8.4975 10.0001 8.4975V10.9975V13.4975C11.9331 13.4975 13.5001 11.9305 13.5001 9.9975H11.0001ZM10.0001 10.9975V8.4975H9.33343V10.9975V13.4975H10.0001V10.9975ZM9.33343 10.9975V8.4975C10.1618 8.4975 10.8334 9.16908 10.8334 9.9975H8.33343H5.83343C5.83343 11.9305 7.40043 13.4975 9.33343 13.4975V10.9975ZM13.0001 9.9975H15.5001C15.5001 10.8261 14.8284 11.4975 14.0001 11.4975V8.9975V6.4975C12.0673 6.4975 10.5001 8.06436 10.5001 9.9975H13.0001ZM14.0001 8.9975V11.4975H22.6668V8.9975V6.4975H14.0001V8.9975ZM22.6668 8.9975V11.4975C21.8384 11.4975 21.1668 10.826 21.1668 9.9975H23.6668H26.1668C26.1668 8.06449 24.5998 6.4975 22.6668 6.4975V8.9975ZM23.6668 9.9975H21.1668C21.1668 9.16904 21.8384 8.4975 22.6668 8.4975V10.9975V13.4975C24.5997 13.4975 26.1668 11.9306 26.1668 9.9975H23.6668ZM22.6668 10.9975V8.4975H14.0001V10.9975V13.4975H22.6668V10.9975ZM14.0001 10.9975V8.4975C14.8284 8.4975 15.5001 9.16891 15.5001 9.9975H13.0001H10.5001C10.5001 11.9307 12.0673 13.4975 14.0001 13.4975V10.9975ZM8.33343 14.6642H10.8334C10.8334 15.4926 10.1619 16.1642 9.33343 16.1642V13.6642V11.1642C7.40038 11.1642 5.83343 12.7313 5.83343 14.6642H8.33343ZM9.33343 13.6642V16.1642H10.0001V13.6642V11.1642H9.33343V13.6642ZM10.0001 13.6642V16.1642C9.17164 16.1642 8.5001 15.4926 8.5001 14.6642H11.0001H13.5001C13.5001 12.7312 11.9331 11.1642 10.0001 11.1642V13.6642ZM11.0001 14.6642H8.5001C8.5001 13.8358 9.17164 13.1642 10.0001 13.1642V15.6642V18.1642C11.9331 18.1642 13.5001 16.5972 13.5001 14.6642H11.0001ZM10.0001 15.6642V13.1642H9.33343V15.6642V18.1642H10.0001V15.6642ZM9.33343 15.6642V13.1642C10.1619 13.1642 10.8334 13.8358 10.8334 14.6642H8.33343H5.83343C5.83343 16.5971 7.40038 18.1642 9.33343 18.1642V15.6642ZM13.0001 14.6642H15.5001C15.5001 15.4928 14.8285 16.1642 14.0001 16.1642V13.6642V11.1642C12.0673 11.1642 10.5001 12.7311 10.5001 14.6642H13.0001ZM14.0001 13.6642V16.1642H22.6668V13.6642V11.1642H14.0001V13.6642ZM22.6668 13.6642V16.1642C21.8384 16.1642 21.1668 15.4926 21.1668 14.6642H23.6668H26.1668C26.1668 12.7312 24.5998 11.1642 22.6668 11.1642V13.6642ZM23.6668 14.6642H21.1668C21.1668 13.8358 21.8384 13.1642 22.6668 13.1642V15.6642V18.1642C24.5998 18.1642 26.1668 16.5972 26.1668 14.6642H23.6668ZM22.6668 15.6642V13.1642H14.0001V15.6642V18.1642H22.6668V15.6642ZM14.0001 15.6642V13.1642C14.8285 13.1642 15.5001 13.8356 15.5001 14.6642H13.0001H10.5001C10.5001 16.5973 12.0673 18.1642 14.0001 18.1642V15.6642ZM8.33343 19.3309H10.8334C10.8334 20.1593 10.1619 20.8309 9.33343 20.8309V18.3309V15.8309C7.40038 15.8309 5.83343 17.3979 5.83343 19.3309H8.33343ZM9.33343 18.3309V20.8309H10.0001V18.3309V15.8309H9.33343V18.3309ZM10.0001 18.3309V20.8309C9.17164 20.8309 8.5001 20.1593 8.5001 19.3309H11.0001H13.5001C13.5001 17.3979 11.9331 15.8309 10.0001 15.8309V18.3309ZM11.0001 19.3309H8.5001C8.5001 18.5024 9.17164 17.8309 10.0001 17.8309V20.3309V22.8309C11.9331 22.8309 13.5001 21.2638 13.5001 19.3309H11.0001ZM10.0001 20.3309V17.8309H9.33343V20.3309V22.8309H10.0001V20.3309ZM9.33343 20.3309V17.8309C10.1619 17.8309 10.8334 18.5025 10.8334 19.3309H8.33343H5.83343C5.83343 21.2638 7.40038 22.8309 9.33343 22.8309V20.3309ZM13.0001 19.3309H15.5001C15.5001 20.1594 14.8285 20.8309 14.0001 20.8309V18.3309V15.8309C12.0673 15.8309 10.5001 17.3978 10.5001 19.3309H13.0001ZM14.0001 18.3309V20.8309H22.6668V18.3309V15.8309H14.0001V18.3309ZM22.6668 18.3309V20.8309C21.8384 20.8309 21.1668 20.1593 21.1668 19.3309H23.6668H26.1668C26.1668 17.3979 24.5998 15.8309 22.6668 15.8309V18.3309ZM23.6668 19.3309H21.1668C21.1668 18.5024 21.8384 17.8309 22.6668 17.8309V20.3309V22.8309C24.5998 22.8309 26.1668 21.2638 26.1668 19.3309H23.6668ZM22.6668 20.3309V17.8309H14.0001V20.3309V22.8309H22.6668V20.3309ZM14.0001 20.3309V17.8309C14.8285 17.8309 15.5001 18.5023 15.5001 19.3309H13.0001H10.5001C10.5001 21.264 12.0673 22.8309 14.0001 22.8309V20.3309Z" fill="#CD6200" mask="url(#path-1-inside-1_7596_87090)"/>
</svg>
