<svg width="16" height="16" viewBox="0 0 16 16" fill="none" xmlns="http://www.w3.org/2000/svg">
<g clip-path="url(#clip0_7869_54752)">
<path d="M14.6666 8.13854V9.1526C14.6666 11.7531 14.6666 13.0535 13.8855 13.8613C13.1045 14.6693 11.8474 14.6693 9.33325 14.6693H6.66659C4.15243 14.6693 2.89535 14.6693 2.1143 13.8613C1.33325 13.0535 1.33325 11.7531 1.33325 9.1526V8.13854C1.33325 6.61293 1.33325 5.85012 1.67939 5.21776C2.02552 4.58541 2.65789 4.19294 3.92261 3.40802L5.25594 2.58052C6.59285 1.7508 7.26132 1.33594 7.99992 1.33594C8.73852 1.33594 9.40699 1.7508 10.7439 2.58052L12.0773 3.40802C13.342 4.19294 13.9743 4.58541 14.3205 5.21776" stroke="#F79E1B" stroke-linecap="round"/>
<path d="M10 12H6" stroke="#F79E1B" stroke-linecap="round"/>
</g>
<defs>
<clipPath id="clip0_7869_54752">
<rect width="16" height="16" fill="white"/>
</clipPath>
</defs>
</svg>
