<svg width="32" height="32" viewBox="0 0 32 32" fill="none" xmlns="http://www.w3.org/2000/svg">
<path d="M10.9644 2.92188H20.9644C21.4431 2.92197 21.9047 3.08822 22.272 3.38867L22.4233 3.52539C22.8095 3.91269 23.0269 4.4373 23.0269 4.98438V6.95801C23.0269 7.50383 22.8095 8.02862 22.4233 8.41602C22.2066 8.63273 21.9446 8.7974 21.6606 8.89941L21.0396 9.12207L21.0405 9.7832L21.0425 10.9756V10.9766C21.0447 12.0449 21.9135 12.9082 22.979 12.9082C23.5263 12.9082 24.0519 13.1249 24.439 13.5107V13.5117C24.8266 13.8995 25.0444 14.4242 25.0444 14.9707V26.9834C25.0444 27.5295 24.8271 28.0538 24.4399 28.4414C24.0528 28.8278 23.5268 29.0459 22.979 29.0459H8.98389C8.50482 29.0459 8.04276 28.8798 7.67529 28.5791L7.52393 28.4414C7.1365 28.0545 6.91944 27.5305 6.91943 26.9834V14.9707C6.91943 14.4918 7.08583 14.0302 7.38721 13.6631L7.52393 13.5117C7.91129 13.125 8.43645 12.9082 8.98389 12.9082H8.98584C9.49957 12.9082 9.98999 12.7029 10.3501 12.3408C10.6645 12.0247 10.8595 11.6082 10.9009 11.1641L10.9097 10.9727L10.9038 9.78223L10.8999 9.12305L10.2778 8.90332L10.0669 8.81543C9.92955 8.74904 9.79956 8.66725 9.6792 8.57129L9.50537 8.41602C9.11836 8.02876 8.90186 7.50399 8.90186 6.95801V4.98438C8.90186 4.50546 9.06773 4.04401 9.36865 3.67676L9.50537 3.52539C9.89283 3.13878 10.4182 2.92188 10.9644 2.92188ZM11.0298 9.98828L11.0347 10.9727C11.0371 11.4498 10.8727 11.9109 10.5737 12.2783L10.438 12.4297C10.054 12.8156 9.53117 13.0332 8.98584 13.0332H8.98389C8.47083 13.0332 7.97672 13.2357 7.61182 13.6006C7.24805 13.9644 7.04443 14.4572 7.04443 14.9707V26.9834C7.04444 27.4955 7.24736 27.9879 7.61182 28.3516V28.3525C7.97503 28.7157 8.46844 28.9209 8.98389 28.9209H22.979C23.4944 28.9209 23.9879 28.7157 24.3511 28.3525L24.3501 28.3516C24.7132 27.9895 24.9194 27.4981 24.9194 26.9834V14.9707C24.9194 14.4548 24.7131 13.9627 24.3511 13.6006C23.9855 13.235 23.4901 13.0332 22.978 13.0332C21.9128 13.0332 21.0352 12.2236 20.9282 11.1865L20.9175 10.9766L20.9155 9.98145L20.9136 9.0459H11.0249L11.0298 9.98828ZM10.9644 3.04688C10.5149 3.04688 10.0809 3.20252 9.73584 3.48535L9.59424 3.61426C9.23222 3.97627 9.02686 4.4686 9.02686 4.98438V6.95801C9.02686 7.4093 9.18389 7.84229 9.46436 8.18555L9.59229 8.32617L9.59619 8.33008C9.95776 8.68961 10.4488 8.89551 10.9644 8.89551H20.9644C21.4153 8.89541 21.8483 8.73861 22.1919 8.45703L22.3335 8.32812C22.6974 7.96426 22.9019 7.47158 22.9019 6.95801V4.98438C22.9019 4.47076 22.6987 3.97658 22.3325 3.6123H22.3315C21.9678 3.2487 21.476 3.04699 20.9644 3.04688H10.9644Z" fill="#3AAFA9" stroke="#3AAFA9" stroke-width="1.875"/>
<path d="M15.9817 15.9062C16.0159 15.9062 16.0442 15.9345 16.0442 15.9688V18.918H18.9934C19.0274 18.9182 19.0558 18.9465 19.0559 18.9805C19.0559 19.0146 19.0274 19.0427 18.9934 19.043H16.0442V21.9922C16.0439 22.0262 16.0158 22.0547 15.9817 22.0547C15.9477 22.0545 15.9194 22.0261 15.9192 21.9922V19.043H12.97C12.9357 19.043 12.9075 19.0147 12.9075 18.9805C12.9076 18.9464 12.9358 18.918 12.97 18.918H15.9192V15.9688C15.9192 15.9346 15.9476 15.9064 15.9817 15.9062Z" fill="#3AAFA9" stroke="#3AAFA9" stroke-width="1.875"/>
</svg>
