<svg width="24" height="24" viewBox="0 0 24 24" fill="none" xmlns="http://www.w3.org/2000/svg">
<path fill-rule="evenodd" clip-rule="evenodd" d="M8.98047 12.004C8.98016 10.5266 9.99745 9.25465 11.4102 8.96619C12.8229 8.67766 14.2377 9.45284 14.7891 10.8177C15.3406 12.1825 14.8753 13.7569 13.6777 14.5779C12.4801 15.399 10.8839 15.2379 9.86522 14.1934C9.29886 13.6127 8.98064 12.8252 8.98047 12.004Z" stroke="#484848" stroke-width="2" stroke-linecap="round" stroke-linejoin="round"/>
<path d="M1.43277 10.8387C0.791417 10.8387 0.271484 11.3587 0.271484 12C0.271484 12.6413 0.791417 13.1613 1.43277 13.1613V10.8387ZM3.78183 13.1613C4.42319 13.1613 4.94312 12.6413 4.94312 12C4.94312 11.3587 4.42319 10.8387 3.78183 10.8387V13.1613ZM2.62054 12C2.62054 12.6413 3.14048 13.1613 3.78183 13.1613C4.42319 13.1613 4.94312 12.6413 4.94312 12H2.62054ZM12.0005 4.73187C12.6419 4.73187 13.1618 4.21194 13.1618 3.57058C13.1618 2.92922 12.6419 2.40929 12.0005 2.40929V4.73187ZM4.94312 12C4.94312 11.3587 4.42319 10.8387 3.78183 10.8387C3.14048 10.8387 2.62054 11.3587 2.62054 12H4.94312ZM12.0005 21.5907C12.6419 21.5907 13.1618 21.0708 13.1618 20.4294C13.1618 19.7881 12.6419 19.2681 12.0005 19.2681V21.5907ZM3.78183 10.8387C3.14048 10.8387 2.62054 11.3587 2.62054 12C2.62054 12.6413 3.14048 13.1613 3.78183 13.1613V10.8387ZM6.12937 13.1613C6.77075 13.1613 7.29066 12.6413 7.29066 12C7.29066 11.3587 6.77075 10.8387 6.12937 10.8387V13.1613ZM10.8392 3.57058C10.8392 4.21194 11.3592 4.73187 12.0005 4.73187C12.6419 4.73187 13.1618 4.21194 13.1618 3.57058H10.8392ZM13.1618 1.16129C13.1618 0.519933 12.6419 0 12.0005 0C11.3592 0 10.8392 0.519933 10.8392 1.16129H13.1618ZM13.1618 3.57058C13.1618 2.92922 12.6419 2.40929 12.0005 2.40929C11.3592 2.40929 10.8392 2.92922 10.8392 3.57058H13.1618ZM10.8392 5.97832C10.8392 6.61968 11.3592 7.13961 12.0005 7.13961C12.6419 7.13961 13.1618 6.61968 13.1618 5.97832H10.8392ZM12.0005 2.40929C11.3592 2.40929 10.8392 2.92922 10.8392 3.57058C10.8392 4.21194 11.3592 4.73187 12.0005 4.73187V2.40929ZM19.0579 12C19.0579 12.6413 19.5779 13.1613 20.2192 13.1613C20.8605 13.1613 21.3805 12.6413 21.3805 12H19.0579ZM10.8392 22.8387C10.8392 23.4801 11.3592 24 12.0005 24C12.6419 24 13.1618 23.4801 13.1618 22.8387H10.8392ZM13.1618 20.4294C13.1618 19.7881 12.6419 19.2681 12.0005 19.2681C11.3592 19.2681 10.8392 19.7881 10.8392 20.4294H13.1618ZM10.8392 20.4294C10.8392 21.0708 11.3592 21.5907 12.0005 21.5907C12.6419 21.5907 13.1618 21.0708 13.1618 20.4294H10.8392ZM13.1618 18.0217C13.1618 17.3803 12.6419 16.8604 12.0005 16.8604C11.3592 16.8604 10.8392 17.3803 10.8392 18.0217H13.1618ZM12.0005 19.2681C11.3592 19.2681 10.8392 19.7881 10.8392 20.4294C10.8392 21.0708 11.3592 21.5907 12.0005 21.5907V19.2681ZM21.3805 12C21.3803 11.3587 20.8604 10.8386 20.219 10.8387C19.5777 10.8389 19.0578 11.3587 19.0579 12H21.3805ZM22.5683 13.1613C23.2096 13.1613 23.7295 12.6413 23.7295 12C23.7295 11.3587 23.2096 10.8387 22.5683 10.8387V13.1613ZM20.219 10.8387C19.5777 10.8389 19.0578 11.3587 19.0579 12C19.0579 12.6413 19.5779 13.1613 20.2192 13.1613L20.219 10.8387ZM20.2192 13.1613C20.8605 13.1613 21.3805 12.6413 21.3805 12C21.3803 11.3587 20.8604 10.8386 20.219 10.8387L20.2192 13.1613ZM17.8717 10.8387C17.2303 10.8387 16.7104 11.3587 16.7104 12C16.7104 12.6413 17.2303 13.1613 17.8717 13.1613V10.8387ZM1.43277 13.1613H3.78183V10.8387H1.43277V13.1613ZM4.94312 12C4.94312 7.95803 8.13037 4.73187 12.0005 4.73187V2.40929C6.79256 2.40929 2.62054 6.73109 2.62054 12H4.94312ZM2.62054 12C2.62054 17.2689 6.79256 21.5907 12.0005 21.5907V19.2681C8.13037 19.2681 4.94312 16.0419 4.94312 12H2.62054ZM3.78183 13.1613H6.12937V10.8387H3.78183V13.1613ZM13.1618 3.57058V1.16129H10.8392V3.57058H13.1618ZM10.8392 3.57058V5.97832H13.1618V3.57058H10.8392ZM12.0005 4.73187C13.8626 4.73187 15.6546 5.49029 16.9806 6.8502L18.6436 5.22881C16.8868 3.42708 14.4979 2.40929 12.0005 2.40929V4.73187ZM16.9806 6.8502C18.3074 8.21111 19.0579 10.063 19.0579 12H21.3805C21.3805 9.46575 20.3993 7.02954 18.6436 5.22881L16.9806 6.8502ZM13.1618 22.8387V20.4294H10.8392V22.8387H13.1618ZM13.1618 20.4294V18.0217H10.8392V20.4294H13.1618ZM12.0005 21.5907C14.4982 21.5907 16.8874 20.5742 18.644 18.7722L16.9809 17.1509C15.655 18.5111 13.8629 19.2681 12.0005 19.2681V21.5907ZM18.644 18.7722C20.3999 16.9709 21.381 14.5346 21.3805 12H19.0579C19.0582 13.9373 18.3079 15.7897 16.9809 17.1509L18.644 18.7722ZM22.5683 10.8387H20.219L20.2192 13.1613H22.5683V10.8387ZM20.219 10.8387H17.8717V13.1613H20.2192L20.219 10.8387Z" fill="#484848"/>
</svg>
