<svg width="18" height="18" viewBox="0 0 18 18" fill="none" xmlns="http://www.w3.org/2000/svg">
<path d="M8.67545 16.3838C8.67545 16.2206 8.73809 16.0641 8.84959 15.9487C8.96109 15.8332 9.11232 15.7684 9.27001 15.7684C10.7655 15.7684 12.2158 15.238 13.3792 14.2656C14.5426 13.2931 15.349 11.9373 15.6638 10.4242C15.9786 8.91109 15.7829 7.332 15.1093 5.95009C14.4357 4.56819 13.3249 3.46695 11.962 2.8299C10.5991 2.19284 9.06637 2.05845 7.61934 2.44913C6.17231 2.83981 4.89834 3.73195 4.00973 4.97688C3.12113 6.2218 2.67157 7.74432 2.73597 9.2907C2.80037 10.8371 3.37485 12.3139 4.36366 13.4751V11.3114C4.36366 11.1482 4.4263 10.9917 4.5378 10.8762C4.6493 10.7608 4.80053 10.696 4.95822 10.696C5.11591 10.696 5.26714 10.7608 5.37864 10.8762C5.49015 10.9917 5.55279 11.1482 5.55279 11.3114V14.7928C5.55279 14.8737 5.53738 14.9538 5.50745 15.0285C5.47752 15.1032 5.43366 15.1711 5.37836 15.2283C5.32307 15.2854 5.25743 15.3307 5.1852 15.3616C5.11297 15.3925 5.03557 15.4083 4.95743 15.4082H1.59457C1.43688 15.4082 1.28565 15.3434 1.17414 15.228C1.06264 15.1126 1 14.956 1 14.7928C1 14.6296 1.06264 14.4731 1.17414 14.3577C1.28565 14.2423 1.43688 14.1774 1.59457 14.1774H3.37826C2.23846 12.7878 1.59135 11.037 1.54407 9.21476C1.49679 7.39256 2.05218 5.60829 3.11828 4.15735C4.18438 2.70641 5.69727 1.6758 7.40647 1.23617C9.11566 0.796527 10.9187 0.974219 12.517 1.73982C14.1153 2.50543 15.4131 3.81303 16.1955 5.44614C16.9778 7.07926 17.1979 8.93995 16.8192 10.7202C16.4405 12.5004 15.4858 14.0934 14.1131 15.2354C12.7404 16.3774 11.032 17 9.2708 17C9.19259 17.0001 9.11512 16.9842 9.04285 16.9533C8.97057 16.9224 8.90489 16.877 8.84959 16.8198C8.79428 16.7625 8.75043 16.6945 8.72055 16.6197C8.69067 16.5449 8.67534 16.4647 8.67545 16.3838ZM10.9546 12.4338L8.84826 10.2554C8.73683 10.1397 8.67414 9.98306 8.67386 9.81969V5.55303C8.67386 5.38982 8.7365 5.23329 8.848 5.11789C8.95951 5.00248 9.11074 4.93765 9.26842 4.93765C9.42611 4.93765 9.57734 5.00248 9.68885 5.11789C9.80035 5.23329 9.86299 5.38982 9.86299 5.55303V9.56452L11.7941 11.5633C11.8509 11.6201 11.8962 11.688 11.9273 11.7631C11.9584 11.8382 11.9748 11.919 11.9754 12.0007C11.9761 12.0824 11.961 12.1634 11.9311 12.239C11.9011 12.3146 11.857 12.3833 11.8011 12.4411C11.7453 12.4988 11.6789 12.5445 11.6058 12.5754C11.5327 12.6063 11.4544 12.6218 11.3754 12.6211C11.2965 12.6203 11.2185 12.6033 11.146 12.571C11.0734 12.5387 11.0078 12.4918 10.953 12.433L10.9546 12.4338Z" fill="#484848" stroke="#484848" stroke-width="0.5"/>
</svg>
