<svg width="24" height="24" viewBox="0 0 24 24" fill="none" xmlns="http://www.w3.org/2000/svg">
<path fill-rule="evenodd" clip-rule="evenodd" d="M3.93011 7.9978C3.7932 7.99788 3.65888 7.96048 3.54171 7.88965C3.42454 7.81883 3.32899 7.71728 3.26542 7.59602C3.20186 7.47476 3.1727 7.33841 3.1811 7.20176C3.18951 7.0651 3.23516 6.93336 3.31311 6.8208L6.38211 2.3888C6.45113 2.28918 6.54327 2.20776 6.65064 2.15153C6.75801 2.09529 6.8774 2.06592 6.99861 2.06592C7.11981 2.06592 7.23921 2.09529 7.34658 2.15153C7.45394 2.20776 7.54608 2.28918 7.61511 2.3888L10.6841 6.8208C10.7621 6.93336 10.8077 7.0651 10.8161 7.20176C10.8245 7.33841 10.7954 7.47476 10.7318 7.59602C10.6682 7.71728 10.5727 7.81883 10.4555 7.88965C10.3383 7.96048 10.204 7.99788 10.0671 7.9978H8.00011V19.9978C8.00011 20.263 7.89475 20.5174 7.70721 20.7049C7.51968 20.8924 7.26532 20.9978 7.00011 20.9978C6.73489 20.9978 6.48054 20.8924 6.293 20.7049C6.10546 20.5174 6.00011 20.263 6.00011 19.9978L6.00011 7.9978H3.93011ZM13.3131 17.1748C13.2352 17.0622 13.1895 16.9305 13.1811 16.7938C13.1727 16.6572 13.2019 16.5208 13.2654 16.3996C13.329 16.2783 13.4245 16.1768 13.5417 16.106C13.6589 16.0351 13.7932 15.9977 13.9301 15.9978H16.0001V3.9978C16.0001 3.73259 16.1055 3.47823 16.293 3.2907C16.4805 3.10316 16.7349 2.9978 17.0001 2.9978C17.2653 2.9978 17.5197 3.10316 17.7072 3.2907C17.8947 3.47823 18.0001 3.73259 18.0001 3.9978V15.9978H20.0671C20.204 15.9977 20.3383 16.0351 20.4555 16.106C20.5727 16.1768 20.6682 16.2783 20.7318 16.3996C20.7954 16.5208 20.8245 16.6572 20.8161 16.7938C20.8077 16.9305 20.7621 17.0622 20.6841 17.1748L17.6151 21.6068C17.5461 21.7064 17.4539 21.7878 17.3466 21.8441C17.2392 21.9003 17.1198 21.9297 16.9986 21.9297C16.8774 21.9297 16.758 21.9003 16.6506 21.8441C16.5433 21.7878 16.4511 21.7064 16.3821 21.6068L13.3131 17.1748Z" fill="black"/>
</svg>
