<svg width="16" height="16" viewBox="0 0 16 16" fill="none" xmlns="http://www.w3.org/2000/svg">
<path d="M8 0.5C7.01509 0.5 6.03982 0.693993 5.12987 1.0709C4.21993 1.44781 3.39314 2.00026 2.6967 2.6967C1.29018 4.10322 0.5 6.01088 0.5 8C0.5 9.98912 1.29018 11.8968 2.6967 13.3033C3.39314 13.9997 4.21993 14.5522 5.12987 14.9291C6.03982 15.306 7.01509 15.5 8 15.5C9.98912 15.5 11.8968 14.7098 13.3033 13.3033C14.7098 11.8968 15.5 9.98912 15.5 8C15.5 7.01509 15.306 6.03982 14.9291 5.12987C14.5522 4.21993 13.9997 3.39314 13.3033 2.6967C12.6069 2.00026 11.7801 1.44781 10.8701 1.0709C9.96018 0.693993 8.98491 0.5 8 0.5ZM4.3025 12.71C4.625 12.035 6.59 11.375 8 11.375C9.41 11.375 11.375 12.035 11.6975 12.71C10.6468 13.5466 9.34309 14.0015 8 14C6.605 14 5.3225 13.52 4.3025 12.71ZM12.77 11.6225C11.6975 10.3175 9.095 9.875 8 9.875C6.905 9.875 4.3025 10.3175 3.23 11.6225C2.43224 10.5834 1.99986 9.31001 2 8C2 4.6925 4.6925 2 8 2C11.3075 2 14 4.6925 14 8C14 9.365 13.535 10.625 12.77 11.6225ZM8 3.5C6.545 3.5 5.375 4.67 5.375 6.125C5.375 7.58 6.545 8.75 8 8.75C9.455 8.75 10.625 7.58 10.625 6.125C10.625 4.67 9.455 3.5 8 3.5ZM8 7.25C7.70163 7.25 7.41548 7.13147 7.2045 6.9205C6.99353 6.70952 6.875 6.42337 6.875 6.125C6.875 5.82663 6.99353 5.54048 7.2045 5.3295C7.41548 5.11853 7.70163 5 8 5C8.29837 5 8.58452 5.11853 8.7955 5.3295C9.00647 5.54048 9.125 5.82663 9.125 6.125C9.125 6.42337 9.00647 6.70952 8.7955 6.9205C8.58452 7.13147 8.29837 7.25 8 7.25Z" fill="#484848"/>
</svg>
