<svg width="14" height="15" viewBox="0 0 14 15" fill="none" xmlns="http://www.w3.org/2000/svg">
<path d="M13.8045 14.2859L12.8729 8.91406H13.1875C13.4406 8.91406 13.6445 8.71016 13.6445 8.45703V5.08203C13.6445 4.82891 13.4406 4.625 13.1875 4.625H8.86328V1.42578C8.86328 1.17266 8.65938 0.96875 8.40625 0.96875H5.59375C5.34062 0.96875 5.13672 1.17266 5.13672 1.42578V4.625H0.8125C0.559375 4.625 0.355469 4.82891 0.355469 5.08203V8.45703C0.355469 8.71016 0.559375 8.91406 0.8125 8.91406H1.12715L0.195508 14.2859C0.190234 14.3123 0.188477 14.3387 0.188477 14.3633C0.188477 14.6164 0.392383 14.8203 0.645508 14.8203H13.3545C13.3809 14.8203 13.4072 14.8186 13.4318 14.8133C13.6814 14.7711 13.8484 14.5338 13.8045 14.2859ZM1.58594 5.85547H6.36719V2.19922H7.63281V5.85547H12.4141V7.68359H1.58594V5.85547ZM9.8125 13.5898V10.8477C9.8125 10.7703 9.74922 10.707 9.67188 10.707H8.82812C8.75078 10.707 8.6875 10.7703 8.6875 10.8477V13.5898H5.3125V10.8477C5.3125 10.7703 5.24922 10.707 5.17188 10.707H4.32812C4.25078 10.707 4.1875 10.7703 4.1875 10.8477V13.5898H1.56484L2.35762 9.01953H11.6406L12.4334 13.5898H9.8125Z" fill="#484848"/>
</svg>
