<svg width="12" height="12" viewBox="0 0 12 12" fill="none" xmlns="http://www.w3.org/2000/svg">
<path fill-rule="evenodd" clip-rule="evenodd" d="M11.9694 5.41043C12.13 6.99016 11.6537 8.56868 10.6451 9.79876C9.63664 11.0288 8.1786 11.8097 6.59177 11.9696C5.00494 12.1294 3.41932 11.6552 2.18371 10.6512C0.948099 9.64723 0.163724 8.19572 0.00313742 6.616C-0.0126122 6.46794 0.0313638 6.31972 0.125391 6.20394C0.219419 6.08816 0.355796 6.0143 0.50452 5.99862C0.653245 5.98294 0.802134 6.02672 0.918435 6.12033C1.03474 6.21394 1.10892 6.3497 1.12467 6.49776C1.21149 7.31609 1.50544 8.09911 1.97899 8.77356C2.45255 9.44801 3.09024 9.99183 3.83239 10.3541C4.57454 10.7164 5.39689 10.8854 6.22248 10.8452C7.04808 10.805 7.84993 10.5569 8.553 10.1242C9.25607 9.69147 9.83738 9.08827 10.2425 8.37101C10.6477 7.65376 10.8634 6.84591 10.8696 6.02305C10.8757 5.20019 10.6721 4.38923 10.2777 3.66606C9.88334 2.94288 9.31111 2.33112 8.61459 1.88804V3.18041C8.61459 3.32926 8.55519 3.47202 8.44947 3.57727C8.34374 3.68252 8.20034 3.74166 8.05082 3.74166C7.9013 3.74166 7.7579 3.68252 7.65217 3.57727C7.54644 3.47202 7.48704 3.32926 7.48704 3.18041V0H10.6818C10.8313 0 10.9747 0.0591314 11.0804 0.164386C11.1861 0.26964 11.2455 0.412396 11.2455 0.561248C11.2455 0.710101 11.1861 0.852857 11.0804 0.958111C10.9747 1.06337 10.8313 1.1225 10.6818 1.1225H9.48957C10.186 1.61999 10.7676 2.25995 11.1953 2.99949C11.623 3.73903 11.8869 4.56105 11.9694 5.41043ZM5.23195 1.49666C5.43131 1.49666 5.62251 1.41782 5.76348 1.27748C5.90445 1.13714 5.98365 0.946801 5.98365 0.748331C5.98365 0.549861 5.90445 0.35952 5.76348 0.219181C5.62251 0.0788418 5.43131 0 5.23195 0C5.03259 0 4.84139 0.0788418 4.70042 0.219181C4.55945 0.35952 4.48025 0.549861 4.48025 0.748331C4.48025 0.946801 4.55945 1.13714 4.70042 1.27748C4.84139 1.41782 5.03259 1.49666 5.23195 1.49666ZM3.54063 1.68375C3.54063 1.88222 3.46143 2.07256 3.32046 2.2129C3.17949 2.35323 2.98829 2.43208 2.78893 2.43208C2.58957 2.43208 2.39837 2.35323 2.2574 2.2129C2.11643 2.07256 2.03723 1.88222 2.03723 1.68375C2.03723 1.48528 2.11643 1.29493 2.2574 1.1546C2.39837 1.01426 2.58957 0.935414 2.78893 0.935414C2.98829 0.935414 3.17949 1.01426 3.32046 1.1546C3.46143 1.29493 3.54063 1.48528 3.54063 1.68375ZM1.09761 4.48999C1.29697 4.48999 1.48817 4.41115 1.62914 4.27081C1.77011 4.13047 1.84931 3.94013 1.84931 3.74166C1.84931 3.54319 1.77011 3.35285 1.62914 3.21251C1.48817 3.07217 1.29697 2.99332 1.09761 2.99332C0.898247 2.99332 0.70705 3.07217 0.566079 3.21251C0.425108 3.35285 0.345912 3.54319 0.345912 3.74166C0.345912 3.94013 0.425108 4.13047 0.566079 4.27081C0.70705 4.41115 0.898247 4.48999 1.09761 4.48999Z" fill="#484848"/>
</svg>
