<svg width="20" height="20" viewBox="0 0 20 20" fill="none" xmlns="http://www.w3.org/2000/svg">
<rect width="20" height="20" rx="2" fill="#FFF1F1"/>
<path d="M5.36364 16C4.98864 16 4.66773 15.8695 4.40091 15.6087C4.13409 15.3478 4.00045 15.0338 4 14.6667V5.33333C4 4.96667 4.13364 4.65289 4.40091 4.392C4.66818 4.13111 4.98909 4.00044 5.36364 4H9.45455C9.64773 4 9.80977 4.064 9.94068 4.192C10.0716 4.32 10.1368 4.47822 10.1364 4.66667C10.1359 4.85511 10.0705 5.01355 9.94 5.142C9.80955 5.27044 9.64773 5.33422 9.45455 5.33333H5.36364V14.6667H9.45455C9.64773 14.6667 9.80977 14.7307 9.94068 14.8587C10.0716 14.9867 10.1368 15.1449 10.1364 15.3333C10.1359 15.5218 10.0705 15.6802 9.94 15.8087C9.80955 15.9371 9.64773 16.0009 9.45455 16H5.36364ZM13.6648 10.6667H8.77273C8.57955 10.6667 8.41773 10.6027 8.28727 10.4747C8.15682 10.3467 8.09136 10.1884 8.09091 10C8.09045 9.81155 8.15591 9.65333 8.28727 9.52533C8.41864 9.39733 8.58045 9.33333 8.77273 9.33333H13.6648L12.3864 8.08333C12.2614 7.96111 12.1989 7.81111 12.1989 7.63333C12.1989 7.45555 12.2614 7.3 12.3864 7.16666C12.5114 7.03333 12.6705 6.96378 12.8636 6.958C13.0568 6.95222 13.2216 7.01622 13.358 7.15L15.7955 9.53333C15.9318 9.66666 16 9.82222 16 10C16 10.1778 15.9318 10.3333 15.7955 10.4667L13.358 12.85C13.2216 12.9833 13.0598 13.0473 12.8725 13.042C12.6852 13.0367 12.5232 12.9671 12.3864 12.8333C12.2614 12.7 12.2018 12.5418 12.2077 12.3587C12.2136 12.1755 12.2789 12.0227 12.4034 11.9L13.6648 10.6667Z" fill="#B00020"/>
</svg>
