<svg width="14" height="15" viewBox="0 0 14 15" fill="none" xmlns="http://www.w3.org/2000/svg">
<path d="M5.60952 1.03888C5.72158 0.768863 5.9138 0.537626 6.16153 0.374806C6.40926 0.211985 6.70123 0.125 7 0.125C7.29877 0.125 7.59074 0.211985 7.83847 0.374806C8.0862 0.537626 8.27842 0.768863 8.39048 1.03888C9.49971 1.3359 10.4782 1.97989 11.1755 2.87183C11.8727 3.76377 12.2502 4.8543 12.2499 5.97576V9.41008L13.6239 11.4193C13.6992 11.5295 13.7425 11.6575 13.7491 11.7897C13.7557 11.9219 13.7254 12.0534 13.6613 12.1701C13.5972 12.2868 13.5019 12.3844 13.3854 12.4524C13.2689 12.5204 13.1357 12.5563 12.9999 12.5563H9.59871C9.50841 13.1655 9.19601 13.7225 8.71875 14.1254C8.24149 14.5282 7.63131 14.75 7 14.75C6.36869 14.75 5.75852 14.5282 5.28125 14.1254C4.80399 13.7225 4.49159 13.1655 4.40129 12.5563H1.0001C0.86432 12.5563 0.731082 12.5204 0.6146 12.4524C0.498117 12.3844 0.402762 12.2868 0.338705 12.1701C0.274649 12.0534 0.244296 11.9219 0.250883 11.7897C0.257471 11.6575 0.300752 11.5295 0.37611 11.4193L1.75009 9.41008V5.97576C1.75009 3.61846 3.38506 1.63259 5.60952 1.03888ZM5.93952 12.5563C6.01698 12.7703 6.1606 12.9556 6.3506 13.0866C6.54061 13.2177 6.76762 13.2881 7.00037 13.2881C7.23313 13.2881 7.46015 13.2177 7.65015 13.0866C7.84015 12.9556 7.98378 12.7703 8.06123 12.5563H5.93952ZM7 2.31989C6.00546 2.31989 5.05164 2.70506 4.34839 3.39067C3.64514 4.07628 3.25006 5.00616 3.25006 5.97576V9.63162C3.2501 9.77605 3.20625 9.91726 3.12406 10.0374L2.40183 11.094H11.5974L10.8752 10.0374C10.7933 9.91718 10.7497 9.77598 10.7499 9.63162V5.97576C10.7499 5.00616 10.3549 4.07628 9.65161 3.39067C8.94836 2.70506 7.99455 2.31989 7 2.31989Z" fill="#484848"/>
</svg>
