<svg width="16" height="17" viewBox="0 0 16 17" fill="none" xmlns="http://www.w3.org/2000/svg">
<path d="M13 8V3.31175C13 3.25255 12.9884 3.19392 12.9658 3.13922C12.9431 3.08453 12.9099 3.03484 12.868 2.993L10.507 0.632C10.4227 0.547585 10.3083 0.500105 10.189 0.5H1.45C1.33065 0.5 1.21619 0.547411 1.1318 0.631802C1.04741 0.716193 1 0.830653 1 0.95V15.05C1 15.1693 1.04741 15.2838 1.1318 15.3682C1.21619 15.4526 1.33065 15.5 1.45 15.5H7.75M4 6.5H10M4 3.5H7M4 9.5H6.25" stroke="#484848" stroke-linecap="round" stroke-linejoin="round"/>
<path d="M10 0.5V3.05C10 3.16935 10.0474 3.28381 10.1318 3.3682C10.2162 3.45259 10.3307 3.5 10.45 3.5H13M12.994 10.3438L14.911 10.8305C15.1105 10.8815 15.2507 11.063 15.2447 11.2685C15.1157 15.587 12.625 16.25 12.625 16.25C12.625 16.25 10.1342 15.587 10.0052 11.2685C10.0032 11.1685 10.0351 11.0708 10.0957 10.9913C10.1563 10.9117 10.2421 10.8551 10.339 10.8305L12.256 10.3438C12.4982 10.2822 12.7518 10.2822 12.994 10.3438Z" stroke="#484848" stroke-linecap="round" stroke-linejoin="round"/>
</svg>
