<svg width="11" height="19" viewBox="0 0 11 19" fill="none" xmlns="http://www.w3.org/2000/svg">
<path d="M4.08333 11.4167L2.72917 17.5C2.6875 17.6944 2.58681 17.8542 2.42708 17.9792C2.26736 18.1042 2.08333 18.1667 1.875 18.1667C1.59722 18.1667 1.375 18.0625 1.20833 17.8542C1.04167 17.6458 0.986111 17.4097 1.04167 17.1458L3.16667 6.41667L1.66667 7V9C1.66667 9.23611 1.58681 9.43403 1.42708 9.59375C1.26736 9.75347 1.06944 9.83333 0.833333 9.83333C0.597222 9.83333 0.399306 9.75347 0.239583 9.59375C0.0798611 9.43403 0 9.23611 0 9V6.45833C0 6.29167 0.0451389 6.14236 0.135417 6.01042C0.225694 5.87847 0.347222 5.77778 0.5 5.70833L4.20833 4.125C4.40278 4.04167 4.60764 3.99306 4.82292 3.97917C5.03819 3.96528 5.24306 3.99306 5.4375 4.0625C5.63194 4.13194 5.81597 4.22917 5.98958 4.35417C6.16319 4.47917 6.30556 4.63889 6.41667 4.83333L7.25 6.16667C7.43056 6.44444 7.64236 6.70833 7.88542 6.95833C8.12847 7.20833 8.40278 7.42361 8.70833 7.60417C8.90278 7.71528 9.11806 7.81597 9.35417 7.90625C9.59028 7.99653 9.82639 8.0625 10.0625 8.10417C10.2847 8.14583 10.4688 8.24653 10.6146 8.40625C10.7604 8.56597 10.8333 8.76389 10.8333 9C10.8333 9.23611 10.75 9.43056 10.5833 9.58333C10.4167 9.73611 10.2153 9.79861 9.97917 9.77083C9.20139 9.65972 8.50347 9.41667 7.88542 9.04167C7.26736 8.66667 6.72917 8.21528 6.27083 7.6875L5.75 10.25L7.25 11.6667C7.33333 11.75 7.39583 11.8438 7.4375 11.9479C7.47917 12.0521 7.5 12.1597 7.5 12.2708V17.3333C7.5 17.5694 7.42014 17.7674 7.26042 17.9271C7.10069 18.0868 6.90278 18.1667 6.66667 18.1667C6.43056 18.1667 6.23264 18.0868 6.07292 17.9271C5.91319 17.7674 5.83333 17.5694 5.83333 17.3333V12.75L4.08333 11.4167ZM6.25 3.58333C5.79167 3.58333 5.39931 3.42014 5.07292 3.09375C4.74653 2.76736 4.58333 2.375 4.58333 1.91667C4.58333 1.45833 4.74653 1.06597 5.07292 0.739583C5.39931 0.413194 5.79167 0.25 6.25 0.25C6.70833 0.25 7.10069 0.413194 7.42708 0.739583C7.75347 1.06597 7.91667 1.45833 7.91667 1.91667C7.91667 2.375 7.75347 2.76736 7.42708 3.09375C7.10069 3.42014 6.70833 3.58333 6.25 3.58333Z" fill="#191919"/>
</svg>
