<svg width="20" height="20" viewBox="0 0 20 20" fill="none" xmlns="http://www.w3.org/2000/svg">
<mask id="mask0_8070_6030" style="mask-type:alpha" maskUnits="userSpaceOnUse" x="0" y="0" width="20" height="20">
<rect width="20" height="20" fill="#D9D9D9"/>
</mask>
<g mask="url(#mask0_8070_6030)">
<path d="M5 15.8307V16.2474C5 16.5946 4.87847 16.8898 4.63542 17.1328C4.39236 17.3759 4.09722 17.4974 3.75 17.4974C3.40278 17.4974 3.10764 17.3759 2.86458 17.1328C2.62153 16.8898 2.5 16.5946 2.5 16.2474V10.2891C2.5 10.1918 2.50694 10.0946 2.52083 9.9974C2.53472 9.90017 2.55556 9.8099 2.58333 9.72656L4.14583 5.28906C4.25694 4.95573 4.45833 4.6849 4.75 4.47656C5.04167 4.26823 5.36806 4.16406 5.72917 4.16406H14.2708C14.6319 4.16406 14.9583 4.26823 15.25 4.47656C15.5417 4.6849 15.7431 4.95573 15.8542 5.28906L17.4167 9.72656C17.4444 9.8099 17.4653 9.90017 17.4792 9.9974C17.4931 10.0946 17.5 10.1918 17.5 10.2891V16.2474C17.5 16.5946 17.3785 16.8898 17.1354 17.1328C16.8924 17.3759 16.5972 17.4974 16.25 17.4974C15.9028 17.4974 15.6076 17.3759 15.3646 17.1328C15.1215 16.8898 15 16.5946 15 16.2474V15.8307H5ZM4.83333 8.33073H15.1667L14.2917 5.83073H5.70833L4.83333 8.33073ZM6.25 13.3307C6.59722 13.3307 6.89236 13.2092 7.13542 12.9661C7.37847 12.7231 7.5 12.428 7.5 12.0807C7.5 11.7335 7.37847 11.4384 7.13542 11.1953C6.89236 10.9523 6.59722 10.8307 6.25 10.8307C5.90278 10.8307 5.60764 10.9523 5.36458 11.1953C5.12153 11.4384 5 11.7335 5 12.0807C5 12.428 5.12153 12.7231 5.36458 12.9661C5.60764 13.2092 5.90278 13.3307 6.25 13.3307ZM13.75 13.3307C14.0972 13.3307 14.3924 13.2092 14.6354 12.9661C14.8785 12.7231 15 12.428 15 12.0807C15 11.7335 14.8785 11.4384 14.6354 11.1953C14.3924 10.9523 14.0972 10.8307 13.75 10.8307C13.4028 10.8307 13.1076 10.9523 12.8646 11.1953C12.6215 11.4384 12.5 11.7335 12.5 12.0807C12.5 12.428 12.6215 12.7231 12.8646 12.9661C13.1076 13.2092 13.4028 13.3307 13.75 13.3307ZM4.16667 14.1641H15.8333V9.9974H4.16667V14.1641Z" fill="#191919"/>
</g>
</svg>
