<svg width="20" height="20" viewBox="0 0 20 20" fill="none" xmlns="http://www.w3.org/2000/svg">
<mask id="mask0_8070_6026" style="mask-type:alpha" maskUnits="userSpaceOnUse" x="0" y="0" width="20" height="20">
<rect width="20" height="20" fill="#D9D9D9"/>
</mask>
<g mask="url(#mask0_8070_6026)">
<path d="M8.33335 9.9974H11.25V11.0807C11.25 11.2752 11.3334 11.4071 11.5 11.4766C11.6667 11.546 11.8195 11.5113 11.9584 11.3724L13.5834 9.7474C13.75 9.58073 13.8334 9.38628 13.8334 9.16406C13.8334 8.94184 13.75 8.7474 13.5834 8.58073L11.9584 6.95573C11.8195 6.81684 11.6667 6.78212 11.5 6.85156C11.3334 6.92101 11.25 7.05295 11.25 7.2474V8.33073H7.50002C7.26391 8.33073 7.06599 8.41059 6.90627 8.57031C6.74655 8.73003 6.66669 8.92795 6.66669 9.16406V11.6641C6.66669 11.9002 6.74655 12.0981 6.90627 12.2578C7.06599 12.4175 7.26391 12.4974 7.50002 12.4974C7.73613 12.4974 7.93405 12.4175 8.09377 12.2578C8.25349 12.0981 8.33335 11.9002 8.33335 11.6641V9.9974ZM10 18.3307C9.79169 18.3307 9.58683 18.2891 9.38544 18.2057C9.18405 18.1224 9.00002 17.9974 8.83335 17.8307L2.16669 11.1641C2.00002 10.9974 1.87502 10.8134 1.79169 10.612C1.70835 10.4106 1.66669 10.2057 1.66669 9.9974C1.66669 9.78906 1.70835 9.5842 1.79169 9.38281C1.87502 9.18142 2.00002 8.9974 2.16669 8.83073L8.83335 2.16406C9.00002 1.9974 9.18405 1.8724 9.38544 1.78906C9.58683 1.70573 9.79169 1.66406 10 1.66406C10.2084 1.66406 10.4132 1.70573 10.6146 1.78906C10.816 1.8724 11 1.9974 11.1667 2.16406L17.8334 8.83073C18 8.9974 18.125 9.18142 18.2084 9.38281C18.2917 9.5842 18.3334 9.78906 18.3334 9.9974C18.3334 10.2057 18.2917 10.4106 18.2084 10.612C18.125 10.8134 18 10.9974 17.8334 11.1641L11.1667 17.8307C11 17.9974 10.816 18.1224 10.6146 18.2057C10.4132 18.2891 10.2084 18.3307 10 18.3307Z" fill="#F79E1B"/>
</g>
</svg>
