<svg width="20" height="20" viewBox="0 0 20 20" fill="none" xmlns="http://www.w3.org/2000/svg">
<mask id="mask0_8070_6034" style="mask-type:alpha" maskUnits="userSpaceOnUse" x="0" y="0" width="20" height="20">
<rect width="20" height="20" fill="#D9D9D9"/>
</mask>
<g mask="url(#mask0_8070_6034)">
<path d="M3.33333 15.8307C2.41667 15.8307 1.63194 15.5043 0.979167 14.8516C0.326389 14.1988 0 13.4141 0 12.4974C0 11.7057 0.253472 11.0043 0.760417 10.3932C1.26736 9.78212 1.91667 9.40017 2.70833 9.2474L2.125 8.7474H0.625C0.444444 8.7474 0.295139 8.68837 0.177083 8.57031C0.0590278 8.45226 0 8.30295 0 8.1224C0 7.94184 0.0590278 7.79254 0.177083 7.67448C0.295139 7.55642 0.444444 7.4974 0.625 7.4974H3.75L5.83333 8.7474L8.875 7.60156C8.97222 7.57378 9.06944 7.54948 9.16667 7.52865C9.26389 7.50781 9.36806 7.4974 9.47917 7.4974H11.7917L10.5 5.83073H9.16667C8.93056 5.83073 8.73264 5.75087 8.57292 5.59115C8.41319 5.43142 8.33333 5.23351 8.33333 4.9974C8.33333 4.76128 8.41319 4.56337 8.57292 4.40365C8.73264 4.24392 8.93056 4.16406 9.16667 4.16406H10.4792C10.7431 4.16406 10.9896 4.22309 11.2188 4.34115C11.4479 4.4592 11.6389 4.61545 11.7917 4.8099L13.0417 6.41406L15.2292 5.3099C15.3681 5.24045 15.5035 5.2474 15.6354 5.33073C15.7674 5.41406 15.8333 5.53212 15.8333 5.6849V7.08073C15.8333 7.19184 15.7917 7.28906 15.7083 7.3724C15.625 7.45573 15.5278 7.4974 15.4167 7.4974H13.9167L15.375 9.41406C15.5833 9.33073 15.7951 9.26823 16.0104 9.22656C16.2257 9.1849 16.4444 9.16406 16.6667 9.16406C17.5833 9.16406 18.3681 9.49045 19.0208 10.1432C19.6736 10.796 20 11.5807 20 12.4974C20 13.4141 19.6736 14.1988 19.0208 14.8516C18.3681 15.5043 17.5833 15.8307 16.6667 15.8307C15.75 15.8307 14.9653 15.5043 14.3125 14.8516C13.6597 14.1988 13.3333 13.4141 13.3333 12.4974C13.3333 12.1224 13.3993 11.7578 13.5313 11.4036C13.6632 11.0495 13.8472 10.7196 14.0833 10.4141L13.6667 9.91406L11.0833 13.7891C11.0139 13.9002 10.9167 13.9905 10.7917 14.0599C10.6667 14.1293 10.5347 14.1641 10.3958 14.1641H8.64583C8.53472 14.1641 8.43403 14.1467 8.34375 14.112C8.25347 14.0773 8.17361 14.0252 8.10417 13.9557L6.66667 12.7057C6.59722 13.5807 6.24306 14.3203 5.60417 14.9245C4.96528 15.5286 4.20833 15.8307 3.33333 15.8307ZM3.33333 14.1641C3.79167 14.1641 4.18403 14.0009 4.51042 13.6745C4.83681 13.3481 5 12.9557 5 12.4974C5 12.0391 4.83681 11.6467 4.51042 11.3203C4.18403 10.9939 3.79167 10.8307 3.33333 10.8307C2.875 10.8307 2.48264 10.9939 2.15625 11.3203C1.82986 11.6467 1.66667 12.0391 1.66667 12.4974C1.66667 12.9557 1.82986 13.3481 2.15625 13.6745C2.48264 14.0009 2.875 14.1641 3.33333 14.1641ZM16.6667 14.1641C17.125 14.1641 17.5174 14.0009 17.8438 13.6745C18.1701 13.3481 18.3333 12.9557 18.3333 12.4974C18.3333 12.0391 18.1701 11.6467 17.8438 11.3203C17.5174 10.9939 17.125 10.8307 16.6667 10.8307C16.2083 10.8307 15.816 10.9939 15.4896 11.3203C15.1632 11.6467 15 12.0391 15 12.4974C15 12.9557 15.1632 13.3481 15.4896 13.6745C15.816 14.0009 16.2083 14.1641 16.6667 14.1641ZM9.95833 12.4974L12.1667 9.16406H9.45833L6.45833 10.2891L8.95833 12.4974H9.95833Z" fill="#191919"/>
</g>
</svg>
