<svg width="13" height="14" viewBox="0 0 13 14" fill="none" xmlns="http://www.w3.org/2000/svg">
<path d="M10.25 0.304688C10.4489 0.304688 10.6397 0.383705 10.7803 0.524357C10.921 0.66501 11 0.855775 11 1.05469V2.30469H12.25C12.4489 2.30469 12.6397 2.38371 12.7803 2.52436C12.921 2.66501 13 2.85578 13 3.05469C13 3.2536 12.921 3.44437 12.7803 3.58502C12.6397 3.72567 12.4489 3.80469 12.25 3.80469H11V5.05469C11 5.2536 10.921 5.44437 10.7803 5.58502C10.6397 5.72567 10.4489 5.80469 10.25 5.80469C10.0511 5.80469 9.86032 5.72567 9.71967 5.58502C9.57902 5.44437 9.5 5.2536 9.5 5.05469V3.80469H8.25C8.05109 3.80469 7.86032 3.72567 7.71967 3.58502C7.57902 3.44437 7.5 3.2536 7.5 3.05469C7.5 2.85578 7.57902 2.66501 7.71967 2.52436C7.86032 2.38371 8.05109 2.30469 8.25 2.30469H9.5V1.05469C9.5 0.855775 9.57902 0.66501 9.71967 0.524357C9.86032 0.383705 10.0511 0.304688 10.25 0.304688ZM1.75 2.80469H5C5.0663 2.80469 5.12989 2.83103 5.17678 2.87791C5.22366 2.92479 5.25 2.98838 5.25 3.05469V6.55469H1.5V3.05469C1.5 2.98838 1.52634 2.92479 1.57322 2.87791C1.62011 2.83103 1.6837 2.80469 1.75 2.80469ZM6.75 6.55469V3.05469C6.75 2.59056 6.56563 2.14544 6.23744 1.81725C5.90925 1.48906 5.46413 1.30469 5 1.30469H1.75C1.28587 1.30469 0.840752 1.48906 0.512563 1.81725C0.184375 2.14544 0 2.59056 0 3.05469V11.5547C0 12.5207 0.784 13.3047 1.75 13.3047H10.25C10.7141 13.3047 11.1592 13.1203 11.4874 12.7921C11.8156 12.4639 12 12.0188 12 11.5547V8.30469C12 7.84056 11.8156 7.39544 11.4874 7.06725C11.1592 6.73906 10.7141 6.55469 10.25 6.55469H6.75ZM5.25 8.05469V11.8047H1.75C1.6837 11.8047 1.62011 11.7783 1.57322 11.7315C1.52634 11.6846 1.5 11.621 1.5 11.5547V8.05469H5.25ZM6.75 11.8047V8.05469H10.25C10.3163 8.05469 10.3799 8.08103 10.4268 8.12791C10.4737 8.17479 10.5 8.23838 10.5 8.30469V11.5547C10.5 11.621 10.4737 11.6846 10.4268 11.7315C10.3799 11.7783 10.3163 11.8047 10.25 11.8047H6.75Z" fill="#484848"/>
</svg>
