<svg width="14" height="15" viewBox="0 0 14 15" fill="none" xmlns="http://www.w3.org/2000/svg">
<path d="M4.49999 10.3438L9.49999 5.34375M6.81799 1.34375L8.58599 2.40375L10.639 2.58475L11.446 4.48175L13 5.83375L12.538 7.84375L13 9.85275L11.446 11.2058L10.639 13.1027L8.58599 13.2837L6.81799 14.3438L5.05099 13.2837L2.99699 13.1027L2.19099 11.2058L0.635986 9.85275L1.09799 7.84375L0.635986 5.83475L2.19099 4.48175L2.99699 2.58475L5.05099 2.40375L6.81799 1.34375ZM5.99999 6.34375C5.99999 6.60897 5.89463 6.86332 5.70709 7.05086C5.51956 7.23839 5.2652 7.34375 4.99999 7.34375C4.73477 7.34375 4.48042 7.23839 4.29288 7.05086C4.10534 6.86332 3.99999 6.60897 3.99999 6.34375C3.99999 6.07853 4.10534 5.82418 4.29288 5.63664C4.48042 5.44911 4.73477 5.34375 4.99999 5.34375C5.2652 5.34375 5.51956 5.44911 5.70709 5.63664C5.89463 5.82418 5.99999 6.07853 5.99999 6.34375ZM9.99999 9.84375C9.99999 10.109 9.89463 10.3633 9.70709 10.5509C9.51956 10.7384 9.2652 10.8438 8.99999 10.8438C8.73477 10.8438 8.48042 10.7384 8.29288 10.5509C8.10534 10.3633 7.99999 10.109 7.99999 9.84375C7.99999 9.57853 8.10534 9.32418 8.29288 9.13664C8.48042 8.94911 8.73477 8.84375 8.99999 8.84375C9.2652 8.84375 9.51956 8.94911 9.70709 9.13664C9.89463 9.32418 9.99999 9.57853 9.99999 9.84375Z" stroke="#484848"/>
</svg>
