<svg width="14" height="14" viewBox="0 0 14 14" fill="none" xmlns="http://www.w3.org/2000/svg">
<path d="M11 4.86979C12.2867 4.86979 13.3333 3.82312 13.3333 2.53646C13.3333 1.24979 12.2867 0.203125 11 0.203125C9.71333 0.203125 8.66667 1.24979 8.66667 2.53646C8.66667 3.82312 9.71333 4.86979 11 4.86979ZM12 10.2031V6.06312C11.6667 6.15646 11.3333 6.20312 11 6.20312H10.6667V10.2031C10.6667 11.3098 9.77333 12.2031 8.66667 12.2031H3.33333C2.22667 12.2031 1.33333 11.3098 1.33333 10.2031V4.86979C1.33333 3.76312 2.22667 2.86979 3.33333 2.86979H7.33333V2.53646C7.33333 2.20312 7.38 1.86979 7.47333 1.53646H3.33333C1.49333 1.53646 0 3.02979 0 4.86979V10.2031C0 12.0431 1.49333 13.5365 3.33333 13.5365H8.66667C10.5067 13.5365 12 12.0431 12 10.2031Z" fill="#484848"/>
</svg>
