<svg width="13" height="14" viewBox="0 0 13 14" fill="none" xmlns="http://www.w3.org/2000/svg">
<path d="M6.49999 9.34375C6.67707 9.34375 6.82561 9.28375 6.94561 9.16375C7.06561 9.04375 7.1254 8.89542 7.12499 8.71875C7.12457 8.54208 7.06457 8.39375 6.94499 8.27375C6.8254 8.15375 6.67707 8.09375 6.49999 8.09375C6.3229 8.09375 6.17457 8.15375 6.05499 8.27375C5.9354 8.39375 5.8754 8.54208 5.87499 8.71875C5.87457 8.89542 5.93457 9.04396 6.05499 9.16438C6.1754 9.28479 6.32374 9.34458 6.49999 9.34375ZM6.49999 7.46875C6.67707 7.46875 6.82561 7.40875 6.94561 7.28875C7.06561 7.16875 7.1254 7.02042 7.12499 6.84375V4.96875C7.12499 4.79167 7.06499 4.64333 6.94499 4.52375C6.82499 4.40417 6.67665 4.34417 6.49999 4.34375C6.32332 4.34333 6.17499 4.40333 6.05499 4.52375C5.93499 4.64417 5.87499 4.7925 5.87499 4.96875V6.84375C5.87499 7.02083 5.93499 7.16938 6.05499 7.28938C6.17499 7.40938 6.32332 7.46917 6.49999 7.46875ZM5.76561 13.0938C5.48436 13.0938 5.24228 13 5.03936 12.8125C4.83645 12.625 4.71395 12.3958 4.67186 12.125L4.53124 11.0938C4.39582 11.0417 4.26832 10.9792 4.14874 10.9062C4.02915 10.8333 3.91186 10.7552 3.79686 10.6719L2.82811 11.0781C2.5677 11.1927 2.30728 11.2031 2.04686 11.1094C1.78645 11.0156 1.58332 10.849 1.43749 10.6094L0.703113 9.32812C0.557279 9.08854 0.515613 8.83333 0.578113 8.5625C0.640613 8.29167 0.781238 8.06771 0.999988 7.89062L1.82811 7.26562C1.8177 7.19271 1.81249 7.12229 1.81249 7.05437V6.6325C1.81249 6.565 1.8177 6.49479 1.82811 6.42188L0.999988 5.79688C0.781238 5.61979 0.640613 5.39583 0.578113 5.125C0.515613 4.85417 0.557279 4.59896 0.703113 4.35937L1.43749 3.07812C1.58332 2.83854 1.78645 2.67188 2.04686 2.57813C2.30728 2.48438 2.5677 2.49479 2.82811 2.60938L3.79686 3.01562C3.91145 2.93229 4.03124 2.85417 4.15624 2.78125C4.28124 2.70833 4.40624 2.64583 4.53124 2.59375L4.67186 1.5625C4.71353 1.29167 4.83603 1.0625 5.03936 0.875C5.2427 0.6875 5.48478 0.59375 5.76561 0.59375H7.23436C7.51561 0.59375 7.7579 0.6875 7.96124 0.875C8.16457 1.0625 8.28686 1.29167 8.32811 1.5625L8.46874 2.59375C8.60415 2.64583 8.73186 2.70833 8.85186 2.78125C8.97186 2.85417 9.08895 2.93229 9.20311 3.01562L10.1719 2.60938C10.4323 2.49479 10.6927 2.48438 10.9531 2.57813C11.2135 2.67188 11.4167 2.83854 11.5625 3.07812L12.2969 4.35937C12.4427 4.59896 12.4844 4.85417 12.4219 5.125C12.3594 5.39583 12.2187 5.61979 12 5.79688L11.1719 6.42188C11.1823 6.49479 11.1875 6.56521 11.1875 6.63313V7.05437C11.1875 7.12229 11.1771 7.19271 11.1562 7.26562L11.9844 7.89062C12.2031 8.06771 12.3437 8.29167 12.4062 8.5625C12.4687 8.83333 12.4271 9.08854 12.2812 9.32812L11.5312 10.6094C11.3854 10.849 11.1823 11.0156 10.9219 11.1094C10.6614 11.2031 10.401 11.1927 10.1406 11.0781L9.20311 10.6719C9.08853 10.7552 8.96874 10.8333 8.84374 10.9062C8.71874 10.9792 8.59374 11.0417 8.46874 11.0938L8.32811 12.125C8.28645 12.3958 8.16415 12.625 7.96124 12.8125C7.75832 13 7.51603 13.0938 7.23436 13.0938H5.76561ZM5.87499 11.8438H7.10936L7.32811 10.1875C7.65103 10.1042 7.95061 9.98188 8.22686 9.82063C8.50311 9.65938 8.75561 9.46396 8.98436 9.23438L10.5312 9.875L11.1406 8.8125L9.79686 7.79688C9.84895 7.65104 9.8854 7.4975 9.90624 7.33625C9.92707 7.175 9.93749 7.01083 9.93749 6.84375C9.93749 6.67667 9.92707 6.51271 9.90624 6.35188C9.8854 6.19104 9.84895 6.03729 9.79686 5.89062L11.1406 4.875L10.5312 3.8125L8.98436 4.46875C8.7552 4.22917 8.5027 4.02875 8.22686 3.8675C7.95103 3.70625 7.65145 3.58375 7.32811 3.5L7.12499 1.84375H5.89061L5.67186 3.5C5.34895 3.58333 5.04957 3.70583 4.77374 3.8675C4.4979 4.02917 4.2452 4.22438 4.01561 4.45312L2.46874 3.8125L1.85936 4.875L3.20311 5.875C3.15103 6.03125 3.11457 6.1875 3.09374 6.34375C3.0729 6.5 3.06249 6.66667 3.06249 6.84375C3.06249 7.01042 3.0729 7.17188 3.09374 7.32812C3.11457 7.48438 3.15103 7.64062 3.20311 7.79688L1.85936 8.8125L2.46874 9.875L4.01561 9.21875C4.24478 9.45833 4.49749 9.65896 4.77374 9.82063C5.04999 9.98229 5.34936 10.1046 5.67186 10.1875L5.87499 11.8438Z" fill="#484848"/>
</svg>
