<svg width="12" height="12" viewBox="0 0 12 12" fill="none" xmlns="http://www.w3.org/2000/svg">
<path d="M5.74935 8.38073C5.66046 8.38073 5.57713 8.36684 5.49935 8.33906C5.42157 8.31128 5.34935 8.26406 5.28268 8.1974L2.88268 5.7974C2.74935 5.66406 2.68546 5.50851 2.69102 5.33073C2.69657 5.15295 2.76046 4.9974 2.88268 4.86406C3.01602 4.73073 3.17435 4.66128 3.35768 4.65573C3.54102 4.65017 3.69935 4.71406 3.83268 4.8474L5.08268 6.0974V1.33073C5.08268 1.14184 5.14657 0.983507 5.27435 0.855729C5.40213 0.727951 5.56046 0.664062 5.74935 0.664062C5.93824 0.664062 6.09657 0.727951 6.22435 0.855729C6.35213 0.983507 6.41602 1.14184 6.41602 1.33073V6.0974L7.66602 4.8474C7.79935 4.71406 7.95768 4.65017 8.14102 4.65573C8.32435 4.66128 8.48268 4.73073 8.61602 4.86406C8.73824 4.9974 8.80213 5.15295 8.80768 5.33073C8.81324 5.50851 8.74935 5.66406 8.61602 5.7974L6.21602 8.1974C6.14935 8.26406 6.07713 8.31128 5.99935 8.33906C5.92157 8.36684 5.83824 8.38073 5.74935 8.38073ZM1.74935 11.3307C1.38268 11.3307 1.06879 11.2002 0.807682 10.9391C0.546571 10.678 0.416016 10.3641 0.416016 9.9974V8.66406C0.416016 8.47517 0.479905 8.31684 0.607682 8.18906C0.73546 8.06128 0.893793 7.9974 1.08268 7.9974C1.27157 7.9974 1.4299 8.06128 1.55768 8.18906C1.68546 8.31684 1.74935 8.47517 1.74935 8.66406V9.9974H9.74935V8.66406C9.74935 8.47517 9.81324 8.31684 9.94102 8.18906C10.0688 8.06128 10.2271 7.9974 10.416 7.9974C10.6049 7.9974 10.7632 8.06128 10.891 8.18906C11.0188 8.31684 11.0827 8.47517 11.0827 8.66406V9.9974C11.0827 10.3641 10.9521 10.678 10.691 10.9391C10.4299 11.2002 10.116 11.3307 9.74935 11.3307H1.74935Z" fill="white"/>
</svg>
