<svg width="17" height="16" viewBox="0 0 17 16" fill="none" xmlns="http://www.w3.org/2000/svg">
<mask id="mask0_7090_144361" style="mask-type:alpha" maskUnits="userSpaceOnUse" x="0" y="0" width="17" height="16">
<rect x="0.75" width="16" height="16" fill="#FFFFFF"/>
</mask>
<g mask="url(#mask0_7090_144361)">
<path d="M12.084 14.6693C11.5284 14.6693 11.0562 14.4748 10.6673 14.0859C10.2784 13.697 10.084 13.2248 10.084 12.6693C10.084 12.6026 10.1007 12.4471 10.134 12.2026L5.45065 9.46927C5.27287 9.63594 5.06732 9.76649 4.83398 9.86094C4.60065 9.95538 4.35065 10.0026 4.08398 10.0026C3.52843 10.0026 3.05621 9.80816 2.66732 9.41927C2.27843 9.03038 2.08398 8.55816 2.08398 8.0026C2.08398 7.44705 2.27843 6.97483 2.66732 6.58594C3.05621 6.19705 3.52843 6.0026 4.08398 6.0026C4.35065 6.0026 4.60065 6.04983 4.83398 6.14427C5.06732 6.23872 5.27287 6.36927 5.45065 6.53594L10.134 3.8026C10.1118 3.72483 10.0979 3.64983 10.0923 3.5776C10.0868 3.50538 10.084 3.42483 10.084 3.33594C10.084 2.78038 10.2784 2.30816 10.6673 1.91927C11.0562 1.53038 11.5284 1.33594 12.084 1.33594C12.6395 1.33594 13.1118 1.53038 13.5007 1.91927C13.8895 2.30816 14.084 2.78038 14.084 3.33594C14.084 3.89149 13.8895 4.36372 13.5007 4.7526C13.1118 5.14149 12.6395 5.33594 12.084 5.33594C11.8173 5.33594 11.5673 5.28872 11.334 5.19427C11.1007 5.09983 10.8951 4.96927 10.7173 4.8026L6.03398 7.53594C6.05621 7.61372 6.0701 7.68872 6.07565 7.76094C6.08121 7.83316 6.08398 7.91372 6.08398 8.0026C6.08398 8.09149 6.08121 8.17205 6.07565 8.24427C6.0701 8.31649 6.05621 8.39149 6.03398 8.46927L10.7173 11.2026C10.8951 11.0359 11.1007 10.9054 11.334 10.8109C11.5673 10.7165 11.8173 10.6693 12.084 10.6693C12.6395 10.6693 13.1118 10.8637 13.5007 11.2526C13.8895 11.6415 14.084 12.1137 14.084 12.6693C14.084 13.2248 13.8895 13.697 13.5007 14.0859C13.1118 14.4748 12.6395 14.6693 12.084 14.6693ZM12.084 13.3359C12.2729 13.3359 12.4312 13.272 12.559 13.1443C12.6868 13.0165 12.7507 12.8582 12.7507 12.6693C12.7507 12.4804 12.6868 12.322 12.559 12.1943C12.4312 12.0665 12.2729 12.0026 12.084 12.0026C11.8951 12.0026 11.7368 12.0665 11.609 12.1943C11.4812 12.322 11.4173 12.4804 11.4173 12.6693C11.4173 12.8582 11.4812 13.0165 11.609 13.1443C11.7368 13.272 11.8951 13.3359 12.084 13.3359ZM4.08398 8.66927C4.27287 8.66927 4.43121 8.60538 4.55898 8.4776C4.68676 8.34983 4.75065 8.19149 4.75065 8.0026C4.75065 7.81372 4.68676 7.65538 4.55898 7.5276C4.43121 7.39983 4.27287 7.33594 4.08398 7.33594C3.8951 7.33594 3.73676 7.39983 3.60898 7.5276C3.48121 7.65538 3.41732 7.81372 3.41732 8.0026C3.41732 8.19149 3.48121 8.34983 3.60898 8.4776C3.73676 8.60538 3.8951 8.66927 4.08398 8.66927ZM12.084 4.0026C12.2729 4.0026 12.4312 3.93872 12.559 3.81094C12.6868 3.68316 12.7507 3.52483 12.7507 3.33594C12.7507 3.14705 12.6868 2.98872 12.559 2.86094C12.4312 2.73316 12.2729 2.66927 12.084 2.66927C11.8951 2.66927 11.7368 2.73316 11.609 2.86094C11.4812 2.98872 11.4173 3.14705 11.4173 3.33594C11.4173 3.52483 11.4812 3.68316 11.609 3.81094C11.7368 3.93872 11.8951 4.0026 12.084 4.0026Z" fill="white"/>
</g>
</svg>
