<svg width="19" height="19" viewBox="0 0 19 19" fill="none" xmlns="http://www.w3.org/2000/svg">
<g clip-path="url(#clip0_7929_82009)">
<path d="M6.34473 5.75045C6.0391 5.44483 5.54357 5.44484 5.23795 5.75045C4.93233 6.05607 4.93233 6.5516 5.23795 6.85723L6.34473 5.75045ZM8.9272 10.5465C9.23282 10.8521 9.72836 10.8521 10.034 10.5465C10.3396 10.2409 10.3396 9.74532 10.034 9.43971L8.9272 10.5465ZM10.034 9.43971C9.72836 9.13409 9.23282 9.13409 8.9272 9.43971C8.62159 9.74532 8.62159 10.2409 8.9272 10.5465L10.034 9.43971ZM12.6165 14.2357C12.9221 14.5414 13.4176 14.5414 13.7232 14.2357C14.0288 13.9301 14.0288 13.4346 13.7232 13.129L12.6165 14.2357ZM10.034 10.5465C10.3396 10.2409 10.3396 9.74532 10.034 9.43971C9.72836 9.13409 9.23282 9.13409 8.9272 9.43971L10.034 10.5465ZM5.23795 13.129C4.93233 13.4346 4.93233 13.9301 5.23795 14.2357C5.54357 14.5414 6.03911 14.5414 6.34473 14.2357L5.23795 13.129ZM8.9272 9.43971C8.62159 9.74532 8.62159 10.2409 8.9272 10.5465C9.23282 10.8521 9.72836 10.8521 10.034 10.5465L8.9272 9.43971ZM13.7232 6.85723C14.0289 6.5516 14.0288 6.05607 13.7232 5.75045C13.4176 5.44484 12.9221 5.44483 12.6165 5.75045L13.7232 6.85723ZM5.23795 6.85723L8.9272 10.5465L10.034 9.43971L6.34473 5.75045L5.23795 6.85723ZM8.9272 10.5465L12.6165 14.2357L13.7232 13.129L10.034 9.43971L8.9272 10.5465ZM9.48059 9.99309L8.9272 9.43971L8.92646 9.44044C8.92639 9.44052 8.92558 9.44133 8.92558 9.44133C8.92565 9.44126 8.92551 9.4414 8.92558 9.44133C8.92558 9.44133 8.92477 9.44214 8.92469 9.44221C8.92477 9.44214 8.92462 9.44229 8.92469 9.44221C8.92462 9.44229 8.92403 9.44288 8.92396 9.44295C8.92388 9.44303 8.92322 9.44369 8.92314 9.44376C8.92307 9.44384 8.92248 9.44443 8.92241 9.4445C8.92233 9.44458 8.92167 9.44524 8.92152 9.44539C8.92145 9.44546 8.92078 9.44612 8.92064 9.44627C8.92056 9.44635 8.91975 9.44716 8.91968 9.44723C8.91982 9.44708 8.91953 9.44738 8.91968 9.44723C8.91953 9.44738 8.91909 9.44782 8.91894 9.44797C8.91909 9.44782 8.91879 9.44812 8.91894 9.44797C8.91879 9.44812 8.91827 9.44863 8.9182 9.44871C8.91835 9.44856 8.91805 9.44886 8.9182 9.44871C8.91805 9.44886 8.91754 9.44937 8.91739 9.44952C8.91754 9.44937 8.91724 9.44967 8.91739 9.44952C8.91724 9.44967 8.91665 9.45026 8.9165 9.4504C8.91665 9.45026 8.91636 9.45055 8.9165 9.4504C8.91636 9.45055 8.91577 9.45114 8.91562 9.45129C8.91584 9.45107 8.91547 9.45144 8.91562 9.45129C8.91547 9.45144 8.91481 9.4521 8.91466 9.45225C8.91481 9.4521 8.91451 9.4524 8.91466 9.45225C8.91451 9.4524 8.91385 9.45306 8.91363 9.45328C8.91385 9.45306 8.91348 9.45343 8.91363 9.45328C8.91348 9.45343 8.91274 9.45417 8.91259 9.45432C8.91274 9.45417 8.91245 9.45446 8.91259 9.45432C8.91237 9.45454 8.91171 9.4552 8.91149 9.45542C8.91171 9.4552 8.91126 9.45564 8.91149 9.45542C8.91134 9.45557 8.91053 9.45638 8.91031 9.4566C8.91053 9.45638 8.91016 9.45675 8.91031 9.4566C8.91009 9.45682 8.90935 9.45756 8.90913 9.45778C8.90935 9.45756 8.9089 9.458 8.90913 9.45778C8.9089 9.458 8.90802 9.45889 8.9078 9.45911C8.90802 9.45889 8.90758 9.45933 8.9078 9.45911C8.90758 9.45933 8.90669 9.46022 8.90647 9.46044C8.90669 9.46022 8.90625 9.46066 8.90647 9.46044C8.90625 9.46066 8.90536 9.46155 8.90507 9.46184C8.90529 9.46162 8.90485 9.46206 8.90507 9.46184C8.90477 9.46214 8.90389 9.46302 8.90366 9.46324C8.90337 9.46354 8.90315 9.46376 8.90285 9.46405C8.90263 9.46428 8.90241 9.4645 8.90212 9.46479C8.90182 9.46509 8.9016 9.46531 8.9013 9.4656C8.90108 9.46583 8.90079 9.46612 8.90057 9.46634C8.90027 9.46664 8.89998 9.46693 8.89968 9.46723C8.89946 9.46745 8.89916 9.46774 8.89887 9.46804C8.89857 9.46833 8.89835 9.46856 8.89806 9.46885C8.89776 9.46915 8.89747 9.46944 8.89717 9.46974C8.89688 9.47003 8.89658 9.47033 8.89629 9.47062C8.89599 9.47092 8.8957 9.47121 8.8954 9.47151C8.89511 9.4718 8.89474 9.47217 8.89444 9.47247C8.89415 9.47276 8.89385 9.47306 8.89356 9.47335C8.89319 9.47372 8.89289 9.47402 8.8926 9.47431C8.89223 9.47468 8.89193 9.47497 8.89164 9.47527C8.89127 9.47564 8.89097 9.47593 8.89061 9.4763C8.89031 9.4766 8.88994 9.47697 8.88965 9.47726C8.88928 9.47763 8.88891 9.478 8.88861 9.4783C8.88824 9.47866 8.88788 9.47903 8.88751 9.4794C8.88721 9.4797 8.88684 9.48007 8.88647 9.48043C8.8861 9.4808 8.88574 9.48117 8.88537 9.48154C8.88507 9.48184 8.8847 9.48221 8.88433 9.48257C8.88396 9.48294 8.88352 9.48339 8.88315 9.48376C8.88278 9.48412 8.88242 9.48449 8.88205 9.48486C8.88168 9.48523 8.88131 9.4856 8.88087 9.48604C8.8805 9.48641 8.88013 9.48678 8.87969 9.48722C8.87932 9.48759 8.87887 9.48803 8.8785 9.4884C8.87814 9.48877 8.87769 9.48922 8.87732 9.48958C8.87688 9.49003 8.87644 9.49047 8.87607 9.49084C8.87563 9.49128 8.87518 9.49172 8.87482 9.49209C8.87437 9.49254 8.87393 9.49298 8.87349 9.49342C8.87312 9.49379 8.87268 9.49423 8.87223 9.49468C8.87179 9.49512 8.87135 9.49556 8.8709 9.496C8.87046 9.49645 8.87002 9.49689 8.86958 9.49733C8.86913 9.49777 8.86862 9.49829 8.86817 9.49873C8.86773 9.49918 8.86729 9.49962 8.86685 9.50006C8.86633 9.50058 8.86589 9.50102 8.86544 9.50146C8.86493 9.50198 8.86449 9.50242 8.86397 9.50294C8.86353 9.50338 8.86301 9.5039 8.86257 9.50434C8.86205 9.50486 8.86153 9.50537 8.86109 9.50582C8.86058 9.50633 8.86006 9.50685 8.85954 9.50737C8.8591 9.50781 8.85858 9.50833 8.85807 9.50884C8.85755 9.50936 8.85703 9.50988 8.85652 9.51039C8.856 9.51091 8.85548 9.51143 8.85497 9.51194C8.85445 9.51246 8.85393 9.51297 8.85342 9.51349C8.85283 9.51408 8.85231 9.5146 8.85179 9.51511C8.8512 9.5157 8.85069 9.51622 8.85017 9.51674C8.84958 9.51733 8.84906 9.51784 8.84847 9.51843C8.84796 9.51895 8.84737 9.51954 8.84685 9.52006C8.84626 9.52065 8.84567 9.52124 8.84515 9.52175C8.84456 9.52235 8.84397 9.52293 8.84338 9.52353C8.84279 9.52412 8.84228 9.52463 8.84169 9.52522C8.8411 9.52581 8.8405 9.5264 8.83991 9.52699C8.83932 9.52758 8.83866 9.52825 8.83807 9.52884C8.83748 9.52943 8.83689 9.53002 8.8363 9.53061C8.83564 9.53127 8.83505 9.53186 8.83446 9.53245C8.83379 9.53312 8.8332 9.53371 8.83254 9.53437C8.83195 9.53496 8.83128 9.53563 8.83069 9.53622C8.83003 9.53688 8.82936 9.53754 8.82877 9.53813C8.82811 9.5388 8.82745 9.53946 8.82678 9.54013C8.82619 9.54072 8.82553 9.54138 8.82486 9.54205C8.8242 9.54271 8.82353 9.54337 8.82287 9.54404C8.82221 9.5447 8.82154 9.54537 8.8208 9.5461C8.82014 9.54677 8.81948 9.54743 8.81881 9.5481C8.81807 9.54883 8.81741 9.5495 8.81675 9.55016C8.81601 9.5509 8.81534 9.55156 8.81461 9.5523C8.81394 9.55297 8.8132 9.5537 8.81247 9.55444C8.8118 9.55511 8.81107 9.55584 8.81033 9.55658C8.80959 9.55732 8.80893 9.55798 8.80819 9.55872C8.80745 9.55946 8.80671 9.5602 8.80597 9.56093C8.80524 9.56167 8.8045 9.56241 8.80376 9.56315C8.80295 9.56396 8.80221 9.5647 8.80147 9.56544C8.80074 9.56617 8.79992 9.56698 8.79919 9.56772C8.79845 9.56846 8.79764 9.56927 8.7969 9.57001C8.79609 9.57082 8.79535 9.57156 8.79454 9.57237C8.79373 9.57318 8.79299 9.57392 8.79218 9.57473C8.79136 9.57554 8.79055 9.57636 8.78974 9.57717C8.78893 9.57798 8.78812 9.57879 8.78731 9.5796C8.78649 9.58041 8.78568 9.58122 8.78487 9.58204C8.78406 9.58285 8.78325 9.58366 8.78244 9.58447C8.78155 9.58536 8.78074 9.58617 8.77985 9.58705C8.77904 9.58787 8.77823 9.58868 8.77735 9.58956C8.77653 9.59037 8.77565 9.59126 8.77476 9.59215C8.77395 9.59296 8.77307 9.59384 8.77218 9.59473C8.77129 9.59561 8.77041 9.5965 8.76952 9.59738C8.76864 9.59827 8.76775 9.59916 8.76687 9.60004C8.76598 9.60093 8.7651 9.60181 8.76421 9.6027C8.76333 9.60358 8.76244 9.60447 8.76148 9.60543C8.7606 9.60631 8.75964 9.60727 8.75875 9.60816C8.75779 9.60912 8.75691 9.61 8.75595 9.61096C8.75506 9.61185 8.7541 9.61281 8.75314 9.61376C8.75226 9.61465 8.7513 9.61561 8.75034 9.61657C8.74938 9.61753 8.74842 9.61849 8.74746 9.61945C8.7465 9.62041 8.74554 9.62136 8.74458 9.62232C8.74363 9.62328 8.74259 9.62432 8.74163 9.62528C8.74067 9.62623 8.73964 9.62727 8.73868 9.62823C8.73765 9.62926 8.73669 9.63022 8.73566 9.63125C8.7347 9.63221 8.73367 9.63324 8.73263 9.63428C8.73167 9.63524 8.73064 9.63627 8.72961 9.6373C8.72857 9.63834 8.72754 9.63937 8.72651 9.6404C8.72547 9.64143 8.72444 9.64247 8.72341 9.6435C8.72238 9.64453 8.72127 9.64564 8.72024 9.64667C8.7192 9.64771 8.7181 9.64881 8.71706 9.64985C8.71596 9.65095 8.71492 9.65199 8.71382 9.65309C8.71278 9.65412 8.71168 9.65523 8.71057 9.65634C8.70946 9.65745 8.70843 9.65848 8.70732 9.65959C8.70622 9.66069 8.70511 9.6618 8.704 9.66291C8.7029 9.66401 8.70179 9.66512 8.70061 9.6663C8.6995 9.66741 8.6984 9.66851 8.69729 9.66962C8.69611 9.6708 8.695 9.67191 8.69382 9.67309C8.69271 9.67419 8.69153 9.67537 8.69043 9.67648C8.68925 9.67766 8.68807 9.67884 8.68689 9.68002C8.68578 9.68113 8.6846 9.68231 8.68342 9.68349C8.68224 9.68467 8.68106 9.68585 8.67987 9.68703C8.67869 9.68821 8.67744 9.68947 8.67626 9.69065C8.67508 9.69183 8.67382 9.69308 8.67264 9.69426C8.67146 9.69544 8.67021 9.6967 8.66895 9.69795C8.66777 9.69913 8.66652 9.70039 8.66527 9.70164C8.66409 9.70282 8.66283 9.70408 8.66158 9.70533C8.66032 9.70659 8.65907 9.70784 8.65781 9.70909C8.65656 9.71035 8.6553 9.7116 8.65405 9.71286C8.65272 9.71419 8.65147 9.71544 8.65021 9.71669C8.64889 9.71802 8.64763 9.71928 8.6463 9.72061C8.64505 9.72186 8.64372 9.72319 8.64247 9.72444C8.64114 9.72577 8.63981 9.7271 8.63848 9.72843C8.63715 9.72975 8.63583 9.73108 8.6345 9.73241C8.63317 9.73374 8.63184 9.73507 8.63051 9.7364C8.62919 9.73772 8.62786 9.73905 8.62645 9.74045C8.62513 9.74178 8.62372 9.74318 8.6224 9.74451C8.62099 9.74591 8.61967 9.74724 8.61826 9.74864C8.61686 9.75005 8.61553 9.75137 8.61413 9.75278C8.61273 9.75418 8.61133 9.75558 8.60993 9.75698C8.60852 9.75838 8.60712 9.75978 8.60565 9.76126C8.60425 9.76266 8.60284 9.76406 8.60144 9.76547C8.59997 9.76694 8.59856 9.76834 8.59709 9.76982C8.59569 9.77122 8.59421 9.7727 8.59273 9.77417C8.59133 9.77558 8.58986 9.77705 8.58838 9.77853C8.58691 9.78 8.58543 9.78148 8.58395 9.78295C8.58248 9.78443 8.581 9.7859 8.57953 9.78738C8.57805 9.78886 8.5765 9.79041 8.57503 9.79188C8.57348 9.79343 8.572 9.79491 8.57045 9.79646C8.56898 9.79793 8.56743 9.79948 8.56588 9.80103C8.5644 9.80251 8.56285 9.80406 8.5613 9.80561C8.55975 9.80716 8.5582 9.8087 8.55665 9.81025C8.5551 9.8118 8.55356 9.81335 8.55193 9.81498C8.55038 9.81653 8.54883 9.81808 8.54721 9.8197C8.54566 9.82125 8.54404 9.82287 8.54249 9.82442C8.54086 9.82604 8.53924 9.82767 8.53762 9.82929C8.53607 9.83084 8.53444 9.83246 8.53282 9.83409C8.5312 9.83571 8.52958 9.83733 8.52788 9.83903C8.52626 9.84065 8.52463 9.84228 8.52301 9.8439C8.52131 9.8456 8.51969 9.84722 8.51799 9.84892C8.51637 9.85054 8.51467 9.85224 8.51297 9.85394C8.51135 9.85556 8.50965 9.85726 8.50796 9.85895C8.50626 9.86065 8.50456 9.86235 8.50286 9.86404C8.50117 9.86574 8.49947 9.86744 8.4977 9.86921C8.496 9.87091 8.49431 9.8726 8.49254 9.87437C8.49084 9.87607 8.48907 9.87784 8.4873 9.87961C8.4856 9.88131 8.48383 9.88308 8.48206 9.88485C8.48029 9.88662 8.47852 9.88839 8.47674 9.89016C8.47497 9.89193 8.4732 9.8937 8.47143 9.89548C8.46966 9.89725 8.46782 9.89909 8.46605 9.90086C8.46428 9.90263 8.46243 9.90448 8.46059 9.90632C8.45882 9.90809 8.45697 9.90994 8.45513 9.91178C8.45336 9.91355 8.45151 9.9154 8.44967 9.91724C8.44782 9.91909 8.44598 9.92093 8.44406 9.92285C8.44221 9.9247 8.44037 9.92654 8.43852 9.92838C8.43661 9.9303 8.43476 9.93215 8.43284 9.93407C8.431 9.93591 8.42908 9.93783 8.42716 9.93975C8.42524 9.94167 8.4234 9.94351 8.42148 9.94543C8.41956 9.94735 8.41764 9.94927 8.41565 9.95126C8.41373 9.95318 8.41181 9.95509 8.4099 9.95701C8.4079 9.95901 8.40599 9.96092 8.40399 9.96292C8.40207 9.96483 8.40008 9.96683 8.39809 9.96882C8.3961 9.97081 8.39418 9.97273 8.39219 9.97472C8.3902 9.97671 8.3882 9.97871 8.38621 9.9807C8.38414 9.98276 8.38215 9.98476 8.38016 9.98675C8.37809 9.98881 8.3761 9.99081 8.37404 9.99287C8.37204 9.99486 8.36998 9.99693 8.36791 9.999C8.36592 10.001 8.36385 10.0031 8.36179 10.0051C8.35972 10.0072 8.35766 10.0093 8.35559 10.0113C8.35345 10.0135 8.35138 10.0155 8.34932 10.0176C8.34718 10.0197 8.34511 10.0218 8.34297 10.0239C8.34091 10.026 8.33877 10.0281 8.33663 10.0303C8.33449 10.0324 8.33242 10.0345 8.33028 10.0366C8.32814 10.0388 8.32593 10.041 8.32379 10.0431C8.32165 10.0453 8.31951 10.0474 8.3173 10.0496C8.31516 10.0518 8.31294 10.054 8.3108 10.0561C8.30859 10.0583 8.30638 10.0605 8.30424 10.0627C8.30202 10.0649 8.29981 10.0671 8.29759 10.0693C8.29538 10.0715 8.29317 10.0737 8.29088 10.076C8.28867 10.0782 8.28645 10.0805 8.28417 10.0827C8.28195 10.085 8.27966 10.0872 8.27738 10.0895C8.27516 10.0917 8.27288 10.094 8.27059 10.0963C8.2683 10.0986 8.26601 10.1009 8.26373 10.1032C8.26144 10.1055 8.25915 10.1078 8.25679 10.1101C8.2545 10.1124 8.25222 10.1147 8.24986 10.1171C8.24757 10.1193 8.24521 10.1217 8.24285 10.1241C8.24049 10.1264 8.23812 10.1288 8.23576 10.1311C8.23348 10.1334 8.23104 10.1359 8.22868 10.1382C8.22632 10.1406 8.22396 10.143 8.22152 10.1454C8.21916 10.1477 8.21673 10.1502 8.21437 10.1525C8.21193 10.155 8.2095 10.1574 8.20706 10.1598C8.2047 10.1622 8.20226 10.1646 8.19983 10.1671C8.19732 10.1696 8.19489 10.172 8.19245 10.1745C8.19002 10.1769 8.18751 10.1794 8.18507 10.1818C8.18256 10.1843 8.18013 10.1868 8.17762 10.1893C8.17511 10.1918 8.1726 10.1943 8.17009 10.1968C8.16759 10.1993 8.16508 10.2018 8.16257 10.2043C8.16006 10.2068 8.15748 10.2094 8.15497 10.2119C8.15246 10.2144 8.14988 10.217 8.14729 10.2196C8.14479 10.2221 8.1422 10.2247 8.13962 10.2273C8.13704 10.2299 8.13446 10.2325 8.13187 10.235C8.12929 10.2376 8.12671 10.2402 8.12405 10.2429C8.12147 10.2454 8.11889 10.248 8.11623 10.2507C8.11358 10.2533 8.11099 10.2559 8.10834 10.2586C8.10568 10.2612 8.10302 10.2639 8.10037 10.2665C8.09771 10.2692 8.09505 10.2719 8.0924 10.2745C8.08974 10.2772 8.08701 10.2799 8.08436 10.2826C8.08163 10.2853 8.07897 10.2879 8.07624 10.2907C8.07351 10.2934 8.07078 10.2961 8.06805 10.2989C8.06532 10.3016 8.06259 10.3043 8.05986 10.307C8.05713 10.3098 8.0544 10.3125 8.0516 10.3153C8.04887 10.318 8.04606 10.3208 8.04326 10.3237C8.04053 10.3264 8.03772 10.3292 8.03492 10.332C8.03212 10.3348 8.02931 10.3376 8.02651 10.3404C8.0237 10.3432 8.0209 10.346 8.01802 10.3489C8.01522 10.3517 8.01234 10.3546 8.00954 10.3574C8.00666 10.3602 8.00378 10.3631 8.00091 10.366C7.9981 10.3688 7.99522 10.3717 7.99227 10.3746C7.98939 10.3775 7.98652 10.3804 7.98364 10.3833C7.98069 10.3862 7.97781 10.3891 7.97486 10.392C7.97198 10.3949 7.96903 10.3979 7.96608 10.4008C7.96313 10.4038 7.96018 10.4067 7.95722 10.4097C7.95427 10.4126 7.95132 10.4156 7.94837 10.4185C7.94535 10.4216 7.94239 10.4245 7.93937 10.4275C7.93642 10.4305 7.93339 10.4335 7.93037 10.4365C7.92742 10.4395 7.92439 10.4425 7.92136 10.4455C7.91827 10.4486 7.91524 10.4517 7.91222 10.4547C7.90919 10.4577 7.90609 10.4608 7.90307 10.4638C7.89997 10.4669 7.89687 10.47 7.89384 10.4731C7.89074 10.4762 7.88764 10.4793 7.88455 10.4824C7.88145 10.4855 7.87835 10.4886 7.87518 10.4917C7.87208 10.4948 7.86898 10.4979 7.8658 10.5011C7.86263 10.5043 7.85953 10.5074 7.85636 10.5105C7.85319 10.5137 7.85001 10.5169 7.84684 10.5201C7.84367 10.5232 7.8405 10.5264 7.83732 10.5296C7.83408 10.5328 7.8309 10.536 7.82766 10.5393C7.82449 10.5424 7.82124 10.5457 7.81799 10.5489C7.81475 10.5522 7.8115 10.5554 7.80825 10.5587C7.80501 10.5619 7.80176 10.5651 7.79851 10.5684C7.79519 10.5717 7.79195 10.575 7.78863 10.5783C7.78538 10.5815 7.78206 10.5848 7.77874 10.5882C7.77542 10.5915 7.7721 10.5948 7.76878 10.5981C7.76546 10.6015 7.76214 10.6048 7.75874 10.6082C7.75542 10.6115 7.75203 10.6149 7.74871 10.6182C7.74531 10.6216 7.74192 10.625 7.7386 10.6283C7.73521 10.6317 7.73181 10.6351 7.72834 10.6386C7.72495 10.642 7.72155 10.6454 7.71816 10.6487C7.71469 10.6522 7.7113 10.6556 7.70783 10.6591C7.70436 10.6625 7.70089 10.666 7.69743 10.6695C7.69403 10.6729 7.69049 10.6764 7.68702 10.6799C7.68356 10.6834 7.68009 10.6868 7.67655 10.6904C7.67308 10.6938 7.66954 10.6974 7.66599 10.7009C7.66253 10.7044 7.65898 10.7079 7.65544 10.7115C7.6519 10.715 7.64836 10.7185 7.64474 10.7222C7.6412 10.7257 7.63766 10.7292 7.63405 10.7329C7.63043 10.7365 7.62689 10.74 7.62327 10.7436C7.61966 10.7473 7.61604 10.7509 7.61243 10.7545C7.60881 10.7581 7.6052 10.7617 7.60151 10.7654C7.59789 10.769 7.59428 10.7726 7.59059 10.7763C7.5869 10.78 7.58328 10.7836 7.57959 10.7873C7.5759 10.791 7.57221 10.7947 7.56852 10.7984C7.56476 10.8021 7.56107 10.8058 7.55738 10.8095C7.55362 10.8133 7.54993 10.817 7.54617 10.8207C7.5424 10.8245 7.53864 10.8283 7.53488 10.832C7.53112 10.8358 7.52735 10.8396 7.52359 10.8433C7.51983 10.8471 7.51599 10.8509 7.51223 10.8547C7.50839 10.8585 7.50455 10.8624 7.50079 10.8661C7.49695 10.87 7.49312 10.8738 7.48928 10.8776C7.48544 10.8815 7.48153 10.8854 7.4777 10.8892C7.47386 10.8931 7.46995 10.897 7.46604 10.9009C7.4622 10.9047 7.45829 10.9086 7.45438 10.9125C7.45047 10.9164 7.44656 10.9204 7.44265 10.9243C7.43866 10.9282 7.43475 10.9322 7.43084 10.9361C7.42686 10.9401 7.42287 10.944 7.41896 10.9479C7.41498 10.9519 7.41099 10.9559 7.40701 10.9599C7.40303 10.9639 7.39897 10.9679 7.39498 10.9719C7.391 10.9759 7.38694 10.98 7.38296 10.984C7.3789 10.988 7.37484 10.9921 7.37078 10.9961C7.36672 11.0002 7.36266 11.0042 7.35861 11.0083C7.35455 11.0124 7.35042 11.0165 7.34636 11.0206C7.34223 11.0247 7.33817 11.0287 7.33404 11.0329C7.3299 11.037 7.32577 11.0411 7.32164 11.0453C7.31751 11.0494 7.31338 11.0535 7.30917 11.0577C7.30504 11.0619 7.30091 11.066 7.2967 11.0702C7.2925 11.0744 7.28829 11.0786 7.28416 11.0828C7.27995 11.087 7.27567 11.0912 7.27147 11.0954C7.26726 11.0996 7.26305 11.1039 7.25877 11.1081C7.25457 11.1123 7.25029 11.1166 7.24601 11.1209C7.24173 11.1252 7.23745 11.1295 7.23317 11.1337C7.22889 11.138 7.22461 11.1423 7.22026 11.1466C7.21598 11.1509 7.21163 11.1553 7.20735 11.1596C7.20299 11.1639 7.19864 11.1683 7.19429 11.1726C7.18993 11.177 7.18558 11.1813 7.18123 11.1857C7.1768 11.1901 7.17245 11.1945 7.16802 11.1989C7.16367 11.2032 7.15924 11.2077 7.15481 11.2121C7.15039 11.2165 7.14596 11.221 7.14153 11.2254C7.1371 11.2298 7.1326 11.2343 7.12818 11.2387C7.12368 11.2432 7.11925 11.2477 7.11475 11.2522C7.11025 11.2567 7.10574 11.2612 7.10124 11.2657C7.09674 11.2702 7.09217 11.2747 7.08767 11.2792C7.08317 11.2837 7.07859 11.2883 7.07402 11.2929C7.06952 11.2974 7.06494 11.302 7.06037 11.3065C7.05579 11.3111 7.05122 11.3157 7.04657 11.3203C7.04199 11.3249 7.03742 11.3295 7.03277 11.3341C7.02812 11.3388 7.02355 11.3434 7.0189 11.348C7.01425 11.3527 7.0096 11.3573 7.00488 11.362C7.00023 11.3667 6.99558 11.3713 6.99086 11.376C6.98621 11.3807 6.98149 11.3854 6.97677 11.3901C6.97205 11.3949 6.96732 11.3996 6.9626 11.4043C6.95788 11.409 6.95316 11.4138 6.94836 11.4185C6.94364 11.4233 6.93884 11.4281 6.93405 11.4329C6.92932 11.4376 6.92453 11.4424 6.91966 11.4472C6.91486 11.452 6.91007 11.4568 6.90527 11.4616C6.9004 11.4665 6.8956 11.4713 6.89074 11.4762C6.88586 11.481 6.881 11.4859 6.87613 11.4908C6.87126 11.4957 6.86639 11.5005 6.86152 11.5054C6.85665 11.5103 6.8517 11.5152 6.84676 11.5201C6.84189 11.525 6.83695 11.53 6.832 11.5349C6.82706 11.5398 6.82212 11.5448 6.81717 11.5497C6.81215 11.5548 6.80721 11.5597 6.80219 11.5647C6.79725 11.5697 6.79223 11.5747 6.78722 11.5797C6.7822 11.5847 6.77718 11.5897 6.77216 11.5947C6.76707 11.5998 6.76205 11.6049 6.75696 11.6099C6.75195 11.615 6.74685 11.6201 6.74176 11.6251C6.73667 11.6302 6.73158 11.6353 6.72649 11.6404C6.7214 11.6455 6.71631 11.6506 6.71114 11.6558C6.70605 11.6609 6.70089 11.666 6.69572 11.6712C6.69056 11.6764 6.68539 11.6815 6.68023 11.6867C6.67506 11.6918 6.6699 11.697 6.66466 11.7023C6.65949 11.7074 6.65425 11.7127 6.64902 11.7179C6.64378 11.7231 6.63854 11.7284 6.6333 11.7336C6.62806 11.7388 6.62282 11.7441 6.61751 11.7494C6.61227 11.7546 6.60696 11.76 6.60165 11.7653C6.59641 11.7705 6.59109 11.7758 6.58571 11.7812C6.5804 11.7865 6.57508 11.7918 6.56977 11.7971C6.56438 11.8025 6.55907 11.8078 6.55369 11.8132C6.5483 11.8186 6.54291 11.824 6.53753 11.8294C6.53214 11.8348 6.52675 11.8402 6.52129 11.8456C6.51591 11.851 6.51045 11.8565 6.50499 11.8619C6.4996 11.8673 6.49414 11.8728 6.48868 11.8782C6.48315 11.8838 6.47769 11.8892 6.47223 11.8947C6.46669 11.9002 6.46123 11.9057 6.4557 11.9112C6.45017 11.9167 6.44463 11.9223 6.4391 11.9278C6.43356 11.9333 6.42803 11.9389 6.42242 11.9445C6.41689 11.95 6.41128 11.9556 6.40567 11.9612C6.40014 11.9668 6.39453 11.9724 6.38892 11.978C6.38332 11.9836 6.37763 11.9893 6.37203 11.9949C6.36634 12.0006 6.36074 12.0062 6.35506 12.0119C6.34937 12.0175 6.34369 12.0232 6.33801 12.0289C6.33233 12.0346 6.32665 12.0403 6.32089 12.046C6.31521 12.0517 6.30946 12.0575 6.3037 12.0632C6.29802 12.0689 6.29226 12.0746 6.28644 12.0805C6.28068 12.0862 6.27493 12.092 6.2691 12.0978C6.26334 12.1036 6.25751 12.1094 6.25176 12.1152C6.24593 12.121 6.2401 12.1268 6.23427 12.1326C6.22837 12.1385 6.22254 12.1444 6.21664 12.1503C6.21081 12.1561 6.2049 12.162 6.199 12.1679C6.19317 12.1737 6.18727 12.1796 6.18129 12.1856C6.17539 12.1915 6.16949 12.1974 6.16351 12.2034C6.15761 12.2093 6.15163 12.2153 6.14565 12.2213C6.13968 12.2272 6.1337 12.2332 6.12772 12.2392C6.12175 12.2452 6.1157 12.2512 6.10972 12.2572C6.10367 12.2632 6.09762 12.2693 6.09157 12.2753C6.08552 12.2814 6.07947 12.2874 6.07342 12.2935C6.06737 12.2995 6.06124 12.3057 6.05519 12.3117C6.04907 12.3178 6.04294 12.324 6.03682 12.3301C6.0307 12.3362 6.02457 12.3423 6.01845 12.3485C6.01225 12.3547 6.00613 12.3608 5.99993 12.367C5.99373 12.3732 5.98753 12.3794 5.98133 12.3856C5.97514 12.3918 5.96894 12.398 5.96274 12.4042C5.95647 12.4104 5.95027 12.4166 5.944 12.4229C5.93773 12.4292 5.93146 12.4355 5.92518 12.4417C5.91891 12.448 5.91264 12.4543 5.90629 12.4606C5.90002 12.4669 5.89368 12.4732 5.88733 12.4796C5.88099 12.4859 5.87464 12.4923 5.8683 12.4986C5.86195 12.505 5.8556 12.5113 5.84919 12.5177C5.84284 12.5241 5.83642 12.5305 5.83 12.5369C5.82358 12.5433 5.81716 12.5497 5.81074 12.5562C5.80425 12.5627 5.79783 12.5691 5.79134 12.5756C5.78492 12.582 5.77843 12.5885 5.77193 12.595C5.76544 12.6015 5.75895 12.608 5.75238 12.6145C5.74589 12.621 5.73939 12.6275 5.73283 12.6341C5.72626 12.6406 5.71969 12.6472 5.71313 12.6538C5.70656 12.6603 5.69999 12.6669 5.69335 12.6736C5.68679 12.6801 5.68014 12.6868 5.6735 12.6934C5.66694 12.7 5.6603 12.7066 5.65358 12.7133C5.64694 12.72 5.6403 12.7266 5.63359 12.7333C5.62694 12.74 5.62023 12.7467 5.61352 12.7534C5.6068 12.7601 5.60009 12.7668 5.59337 12.7735C5.58666 12.7802 5.57987 12.787 5.57316 12.7938C5.56637 12.8005 5.55958 12.8073 5.55279 12.8141C5.546 12.8209 5.53921 12.8277 5.53235 12.8346C5.52556 12.8413 5.5187 12.8482 5.51191 12.855C5.50505 12.8619 5.49819 12.8687 5.49133 12.8756C5.48447 12.8824 5.47753 12.8894 5.47067 12.8962C5.46373 12.9032 5.45687 12.91 5.44993 12.917C5.443 12.9239 5.43606 12.9308 5.42913 12.9378C5.42212 12.9448 5.41518 12.9517 5.40817 12.9587C5.40124 12.9657 5.39423 12.9727 5.38722 12.9797C5.38021 12.9867 5.3732 12.9937 5.36612 13.0008C5.35911 13.0078 5.35202 13.0149 5.34501 13.0219C5.33793 13.029 5.33085 13.0361 5.32376 13.0431C5.31668 13.0502 5.30952 13.0574 5.30244 13.0645C5.29528 13.0716 5.2882 13.0787 5.28104 13.0859C5.27388 13.093 5.26673 13.1002 5.2595 13.1074C5.25234 13.1146 5.24518 13.1217 5.23795 13.129L6.34473 14.2357C6.35196 14.2285 6.35911 14.2213 6.36627 14.2142C6.3735 14.207 6.38066 14.1998 6.38782 14.1926C6.39497 14.1855 6.40206 14.1784 6.40921 14.1712C6.4163 14.1642 6.42346 14.157 6.43054 14.1499C6.43762 14.1428 6.4447 14.1358 6.45179 14.1287C6.4588 14.1217 6.46588 14.1146 6.47289 14.1076C6.47997 14.1005 6.48698 14.0935 6.49399 14.0865C6.501 14.0795 6.50801 14.0724 6.51495 14.0655C6.52196 14.0585 6.52889 14.0516 6.5359 14.0446C6.54284 14.0376 6.54977 14.0307 6.55671 14.0237C6.56365 14.0168 6.57051 14.01 6.57744 14.003C6.58431 13.9962 6.59124 13.9892 6.5981 13.9824C6.60497 13.9755 6.61183 13.9686 6.61869 13.9618C6.62548 13.955 6.63234 13.9481 6.63913 13.9413C6.64599 13.9345 6.65278 13.9277 6.65957 13.9209C6.66636 13.9141 6.67314 13.9073 6.67993 13.9005C6.68665 13.8938 6.69343 13.887 6.70015 13.8803C6.70686 13.8736 6.71358 13.8669 6.72029 13.8602C6.72701 13.8535 6.73372 13.8467 6.74036 13.8401C6.74708 13.8334 6.75372 13.8267 6.76036 13.8201C6.76707 13.8134 6.77371 13.8067 6.78028 13.8002C6.78692 13.7935 6.79356 13.7869 6.80013 13.7803C6.80677 13.7737 6.81333 13.7671 6.8199 13.7606C6.82647 13.754 6.83304 13.7474 6.8396 13.7409C6.84617 13.7343 6.85266 13.7278 6.85916 13.7213C6.86572 13.7147 6.87222 13.7082 6.87871 13.7018C6.8852 13.6953 6.89169 13.6888 6.89811 13.6823C6.90461 13.6759 6.91103 13.6694 6.91752 13.6629C6.92394 13.6565 6.93036 13.6501 6.93678 13.6437C6.9432 13.6373 6.94962 13.6308 6.95596 13.6245C6.96238 13.6181 6.96873 13.6117 6.97507 13.6054C6.98142 13.599 6.98776 13.5927 6.99411 13.5864C7.00045 13.58 7.0068 13.5737 7.01307 13.5674C7.01942 13.561 7.02569 13.5548 7.03196 13.5485C7.03823 13.5422 7.0445 13.536 7.05077 13.5297C7.05705 13.5234 7.06324 13.5172 7.06952 13.5109C7.07571 13.5047 7.08191 13.4985 7.08811 13.4923C7.09431 13.4862 7.10051 13.48 7.1067 13.4738C7.1129 13.4676 7.11903 13.4614 7.12522 13.4552C7.13135 13.4491 7.13747 13.443 7.1436 13.4369C7.14972 13.4307 7.15585 13.4246 7.16197 13.4185C7.16802 13.4124 7.17414 13.4063 7.18019 13.4003C7.18624 13.3942 7.1923 13.3882 7.19835 13.3821C7.2044 13.3761 7.21045 13.37 7.2165 13.364C7.22247 13.358 7.22852 13.3519 7.2345 13.346C7.24048 13.34 7.24645 13.334 7.25243 13.328C7.25841 13.3221 7.26438 13.3161 7.27029 13.3102C7.27626 13.3042 7.28217 13.2983 7.28807 13.2924C7.29404 13.2864 7.29995 13.2805 7.30578 13.2747C7.31168 13.2688 7.31758 13.2629 7.32341 13.257C7.32931 13.2511 7.33514 13.2453 7.34105 13.2394C7.34687 13.2336 7.3527 13.2278 7.35853 13.2219C7.36429 13.2162 7.37012 13.2103 7.37587 13.2046C7.3817 13.1988 7.38746 13.193 7.39321 13.1872C7.39904 13.1814 7.4048 13.1757 7.41048 13.17C7.41623 13.1642 7.42199 13.1585 7.42767 13.1528C7.43342 13.147 7.43911 13.1414 7.44479 13.1357C7.45047 13.13 7.45615 13.1243 7.46183 13.1186C7.46751 13.1129 7.47312 13.1073 7.4788 13.1017C7.48441 13.0961 7.49009 13.0904 7.4957 13.0848C7.50131 13.0792 7.50691 13.0735 7.51245 13.068C7.51806 13.0624 7.52366 13.0568 7.5292 13.0513C7.53481 13.0457 7.54034 13.0401 7.54587 13.0346C7.55141 13.0291 7.55694 13.0235 7.56247 13.018C7.56801 13.0125 7.57347 13.007 7.579 13.0015C7.58446 12.996 7.58992 12.9905 7.59546 12.985C7.60092 12.9795 7.60638 12.9741 7.61176 12.9687C7.61722 12.9632 7.62268 12.9578 7.62807 12.9524C7.63353 12.9469 7.63892 12.9415 7.6443 12.9362C7.64969 12.9308 7.65507 12.9254 7.66046 12.92C7.66585 12.9146 7.67116 12.9093 7.67655 12.9039C7.68186 12.8986 7.68717 12.8933 7.69248 12.888C7.69787 12.8826 7.70318 12.8773 7.70842 12.872C7.71373 12.8667 7.71905 12.8614 7.72429 12.8562C7.7296 12.8509 7.73484 12.8456 7.74008 12.8404C7.74531 12.8351 7.75055 12.8299 7.75579 12.8247C7.76103 12.8194 7.76627 12.8142 7.77143 12.809C7.77667 12.8038 7.78184 12.7986 7.787 12.7935C7.79217 12.7883 7.79733 12.7831 7.8025 12.778C7.80766 12.7728 7.81283 12.7676 7.81792 12.7625C7.82308 12.7574 7.82817 12.7523 7.83327 12.7472C7.83836 12.7421 7.84345 12.737 7.84854 12.7319C7.85363 12.7268 7.85872 12.7217 7.86374 12.7167C7.86883 12.7116 7.87385 12.7066 7.87894 12.7015C7.88396 12.6965 7.88897 12.6915 7.89399 12.6865C7.89901 12.6815 7.90403 12.6764 7.90897 12.6715C7.91399 12.6665 7.91893 12.6615 7.92395 12.6565C7.92889 12.6516 7.93383 12.6466 7.93878 12.6417C7.94372 12.6367 7.94867 12.6318 7.95354 12.6269C7.95848 12.622 7.96342 12.617 7.96829 12.6122C7.97316 12.6073 7.97803 12.6024 7.9829 12.5976C7.98777 12.5927 7.99264 12.5878 7.99751 12.5829C8.00238 12.5781 8.00718 12.5733 8.01205 12.5684C8.01684 12.5636 8.02164 12.5588 8.02643 12.554C8.0313 12.5492 8.0361 12.5444 8.04082 12.5396C8.04562 12.5348 8.05042 12.53 8.05514 12.5253C8.05993 12.5205 8.06466 12.5158 8.06938 12.5111C8.0741 12.5064 8.07882 12.5016 8.08354 12.4969C8.08827 12.4922 8.09299 12.4875 8.09764 12.4828C8.10236 12.4781 8.10701 12.4735 8.11166 12.4688C8.11638 12.4641 8.12103 12.4594 8.12568 12.4548C8.13032 12.4501 8.1349 12.4456 8.13955 12.4409C8.1442 12.4363 8.14877 12.4317 8.15335 12.4271C8.15799 12.4225 8.16257 12.4179 8.16714 12.4133C8.17172 12.4087 8.17629 12.4042 8.18079 12.3997C8.18537 12.3951 8.18994 12.3905 8.19444 12.386C8.19894 12.3815 8.20352 12.3769 8.20802 12.3724C8.21252 12.3679 8.21702 12.3634 8.22152 12.3589C8.22602 12.3544 8.23045 12.35 8.23495 12.3455C8.23938 12.3411 8.24388 12.3366 8.24831 12.3322C8.25273 12.3277 8.25716 12.3233 8.26159 12.3189C8.26602 12.3144 8.27044 12.31 8.2748 12.3057C8.27922 12.3012 8.28358 12.2969 8.288 12.2925C8.29236 12.2881 8.29671 12.2838 8.30106 12.2794C8.30542 12.275 8.30977 12.2707 8.31412 12.2663C8.3184 12.2621 8.32276 12.2577 8.32704 12.2534C8.33139 12.2491 8.33567 12.2448 8.33995 12.2405C8.34423 12.2362 8.34851 12.232 8.35279 12.2277C8.35707 12.2234 8.36135 12.2191 8.36555 12.2149C8.36983 12.2106 8.37404 12.2064 8.37824 12.2022C8.38245 12.198 8.38673 12.1937 8.39093 12.1895C8.39507 12.1854 8.39927 12.1812 8.40348 12.177C8.40768 12.1728 8.41181 12.1686 8.41595 12.1645C8.42015 12.1603 8.42428 12.1562 8.42842 12.152C8.43255 12.1479 8.43668 12.1438 8.44081 12.1396C8.44494 12.1355 8.449 12.1315 8.45313 12.1273C8.45719 12.1233 8.46132 12.1191 8.46538 12.1151C8.46944 12.111 8.4735 12.107 8.47756 12.1029C8.48162 12.0988 8.48567 12.0948 8.48973 12.0907C8.49372 12.0867 8.49777 12.0827 8.50176 12.0787C8.50574 12.0747 8.5098 12.0707 8.51378 12.0667C8.51777 12.0627 8.52175 12.0587 8.52574 12.0547C8.52965 12.0508 8.53363 12.0468 8.53762 12.0428C8.54153 12.0389 8.54544 12.035 8.54942 12.031C8.55333 12.0271 8.55724 12.0232 8.56115 12.0193C8.56507 12.0154 8.56898 12.0115 8.57281 12.0076C8.57672 12.0037 8.58063 11.9998 8.58447 11.996C8.58831 11.9922 8.59222 11.9882 8.59606 11.9844C8.59989 11.9806 8.60373 11.9767 8.60757 11.9729C8.61133 11.9691 8.61517 11.9653 8.619 11.9615C8.62277 11.9577 8.6266 11.9539 8.63037 11.9501C8.63413 11.9463 8.63789 11.9426 8.64165 11.9388C8.64542 11.935 8.64918 11.9313 8.65294 11.9275C8.65671 11.9238 8.6604 11.9201 8.66416 11.9163C8.66785 11.9126 8.67154 11.9089 8.6753 11.9052C8.67899 11.9015 8.68268 11.8978 8.68637 11.8941C8.69006 11.8904 8.69367 11.8868 8.69736 11.8831C8.70105 11.8794 8.70467 11.8758 8.70828 11.8722C8.71197 11.8685 8.71559 11.8649 8.7192 11.8613C8.72282 11.8576 8.72643 11.854 8.73005 11.8504C8.73366 11.8468 8.73721 11.8433 8.74082 11.8396C8.74444 11.836 8.74798 11.8325 8.75152 11.8289C8.75514 11.8253 8.75868 11.8218 8.76222 11.8182C8.76576 11.8147 8.7693 11.8112 8.77277 11.8077C8.77631 11.8041 8.77985 11.8006 8.78332 11.7971C8.78686 11.7936 8.79033 11.7901 8.7938 11.7867C8.79727 11.7832 8.80081 11.7797 8.8042 11.7763C8.80767 11.7728 8.81114 11.7693 8.81461 11.7659C8.81807 11.7624 8.82147 11.759 8.82494 11.7555C8.82833 11.7521 8.83173 11.7487 8.83512 11.7453C8.83859 11.7419 8.84198 11.7385 8.84538 11.7351C8.8487 11.7318 8.85209 11.7284 8.85548 11.725C8.8588 11.7217 8.8622 11.7183 8.86552 11.7149C8.86891 11.7115 8.87223 11.7082 8.87555 11.7049C8.87887 11.7016 8.88219 11.6983 8.88551 11.6949C8.88883 11.6916 8.89215 11.6883 8.8954 11.6851C8.89872 11.6817 8.90197 11.6785 8.90529 11.6752C8.90854 11.6719 8.91178 11.6687 8.91503 11.6654C8.91827 11.6622 8.92152 11.6589 8.92477 11.6557C8.92801 11.6524 8.93126 11.6492 8.93443 11.646C8.93768 11.6428 8.94085 11.6396 8.9441 11.6364C8.94727 11.6332 8.95045 11.63 8.95362 11.6268C8.95679 11.6237 8.95996 11.6205 8.96314 11.6173C8.96631 11.6142 8.96941 11.6111 8.97258 11.6079C8.97575 11.6047 8.97885 11.6016 8.98195 11.5985C8.98512 11.5953 8.98822 11.5922 8.99132 11.5891C8.99442 11.586 8.99752 11.5829 9.00062 11.5798C9.00364 11.5768 9.00674 11.5737 9.00984 11.5706C9.01287 11.5676 9.01597 11.5645 9.01899 11.5615C9.02202 11.5584 9.02504 11.5554 9.02814 11.5523C9.03117 11.5493 9.03419 11.5463 9.03714 11.5433C9.04017 11.5403 9.04319 11.5373 9.04614 11.5343C9.04917 11.5313 9.05212 11.5283 9.05515 11.5253C9.0581 11.5224 9.06105 11.5194 9.064 11.5165C9.06695 11.5135 9.0699 11.5106 9.07285 11.5076C9.07581 11.5047 9.07876 11.5017 9.08163 11.4988C9.08459 11.4959 9.08746 11.493 9.09042 11.49C9.09329 11.4872 9.09617 11.4843 9.09905 11.4814C9.102 11.4785 9.10488 11.4756 9.10768 11.4728C9.11056 11.4699 9.11344 11.467 9.11631 11.4641C9.11912 11.4613 9.122 11.4585 9.1248 11.4557C9.12768 11.4528 9.13048 11.45 9.13328 11.4472C9.13609 11.4444 9.13889 11.4416 9.1417 11.4388C9.1445 11.436 9.1473 11.4332 9.15003 11.4304C9.15284 11.4276 9.15564 11.4248 9.15837 11.4221C9.16118 11.4193 9.16391 11.4166 9.16664 11.4138C9.16937 11.4111 9.1721 11.4084 9.17483 11.4056C9.17756 11.4029 9.18029 11.4002 9.18302 11.3974C9.18575 11.3947 9.1884 11.3921 9.19113 11.3893C9.19379 11.3867 9.19652 11.3839 9.19917 11.3813C9.20183 11.3786 9.20449 11.376 9.20714 11.3733C9.2098 11.3707 9.21246 11.368 9.21511 11.3653C9.21777 11.3627 9.22035 11.3601 9.22301 11.3575C9.22566 11.3548 9.22825 11.3522 9.23083 11.3496C9.23348 11.347 9.23607 11.3444 9.23865 11.3418C9.24123 11.3392 9.24381 11.3366 9.2464 11.3341C9.24898 11.3315 9.25156 11.3289 9.25407 11.3264C9.25665 11.3238 9.25924 11.3212 9.26174 11.3187C9.26425 11.3162 9.26684 11.3136 9.26934 11.3111C9.27185 11.3086 9.27436 11.3061 9.27687 11.3036C9.27938 11.3011 9.28189 11.2986 9.2844 11.2961C9.28691 11.2936 9.28934 11.2911 9.29185 11.2886C9.29428 11.2862 9.29679 11.2837 9.29923 11.2812C9.30166 11.2788 9.3041 11.2764 9.30661 11.2739C9.30904 11.2714 9.31148 11.269 9.31384 11.2666C9.31627 11.2642 9.31871 11.2618 9.32114 11.2593C9.3235 11.257 9.32594 11.2545 9.3283 11.2522C9.33073 11.2497 9.33309 11.2474 9.33546 11.245C9.33782 11.2426 9.34025 11.2402 9.34254 11.2379C9.3449 11.2356 9.34726 11.2332 9.34962 11.2308C9.35198 11.2285 9.35434 11.2261 9.35663 11.2238C9.35899 11.2215 9.36128 11.2192 9.36357 11.2169C9.36593 11.2145 9.36822 11.2122 9.3705 11.21C9.37279 11.2077 9.37508 11.2054 9.37737 11.2031C9.37965 11.2008 9.38194 11.1985 9.38415 11.1963C9.38644 11.194 9.38873 11.1917 9.39094 11.1895C9.39323 11.1872 9.39544 11.185 9.39766 11.1828C9.39994 11.1805 9.40216 11.1783 9.40437 11.1761C9.40658 11.1739 9.4088 11.1717 9.41101 11.1694C9.41315 11.1673 9.41537 11.1651 9.41758 11.1629C9.41972 11.1607 9.42193 11.1585 9.42407 11.1564C9.42628 11.1542 9.42843 11.152 9.43056 11.1499C9.4327 11.1478 9.43492 11.1455 9.43706 11.1434C9.4392 11.1413 9.44126 11.1392 9.4434 11.1371C9.44554 11.1349 9.44768 11.1328 9.44975 11.1307C9.45189 11.1286 9.45395 11.1265 9.45609 11.1244C9.45816 11.1223 9.46023 11.1202 9.46237 11.1181C9.46443 11.116 9.4665 11.114 9.46856 11.1119C9.47063 11.1098 9.4727 11.1078 9.47469 11.1058C9.47675 11.1037 9.47882 11.1016 9.48081 11.0996C9.48288 11.0976 9.48487 11.0956 9.48694 11.0935C9.48893 11.0915 9.49092 11.0895 9.49299 11.0875C9.49498 11.0855 9.49697 11.0835 9.49896 11.0815C9.50096 11.0795 9.50287 11.0776 9.50487 11.0756C9.50686 11.0736 9.50885 11.0716 9.51077 11.0697C9.51276 11.0677 9.51468 11.0658 9.51667 11.0638C9.51859 11.0619 9.52051 11.06 9.52243 11.058C9.52442 11.056 9.52634 11.0541 9.52826 11.0522C9.53017 11.0503 9.53202 11.0484 9.53394 11.0465C9.53586 11.0446 9.53777 11.0427 9.53962 11.0408C9.54154 11.0389 9.54338 11.0371 9.5453 11.0352C9.54714 11.0333 9.54899 11.0315 9.55083 11.0296C9.55275 11.0277 9.5546 11.0259 9.55644 11.024C9.55829 11.0222 9.56013 11.0203 9.5619 11.0186C9.56375 11.0167 9.56559 11.0149 9.56736 11.0131C9.56921 11.0113 9.57105 11.0094 9.57282 11.0076C9.57459 11.0059 9.57644 11.004 9.57821 11.0023C9.57998 11.0005 9.58175 10.9987 9.58352 10.9969C9.58529 10.9952 9.58706 10.9934 9.58883 10.9916C9.5906 10.9899 9.59238 10.9881 9.59407 10.9864C9.59584 10.9846 9.59761 10.9828 9.59931 10.9811C9.60108 10.9794 9.60278 10.9777 9.60448 10.976C9.60625 10.9742 9.60794 10.9725 9.60964 10.9708C9.61134 10.9691 9.61303 10.9674 9.61473 10.9657C9.61643 10.964 9.61813 10.9623 9.61975 10.9607C9.62145 10.959 9.62314 10.9573 9.62477 10.9557C9.62646 10.954 9.62809 10.9524 9.62978 10.9507C9.63141 10.9491 9.63303 10.9474 9.63465 10.9458C9.63635 10.9441 9.63797 10.9425 9.6396 10.9409C9.64122 10.9392 9.64284 10.9376 9.64439 10.9361C9.64602 10.9344 9.64764 10.9328 9.64926 10.9312C9.65081 10.9296 9.65244 10.928 9.65399 10.9265C9.65561 10.9249 9.65716 10.9233 9.65871 10.9218C9.66033 10.9201 9.66188 10.9186 9.66343 10.917C9.66498 10.9155 9.66653 10.9139 9.66808 10.9124C9.66963 10.9108 9.67118 10.9093 9.67265 10.9078C9.6742 10.9063 9.67575 10.9047 9.67723 10.9032C9.67878 10.9017 9.68025 10.9002 9.6818 10.8987C9.68328 10.8972 9.68483 10.8956 9.6863 10.8942C9.68778 10.8927 9.68925 10.8912 9.69073 10.8897C9.69221 10.8883 9.69368 10.8868 9.69516 10.8853C9.69663 10.8838 9.69811 10.8824 9.69951 10.8809C9.70099 10.8795 9.70246 10.878 9.70386 10.8766C9.70534 10.8751 9.70674 10.8737 9.70822 10.8722C9.70962 10.8708 9.71102 10.8694 9.71242 10.868C9.7139 10.8666 9.7153 10.8652 9.7167 10.8638C9.7181 10.8624 9.71951 10.861 9.72091 10.8596C9.72231 10.8581 9.72364 10.8568 9.72504 10.8554C9.72644 10.854 9.72777 10.8527 9.72917 10.8513C9.7305 10.85 9.7319 10.8486 9.73323 10.8472C9.73463 10.8458 9.73596 10.8445 9.73729 10.8432C9.73862 10.8418 9.73995 10.8405 9.74127 10.8392C9.7426 10.8379 9.74393 10.8365 9.74526 10.8352C9.74659 10.8339 9.74791 10.8325 9.74924 10.8312C9.7505 10.83 9.75182 10.8286 9.75308 10.8274C9.75441 10.8261 9.75566 10.8248 9.75699 10.8235C9.75824 10.8222 9.7595 10.821 9.76083 10.8196C9.76208 10.8184 9.76334 10.8171 9.76459 10.8159C9.76584 10.8146 9.7671 10.8134 9.76835 10.8121C9.76961 10.8109 9.77086 10.8096 9.77204 10.8084C9.7733 10.8072 9.77455 10.8059 9.77573 10.8047C9.77698 10.8035 9.77824 10.8022 9.77942 10.801C9.7806 10.7999 9.78185 10.7986 9.78304 10.7974C9.78422 10.7962 9.78547 10.795 9.78665 10.7938C9.78783 10.7926 9.78901 10.7914 9.79019 10.7903C9.79137 10.7891 9.79255 10.7879 9.79366 10.7868C9.79484 10.7856 9.79602 10.7844 9.7972 10.7833C9.79831 10.7822 9.79949 10.781 9.8006 10.7799C9.80178 10.7787 9.80288 10.7776 9.80406 10.7764C9.80517 10.7753 9.80628 10.7742 9.80738 10.7731C9.80857 10.7719 9.80967 10.7708 9.81078 10.7697C9.81189 10.7686 9.81299 10.7675 9.8141 10.7664C9.81521 10.7653 9.81624 10.7642 9.81735 10.7631C9.81845 10.762 9.81956 10.7609 9.82059 10.7599C9.8217 10.7588 9.82273 10.7577 9.82384 10.7566C9.82487 10.7556 9.82598 10.7545 9.82701 10.7534C9.82804 10.7524 9.82915 10.7513 9.83018 10.7503C9.83122 10.7492 9.83225 10.7482 9.83328 10.7472C9.83432 10.7461 9.83535 10.7451 9.83638 10.7441C9.83742 10.743 9.83845 10.742 9.83941 10.7411C9.84044 10.74 9.84147 10.739 9.84243 10.738C9.84347 10.737 9.84443 10.736 9.84546 10.735C9.84642 10.734 9.84745 10.733 9.84841 10.7321C9.84937 10.7311 9.8504 10.7301 9.85136 10.7291C9.85232 10.7281 9.85328 10.7272 9.85424 10.7262C9.8552 10.7253 9.85616 10.7243 9.85712 10.7233C9.85807 10.7224 9.85903 10.7214 9.85992 10.7205C9.86088 10.7196 9.86184 10.7186 9.86272 10.7177C9.86368 10.7168 9.86457 10.7159 9.86553 10.7149C9.86641 10.714 9.86737 10.7131 9.86826 10.7122C9.86922 10.7112 9.8701 10.7104 9.87099 10.7095C9.87187 10.7086 9.87276 10.7077 9.87364 10.7068C9.87453 10.7059 9.87541 10.705 9.8763 10.7042C9.87719 10.7033 9.87807 10.7024 9.87896 10.7015C9.87984 10.7006 9.88073 10.6997 9.88154 10.6989C9.88242 10.698 9.88331 10.6972 9.88412 10.6963C9.88501 10.6955 9.88582 10.6946 9.88663 10.6938C9.88751 10.6929 9.88833 10.6921 9.88921 10.6912C9.89002 10.6904 9.89084 10.6896 9.89165 10.6888C9.89246 10.688 9.89327 10.6872 9.89408 10.6864C9.89489 10.6856 9.89571 10.6848 9.89652 10.6839C9.89733 10.6831 9.89814 10.6823 9.89895 10.6815C9.89976 10.6807 9.9005 10.68 9.90131 10.6791C9.90212 10.6783 9.90286 10.6776 9.90367 10.6768C9.90441 10.676 9.90522 10.6752 9.90596 10.6745C9.9067 10.6738 9.90751 10.6729 9.90825 10.6722C9.90899 10.6715 9.90972 10.6707 9.91054 10.6699C9.91127 10.6692 9.91201 10.6684 9.91275 10.6677C9.91349 10.667 9.91423 10.6662 9.91496 10.6655C9.9157 10.6648 9.91637 10.6641 9.9171 10.6634C9.91784 10.6626 9.91858 10.6619 9.91924 10.6612C9.91998 10.6605 9.92072 10.6597 9.92138 10.6591C9.92212 10.6583 9.92278 10.6577 9.92352 10.6569C9.92419 10.6563 9.92485 10.6556 9.92559 10.6549C9.92625 10.6542 9.92692 10.6535 9.92758 10.6529C9.92832 10.6521 9.92898 10.6515 9.92965 10.6508C9.93031 10.6501 9.93098 10.6495 9.93164 10.6488C9.9323 10.6482 9.93297 10.6475 9.93356 10.6469C9.93422 10.6462 9.93489 10.6456 9.93555 10.6449C9.93614 10.6443 9.9368 10.6437 9.93747 10.643C9.93806 10.6424 9.93872 10.6417 9.93931 10.6411C9.93998 10.6405 9.94057 10.6399 9.94123 10.6392C9.94182 10.6386 9.94241 10.638 9.94308 10.6374C9.94367 10.6368 9.94426 10.6362 9.94485 10.6356C9.94544 10.635 9.9461 10.6344 9.94669 10.6338C9.94728 10.6332 9.94787 10.6326 9.94846 10.632C9.94905 10.6314 9.94957 10.6309 9.95016 10.6303C9.95075 10.6297 9.95134 10.6291 9.95193 10.6285C9.95245 10.628 9.95304 10.6274 9.95363 10.6268C9.95414 10.6263 9.95473 10.6257 9.95525 10.6252C9.95584 10.6246 9.95636 10.6241 9.95695 10.6235C9.95746 10.623 9.95798 10.6225 9.95857 10.6219C9.95909 10.6214 9.9596 10.6209 9.96019 10.6203C9.96071 10.6198 9.96123 10.6192 9.96174 10.6187C9.96226 10.6182 9.96278 10.6177 9.96329 10.6172C9.96381 10.6167 9.96433 10.6161 9.96484 10.6156C9.96536 10.6151 9.96588 10.6146 9.96632 10.6141C9.96683 10.6136 9.96735 10.6131 9.96787 10.6126C9.96831 10.6122 9.96883 10.6116 9.96934 10.6111C9.96979 10.6107 9.9703 10.6102 9.97074 10.6097C9.97126 10.6092 9.9717 10.6088 9.97222 10.6082C9.97266 10.6078 9.97311 10.6074 9.97362 10.6068C9.97406 10.6064 9.97451 10.606 9.97495 10.6055C9.97539 10.6051 9.97591 10.6046 9.97635 10.6041C9.9768 10.6037 9.97724 10.6032 9.97768 10.6028C9.97812 10.6023 9.97857 10.6019 9.97901 10.6015C9.97945 10.601 9.97989 10.6006 9.98026 10.6002C9.98071 10.5998 9.98115 10.5993 9.98159 10.5989C9.98196 10.5985 9.9824 10.5981 9.98285 10.5976C9.98321 10.5972 9.98366 10.5968 9.9841 10.5964C9.98447 10.596 9.98491 10.5955 9.98528 10.5952C9.98565 10.5948 9.98609 10.5944 9.98646 10.594C9.9869 10.5936 9.98727 10.5932 9.98764 10.5928C9.98808 10.5924 9.98845 10.592 9.98882 10.5916C9.98919 10.5913 9.98956 10.5909 9.98993 10.5905C9.9903 10.5902 9.99074 10.5897 9.99111 10.5894C9.99148 10.589 9.99185 10.5886 9.99214 10.5883C9.99251 10.5879 9.99288 10.5876 9.99325 10.5872C9.99362 10.5868 9.99399 10.5865 9.99428 10.5862C9.99465 10.5858 9.99502 10.5854 9.99539 10.5851C9.99568 10.5848 9.99605 10.5844 9.99642 10.584C9.99672 10.5837 9.99709 10.5834 9.99738 10.5831C9.99775 10.5827 9.99805 10.5824 9.99841 10.582C9.99871 10.5818 9.999 10.5815 9.99937 10.5811C9.99967 10.5808 9.99996 10.5805 10.0003 10.5801C10.0006 10.5798 10.0009 10.5795 10.0012 10.5792C10.0015 10.5789 10.0019 10.5786 10.0022 10.5783C10.0025 10.578 10.0028 10.5777 10.0031 10.5774C10.0034 10.5771 10.0037 10.5768 10.0039 10.5765C10.0042 10.5762 10.0045 10.5759 10.0048 10.5756C10.0051 10.5753 10.0054 10.5751 10.0056 10.5748C10.0059 10.5745 10.0062 10.5742 10.0065 10.574C10.0068 10.5737 10.007 10.5734 10.0073 10.5731C10.0076 10.5729 10.0079 10.5726 10.0081 10.5724C10.0084 10.5721 10.0086 10.5719 10.0089 10.5716C10.0092 10.5713 10.0094 10.5711 10.0096 10.5708C10.0099 10.5705 10.0101 10.5703 10.0104 10.57C10.0107 10.5698 10.0109 10.5696 10.0112 10.5693C10.0114 10.5691 10.011 10.5695 10.0112 10.5693C10.0115 10.569 10.0124 10.5681 10.0126 10.5679C10.0128 10.5677 10.0124 10.5681 10.0126 10.5679C10.0128 10.5677 10.0137 10.5668 10.0139 10.5666C10.0141 10.5663 10.0137 10.5668 10.0139 10.5666C10.0141 10.5663 10.015 10.5654 10.0152 10.5652C10.0155 10.565 10.015 10.5654 10.0152 10.5652C10.0155 10.565 10.0163 10.5642 10.0165 10.564C10.0167 10.5637 10.0163 10.5641 10.0165 10.564C10.0167 10.5637 10.0175 10.5629 10.0177 10.5628C10.0179 10.5626 10.0175 10.563 10.0177 10.5628C10.0179 10.5626 10.0186 10.5618 10.0189 10.5616C10.019 10.5615 10.0187 10.5618 10.0189 10.5616C10.019 10.5615 10.0197 10.5607 10.0199 10.5606C10.0201 10.5604 10.0197 10.5607 10.0199 10.5606C10.0201 10.5604 10.0208 10.5597 10.0209 10.5595C10.0211 10.5594 10.0208 10.5597 10.0209 10.5595C10.0211 10.5594 10.0217 10.5587 10.0219 10.5586C10.0221 10.5584 10.0217 10.5587 10.0219 10.5586C10.022 10.5584 10.0227 10.5578 10.0228 10.5576C10.023 10.5575 10.0227 10.5578 10.0228 10.5576C10.023 10.5575 10.0236 10.5569 10.0237 10.5567C10.0239 10.5566 10.0236 10.5569 10.0237 10.5567C10.0239 10.5566 10.0244 10.5561 10.0245 10.5559C10.0247 10.5558 10.0244 10.5561 10.0245 10.5559C10.0246 10.5559 10.0252 10.5553 10.0253 10.5551C10.0255 10.555 10.0263 10.5542 10.0265 10.554C10.0265 10.5539 10.0273 10.5531 10.0274 10.553C10.0275 10.553 10.0282 10.5522 10.0283 10.5522C10.0284 10.5521 10.029 10.5514 10.0292 10.5513C10.0293 10.5512 10.0298 10.5507 10.0299 10.5505C10.03 10.5505 10.0307 10.5498 10.0307 10.5497C10.0308 10.5497 10.0307 10.5498 10.0307 10.5497C10.0308 10.5497 10.0314 10.5491 10.0315 10.549C10.0315 10.5489 10.0323 10.5482 10.0324 10.5481C10.0324 10.5481 10.033 10.5474 10.0331 10.5474C10.0332 10.5473 10.034 10.5465 10.034 10.5465L9.48059 9.99309ZM10.034 10.5465L13.7232 6.85723L12.6165 5.75045L8.9272 9.43971L10.034 10.5465Z" fill="#484848"/>
</g>
<defs>
<clipPath id="clip0_7929_82009">
<rect width="17.6224" height="17.6224" fill="white" transform="translate(0.480591 0.507812)"/>
</clipPath>
</defs>
</svg>
