<svg width="15" height="19" viewBox="0 0 15 19" fill="none" xmlns="http://www.w3.org/2000/svg">
<path d="M0.75 7.724C0.75 4.55427 0.75 2.96942 1.59613 1.9847C2.44227 1 3.8041 1 6.52778 1H7.97222C10.6959 1 12.0578 1 12.9038 1.9847C13.75 2.96942 13.75 4.55427 13.75 7.724V11.086C13.75 14.2557 13.75 15.8406 12.9038 16.8253C12.0578 17.81 10.6959 17.81 7.97222 17.81H6.52778C3.8041 17.81 2.44227 17.81 1.59613 16.8253C0.75 15.8406 0.75 14.2557 0.75 11.086V7.724Z" stroke="#484848"/>
<path d="M4.36133 9.40625H10.1391" stroke="#484848" stroke-linecap="round"/>
<path d="M4.36133 6.03906H10.1391" stroke="#484848" stroke-linecap="round"/>
<path d="M4.36133 12.7656H7.97244" stroke="#484848" stroke-linecap="round"/>
</svg>
