<svg width="16" height="18" viewBox="0 0 16 18" fill="none" xmlns="http://www.w3.org/2000/svg">
<path d="M12.8643 1C13.3731 1.00006 13.8609 1.20268 14.2207 1.5625C14.5804 1.92235 14.7832 2.41018 14.7832 2.91895V16.54C14.7832 16.6251 14.7594 16.7089 14.7148 16.7812C14.67 16.8538 14.6055 16.913 14.5293 16.9512C14.4531 16.9893 14.3673 17.0057 14.2822 16.998C14.1976 16.9904 14.1169 16.959 14.0488 16.9082L9.47559 13.4834C9.05013 13.1648 8.53241 12.9922 8.00098 12.9922C7.46965 12.9922 6.95277 13.1648 6.52734 13.4834L1.95117 16.9082C1.88289 16.9593 1.8017 16.9904 1.7168 16.998C1.6319 17.0056 1.54673 16.9892 1.4707 16.9512C1.39446 16.913 1.32999 16.8548 1.28516 16.7822C1.24038 16.7098 1.21686 16.6262 1.2168 16.541V2.91895C1.2168 2.41031 1.41879 1.92229 1.77832 1.5625C2.09304 1.24774 2.50624 1.0535 2.94531 1.00977L3.13574 1H12.8643Z" stroke="#484848" stroke-width="2" stroke-linecap="round" stroke-linejoin="round"/>
</svg>
