<svg width="25" height="24" viewBox="0 0 25 24" fill="none" xmlns="http://www.w3.org/2000/svg">
<path d="M12.2501 0C14.901 0 17.0501 2.14903 17.0501 4.8H19.4922C20.7844 4.8 21.8446 5.82302 21.8908 7.11434L22.405 21.5143C22.4535 22.8725 21.3657 24 20.0065 24H4.49378C3.13472 24 2.04681 22.8726 2.09531 21.5143L2.6096 7.11434C2.65571 5.82302 3.71592 4.8 5.00807 4.8H7.4501C7.4501 2.14903 9.59913 0 12.2501 0ZM7.4501 7.2H5.00807L4.49378 21.6H20.0065L19.4922 7.2H17.0501V8.4C17.0501 9.06274 16.5129 9.6 15.8501 9.6C15.2347 9.6 14.7275 9.13675 14.6582 8.53994L14.6501 8.4V7.2H9.8501V8.4C9.8501 9.06274 9.31283 9.6 8.6501 9.6C8.0347 9.6 7.52749 9.13675 7.45817 8.53994L7.4501 8.4V7.2ZM12.2501 2.4C10.9848 2.4 9.94829 3.37905 9.85668 4.62089L9.8501 4.8H14.6501C14.6501 3.47452 13.5756 2.4 12.2501 2.4Z" fill="black"/>
</svg>
