<svg width="18" height="18" viewBox="0 0 18 18" fill="none" xmlns="http://www.w3.org/2000/svg">
<path d="M3.75 13.5V16.3245L4.88625 15.6428L8.45775 13.5H12C12.8273 13.5 13.5 12.8273 13.5 12V6C13.5 5.17275 12.8273 4.5 12 4.5H3C2.17275 4.5 1.5 5.17275 1.5 6V12C1.5 12.8273 2.17275 13.5 3 13.5H3.75ZM3 6H12V12H8.04225L5.25 13.6755V12H3V6Z" fill="#484848"/>
<path d="M15 1.5H6C5.17275 1.5 4.5 2.17275 4.5 3H13.5C14.3273 3 15 3.67275 15 4.5V10.5C15.8273 10.5 16.5 9.82725 16.5 9V3C16.5 2.17275 15.8273 1.5 15 1.5Z" fill="#484848"/>
</svg>
