<svg width="29" height="29" viewBox="0 0 29 29" fill="none" xmlns="http://www.w3.org/2000/svg">
<path d="M24.8528 21.0332C24.9301 20.8781 24.9703 20.7072 24.9703 20.5339C24.9703 20.3606 24.9301 20.1897 24.8528 20.0345L24.2765 18.8807C24.1895 18.7049 24.1501 18.5094 24.1624 18.3137C24.1747 18.118 24.2382 17.9289 24.3465 17.7654L24.6895 17.2497C24.8114 17.0661 24.8764 16.8506 24.8764 16.6302C24.8764 16.4098 24.8114 16.1943 24.6895 16.0107L23.986 14.956H14.8521L14.1486 10.3594L12.8781 11.204C12.478 11.4724 12.1396 11.8224 11.8865 12.233L8.20446 18.2157C7.94545 18.6373 7.55283 18.9601 7.08913 19.1327L3.3418 20.535V26.1152C3.3418 26.411 3.4593 26.6947 3.66847 26.9039C3.87764 27.113 4.16133 27.2305 4.45713 27.2305H11.1538L13.3483 26.3532C13.7431 26.1967 14.1638 26.116 14.5885 26.1152H22.8706L24.056 24.9252C24.2021 24.7786 24.3048 24.5944 24.3526 24.393C24.4003 24.1915 24.3914 23.9808 24.3266 23.7842L24.1318 23.2032C24.0388 22.9224 24.0606 22.6163 24.1925 22.3515L24.8528 21.0332Z" fill="#FFDDA1"/>
<path d="M24.133 23.198C24.1254 23.1575 24.1199 23.1166 24.1166 23.0755C14.9326 23.968 7.6993 22.064 13.2701 10.9375L12.8781 11.1988C12.477 11.4656 12.1387 11.8163 11.8865 12.2267L8.20446 18.2093C7.9443 18.6293 7.5523 18.9525 7.08913 19.1263L3.3418 20.5287V26.1088C3.3418 26.4046 3.4593 26.6883 3.66847 26.8975C3.87764 27.1067 4.16133 27.2242 4.45713 27.2242H11.1538L13.3483 26.3468C13.7431 26.1904 14.1638 26.1096 14.5885 26.1088H22.8706L24.0571 24.9188C24.2031 24.7721 24.3055 24.5878 24.3531 24.3864C24.4007 24.185 24.3915 23.9744 24.3266 23.7778L24.133 23.198Z" fill="#FFDDA1"/>
<path d="M14.8366 14.9535L12.9209 2.29867C12.9078 2.15808 12.939 2.01692 13.0101 1.89495C13.0812 1.77298 13.1887 1.67632 13.3176 1.6185C13.4039 1.58172 13.4967 1.56268 13.5906 1.5625H22.7851C22.8815 1.56261 22.9767 1.58351 23.0643 1.62376C23.1519 1.66401 23.2298 1.72267 23.2927 1.79575C23.3556 1.86882 23.402 1.95459 23.4288 2.04722C23.4555 2.13985 23.462 2.23715 23.4477 2.3325L21.5519 14.9523L14.8366 14.9535Z" fill="#E3E3E3"/>
<path d="M14.5009 12.7217L12.9224 2.20417C12.9103 2.12461 12.9155 2.04337 12.9377 1.96602C12.96 1.88868 12.9987 1.81707 13.0512 1.7561C13.1038 1.69514 13.1689 1.64627 13.2421 1.61285C13.3153 1.57943 13.3949 1.56226 13.4754 1.5625H21.1964" stroke="#191919" stroke-linecap="round" stroke-linejoin="round"/>
<path d="M17.29 14.9561L16.2354 4.41056C16.2273 4.33272 16.2358 4.25406 16.2602 4.17972C16.2846 4.10538 16.3244 4.03702 16.3771 3.97911C16.4297 3.9212 16.4939 3.87504 16.5656 3.84364C16.6373 3.81224 16.7148 3.79631 16.793 3.79689H24.4569C24.5371 3.79698 24.6165 3.81441 24.6894 3.84797C24.7623 3.88154 24.8271 3.93046 24.8794 3.99138C24.9317 4.0523 24.9702 4.1238 24.9923 4.20097C25.0144 4.27815 25.0196 4.35919 25.0075 4.43856L23.4279 14.9561" fill="#78EB7B"/>
<path d="M14.5021 14.9506H23.9871L24.6906 16.0052C24.8125 16.1888 24.8776 16.4043 24.8776 16.6247C24.8776 16.8451 24.8125 17.0606 24.6906 17.2442L24.3465 17.7599C24.2382 17.9234 24.1747 18.1125 24.1624 18.3082C24.1501 18.5039 24.1895 18.6995 24.2765 18.8752L24.854 20.0302C24.931 20.1852 24.9711 20.3559 24.9711 20.529C24.9711 20.7021 24.931 20.8728 24.854 21.0277L24.1936 22.3472C24.0617 22.612 24.0399 22.9181 24.133 23.1989L24.3278 23.7799C24.3928 23.9767 24.4019 24.1876 24.3541 24.3893C24.3063 24.5909 24.2035 24.7754 24.0571 24.9221L22.8718 26.1097H14.5885C14.1626 26.1097 13.7415 26.1914 13.346 26.3501L11.1538 27.2251M3.3418 20.5296L7.08913 19.1261C7.55346 18.9511 7.94546 18.6267 8.20446 18.2044L11.8876 12.2264C12.1408 11.8157 12.4803 11.4646 12.8816 11.1974L14.1486 10.3516" stroke="#191919" stroke-linecap="round" stroke-linejoin="round"/>
<path d="M24.4561 3.79689H16.7911C16.7128 3.79631 16.6353 3.81224 16.5637 3.84364C16.492 3.87504 16.4277 3.9212 16.3751 3.97911C16.3225 4.03702 16.2827 4.10538 16.2583 4.17972C16.2338 4.25406 16.2254 4.33272 16.2334 4.41056L16.9766 11.8422L24.8492 3.96956C24.7982 3.91619 24.737 3.87345 24.6693 3.84382C24.6017 3.81418 24.5299 3.79824 24.4561 3.79689Z" fill="#C9F7CA"/>
<path d="M17.29 14.9561L16.2354 4.41056C16.2273 4.33272 16.2358 4.25406 16.2602 4.17972C16.2846 4.10538 16.3244 4.03702 16.3771 3.97911C16.4297 3.9212 16.4939 3.87504 16.5656 3.84364C16.6373 3.81224 16.7148 3.79631 16.793 3.79689H24.4569C24.5371 3.79698 24.6165 3.81441 24.6894 3.84797C24.7623 3.88154 24.8271 3.93046 24.8794 3.99138C24.9317 4.0523 24.9702 4.1238 24.9923 4.20097C25.0144 4.27815 25.0196 4.35919 25.0075 4.43856L23.4279 14.9561" stroke="#191919" stroke-linecap="round" stroke-linejoin="round"/>
<path d="M20.3617 11.0473C20.5496 11.055 20.7371 11.0246 20.913 10.958C21.0888 10.8914 21.2494 10.79 21.385 10.6598C21.5207 10.5295 21.6286 10.3733 21.7024 10.2003C21.7761 10.0273 21.8141 9.84119 21.8141 9.65315C21.8141 9.46511 21.7761 9.27901 21.7024 9.10602C21.6286 8.93304 21.5207 8.77675 21.385 8.64653C21.2494 8.51631 21.0888 8.41486 20.913 8.34826C20.7371 8.28166 20.5496 8.25129 20.3617 8.25898C20.0018 8.27371 19.6616 8.42703 19.4122 8.68688C19.1627 8.94672 19.0234 9.29296 19.0234 9.65315C19.0234 10.0133 19.1627 10.3596 19.4122 10.6194C19.6616 10.8793 20.0018 11.0326 20.3617 11.0473Z" fill="white" stroke="#191919" stroke-linecap="round" stroke-linejoin="round"/>
</svg>
