<svg width="14" height="14" viewBox="0 0 14 14" fill="none" xmlns="http://www.w3.org/2000/svg">
<path d="M0.363961 11.7038C-0.0944767 12.1622 -0.094466 12.9055 0.363961 13.364C0.822387 13.8224 1.56569 13.8224 2.02412 13.364L0.363961 11.7038ZM7.558 7.83008C8.01643 7.37166 8.01643 6.62834 7.558 6.16992C7.09958 5.71149 6.35627 5.71149 5.89784 6.16992L7.558 7.83008ZM5.89784 6.16992C5.43941 6.62835 5.43941 7.37165 5.89784 7.83008C6.35627 8.28851 7.09958 8.28851 7.558 7.83008L5.89784 6.16992ZM13.0919 2.2962C13.5503 1.83778 13.5503 1.09447 13.0919 0.636039C12.6335 0.177612 11.8901 0.177613 11.4317 0.63604L13.0919 2.2962ZM7.558 6.16992C7.09958 5.71149 6.35627 5.71149 5.89784 6.16992C5.43941 6.62835 5.43941 7.37165 5.89784 7.83008L7.558 6.16992ZM11.4317 13.364C11.8901 13.8224 12.6335 13.8224 13.0919 13.364C13.5503 12.9055 13.5503 12.1622 13.0919 11.7038L11.4317 13.364ZM5.89784 7.83008C6.35627 8.28851 7.09958 8.28851 7.558 7.83008C8.01643 7.37166 8.01643 6.62834 7.558 6.16992L5.89784 7.83008ZM2.02412 0.636039C1.56569 0.177601 0.822387 0.177613 0.363961 0.636039C-0.094466 1.09447 -0.0944767 1.83777 0.363961 2.2962L2.02412 0.636039ZM2.02412 13.364L7.558 7.83008L5.89784 6.16992L0.363961 11.7038L2.02412 13.364ZM7.558 7.83008L13.0919 2.2962L11.4317 0.63604L5.89784 6.16992L7.558 7.83008ZM6.72792 7L5.89784 7.83008L5.89895 7.83119C5.89906 7.8313 5.90028 7.83252 5.90028 7.83252C5.90016 7.83241 5.90039 7.83263 5.90028 7.83252C5.90028 7.83252 5.90149 7.83373 5.9016 7.83384C5.90149 7.83373 5.90171 7.83396 5.9016 7.83384C5.90171 7.83396 5.9026 7.83484 5.90271 7.83495C5.90282 7.83506 5.90382 7.83606 5.90393 7.83617C5.90404 7.83628 5.90492 7.83717 5.90503 7.83728C5.90515 7.83739 5.90614 7.83838 5.90636 7.8386C5.90647 7.83871 5.90747 7.83971 5.90769 7.83993C5.9078 7.84004 5.90902 7.84126 5.90913 7.84137C5.90891 7.84115 5.90935 7.84159 5.90913 7.84137C5.90935 7.84159 5.91001 7.84226 5.91024 7.84248C5.91001 7.84226 5.91046 7.8427 5.91024 7.84248C5.91046 7.8427 5.91123 7.84347 5.91134 7.84359C5.91112 7.84336 5.91156 7.84381 5.91134 7.84359C5.91156 7.84381 5.91234 7.84458 5.91256 7.8448C5.91234 7.84458 5.91278 7.84502 5.91256 7.8448C5.91278 7.84502 5.91367 7.84591 5.91389 7.84613C5.91367 7.84591 5.91411 7.84635 5.91389 7.84613C5.91411 7.84635 5.915 7.84724 5.91522 7.84746C5.91488 7.84713 5.91544 7.84768 5.91522 7.84746C5.91544 7.84768 5.91643 7.84868 5.91666 7.8489C5.91643 7.84868 5.91688 7.84912 5.91666 7.8489C5.91688 7.84912 5.91787 7.85011 5.9182 7.85045C5.91787 7.85011 5.91843 7.85067 5.9182 7.85045C5.91843 7.85067 5.91953 7.85177 5.91975 7.852C5.91953 7.85177 5.91998 7.85222 5.91975 7.852C5.92009 7.85233 5.92108 7.85332 5.92141 7.85366C5.92108 7.85332 5.92175 7.85399 5.92141 7.85366C5.92164 7.85388 5.92285 7.85509 5.92318 7.85543C5.92285 7.85509 5.92341 7.85565 5.92318 7.85543C5.92352 7.85576 5.92462 7.85687 5.92496 7.8572C5.92462 7.85687 5.92529 7.85753 5.92496 7.8572C5.92529 7.85753 5.92662 7.85886 5.92695 7.85919C5.92662 7.85886 5.92728 7.85952 5.92695 7.85919C5.92728 7.85952 5.92861 7.86085 5.92894 7.86118C5.92861 7.86085 5.92927 7.86151 5.92894 7.86118C5.92927 7.86151 5.9306 7.86284 5.93104 7.86328C5.93071 7.86295 5.93137 7.86362 5.93104 7.86328C5.93149 7.86373 5.93281 7.86506 5.93315 7.86539C5.93359 7.86583 5.93392 7.86616 5.93436 7.86661C5.9347 7.86694 5.93503 7.86727 5.93547 7.86771C5.93591 7.86816 5.93624 7.86849 5.93669 7.86893C5.93702 7.86926 5.93746 7.8697 5.9378 7.87004C5.93824 7.87048 5.93868 7.87092 5.93912 7.87136C5.93945 7.8717 5.9399 7.87214 5.94034 7.87258C5.94078 7.87302 5.94112 7.87336 5.94156 7.8738C5.942 7.87424 5.94244 7.87468 5.94289 7.87513C5.94333 7.87557 5.94377 7.87601 5.94421 7.87646C5.94466 7.8769 5.9451 7.87734 5.94554 7.87778C5.94599 7.87823 5.94654 7.87878 5.94698 7.87922C5.94742 7.87967 5.94787 7.88011 5.94831 7.88055C5.94886 7.8811 5.94931 7.88155 5.94975 7.88199C5.9503 7.88254 5.95074 7.88299 5.95119 7.88343C5.95174 7.88398 5.95218 7.88442 5.95274 7.88498C5.95318 7.88542 5.95373 7.88597 5.95418 7.88642C5.95473 7.88697 5.95528 7.88752 5.95572 7.88797C5.95628 7.88852 5.95683 7.88907 5.95738 7.88963C5.95783 7.89007 5.95838 7.89062 5.95893 7.89118C5.95949 7.89173 5.96004 7.89228 5.96059 7.89284C5.96104 7.89328 5.96159 7.89383 5.96214 7.89439C5.9627 7.89494 5.96336 7.8956 5.96391 7.89616C5.96447 7.89671 5.96502 7.89726 5.96558 7.89782C5.96613 7.89837 5.96668 7.89892 5.96735 7.89959C5.9679 7.90014 5.96845 7.90069 5.96912 7.90136C5.96967 7.90191 5.97033 7.90258 5.97089 7.90313C5.97144 7.90368 5.9721 7.90435 5.97266 7.9049C5.97332 7.90556 5.97399 7.90623 5.97454 7.90678C5.9752 7.90745 5.97587 7.90811 5.97642 7.90866C5.97709 7.90933 5.97775 7.90999 5.97841 7.91065C5.97897 7.91121 5.97963 7.91187 5.98029 7.91254C5.98096 7.9132 5.98162 7.91386 5.98229 7.91453C5.98295 7.91519 5.98362 7.91586 5.98428 7.91652C5.98494 7.91719 5.98572 7.91796 5.98638 7.91862C5.98705 7.91929 5.98771 7.91995 5.98837 7.92062C5.98915 7.92139 5.98981 7.92206 5.99048 7.92272C5.99125 7.92349 5.99192 7.92416 5.99269 7.92493C5.99335 7.9256 5.99413 7.92637 5.99479 7.92704C5.99557 7.92781 5.99634 7.92858 5.99701 7.92925C5.99778 7.93002 5.99856 7.9308 5.99933 7.93157C6 7.93224 6.00077 7.93301 6.00155 7.93379C6.00232 7.93456 6.00309 7.93534 6.00387 7.93611C6.00464 7.93689 6.00542 7.93766 6.00619 7.93844C6.00697 7.93921 6.00774 7.93999 6.00852 7.94076C6.0094 7.94164 6.01018 7.94242 6.01095 7.94319C6.01184 7.94408 6.01261 7.94485 6.01339 7.94563C6.01427 7.94651 6.01505 7.94729 6.01593 7.94817C6.01671 7.94895 6.01759 7.94983 6.01837 7.95061C6.01925 7.9515 6.02014 7.95238 6.02091 7.95316C6.0218 7.95404 6.02268 7.95493 6.02357 7.95581C6.02445 7.9567 6.02523 7.95747 6.02612 7.95836C6.027 7.95924 6.02789 7.96013 6.02877 7.96101C6.02966 7.9619 6.03065 7.96289 6.03154 7.96378C6.03242 7.96467 6.03331 7.96555 6.0342 7.96644C6.03519 7.96743 6.03608 7.96832 6.03696 7.9692C6.03796 7.9702 6.03884 7.97108 6.03984 7.97208C6.04072 7.97297 6.04172 7.97396 6.04261 7.97485C6.0436 7.97584 6.0446 7.97684 6.04548 7.97773C6.04648 7.97872 6.04748 7.97972 6.04847 7.98071C6.04936 7.9816 6.05035 7.98259 6.05135 7.98359C6.05235 7.98459 6.05334 7.98558 6.05434 7.98658C6.05533 7.98758 6.05633 7.98857 6.05744 7.98968C6.05843 7.99068 6.05943 7.99167 6.06043 7.99267C6.06153 7.99377 6.06253 7.99477 6.06352 7.99577C6.06463 7.99687 6.06563 7.99787 6.06673 7.99898C6.06773 7.99997 6.06884 8.00108 6.06994 8.00219C6.07094 8.00318 6.07205 8.00429 6.07315 8.00539C6.07426 8.0065 6.07526 8.0075 6.07636 8.0086C6.07747 8.00971 6.07858 8.01082 6.07968 8.01192C6.08079 8.01303 6.0819 8.01414 6.083 8.01525C6.08422 8.01646 6.08533 8.01757 6.08643 8.01868C6.08754 8.01978 6.08876 8.021 6.08987 8.02211C6.09097 8.02321 6.09219 8.02443 6.0933 8.02554C6.09451 8.02676 6.09562 8.02786 6.09684 8.02908C6.09806 8.0303 6.09916 8.0314 6.10038 8.03262C6.1016 8.03384 6.10282 8.03506 6.10403 8.03627C6.10525 8.03749 6.10647 8.03871 6.10768 8.03993C6.1089 8.04114 6.11012 8.04236 6.11134 8.04358C6.11255 8.0448 6.11377 8.04601 6.11499 8.04723C6.11632 8.04856 6.11754 8.04978 6.11886 8.05111C6.12008 8.05232 6.1213 8.05354 6.12263 8.05487C6.12384 8.05609 6.12517 8.05741 6.1265 8.05874C6.12772 8.05996 6.12905 8.06129 6.13037 8.06262C6.1317 8.06394 6.13303 8.06527 6.13436 8.0666C6.13569 8.06793 6.13701 8.06926 6.13834 8.07058C6.13967 8.07191 6.141 8.07324 6.14233 8.07457C6.14365 8.0759 6.14498 8.07722 6.14642 8.07866C6.14775 8.07999 6.14919 8.08143 6.15052 8.08276C6.15196 8.0842 6.15328 8.08552 6.15472 8.08696C6.15605 8.08829 6.15749 8.08973 6.15893 8.09117C6.16026 8.0925 6.1617 8.09394 6.16313 8.09538C6.16457 8.09682 6.16601 8.09825 6.16745 8.09969C6.16889 8.10113 6.17033 8.10257 6.17177 8.10401C6.17321 8.10545 6.17476 8.107 6.17619 8.10844C6.17763 8.10987 6.17918 8.11142 6.18062 8.11286C6.18217 8.11441 6.18361 8.11585 6.18516 8.1174C6.1866 8.11884 6.18815 8.12039 6.1897 8.12194C6.19113 8.12338 6.19269 8.12493 6.19423 8.12648C6.19578 8.12803 6.19733 8.12958 6.19888 8.13112C6.20043 8.13267 6.20198 8.13422 6.20353 8.13577C6.20508 8.13732 6.20674 8.13898 6.20829 8.14053C6.20984 8.14208 6.2115 8.14374 6.21305 8.14529C6.21471 8.14695 6.21626 8.1485 6.21792 8.15016C6.21947 8.15171 6.22113 8.15337 6.22279 8.15503C6.22445 8.15669 6.226 8.15824 6.22766 8.1599C6.22932 8.16156 6.23098 8.16322 6.23264 8.16488C6.2343 8.16654 6.23596 8.1682 6.23773 8.16997C6.23939 8.17163 6.24105 8.17329 6.24271 8.17495C6.24448 8.17672 6.24614 8.17838 6.24791 8.18016C6.24957 8.18182 6.25134 8.18359 6.253 8.18525C6.25478 8.18702 6.25655 8.18879 6.25832 8.19056C6.25998 8.19222 6.26175 8.19399 6.26352 8.19576C6.26529 8.19753 6.26706 8.1993 6.26883 8.20107C6.2706 8.20284 6.27248 8.20473 6.27425 8.2065C6.27603 8.20827 6.27791 8.21015 6.27968 8.21192C6.28145 8.21369 6.28333 8.21557 6.28521 8.21745C6.28698 8.21922 6.28886 8.22111 6.29075 8.22299C6.29252 8.22476 6.2944 8.22664 6.29628 8.22852C6.29816 8.2304 6.30004 8.23228 6.30192 8.23417C6.30381 8.23605 6.30569 8.23793 6.30757 8.23981C6.30956 8.2418 6.31144 8.24368 6.31332 8.24556C6.31531 8.24756 6.3172 8.24944 6.31919 8.25143C6.32107 8.25331 6.32306 8.2553 6.32494 8.25719C6.32694 8.25918 6.32893 8.26117 6.33092 8.26316C6.33291 8.26516 6.33491 8.26715 6.3369 8.26914C6.33889 8.27113 6.34088 8.27312 6.34287 8.27512C6.34487 8.27711 6.34686 8.2791 6.34896 8.2812C6.35095 8.2832 6.35306 8.2853 6.35505 8.28729C6.35715 8.28939 6.35914 8.29139 6.36125 8.29349C6.36335 8.29559 6.36534 8.29758 6.36744 8.29969C6.36955 8.30179 6.37165 8.30389 6.37375 8.306C6.37586 8.3081 6.37796 8.3102 6.38017 8.31241C6.38228 8.31452 6.38438 8.31662 6.38648 8.31872C6.3887 8.32094 6.3908 8.32304 6.39301 8.32525C6.39511 8.32736 6.39733 8.32957 6.39954 8.33178C6.40164 8.33389 6.40386 8.3361 6.40607 8.33831C6.40828 8.34053 6.4105 8.34274 6.41271 8.34495C6.41493 8.34717 6.41714 8.34938 6.41935 8.35159C6.42157 8.35381 6.42389 8.35613 6.4261 8.35835C6.42843 8.36067 6.43064 8.36288 6.43297 8.36521C6.43518 8.36742 6.4375 8.36975 6.43983 8.37207C6.44204 8.37428 6.44437 8.37661 6.44669 8.37893C6.44901 8.38126 6.45134 8.38358 6.45366 8.38591C6.45599 8.38823 6.45831 8.39055 6.46075 8.39299C6.46307 8.39531 6.46539 8.39764 6.46783 8.40007C6.47015 8.4024 6.47259 8.40483 6.47491 8.40716C6.47735 8.40959 6.47978 8.41202 6.48222 8.41446C6.48454 8.41678 6.48698 8.41922 6.48941 8.42165C6.49185 8.42409 6.49428 8.42652 6.49683 8.42907C6.49926 8.4315 6.5017 8.43394 6.50413 8.43637C6.50668 8.43892 6.50911 8.44135 6.51166 8.4439C6.51409 8.44633 6.51664 8.44888 6.51918 8.45143C6.52162 8.45386 6.52416 8.45641 6.52671 8.45895C6.52926 8.4615 6.5318 8.46404 6.53435 8.46659C6.53689 8.46913 6.53944 8.47168 6.54209 8.47434C6.54464 8.47688 6.54719 8.47943 6.54984 8.48208C6.55239 8.48463 6.55504 8.48729 6.5577 8.48994C6.56025 8.49249 6.5629 8.49514 6.56556 8.4978C6.56821 8.50046 6.57087 8.50311 6.57353 8.50577C6.57618 8.50842 6.57884 8.51108 6.58149 8.51374C6.58415 8.51639 6.58692 8.51916 6.58957 8.52182C6.59223 8.52447 6.595 8.52724 6.59776 8.53001C6.60042 8.53266 6.60319 8.53543 6.60595 8.5382C6.60861 8.54085 6.61138 8.54362 6.61414 8.54639C6.61691 8.54915 6.61968 8.55192 6.62256 8.5548C6.62532 8.55757 6.62809 8.56033 6.63086 8.5631C6.63374 8.56598 6.6365 8.56874 6.63938 8.57162C6.64215 8.57439 6.64502 8.57727 6.6479 8.58014C6.65078 8.58302 6.65355 8.58579 6.65642 8.58867C6.6593 8.59154 6.66218 8.59442 6.66517 8.59741C6.66805 8.60029 6.67092 8.60316 6.6738 8.60604C6.67679 8.60903 6.67967 8.61191 6.68265 8.6149C6.68553 8.61777 6.68852 8.62076 6.69151 8.62375C6.6945 8.62674 6.69737 8.62962 6.70036 8.6326C6.70335 8.63559 6.70634 8.63858 6.70933 8.64157C6.71243 8.64467 6.71541 8.64766 6.7184 8.65065C6.7215 8.65374 6.72449 8.65673 6.72759 8.65983C6.73058 8.66282 6.73368 8.66592 6.73678 8.66902C6.73976 8.67201 6.74286 8.67511 6.74596 8.6782C6.74906 8.6813 6.75216 8.6844 6.75526 8.6875C6.75847 8.69071 6.76157 8.69381 6.76467 8.69691C6.76788 8.70012 6.77098 8.70322 6.77418 8.70643C6.77728 8.70953 6.78049 8.71274 6.7837 8.71595C6.78691 8.71915 6.79001 8.72225 6.79322 8.72546C6.79643 8.72867 6.79975 8.73199 6.80296 8.7352C6.80617 8.73841 6.80938 8.74162 6.8127 8.74494C6.81591 8.74815 6.81923 8.75147 6.82244 8.75468C6.82576 8.758 6.82908 8.76132 6.83229 8.76453C6.83561 8.76785 6.83893 8.77117 6.84225 8.77449C6.84557 8.77781 6.84889 8.78113 6.85232 8.78456C6.85564 8.78789 6.85896 8.79121 6.8624 8.79464C6.86572 8.79796 6.86915 8.80139 6.87258 8.80482C6.8759 8.80814 6.87933 8.81157 6.88276 8.815C6.88619 8.81843 6.88962 8.82186 6.89305 8.8253C6.89648 8.82873 6.89991 8.83216 6.90346 8.8357C6.90689 8.83913 6.91032 8.84256 6.91386 8.8461C6.91729 8.84953 6.92083 8.85307 6.92437 8.85662C6.92792 8.86016 6.93146 8.8637 6.935 8.86724C6.93843 8.87067 6.94208 8.87432 6.94562 8.87787C6.94917 8.88141 6.95271 8.88495 6.95636 8.8886C6.9599 8.89214 6.96355 8.8958 6.9671 8.89934C6.97075 8.90299 6.9744 8.90664 6.97805 8.91029C6.98159 8.91384 6.98525 8.91749 6.9889 8.92114C6.99266 8.9249 6.99631 8.92856 6.99997 8.93221C7.00362 8.93586 7.00738 8.93962 7.01104 8.94328C7.0148 8.94704 7.01845 8.95069 7.02221 8.95446C7.02598 8.95822 7.02974 8.96198 7.0335 8.96574C7.03727 8.96951 7.04103 8.97327 7.04479 8.97703C7.04855 8.9808 7.05243 8.98467 7.05619 8.98843C7.05995 8.9922 7.06383 8.99607 7.0677 8.99994C7.07147 9.00371 7.07534 9.00758 7.07921 9.01145C7.08309 9.01533 7.08696 9.0192 7.09083 9.02307C7.09471 9.02695 7.09858 9.03082 7.10257 9.03481C7.10644 9.03868 7.11031 9.04255 7.1143 9.04654C7.11828 9.05052 7.12216 9.0544 7.12614 9.05838C7.13012 9.06237 7.13411 9.06635 7.13809 9.07033C7.14208 9.07432 7.14606 9.0783 7.15005 9.08229C7.15403 9.08627 7.15813 9.09037 7.16211 9.09435C7.1662 9.09845 7.17019 9.10243 7.17428 9.10653C7.17838 9.11062 7.18247 9.11472 7.18657 9.11881C7.19066 9.12291 7.19476 9.127 7.19885 9.1311C7.20295 9.13519 7.20705 9.13929 7.21125 9.14349C7.21535 9.14759 7.21955 9.15179 7.22376 9.156C7.22785 9.16009 7.23206 9.1643 7.23626 9.16851C7.24047 9.17271 7.24468 9.17692 7.24888 9.18112C7.25309 9.18533 7.25729 9.18953 7.26161 9.19385C7.26581 9.19806 7.27013 9.20237 7.27434 9.20658C7.27865 9.2109 7.28297 9.21521 7.28729 9.21953C7.29149 9.22373 7.29581 9.22805 7.30024 9.23248C7.30455 9.23679 7.30887 9.24111 7.31319 9.24543C7.31761 9.24985 7.32193 9.25417 7.32636 9.2586C7.33067 9.26291 7.3351 9.26734 7.33953 9.27177C7.34395 9.27619 7.34838 9.28062 7.35281 9.28505C7.35723 9.28948 7.36166 9.2939 7.36609 9.29833C7.37063 9.30287 7.37505 9.3073 7.37959 9.31183C7.38402 9.31626 7.38856 9.3208 7.39309 9.32534C7.39752 9.32976 7.40206 9.3343 7.4066 9.33884C7.41125 9.34349 7.41578 9.34802 7.42032 9.35256C7.42486 9.3571 7.42951 9.36175 7.43404 9.36629C7.43869 9.37093 7.44334 9.37558 7.44788 9.38012C7.45253 9.38477 7.45718 9.38942 7.46183 9.39407C7.46647 9.39872 7.47112 9.40336 7.47588 9.40812C7.48053 9.41277 7.48518 9.41742 7.48994 9.42218C7.4947 9.42694 7.49934 9.43159 7.5041 9.43635C7.50886 9.4411 7.51362 9.44586 7.51838 9.45062C7.52314 9.45538 7.5279 9.46014 7.53266 9.4649C7.53753 9.46977 7.54229 9.47453 7.54716 9.4794C7.55192 9.48416 7.55679 9.48903 7.56166 9.4939C7.56653 9.49877 7.5714 9.50364 7.57627 9.50851C7.58114 9.51338 7.58601 9.51825 7.59088 9.52312C7.59586 9.5281 7.60073 9.53297 7.60571 9.53795C7.61058 9.54282 7.61556 9.5478 7.62054 9.55278C7.62552 9.55776 7.6305 9.56274 7.63548 9.56772C7.64046 9.5727 7.64544 9.57768 7.65053 9.58277C7.65551 9.58775 7.6606 9.59284 7.66558 9.59782C7.67067 9.60292 7.67576 9.60801 7.68074 9.61299C7.68584 9.61808 7.69093 9.62317 7.69613 9.62837C7.70122 9.63346 7.70631 9.63855 7.7114 9.64365C7.71661 9.64885 7.7217 9.65394 7.7269 9.65914C7.7321 9.66434 7.7373 9.66954 7.7425 9.67475C7.7476 9.67984 7.75291 9.68515 7.75811 9.69035C7.76331 9.69555 7.76851 9.70075 7.77382 9.70607C7.77903 9.71127 7.78434 9.71658 7.78965 9.72189C7.79485 9.7271 7.80017 9.73241 7.80548 9.73772C7.81079 9.74303 7.8161 9.74835 7.82153 9.75377C7.82684 9.75908 7.83215 9.76439 7.83757 9.76982C7.843 9.77524 7.84831 9.78055 7.85373 9.78598C7.85916 9.7914 7.86458 9.79682 7.87 9.80225C7.87543 9.80767 7.88085 9.81309 7.88638 9.81863C7.89181 9.82405 7.89723 9.82947 7.90276 9.83501C7.9083 9.84054 7.91372 9.84596 7.91925 9.8515C7.92479 9.85703 7.93032 9.86256 7.93586 9.8681C7.9415 9.87374 7.94704 9.87928 7.95257 9.88481C7.95821 9.89046 7.96375 9.89599 7.96939 9.90163C7.97504 9.90728 7.98068 9.91292 7.98633 9.91857C7.99197 9.92421 7.99761 9.92986 8.00326 9.9355C8.0089 9.94115 8.01466 9.9469 8.0203 9.95255C8.02606 9.9583 8.03181 9.96406 8.03746 9.9697C8.04321 9.97546 8.04897 9.98121 8.05472 9.98697C8.06048 9.99272 8.06635 9.99859 8.0721 10.0043C8.07786 10.0101 8.08372 10.016 8.08959 10.0218C8.09534 10.0276 8.10121 10.0335 8.10708 10.0393C8.11294 10.0452 8.11881 10.051 8.12467 10.0569C8.13065 10.0629 8.13652 10.0688 8.14238 10.0746C8.14836 10.0806 8.15433 10.0866 8.1602 10.0924C8.16618 10.0984 8.17215 10.1044 8.17813 10.1104C8.18411 10.1163 8.19019 10.1224 8.19617 10.1284C8.20215 10.1344 8.20823 10.1405 8.21421 10.1465C8.2203 10.1525 8.22639 10.1586 8.23247 10.1647C8.23856 10.1708 8.24465 10.1769 8.25073 10.183C8.25682 10.1891 8.26302 10.1953 8.26911 10.2013C8.27531 10.2075 8.28139 10.2136 8.28759 10.2198C8.29379 10.226 8.29999 10.2322 8.30618 10.2384C8.31238 10.2446 8.31858 10.2508 8.32489 10.2571C8.33109 10.2633 8.33728 10.2695 8.34359 10.2758C8.3499 10.2821 8.35621 10.2885 8.36241 10.2947C8.36872 10.301 8.37514 10.3074 8.38145 10.3137C8.38775 10.32 8.39406 10.3263 8.40048 10.3327C8.40679 10.339 8.41321 10.3455 8.41963 10.3519C8.42605 10.3583 8.43247 10.3647 8.43889 10.3711C8.44531 10.3775 8.45173 10.384 8.45826 10.3905C8.46467 10.3969 8.4712 10.4034 8.47762 10.4099C8.48415 10.4164 8.49068 10.4229 8.49721 10.4295C8.50374 10.436 8.51027 10.4425 8.5168 10.449C8.52344 10.4557 8.52997 10.4622 8.53662 10.4689C8.54314 10.4754 8.54979 10.482 8.55643 10.4887C8.56307 10.4953 8.56971 10.5019 8.57635 10.5086C8.58299 10.5152 8.58974 10.522 8.59638 10.5286C8.60313 10.5354 8.60977 10.542 8.61652 10.5488C8.62328 10.5555 8.63003 10.5623 8.63678 10.569C8.64353 10.5758 8.65039 10.5826 8.65714 10.5894C8.66389 10.5961 8.67076 10.603 8.67762 10.6099C8.68437 10.6166 8.69123 10.6235 8.69809 10.6303C8.70495 10.6372 8.71182 10.6441 8.71879 10.651C8.72565 10.6579 8.73251 10.6648 8.73949 10.6717C8.74646 10.6787 8.75332 10.6856 8.76029 10.6925C8.76727 10.6995 8.77424 10.7065 8.78132 10.7136C8.7883 10.7205 8.79527 10.7275 8.80235 10.7346C8.80932 10.7416 8.81641 10.7486 8.82349 10.7557C8.83057 10.7628 8.83766 10.7699 8.84474 10.777C8.85182 10.7841 8.85891 10.7912 8.8661 10.7983C8.87319 10.8054 8.88038 10.8126 8.88757 10.8198C8.89466 10.8269 8.90185 10.8341 8.90916 10.8414C8.91635 10.8486 8.92354 10.8558 8.93074 10.863C8.93804 10.8703 8.94524 10.8775 8.95254 10.8848C8.95985 10.8921 8.96715 10.8994 8.97446 10.9067C8.98176 10.914 8.98906 10.9213 8.99637 10.9286C9.00367 10.9359 9.01109 10.9433 9.01851 10.9507C9.02581 10.9581 9.03322 10.9655 9.04064 10.9729C9.04806 10.9803 9.05547 10.9877 9.06289 10.9951C9.07041 11.0027 9.07783 11.0101 9.08535 11.0176C9.09277 11.025 9.1003 11.0325 9.10782 11.0401C9.11535 11.0476 9.12287 11.0551 9.1304 11.0626C9.13804 11.0703 9.14556 11.0778 9.1532 11.0854C9.16073 11.093 9.16836 11.1006 9.176 11.1082C9.18364 11.1159 9.19127 11.1235 9.19891 11.1312C9.20655 11.1388 9.21418 11.1464 9.22193 11.1542C9.22957 11.1618 9.23731 11.1696 9.24506 11.1773C9.25281 11.1851 9.26056 11.1928 9.2683 11.2005C9.27605 11.2083 9.2838 11.216 9.29166 11.2239C9.2994 11.2316 9.30726 11.2395 9.31512 11.2474C9.32298 11.2552 9.33084 11.2631 9.3387 11.2709C9.34655 11.2788 9.35441 11.2867 9.36238 11.2946C9.37024 11.3025 9.37821 11.3104 9.38618 11.3184C9.39403 11.3263 9.402 11.3342 9.41008 11.3423C9.41805 11.3503 9.42602 11.3583 9.43399 11.3662C9.44207 11.3743 9.45004 11.3823 9.45812 11.3904C9.4662 11.3984 9.47428 11.4065 9.48235 11.4146C9.49043 11.4227 9.49851 11.4308 9.5067 11.4389C9.51478 11.447 9.52297 11.4552 9.53116 11.4634C9.53924 11.4715 9.54743 11.4797 9.55562 11.4879C9.56392 11.4962 9.57211 11.5044 9.5803 11.5125C9.58861 11.5208 9.5968 11.529 9.6051 11.5373C9.6134 11.5456 9.6217 11.5539 9.63 11.5622C9.6383 11.5705 9.6466 11.5788 9.65501 11.5873C9.66331 11.5956 9.67172 11.604 9.68014 11.6124C9.68844 11.6207 9.69685 11.6291 9.70526 11.6375C9.71367 11.6459 9.72219 11.6544 9.7306 11.6628C9.73913 11.6714 9.74754 11.6798 9.75606 11.6883C9.76458 11.6968 9.7731 11.7053 9.78163 11.7139C9.79015 11.7224 9.79867 11.7309 9.8073 11.7395C9.81583 11.7481 9.82446 11.7567 9.83309 11.7653C9.84161 11.7739 9.85025 11.7825 9.85899 11.7912C9.86762 11.7999 9.87626 11.8085 9.885 11.8172C9.89363 11.8259 9.90238 11.8346 9.91101 11.8433C9.91975 11.852 9.9285 11.8607 9.93724 11.8695C9.94609 11.8783 9.95484 11.8871 9.96369 11.8959C9.97244 11.9047 9.98129 11.9135 9.99014 11.9224C9.99889 11.9311 10.0077 11.94 10.0167 11.9489C10.0256 11.9578 10.0344 11.9667 10.0434 11.9756C10.0522 11.9845 10.0612 11.9934 10.0702 12.0024C10.0791 12.0114 10.0881 12.0203 10.0971 12.0293C10.106 12.0383 10.1151 12.0473 10.1241 12.0563C10.1331 12.0654 10.1422 12.0745 10.1513 12.0835C10.1604 12.0926 10.1694 12.1017 10.1785 12.1108C10.1876 12.1198 10.1968 12.129 10.2059 12.1381C10.215 12.1473 10.2242 12.1565 10.2334 12.1657C10.2426 12.1748 10.2518 12.184 10.261 12.1932C10.2703 12.2025 10.2795 12.2117 10.2888 12.221C10.298 12.2303 10.3073 12.2396 10.3166 12.2489C10.3259 12.2582 10.3352 12.2675 10.3445 12.2768C10.3539 12.2862 10.3632 12.2955 10.3726 12.3049C10.3821 12.3143 10.3915 12.3237 10.4009 12.3331C10.4103 12.3425 10.4197 12.3519 10.4292 12.3614C10.4386 12.3709 10.4481 12.3804 10.4576 12.3899C10.4672 12.3994 10.4767 12.4089 10.4862 12.4184C10.4957 12.428 10.5052 12.4375 10.5149 12.4471C10.5244 12.4566 10.534 12.4663 10.5436 12.4759C10.5533 12.4855 10.5629 12.4951 10.5725 12.5048C10.5823 12.5145 10.5919 12.5241 10.6016 12.5339C10.6113 12.5435 10.621 12.5532 10.6307 12.563C10.6405 12.5727 10.6502 12.5825 10.6601 12.5923C10.6698 12.6021 10.6796 12.6118 10.6894 12.6216C10.6993 12.6315 10.7091 12.6413 10.719 12.6512C10.7288 12.661 10.7387 12.6709 10.7486 12.6809C10.7585 12.6907 10.7684 12.7007 10.7784 12.7106C10.7882 12.7205 10.7982 12.7304 10.8083 12.7405C10.8182 12.7505 10.8282 12.7604 10.8383 12.7705C10.8482 12.7805 10.8583 12.7905 10.8684 12.8006C10.8784 12.8107 10.8885 12.8208 10.8986 12.8308C10.9087 12.8409 10.9188 12.8511 10.9289 12.8612C10.9391 12.8713 10.9493 12.8815 10.9595 12.8917C10.9696 12.9019 10.9798 12.9121 10.9901 12.9224C11.0003 12.9325 11.0106 12.9428 11.0208 12.953C11.0311 12.9633 11.0414 12.9736 11.0517 12.9839C11.0619 12.9942 11.0723 13.0046 11.0826 13.0149C11.093 13.0253 11.1033 13.0356 11.1137 13.046C11.1241 13.0564 11.1346 13.0668 11.145 13.0772C11.1555 13.0877 11.1659 13.0981 11.1764 13.1086C11.1868 13.119 11.1973 13.1295 11.2078 13.1401C11.2183 13.1506 11.2288 13.1611 11.2395 13.1717C11.25 13.1822 11.2606 13.1929 11.2711 13.2034C11.2818 13.214 11.2924 13.2246 11.303 13.2352C11.3136 13.2459 11.3244 13.2566 11.335 13.2672C11.3457 13.278 11.3563 13.2886 11.3671 13.2993C11.3778 13.3101 11.3886 13.3208 11.3994 13.3316C11.4101 13.3424 11.4209 13.3531 11.4317 13.364L13.0919 11.7038C13.081 11.693 13.0703 11.6822 13.0596 11.6715C13.0487 11.6606 13.038 11.6499 13.0272 11.6392C13.0165 11.6284 13.0059 11.6178 12.9951 11.6071C12.9845 11.5964 12.9738 11.5857 12.9632 11.5751C12.9525 11.5645 12.9419 11.5538 12.9313 11.5432C12.9208 11.5327 12.9102 11.5221 12.8996 11.5116C12.889 11.5009 12.8785 11.4904 12.868 11.4799C12.8575 11.4694 12.847 11.4589 12.8366 11.4485C12.826 11.438 12.8156 11.4275 12.8051 11.417C12.7947 11.4066 12.7843 11.3962 12.7739 11.3858C12.7635 11.3754 12.7532 11.3651 12.7428 11.3547C12.7325 11.3444 12.7221 11.334 12.7118 11.3237C12.7015 11.3134 12.6912 11.3031 12.6809 11.2929C12.6708 11.2827 12.6605 11.2724 12.6503 11.2622C12.64 11.2519 12.6298 11.2417 12.6196 11.2315C12.6094 11.2214 12.5993 11.2112 12.5891 11.201C12.579 11.1909 12.5688 11.1807 12.5587 11.1707C12.5487 11.1606 12.5386 11.1505 12.5285 11.1404C12.5185 11.1304 12.5084 11.1203 12.4984 11.1103C12.4884 11.1003 12.4784 11.0903 12.4684 11.0804C12.4584 11.0703 12.4484 11.0603 12.4386 11.0505C12.4286 11.0405 12.4186 11.0305 12.4088 11.0207C12.3988 11.0107 12.389 11.0009 12.3791 10.991C12.3693 10.9812 12.3594 10.9713 12.3496 10.9615C12.3397 10.9516 12.33 10.9419 12.3202 10.9322C12.3104 10.9223 12.3006 10.9126 12.2909 10.9028C12.2812 10.8931 12.2714 10.8833 12.2618 10.8737C12.2521 10.864 12.2424 10.8543 12.2327 10.8446C12.2231 10.835 12.2134 10.8253 12.2038 10.8157C12.1942 10.8061 12.1845 10.7965 12.175 10.7869C12.1654 10.7773 12.1559 10.7678 12.1464 10.7583C12.1368 10.7488 12.1273 10.7392 12.1178 10.7297C12.1083 10.7202 12.0988 10.7107 12.0894 10.7013C12.0798 10.6918 12.0704 10.6824 12.061 10.6729C12.0516 10.6635 12.0422 10.6541 12.0328 10.6447C12.0234 10.6353 12.0141 10.626 12.0047 10.6166C11.9954 10.6073 11.9861 10.598 11.9768 10.5887C11.9675 10.5794 11.9582 10.5701 11.9489 10.5608C11.9396 10.5515 11.9304 10.5423 11.9211 10.533C11.9119 10.5239 11.9028 10.5147 11.8936 10.5055C11.8844 10.4963 11.8752 10.4871 11.866 10.4779C11.8569 10.4689 11.8478 10.4597 11.8387 10.4506C11.8296 10.4415 11.8205 10.4324 11.8115 10.4234C11.8024 10.4143 11.7933 10.4052 11.7842 10.3961C11.7753 10.3872 11.7662 10.3781 11.7572 10.3691C11.7483 10.3602 11.7393 10.3512 11.7303 10.3422C11.7214 10.3333 11.7124 10.3243 11.7035 10.3155C11.6946 10.3065 11.6857 10.2976 11.6769 10.2888C11.6679 10.2798 11.6591 10.271 11.6503 10.2622C11.6415 10.2534 11.6326 10.2445 11.6239 10.2358C11.615 10.2269 11.6063 10.2182 11.5974 10.2093C11.5887 10.2006 11.5799 10.1918 11.5712 10.1831C11.5625 10.1745 11.5538 10.1657 11.5452 10.1571C11.5364 10.1483 11.5278 10.1397 11.5192 10.1311C11.5104 10.1223 11.5018 10.1137 11.4933 10.1052C11.4846 10.0965 11.476 10.0879 11.4675 10.0794C11.4588 10.0707 11.4503 10.0622 11.4418 10.0537C11.4333 10.0452 11.4247 10.0367 11.4162 10.0281C11.4077 10.0196 11.3993 10.0112 11.3908 10.0027C11.3824 9.99427 11.3738 9.98575 11.3654 9.97734C11.357 9.96893 11.3486 9.96051 11.3403 9.95221C11.3319 9.9438 11.3235 9.93539 11.3152 9.92709C11.3068 9.91868 11.2985 9.91038 11.2902 9.90208C11.2819 9.89378 11.2736 9.88548 11.2653 9.87717C11.257 9.86887 11.2488 9.86068 11.2405 9.85238C11.2323 9.84419 11.2241 9.836 11.2158 9.8277C11.2076 9.81951 11.1994 9.81132 11.1913 9.80324C11.1831 9.79505 11.1749 9.78686 11.1669 9.77878C11.1587 9.77059 11.1506 9.76251 11.1425 9.75443C11.1344 9.74635 11.1264 9.73827 11.1183 9.73019C11.1102 9.72211 11.1022 9.71415 11.0942 9.70607C11.0862 9.6981 11.0782 9.69013 11.0702 9.68216C11.0622 9.67408 11.0542 9.66611 11.0463 9.65825C11.0384 9.65029 11.0304 9.64232 11.0225 9.63446C11.0146 9.62649 11.0067 9.61863 10.9989 9.61077C10.991 9.60292 10.9831 9.59506 10.9753 9.5872C10.9674 9.57934 10.9596 9.57148 10.9518 9.56373C10.944 9.55588 10.9362 9.54813 10.9285 9.54038C10.9207 9.53263 10.913 9.52489 10.9052 9.51714C10.8975 9.50939 10.8897 9.50165 10.8821 9.49401C10.8743 9.48626 10.8667 9.47862 10.8591 9.47099C10.8514 9.46335 10.8438 9.45571 10.8362 9.44808C10.8285 9.44044 10.8209 9.4328 10.8134 9.42528C10.8057 9.41764 10.7982 9.41012 10.7906 9.40248C10.783 9.39495 10.7755 9.38743 10.768 9.3799C10.7605 9.37237 10.7529 9.36485 10.7455 9.35743C10.738 9.34991 10.7306 9.34249 10.7231 9.33497C10.7156 9.32755 10.7082 9.32013 10.7008 9.31272C10.6934 9.3053 10.686 9.29789 10.6787 9.29058C10.6713 9.28317 10.6638 9.27575 10.6565 9.26845C10.6492 9.26114 10.6419 9.25384 10.6346 9.24653C10.6273 9.23923 10.62 9.23192 10.6127 9.22462C10.6054 9.21731 10.5982 9.21012 10.5909 9.20282C10.5837 9.19562 10.5765 9.18843 10.5693 9.18123C10.562 9.17393 10.5548 9.16673 10.5477 9.15965C10.5405 9.15246 10.5333 9.14526 10.5263 9.13818C10.5191 9.13099 10.512 9.1239 10.5049 9.11682C10.4978 9.10974 10.4907 9.10265 10.4837 9.09557C10.4766 9.08849 10.4695 9.0814 10.4625 9.07443C10.4554 9.06735 10.4485 9.06037 10.4415 9.0534C10.4344 9.04632 10.4274 9.03935 10.4205 9.03237C10.4135 9.0254 10.4066 9.01854 10.3997 9.01157C10.3927 9.00459 10.3858 8.99773 10.379 8.99087C10.372 8.9839 10.3651 8.97703 10.3583 8.97017C10.3514 8.96331 10.3445 8.95645 10.3378 8.9497C10.3309 8.94283 10.3241 8.93597 10.3173 8.92922C10.3106 8.92247 10.3037 8.91561 10.2969 8.90886C10.2902 8.9021 10.2834 8.89535 10.2767 8.8886C10.2699 8.88185 10.2633 8.87521 10.2565 8.86846C10.2499 8.86182 10.2432 8.85507 10.2365 8.84843C10.2299 8.84179 10.2232 8.83514 10.2166 8.8285C10.2099 8.82186 10.2033 8.81522 10.1968 8.80869C10.1901 8.80205 10.1836 8.79552 10.177 8.78888C10.1704 8.78235 10.1639 8.77582 10.1574 8.76929C10.1508 8.76276 10.1443 8.75623 10.1378 8.7497C10.1314 8.74328 10.1248 8.73675 10.1184 8.73033C10.1119 8.7238 10.1055 8.71738 10.0991 8.71097C10.0926 8.70455 10.0862 8.69813 10.0798 8.69171C10.0734 8.68529 10.067 8.67887 10.0606 8.67256C10.0542 8.66614 10.0479 8.65983 10.0416 8.65352C10.0353 8.64721 10.0289 8.64079 10.0226 8.63449C10.0164 8.62829 10.0101 8.62198 10.0038 8.61567C9.99745 8.60936 9.99125 8.60316 9.98505 8.59697C9.97874 8.59066 9.97255 8.58446 9.96635 8.57826C9.96015 8.57206 9.95395 8.56587 9.94775 8.55967C9.94156 8.55347 9.93547 8.54738 9.92927 8.54119C9.92318 8.5351 9.91699 8.5289 9.9109 8.52281C9.90481 8.51673 9.89872 8.51064 9.89264 8.50455C9.88655 8.49846 9.88046 8.49238 9.87437 8.48629C9.8684 8.48031 9.86231 8.47423 9.85633 8.46825C9.85036 8.46227 9.84427 8.45619 9.83829 8.45021C9.83232 8.44423 9.82634 8.43825 9.82036 8.43228C9.8145 8.42641 9.80852 8.42044 9.80254 8.41446C9.79668 8.40859 9.79081 8.40273 9.78484 8.39675C9.77897 8.39089 9.77311 8.38502 9.76724 8.37915C9.76137 8.37329 9.75551 8.36742 9.74975 8.36167C9.74389 8.3558 9.73802 8.34994 9.73227 8.34418C9.72651 8.33842 9.72064 8.33256 9.71489 8.3268C9.70913 8.32105 9.70338 8.31529 9.69762 8.30954C9.69198 8.30389 9.68622 8.29814 9.68047 8.29238C9.67482 8.28674 9.66907 8.28098 9.66342 8.27534C9.65778 8.26969 9.65213 8.26405 9.64649 8.2584C9.64084 8.25276 9.6352 8.24712 9.62956 8.24147C9.62391 8.23583 9.61838 8.23029 9.61273 8.22465C9.6072 8.21911 9.60167 8.21358 9.59602 8.20794C9.59049 8.2024 9.58495 8.19687 9.57942 8.19133C9.57388 8.1858 9.56846 8.18038 9.56293 8.17484C9.55739 8.16931 9.55197 8.16388 9.54655 8.15846C9.54101 8.15293 9.53559 8.14751 9.53017 8.14208C9.52474 8.13666 9.51932 8.13124 9.5139 8.12581C9.50847 8.12039 9.50316 8.11508 9.49774 8.10965C9.49232 8.10423 9.487 8.09892 9.48169 8.09361C9.47627 8.08818 9.47096 8.08287 9.46564 8.07756C9.46033 8.07224 9.45502 8.06693 9.44982 8.06173C9.4445 8.05642 9.43919 8.0511 9.43399 8.0459C9.42868 8.04059 9.42347 8.03539 9.41827 8.03019C9.41307 8.02499 9.40776 8.01967 9.40267 8.01458C9.39747 8.00938 9.39226 8.00418 9.38706 7.99898C9.38186 7.99377 9.37677 7.98868 9.37157 7.98348C9.36648 7.97839 9.36138 7.9733 9.35629 7.96821C9.35109 7.96301 9.346 7.95791 9.34091 7.95282C9.33593 7.94784 9.33084 7.94275 9.32575 7.93766C9.32077 7.93268 9.31567 7.92759 9.31069 7.92261C9.3056 7.91752 9.30062 7.91254 9.29564 7.90756C9.29066 7.90258 9.28568 7.8976 9.2807 7.89261C9.27572 7.88763 9.27074 7.88265 9.26587 7.87778C9.26089 7.8728 9.25602 7.86793 9.25104 7.86295C9.24617 7.85808 9.2413 7.85321 9.23643 7.84834C9.23156 7.84347 9.22669 7.8386 9.22182 7.83373C9.21695 7.82886 9.21208 7.82399 9.20732 7.81924C9.20245 7.81437 9.19769 7.80961 9.19282 7.80474C9.18806 7.79998 9.1833 7.79522 9.17854 7.79046C9.17379 7.7857 9.16903 7.78094 9.16427 7.77618C9.15951 7.77142 9.15486 7.76677 9.1501 7.76202C9.14534 7.75726 9.14069 7.75261 9.13605 7.74796C9.13129 7.7432 9.12664 7.73855 9.12199 7.7339C9.11734 7.72926 9.11269 7.72461 9.10804 7.71996C9.10351 7.71542 9.09886 7.71077 9.09421 7.70612C9.08967 7.70158 9.08502 7.69694 9.08048 7.6924C9.07595 7.68786 9.07141 7.68332 9.06676 7.67867C9.06222 7.67414 9.05768 7.6696 9.05326 7.66517C9.04872 7.66063 9.04418 7.6561 9.03976 7.65167C9.03522 7.64713 9.03079 7.64271 9.02625 7.63817C9.02183 7.63374 9.0174 7.62931 9.01297 7.62489C9.00854 7.62046 9.00412 7.61603 8.99969 7.6116C8.99526 7.60718 8.99084 7.60275 8.98652 7.59843C8.98209 7.59401 8.97778 7.58969 8.97335 7.58526C8.96903 7.58095 8.96472 7.57663 8.9604 7.57231C8.95597 7.56789 8.95166 7.56357 8.94745 7.55936C8.94313 7.55505 8.93882 7.55073 8.9345 7.54642C8.93029 7.54221 8.92598 7.53789 8.92177 7.53369C8.91746 7.52937 8.91325 7.52517 8.90904 7.52096C8.90484 7.51675 8.90063 7.51255 8.89643 7.50834C8.89222 7.50414 8.88802 7.49993 8.88392 7.49584C8.87972 7.49163 8.87551 7.48742 8.87141 7.48333C8.86721 7.47912 8.86311 7.47503 8.85902 7.47093C8.85492 7.46684 8.85083 7.46274 8.84673 7.45865C8.84264 7.45455 8.83854 7.45046 8.83445 7.44636C8.83035 7.44227 8.82637 7.43828 8.82227 7.43419C8.81829 7.4302 8.81419 7.42611 8.81021 7.42212C8.80623 7.41814 8.80224 7.41416 8.79826 7.41017C8.79427 7.40619 8.79029 7.4022 8.7863 7.39822C8.78232 7.39423 8.77845 7.39036 8.77446 7.38638C8.77048 7.38239 8.7666 7.37852 8.76273 7.37464C8.75874 7.37066 8.75487 7.36679 8.751 7.36291C8.74712 7.35904 8.74325 7.35516 8.73938 7.35129C8.7355 7.34742 8.73163 7.34354 8.72787 7.33978C8.72399 7.33591 8.72012 7.33203 8.71636 7.32827C8.71259 7.32451 8.70872 7.32063 8.70495 7.31687C8.70119 7.31311 8.69743 7.30934 8.69367 7.30558C8.6899 7.30182 8.68614 7.29805 8.68238 7.29429C8.67861 7.29053 8.67496 7.28688 8.6712 7.28311C8.66755 7.27946 8.66378 7.2757 8.66013 7.27205C8.65648 7.26839 8.65283 7.26474 8.64906 7.26098C8.64541 7.25733 8.64176 7.25367 8.63822 7.25013C8.63456 7.24648 8.63091 7.24283 8.62726 7.23917C8.62372 7.23563 8.62007 7.23198 8.61652 7.22844C8.61287 7.22479 8.60933 7.22124 8.60579 7.2177C8.60225 7.21416 8.59859 7.21051 8.59516 7.20708C8.59162 7.20354 8.58808 7.19999 8.58454 7.19645C8.581 7.19291 8.57745 7.18937 8.57402 7.18594C8.57048 7.1824 8.56705 7.17897 8.56362 7.17553C8.56008 7.17199 8.55665 7.16856 8.55322 7.16513C8.54979 7.1617 8.54635 7.15827 8.54292 7.15484C8.53949 7.15141 8.53606 7.14798 8.53274 7.14466C8.52931 7.14122 8.52588 7.13779 8.52256 7.13447C8.51913 7.13104 8.51581 7.12772 8.51249 7.1244C8.50906 7.12097 8.50574 7.11765 8.50242 7.11433C8.49909 7.11101 8.49578 7.10769 8.49245 7.10437C8.48925 7.10116 8.48592 7.09784 8.4826 7.09452C8.47939 7.09131 8.47607 7.08799 8.47286 7.08478C8.46954 7.08146 8.46633 7.07825 8.46312 7.07504C8.45991 7.07183 8.45659 7.06851 8.45339 7.0653C8.45018 7.06209 8.44708 7.05899 8.44387 7.05578C8.44066 7.05257 8.43745 7.04936 8.43435 7.04626C8.43114 7.04305 8.42804 7.03995 8.42483 7.03675C8.42173 7.03365 8.41863 7.03055 8.41542 7.02734C8.41232 7.02424 8.40923 7.02114 8.40613 7.01804C8.40303 7.01494 8.39993 7.01184 8.39694 7.00885C8.39384 7.00576 8.39074 7.00266 8.38775 6.99967C8.38465 6.99657 8.38167 6.99358 8.37857 6.99048C8.37558 6.98749 8.37259 6.98451 8.36949 6.98141C8.3665 6.97842 8.36351 6.97543 8.36053 6.97244C8.35754 6.96945 8.35466 6.96658 8.35167 6.96359C8.34868 6.9606 8.3457 6.95761 8.34282 6.95473C8.33983 6.95174 8.33695 6.94887 8.33396 6.94588C8.33109 6.943 8.32821 6.94012 8.32533 6.93725C8.32234 6.93426 8.31947 6.93138 8.31659 6.9285C8.31371 6.92562 8.31094 6.92286 8.30807 6.91998C8.30519 6.9171 8.30231 6.91422 8.29954 6.91146C8.29667 6.90858 8.2939 6.90581 8.29102 6.90294C8.28825 6.90017 8.28549 6.8974 8.28272 6.89464C8.27984 6.89176 8.27708 6.88899 8.27431 6.88622C8.27154 6.88346 8.26877 6.88069 8.26612 6.87803C8.26335 6.87527 8.26058 6.8725 8.25793 6.86984C8.25516 6.86708 8.25239 6.86431 8.24974 6.86165C8.24708 6.859 8.24431 6.85623 8.24166 6.85357C8.239 6.85092 8.23635 6.84826 8.23369 6.8456C8.23103 6.84295 8.22838 6.84029 8.22572 6.83764C8.22307 6.83498 8.22041 6.83232 8.21786 6.82978C8.21521 6.82712 8.21255 6.82447 8.21001 6.82192C8.20735 6.81926 8.2048 6.81672 8.20226 6.81417C8.1996 6.81152 8.19706 6.80897 8.19451 6.80642C8.19196 6.80388 8.18942 6.80133 8.18687 6.79879C8.18433 6.79624 8.18178 6.7937 8.17935 6.79126C8.1768 6.78872 8.17426 6.78617 8.17182 6.78374C8.16928 6.78119 8.16684 6.77876 8.1643 6.77621C8.16186 6.77378 8.15943 6.77134 8.15699 6.76891C8.15444 6.76636 8.15201 6.76393 8.14958 6.76149C8.14714 6.75905 8.14471 6.75662 8.14238 6.7543C8.13995 6.75186 8.13751 6.74943 8.13508 6.74699C8.13275 6.74467 8.13032 6.74223 8.12799 6.73991C8.12556 6.73747 8.12323 6.73515 8.12091 6.73282C8.11848 6.73039 8.11615 6.72807 8.11383 6.72574C8.1115 6.72342 8.10918 6.72109 8.10685 6.71877C8.10453 6.71644 8.10221 6.71412 8.09999 6.71191C8.09767 6.70958 8.09534 6.70726 8.09313 6.70504C8.09081 6.70272 8.08859 6.70051 8.08627 6.69818C8.08405 6.69597 8.08173 6.69364 8.07952 6.69143C8.0773 6.68922 8.07509 6.687 8.07288 6.68479C8.07066 6.68258 8.06845 6.68036 8.06623 6.67815C8.06402 6.67594 8.06181 6.67372 8.05971 6.67162C8.05749 6.66941 8.05528 6.66719 8.05318 6.66509C8.05096 6.66288 8.04886 6.66077 8.04664 6.65856C8.04454 6.65646 8.04244 6.65435 8.04034 6.65225C8.03812 6.65004 8.03602 6.64793 8.03392 6.64583C8.03181 6.64373 8.02971 6.64163 8.02761 6.63952C8.02551 6.63742 8.02351 6.63543 8.02141 6.63333C8.01931 6.63122 8.01732 6.62923 8.01521 6.62713C8.01322 6.62514 8.01112 6.62303 8.00913 6.62104C8.00702 6.61894 8.00503 6.61694 8.00304 6.61495C8.00105 6.61296 7.99905 6.61097 7.99706 6.60898C7.99507 6.60698 7.99308 6.60499 7.99109 6.603C7.98909 6.60101 7.9871 6.59901 7.98511 6.59702C7.98323 6.59514 7.98123 6.59315 7.97935 6.59127C7.97736 6.58928 7.97548 6.58739 7.97349 6.5854C7.97161 6.58352 7.96972 6.58164 7.96773 6.57965C7.96585 6.57777 7.96397 6.57588 7.96209 6.574C7.96021 6.57212 7.95832 6.57024 7.95644 6.56836C7.95456 6.56648 7.95268 6.56459 7.95091 6.56282C7.94903 6.56094 7.94715 6.55906 7.94538 6.55729C7.94349 6.55541 7.94161 6.55353 7.93984 6.55176C7.93807 6.54998 7.93619 6.5481 7.93442 6.54633C7.93265 6.54456 7.93077 6.54268 7.929 6.54091C7.92722 6.53914 7.92545 6.53737 7.92368 6.5356C7.92191 6.53383 7.92014 6.53205 7.91848 6.5304C7.91671 6.52862 7.91494 6.52685 7.91317 6.52508C7.91151 6.52342 7.90974 6.52165 7.90808 6.51999C7.90631 6.51822 7.90465 6.51656 7.90287 6.51479C7.90121 6.51313 7.89955 6.51147 7.89789 6.50981C7.89612 6.50804 7.89446 6.50638 7.8928 6.50472C7.89114 6.50306 7.88948 6.5014 7.88782 6.49974C7.88616 6.49808 7.88461 6.49653 7.88295 6.49487C7.88129 6.49321 7.87963 6.49155 7.87808 6.49C7.87642 6.48834 7.87487 6.48679 7.87321 6.48513C7.87166 6.48358 7.87 6.48192 7.86845 6.48037C7.86691 6.47882 7.86524 6.47716 7.8637 6.47561C7.86215 6.47406 7.8606 6.47251 7.85905 6.47096C7.8575 6.46941 7.85595 6.46786 7.8544 6.46631C7.85285 6.46476 7.8513 6.46321 7.84986 6.46177C7.84831 6.46022 7.84676 6.45868 7.84532 6.45724C7.84377 6.45569 7.84233 6.45425 7.84078 6.4527C7.83935 6.45126 7.8378 6.44971 7.83636 6.44827C7.83492 6.44683 7.83337 6.44528 7.83193 6.44385C7.83049 6.44241 7.82905 6.44097 7.82761 6.43953C7.82617 6.43809 7.82474 6.43665 7.8233 6.43521C7.82186 6.43377 7.82042 6.43233 7.81909 6.43101C7.81765 6.42957 7.81621 6.42813 7.81489 6.4268C7.81345 6.42536 7.81212 6.42403 7.81068 6.42259C7.80935 6.42127 7.80791 6.41983 7.80659 6.4185C7.80515 6.41706 7.80382 6.41573 7.80249 6.4144C7.80116 6.41308 7.79983 6.41175 7.79851 6.41042C7.79718 6.40909 7.79585 6.40776 7.79452 6.40644C7.79319 6.40511 7.79187 6.40378 7.79054 6.40245C7.78921 6.40112 7.78788 6.3998 7.78666 6.39858C7.78534 6.39725 7.78401 6.39592 7.78279 6.3947C7.78146 6.39338 7.78024 6.39216 7.77903 6.39094C7.7777 6.38961 7.77648 6.3884 7.77515 6.38707C7.77394 6.38585 7.77272 6.38463 7.7715 6.38341C7.77028 6.3822 7.76907 6.38098 7.76785 6.37976C7.76663 6.37855 7.76541 6.37733 7.7642 6.37611C7.76298 6.37489 7.76176 6.37367 7.76054 6.37246C7.75933 6.37124 7.75822 6.37013 7.757 6.36892C7.75578 6.3677 7.75468 6.36659 7.75346 6.36538C7.75235 6.36427 7.75114 6.36305 7.75003 6.36194C7.74892 6.36084 7.7477 6.35962 7.7466 6.35851C7.74549 6.35741 7.74439 6.3563 7.74317 6.35508C7.74206 6.35398 7.74095 6.35287 7.73985 6.35176C7.73874 6.35065 7.73763 6.34955 7.73653 6.34844C7.73542 6.34733 7.73442 6.34634 7.73332 6.34523C7.73221 6.34412 7.7311 6.34302 7.73011 6.34202C7.729 6.34092 7.72789 6.33981 7.7269 6.33881C7.72579 6.33771 7.72479 6.33671 7.72369 6.3356C7.72269 6.33461 7.7217 6.33361 7.72059 6.3325C7.71959 6.33151 7.7186 6.33051 7.7176 6.32952C7.71649 6.32841 7.7155 6.32741 7.7145 6.32642C7.71351 6.32542 7.71251 6.32442 7.71151 6.32343C7.71052 6.32243 7.70952 6.32144 7.70864 6.32055C7.70764 6.31955 7.70664 6.31856 7.70565 6.31756C7.70476 6.31668 7.70377 6.31568 7.70277 6.31468C7.70188 6.3138 7.70089 6.3128 7.7 6.31192C7.69901 6.31092 7.69812 6.31004 7.69713 6.30904C7.69624 6.30815 7.69536 6.30727 7.69436 6.30627C7.69347 6.30539 7.69259 6.3045 7.6917 6.30362C7.69082 6.30273 7.68982 6.30174 7.68894 6.30085C7.68805 6.29996 7.68716 6.29908 7.68628 6.29819C7.68539 6.29731 7.68462 6.29653 7.68373 6.29565C7.68285 6.29476 7.68196 6.29388 7.68108 6.29299C7.6803 6.29222 7.67942 6.29133 7.67853 6.29045C7.67776 6.28967 7.67687 6.28879 7.6761 6.28801C7.67521 6.28713 7.67444 6.28635 7.67355 6.28547C7.67278 6.28469 7.672 6.28392 7.67112 6.28303C7.67034 6.28226 7.66957 6.28148 7.66868 6.2806C7.66791 6.27982 7.66713 6.27905 7.66636 6.27827C7.66558 6.2775 7.66481 6.27672 7.66403 6.27595C7.66326 6.27517 7.66248 6.2744 7.66171 6.27362C7.66093 6.27285 7.66016 6.27207 7.65949 6.27141C7.65872 6.27063 7.65794 6.26986 7.65717 6.26908C7.65651 6.26842 7.65573 6.26765 7.65496 6.26687C7.65429 6.26621 7.65352 6.26543 7.65285 6.26477C7.65208 6.26399 7.65142 6.26333 7.65064 6.26256C7.64998 6.26189 7.64931 6.26123 7.64854 6.26045C7.64787 6.25979 7.64721 6.25912 7.64655 6.25846C7.64588 6.2578 7.64511 6.25702 7.64444 6.25636C7.64378 6.25569 7.64311 6.25503 7.64245 6.25436C7.64179 6.2537 7.64112 6.25304 7.64046 6.25237C7.63979 6.25171 7.63913 6.25104 7.63858 6.25049C7.63791 6.24983 7.63725 6.24916 7.63658 6.2485C7.63603 6.24795 7.63537 6.24728 7.6347 6.24662C7.63415 6.24606 7.63349 6.2454 7.63282 6.24474C7.63227 6.24418 7.6316 6.24352 7.63105 6.24297C7.6305 6.24241 7.62983 6.24175 7.62928 6.24119C7.62862 6.24053 7.62806 6.23998 7.62751 6.23942C7.62685 6.23876 7.62629 6.23821 7.62574 6.23765C7.62519 6.2371 7.62463 6.23655 7.62408 6.23599C7.62352 6.23544 7.62286 6.23478 7.62231 6.23422C7.62175 6.23367 7.6212 6.23311 7.62076 6.23267C7.6202 6.23212 7.61965 6.23157 7.6191 6.23101C7.61854 6.23046 7.61799 6.2299 7.61755 6.22946C7.61699 6.22891 7.61644 6.22836 7.61589 6.2278C7.61545 6.22736 7.61489 6.22681 7.61434 6.22625C7.6139 6.22581 7.61334 6.22526 7.6129 6.22481C7.61235 6.22426 7.6119 6.22382 7.61135 6.22326C7.61091 6.22282 7.61046 6.22238 7.60991 6.22183C7.60947 6.22138 7.60903 6.22094 7.60847 6.22039C7.60803 6.21994 7.60759 6.2195 7.60714 6.21906C7.6067 6.21862 7.60615 6.21806 7.60571 6.21762C7.60526 6.21718 7.60482 6.21673 7.60438 6.21629C7.60393 6.21585 7.60349 6.21541 7.60305 6.21496C7.60261 6.21452 7.60216 6.21408 7.60172 6.21364C7.60128 6.21319 7.60095 6.21286 7.6005 6.21242C7.60006 6.21198 7.59962 6.21153 7.59929 6.2112C7.59884 6.21076 7.5984 6.21032 7.59796 6.20987C7.59763 6.20954 7.59718 6.2091 7.59685 6.20877C7.59641 6.20832 7.59608 6.20799 7.59563 6.20755C7.59519 6.20711 7.59486 6.20677 7.59453 6.20644C7.59408 6.206 7.59375 6.20567 7.59331 6.20522C7.59298 6.20489 7.59265 6.20456 7.5922 6.20412C7.59187 6.20379 7.59254 6.20445 7.5922 6.20412C7.59176 6.20367 7.59043 6.20235 7.5901 6.20202C7.58977 6.20168 7.59043 6.20235 7.5901 6.20202C7.58977 6.20168 7.58844 6.20035 7.58811 6.20002C7.58778 6.19969 7.58844 6.20035 7.58811 6.20002C7.58778 6.19969 7.58645 6.19836 7.58612 6.19803C7.58578 6.1977 7.58645 6.19836 7.58612 6.19803C7.58578 6.1977 7.58457 6.19648 7.58423 6.19615C7.5839 6.19582 7.58446 6.19637 7.58423 6.19615C7.5839 6.19582 7.58269 6.1946 7.58246 6.19438C7.58213 6.19405 7.5828 6.19471 7.58246 6.19438C7.58213 6.19405 7.58102 6.19294 7.58069 6.19261C7.58047 6.19239 7.58091 6.19283 7.58069 6.19261C7.58047 6.19239 7.57936 6.19128 7.57914 6.19106C7.57881 6.19073 7.57936 6.19128 7.57914 6.19106C7.57881 6.19073 7.57782 6.18973 7.57759 6.18951C7.57737 6.18929 7.57782 6.18973 7.57759 6.18951C7.57737 6.18929 7.57638 6.18829 7.57616 6.18807C7.57582 6.18774 7.57638 6.18829 7.57616 6.18807C7.57593 6.18785 7.57494 6.18685 7.57472 6.18663C7.57449 6.18641 7.57494 6.18685 7.57472 6.18663C7.57449 6.18641 7.57361 6.18552 7.57339 6.1853C7.57317 6.18508 7.57361 6.18552 7.57339 6.1853C7.57317 6.18508 7.57239 6.18431 7.57217 6.18408C7.57195 6.18386 7.57239 6.18431 7.57217 6.18408C7.57206 6.18397 7.57117 6.18309 7.57095 6.18287C7.57073 6.18265 7.56951 6.18143 7.56929 6.18121C7.56918 6.1811 7.56796 6.17988 7.56785 6.17977C7.56774 6.17966 7.56664 6.17855 7.56653 6.17844C7.56641 6.17833 7.56542 6.17733 7.5652 6.17711C7.56509 6.177 7.56431 6.17623 7.56409 6.17601C7.56398 6.17589 7.56298 6.1749 7.56287 6.17479C7.56276 6.17468 7.56298 6.1749 7.56287 6.17479C7.56276 6.17468 7.56188 6.17379 7.56177 6.17368C7.56166 6.17357 7.56055 6.17246 7.56044 6.17235C7.56044 6.17235 7.55944 6.17136 7.55933 6.17125C7.55922 6.17114 7.558 6.16992 7.558 6.16992L6.72792 7ZM7.558 6.16992L2.02412 0.636039L0.363961 2.2962L5.89784 7.83008L7.558 6.16992Z" fill="#484848"/>
</svg>
