<svg width="13" height="14" viewBox="0 0 13 14" fill="none" xmlns="http://www.w3.org/2000/svg">
<path d="M11.7542 10.809L8.13869 5.8375V1H9.13869V0H3.13869V1H4.13869V5.8375L0.523186 10.809C0.305103 11.1087 0.174192 11.4629 0.144939 11.8324C0.115686 12.202 0.189231 12.5724 0.357437 12.9027C0.525643 13.233 0.781952 13.5103 1.098 13.704C1.41405 13.8976 1.77752 14.0001 2.14819 14H10.1287C10.4994 14.0001 10.8628 13.8976 11.1789 13.704C11.4949 13.5103 11.7512 13.233 11.9194 12.9027C12.0876 12.5724 12.1612 12.202 12.1319 11.8324C12.1027 11.4629 11.9718 11.1087 11.7537 10.809M5.13869 6.1625V1H7.13869V6.1625L8.47519 8H3.80219L5.13869 6.1625ZM10.1292 13H2.14869C1.96258 12.9998 1.78015 12.9482 1.62153 12.8508C1.46291 12.7535 1.33426 12.6142 1.2498 12.4484C1.16533 12.2826 1.12832 12.0966 1.14286 11.9111C1.1574 11.7256 1.22292 11.5477 1.33219 11.397L3.07519 9H9.20219L10.9457 11.397C11.055 11.5477 11.1205 11.7256 11.135 11.9111C11.1496 12.0966 11.1125 12.2826 11.0281 12.4484C10.9436 12.6142 10.815 12.7535 10.6563 12.8508C10.4977 12.9482 10.3153 12.9998 10.1292 13Z" fill="black"/>
</svg>
