<svg width="31" height="31" viewBox="0 0 31 31" fill="none" xmlns="http://www.w3.org/2000/svg">
<path d="M27.4453 24.2891H2.91328C1.92891 24.2891 1.125 23.4852 1.125 22.5008V8.28828C1.125 7.30391 1.92891 6.5 2.91328 6.5H27.4453C28.4297 6.5 29.2336 7.30391 29.2336 8.28828V22.5008C29.2336 23.4852 28.4297 24.2891 27.4453 24.2891Z" fill="#FFC107"/>
<path d="M1.12305 9.50781H29.2363V13.2742H1.12305V9.50781Z" fill="#424242"/>
<path d="M26.9441 17.7711H3.4293C3.19961 17.7711 3.00977 17.5836 3.00977 17.3516V15.3805C3.00977 15.1508 3.19727 14.9609 3.4293 14.9609H26.9441C27.1738 14.9609 27.3637 15.1484 27.3637 15.3805V17.3516C27.3613 17.5812 27.1738 17.7711 26.9441 17.7711Z" fill="white"/>
<path d="M5.79883 16.9194C5.93008 16.6663 5.96523 16.371 6.08242 16.1108C6.19961 15.8506 6.45508 15.6092 6.73633 15.6538C6.99648 15.696 7.1582 15.9561 7.2543 16.1999C7.38789 16.5397 7.46055 16.903 7.46992 17.2686C7.47227 17.3436 7.46758 17.4256 7.41836 17.4842C7.33164 17.5827 7.15352 17.5335 7.08555 17.421C7.01758 17.3085 7.03398 17.1655 7.06445 17.0366C7.20977 16.4389 7.67852 15.9303 8.26211 15.7381C8.32305 15.7171 8.38633 15.7006 8.44961 15.7124C8.58555 15.7381 8.66055 15.8788 8.72148 16.0006C8.86445 16.2796 9.03789 16.5444 9.23711 16.7858C9.3168 16.8842 9.4082 16.9803 9.53008 17.0178C9.93086 17.135 10.1629 16.5444 10.5496 16.3874C11.0137 16.1999 11.466 16.6897 11.9582 16.7811C12.6777 16.9147 13.0598 16.3546 13.6902 16.2116C13.7746 16.1928 13.866 16.1811 13.9504 16.2046C14.1051 16.2491 14.2012 16.3967 14.2926 16.5303C14.5059 16.8444 14.8105 17.1538 15.1902 17.1561C15.4316 17.1585 15.6543 17.0342 15.8746 16.9288C16.6551 16.5561 17.5762 16.4014 18.3918 16.6874" stroke="#424242" stroke-width="1.50208" stroke-miterlimit="10" stroke-linecap="round" stroke-linejoin="round"/>
</svg>
