<svg width="24" height="24" viewBox="0 0 24 24" fill="none" xmlns="http://www.w3.org/2000/svg">
<path d="M21 7.5975C21 6.6045 20.9415 6.3015 20.7765 5.9925C20.6603 5.77115 20.4792 5.5906 20.2575 5.475C19.95 5.31 19.647 5.2515 18.654 5.2515H5.34603C4.35303 5.2515 4.05003 5.31 3.74103 5.475C3.51969 5.59124 3.33913 5.77232 3.22353 5.994C3.05853 6.3015 3.00003 6.6045 3.00003 7.5975V16.4055C3.00003 17.3985 3.05853 17.7015 3.22353 18.0105C3.33977 18.2318 3.52085 18.4124 3.74253 18.528C4.05003 18.693 4.35303 18.7515 5.34603 18.7515H18.654C19.647 18.7515 19.95 18.693 20.259 18.528C20.4804 18.4118 20.6609 18.2307 20.7765 18.009C20.9415 17.7015 21 17.3985 21 16.4055V7.5975ZM22.5 7.5975V16.4055C22.5 17.7435 22.3605 18.228 22.0995 18.7155C21.8385 19.206 21.4545 19.59 20.9655 19.851C20.4765 20.112 19.9905 20.2515 18.6555 20.2515H5.34453C4.00653 20.2515 3.52203 20.112 3.03453 19.851C2.55081 19.5955 2.15515 19.2004 1.89904 18.717C1.63804 18.228 1.49854 17.742 1.49854 16.407V7.596C1.49854 6.258 1.63804 5.7735 1.89904 5.286C2.16004 4.7955 2.54404 4.4115 3.03304 4.1505C3.52204 3.8895 4.00803 3.75 5.34303 3.75H18.6525C19.9905 3.75 20.475 3.8895 20.9625 4.1505C21.453 4.4115 21.837 4.7955 22.098 5.2845C22.359 5.7735 22.4985 6.2595 22.4985 7.5945L22.5 7.5975Z" fill="#191919"/>
<path d="M1.5 7.5H22.5V9H1.5V7.5ZM1.5 10.5H22.5V12H1.5V10.5ZM4.5 15H10.5V16.5H4.5V15Z" fill="#191919"/>
</svg>
