<svg width="25" height="24" viewBox="0 0 25 24" fill="none" xmlns="http://www.w3.org/2000/svg">
<mask id="mask0_7090_146278" style="mask-type:alpha" maskUnits="userSpaceOnUse" x="0" y="0" width="25" height="24">
<rect x="0.75" width="24" height="24" fill="#D9D9D9"/>
</mask>
<g mask="url(#mask0_7090_146278)">
<path d="M7.75 21C7.2 21 6.72917 20.8042 6.3375 20.4125C5.94583 20.0208 5.75 19.55 5.75 19V6H4.75V4H9.75V3H15.75V4H20.75V6H19.75V19C19.75 19.55 19.5542 20.0208 19.1625 20.4125C18.7708 20.8042 18.3 21 17.75 21H7.75ZM17.75 6H7.75V19H17.75V6ZM9.75 17H11.75V8H9.75V17ZM13.75 17H15.75V8H13.75V17Z" fill="#3AAFA9"/>
</g>
</svg>
