<svg width="20" height="20" viewBox="0 0 20 20" fill="none" xmlns="http://www.w3.org/2000/svg">
<path fill-rule="evenodd" clip-rule="evenodd" d="M11.944 0.73117L12.0855 0.863858L19.1361 7.91446C20.288 9.06627 20.288 10.9337 19.1361 12.0855L12.0855 19.1361C10.9337 20.288 9.06627 20.288 7.91446 19.1361L0.863858 12.0855C-0.287953 10.9337 -0.287953 9.06627 0.863858 7.91446L7.91446 0.863858C9.0202 -0.24188 10.7855 -0.28611 11.944 0.73117ZM9.32868 2.27807L2.27807 9.32868C1.90731 9.69944 1.90731 10.3006 2.27807 10.6713L9.32868 17.7219C9.69944 18.0927 10.3006 18.0927 10.6713 17.7219L17.7219 10.6713C18.0927 10.3006 18.0927 9.69944 17.7219 9.32868L10.6865 2.29321L10.6243 2.23401C10.2515 1.90661 9.68277 1.92398 9.32868 2.27807ZM11.6129 7.2097L11.7071 7.29289L13.7071 9.29289C14.0676 9.65338 14.0953 10.2206 13.7903 10.6129L13.7071 10.7071L11.7071 12.7071C11.3166 13.0976 10.6834 13.0976 10.2929 12.7071C9.93241 12.3466 9.90468 11.7794 10.2097 11.3871L10.2929 11.2929L10.584 11H8V12C8 12.5523 7.55228 13 7 13C6.48716 13 6.06449 12.614 6.00673 12.1166L6 12V10C6 9.48716 6.38604 9.06449 6.88338 9.00673L7 9H10.585L10.2929 8.70711C9.93241 8.34662 9.90468 7.77939 10.2097 7.3871L10.2929 7.29289C10.6534 6.93241 11.2206 6.90468 11.6129 7.2097Z" fill="#484848"/>
</svg>
