<svg width="25" height="24" viewBox="0 0 25 24" fill="none" xmlns="http://www.w3.org/2000/svg">
<rect x="0.75" width="24" height="24" rx="6" fill="#3AAFA9"/>
<mask id="mask0_7090_144362" style="mask-type:alpha" maskUnits="userSpaceOnUse" x="4" y="4" width="17" height="16">
<rect x="4.75" y="4" width="16" height="16" fill="#D9D9D9"/>
</mask>
<g mask="url(#mask0_7090_144362)">
<path d="M12.7493 14.3807C12.6605 14.3807 12.5771 14.3668 12.4993 14.3391C12.4216 14.3113 12.3493 14.2641 12.2827 14.1974L9.88268 11.7974C9.74935 11.6641 9.68546 11.5085 9.69102 11.3307C9.69657 11.153 9.76046 10.9974 9.88268 10.8641C10.016 10.7307 10.1743 10.6613 10.3577 10.6557C10.541 10.6502 10.6993 10.7141 10.8327 10.8474L12.0827 12.0974V7.33073C12.0827 7.14184 12.1466 6.98351 12.2743 6.85573C12.4021 6.72795 12.5605 6.66406 12.7493 6.66406C12.9382 6.66406 13.0966 6.72795 13.2243 6.85573C13.3521 6.98351 13.416 7.14184 13.416 7.33073V12.0974L14.666 10.8474C14.7993 10.7141 14.9577 10.6502 15.141 10.6557C15.3243 10.6613 15.4827 10.7307 15.616 10.8641C15.7382 10.9974 15.8021 11.153 15.8077 11.3307C15.8132 11.5085 15.7493 11.6641 15.616 11.7974L13.216 14.1974C13.1493 14.2641 13.0771 14.3113 12.9993 14.3391C12.9216 14.3668 12.8382 14.3807 12.7493 14.3807ZM8.74935 17.3307C8.38268 17.3307 8.06879 17.2002 7.80768 16.9391C7.54657 16.678 7.41602 16.3641 7.41602 15.9974V14.6641C7.41602 14.4752 7.4799 14.3168 7.60768 14.1891C7.73546 14.0613 7.89379 13.9974 8.08268 13.9974C8.27157 13.9974 8.4299 14.0613 8.55768 14.1891C8.68546 14.3168 8.74935 14.4752 8.74935 14.6641V15.9974H16.7493V14.6641C16.7493 14.4752 16.8132 14.3168 16.941 14.1891C17.0688 14.0613 17.2271 13.9974 17.416 13.9974C17.6049 13.9974 17.7632 14.0613 17.891 14.1891C18.0188 14.3168 18.0827 14.4752 18.0827 14.6641V15.9974C18.0827 16.3641 17.9521 16.678 17.691 16.9391C17.4299 17.2002 17.116 17.3307 16.7493 17.3307H8.74935Z" fill="white"/>
</g>
</svg>
