<svg width="17" height="18" viewBox="0 0 17 18" fill="none" xmlns="http://www.w3.org/2000/svg">
<path d="M14.6821 10.0374V12.8111C14.6821 14.1873 14.1354 15.5071 13.1623 16.4802C12.1892 17.4533 10.8694 18 9.49323 18C8.11705 18 6.79723 17.4533 5.82413 16.4802C4.85102 15.5071 4.30433 14.1873 4.30433 12.8111V12.201C3.15136 12.0213 2.10055 11.4356 1.34139 10.5494C0.582225 9.66319 0.164685 8.53491 0.164062 7.36802V3.44872C0.16423 3.06965 0.2589 2.6966 0.439508 2.36331C0.620115 2.03003 0.880962 1.74703 1.19845 1.53991C1.22102 1.17631 1.36427 0.830637 1.60552 0.557663C1.84677 0.284689 2.17222 0.100027 2.53029 0.0329384C2.88836 -0.0341503 3.25858 0.0201709 3.58228 0.187294C3.90599 0.354418 4.16467 0.624785 4.31733 0.955557C4.47 1.28633 4.50791 1.65859 4.42508 2.01334C4.34224 2.3681 4.14339 2.68507 3.86002 2.91403C3.57666 3.14299 3.225 3.27084 2.86075 3.27732C2.49651 3.28381 2.14052 3.16856 1.84918 2.94983C1.73122 3.08932 1.66639 3.26604 1.66616 3.44872V7.36666C1.66616 8.26554 2.02324 9.1276 2.65884 9.7632C3.29445 10.3988 4.15651 10.7559 5.05538 10.7559C5.95426 10.7559 6.81632 10.3988 7.45193 9.7632C8.08753 9.1276 8.4446 8.26554 8.4446 7.36666V3.44872C8.44465 3.28615 8.39341 3.1277 8.29819 2.99592C7.99594 3.19952 7.63442 3.29649 7.27086 3.27148C6.90729 3.24647 6.56246 3.10091 6.29094 2.85785C6.01941 2.61478 5.83672 2.28809 5.77179 1.9295C5.70685 1.57091 5.76337 1.2009 5.93241 0.878048C6.10144 0.555198 6.37333 0.297952 6.70504 0.147034C7.03675 -0.00388468 7.40931 -0.0398534 7.76377 0.0448219C8.11822 0.129497 8.4343 0.329979 8.66197 0.614529C8.88965 0.899079 9.01591 1.25144 9.02077 1.61583C9.30777 1.82758 9.54107 2.10373 9.70189 2.42208C9.86271 2.74042 9.94656 3.09206 9.94671 3.44872V7.36666C9.94608 8.53356 9.52854 9.66183 8.76938 10.548C8.01022 11.4342 6.95941 12.02 5.80644 12.1997V12.8097C5.80644 13.7874 6.19479 14.7249 6.88607 15.4162C7.57736 16.1075 8.51493 16.4959 9.49255 16.4959C10.4702 16.4959 11.4077 16.1075 12.099 15.4162C12.7903 14.7249 13.1787 13.7874 13.1787 12.8097V10.0374C12.4973 9.85513 11.9055 9.43138 11.5135 8.84509C11.1215 8.25881 10.956 7.54999 11.0479 6.85073C11.1398 6.15147 11.4828 5.50948 12.013 5.0444C12.5432 4.57932 13.2244 4.32289 13.9297 4.32289C14.635 4.32289 15.3162 4.57932 15.8464 5.0444C16.3766 5.50948 16.7196 6.15147 16.8115 6.85073C16.9034 7.54999 16.738 8.25881 16.3459 8.84509C15.9539 9.43138 15.3621 9.85513 14.6808 10.0374H14.6821ZM15.3329 7.23109C15.3329 6.95358 15.2506 6.6823 15.0964 6.45155C14.9422 6.22081 14.7231 6.04096 14.4667 5.93476C14.2103 5.82856 13.9282 5.80078 13.656 5.85492C13.3838 5.90906 13.1338 6.04269 12.9376 6.23892C12.7413 6.43516 12.6077 6.68517 12.5535 6.95735C12.4994 7.22954 12.5272 7.51166 12.6334 7.76805C12.7396 8.02444 12.9194 8.24358 13.1502 8.39776C13.3809 8.55194 13.6522 8.63423 13.9297 8.63423C14.3019 8.63387 14.6587 8.48597 14.922 8.22295C15.1852 7.95992 15.3335 7.60324 15.3342 7.23109H15.3329Z" fill="#191919"/>
</svg>
