<svg width="23" height="22" viewBox="0 0 23 22" fill="none" xmlns="http://www.w3.org/2000/svg">
<path d="M5.5 9.724C5.5 6.55427 5.5 4.96942 6.34613 3.9847C7.19227 3 8.5541 3 11.2778 3H12.7222C15.4459 3 16.8078 3 17.6538 3.9847C18.5 4.96942 18.5 6.55427 18.5 9.724V13.086C18.5 16.2557 18.5 17.8406 17.6538 18.8253C16.8078 19.81 15.4459 19.81 12.7222 19.81H11.2778C8.5541 19.81 7.19227 19.81 6.34613 18.8253C5.5 17.8406 5.5 16.2557 5.5 13.086V9.724Z" stroke="#484848"/>
<path d="M9.11066 11.4062H14.8884" stroke="#484848" stroke-linecap="round"/>
<path d="M9.11066 8.03906H14.8884" stroke="#484848" stroke-linecap="round"/>
<path d="M9.11066 14.7656H12.7218" stroke="#484848" stroke-linecap="round"/>
</svg>
