<svg width="24" height="24" viewBox="0 0 24 24" fill="none" xmlns="http://www.w3.org/2000/svg">
<path d="M12.8354 16.2926V17.3487C12.8354 17.5193 12.7675 17.6828 12.6469 17.8034C12.5263 17.924 12.3627 17.9918 12.1921 17.9918C12.0215 17.9918 11.8579 17.924 11.7373 17.8034C11.6167 17.6828 11.549 17.5193 11.549 17.3487V16.2637C11.1232 16.1935 10.716 16.0383 10.3515 15.8074C9.98702 15.5765 9.67271 15.2747 9.42731 14.9198C9.32891 14.8123 9.27418 14.6718 9.27374 14.5261C9.27365 14.443 9.29042 14.3607 9.32308 14.2842C9.35574 14.2078 9.40362 14.1387 9.46376 14.0812C9.5239 14.0238 9.59504 13.9791 9.67294 13.95C9.75083 13.9208 9.83385 13.9079 9.91692 13.9118C9.99937 13.9113 10.0809 13.9292 10.1555 13.964C10.2303 13.9989 10.2964 14.0499 10.349 14.1134C10.656 14.5145 11.0728 14.8179 11.549 14.9869V12.5487C10.2722 12.0399 9.62893 11.3006 9.62893 10.331C9.64817 9.81193 9.85218 9.31679 10.2042 8.93484C10.5562 8.55289 11.0332 8.30931 11.549 8.24789V7.18219C11.549 7.0116 11.6167 6.84789 11.7373 6.72726C11.8579 6.60664 12.0215 6.53906 12.1921 6.53906C12.3627 6.53906 12.5263 6.60664 12.6469 6.72726C12.7675 6.84789 12.8354 7.0116 12.8354 7.18219V8.23828C13.1941 8.29357 13.538 8.42053 13.8465 8.61188C14.1549 8.80322 14.4217 9.05494 14.6306 9.3518C14.7153 9.46286 14.7653 9.59633 14.7745 9.73571C14.7771 9.81798 14.7632 9.90006 14.7334 9.97686C14.7036 10.0537 14.6588 10.1235 14.6015 10.1827C14.5442 10.2417 14.4755 10.2889 14.3998 10.3209C14.324 10.353 14.2425 10.3695 14.1601 10.3694C14.0743 10.3683 13.9896 10.349 13.9118 10.3125C13.834 10.2761 13.7649 10.2235 13.709 10.1583C13.48 9.87232 13.1783 9.65324 12.8354 9.52453V11.6845L13.0754 11.7806C14.2946 12.251 15.053 12.9421 15.053 14.0461C15.0365 14.6317 14.7983 15.1894 14.3867 15.6063C13.9752 16.0232 13.4207 16.2685 12.8354 16.2926ZM11.549 11.1279V9.57258C11.394 9.62876 11.2606 9.73225 11.1676 9.86838C11.0746 10.0044 11.0267 10.1663 11.0306 10.331C11.0385 10.4942 11.0909 10.6521 11.1824 10.7876C11.2737 10.923 11.4006 11.0307 11.549 11.0991V11.1279ZM13.661 14.0749C13.661 13.6045 13.3346 13.3261 12.8354 13.1149V15.0349C13.0711 15.0018 13.286 14.8823 13.4385 14.6995C13.5911 14.5168 13.6704 14.2839 13.661 14.0461V14.0749Z" fill="black"/>
<path d="M12.5568 3.8125H6.24002C5.22159 3.8125 4.24493 4.21713 3.52479 4.93726C2.80465 5.65741 2.40002 6.63406 2.40002 7.6525V17.2525C2.40002 18.2709 2.80465 19.2476 3.52479 19.9677C4.24493 20.6879 5.22159 21.0925 6.24002 21.0925H17.76C18.7785 21.0925 19.7552 20.6879 20.4753 19.9677C21.1955 19.2476 21.6 18.2709 21.6 17.2525V11.4252" stroke="black" stroke-width="2" stroke-linecap="round" stroke-linejoin="round"/>
<path d="M21.5998 2.80469L16.1662 8.23829" stroke="black" stroke-linecap="round" stroke-linejoin="round"/>
<path d="M20.515 8.23942H16.1662V3.89062" stroke="black" stroke-width="2" stroke-linecap="round" stroke-linejoin="round"/>
</svg>
