<svg width="25" height="24" viewBox="0 0 25 24" fill="none" xmlns="http://www.w3.org/2000/svg">
<mask id="mask0_7090_146277" style="mask-type:alpha" maskUnits="userSpaceOnUse" x="0" y="0" width="25" height="24">
<rect x="0.75" width="24" height="24" fill="#D9D9D9"/>
</mask>
<g mask="url(#mask0_7090_146277)">
<path d="M5.75 19H7.175L16.95 9.225L15.525 7.8L5.75 17.575V19ZM3.75 21V16.75L16.95 3.575C17.15 3.39167 17.3708 3.25 17.6125 3.15C17.8542 3.05 18.1083 3 18.375 3C18.6417 3 18.9 3.05 19.15 3.15C19.4 3.25 19.6167 3.4 19.8 3.6L21.175 5C21.375 5.18333 21.5208 5.4 21.6125 5.65C21.7042 5.9 21.75 6.15 21.75 6.4C21.75 6.66667 21.7042 6.92083 21.6125 7.1625C21.5208 7.40417 21.375 7.625 21.175 7.825L8 21H3.75ZM16.225 8.525L15.525 7.8L16.95 9.225L16.225 8.525Z" fill="#3AAFA9"/>
</g>
</svg>
