<svg width="112" height="42" viewBox="0 0 112 42" fill="none" xmlns="http://www.w3.org/2000/svg">
<rect x="1.25" y="0.5" width="110" height="41" rx="9.5" stroke="#3AAFA9"/>
<mask id="mask0_7090_146576" style="mask-type:alpha" maskUnits="userSpaceOnUse" x="16" y="9" width="25" height="24">
<rect x="16.75" y="9" width="24" height="24" fill="#D9D9D9"/>
</mask>
<g mask="url(#mask0_7090_146576)">
<path d="M21.8004 31.375L20.4004 29.95L23.3504 27H21.1004V25H26.7504V30.65H24.7504V28.425L21.8004 31.375ZM28.7504 31V29H34.7504V18H29.7504V13H22.7504V23H20.7504V13C20.7504 12.45 20.9462 11.9792 21.3379 11.5875C21.7296 11.1958 22.2004 11 22.7504 11H30.7504L36.7504 17V29C36.7504 29.55 36.5546 30.0208 36.1629 30.4125C35.7712 30.8042 35.3004 31 34.7504 31H28.7504Z" fill="#3AAFA9"/>
</g>
<path d="M54.6719 27H48.3125V15.5781H54.6719V16.75H49.6406V20.4453H54.3828V21.6016H49.6406V25.8281H54.6719V27ZM59.0469 22.6172L56.0859 18.4375H57.5703L59.8281 21.7344L62.0781 18.4375H63.5469L60.5859 22.6172L63.7109 27H62.2266L59.8281 23.5078L57.4141 27H55.9453L59.0469 22.6172ZM69.4062 18.2812C70.474 18.2812 71.3255 18.6484 71.9609 19.3828C72.5964 20.1172 72.9141 21.2214 72.9141 22.6953C72.9141 23.6693 72.7682 24.487 72.4766 25.1484C72.1849 25.8099 71.7734 26.3099 71.2422 26.6484C70.7161 26.987 70.0938 27.1562 69.375 27.1562C68.9219 27.1562 68.5234 27.0964 68.1797 26.9766C67.8359 26.8568 67.5417 26.6953 67.2969 26.4922C67.0521 26.2891 66.849 26.0677 66.6875 25.8281H66.5938C66.6094 26.0312 66.6276 26.276 66.6484 26.5625C66.6745 26.849 66.6875 27.099 66.6875 27.3125V30.8281H65.3828V18.4375H66.4531L66.625 19.7031H66.6875C66.8542 19.4427 67.0573 19.2057 67.2969 18.9922C67.5365 18.7734 67.8281 18.6016 68.1719 18.4766C68.5208 18.3464 68.9323 18.2812 69.4062 18.2812ZM69.1797 19.375C68.5859 19.375 68.1068 19.4896 67.7422 19.7188C67.3828 19.9479 67.1198 20.2917 66.9531 20.75C66.7865 21.2031 66.6979 21.7734 66.6875 22.4609V22.7109C66.6875 23.4349 66.7656 24.0469 66.9219 24.5469C67.0833 25.0469 67.3464 25.4271 67.7109 25.6875C68.0807 25.9479 68.5755 26.0781 69.1953 26.0781C69.7266 26.0781 70.1693 25.9349 70.5234 25.6484C70.8776 25.362 71.1406 24.9635 71.3125 24.4531C71.4896 23.9375 71.5781 23.3464 71.5781 22.6797C71.5781 21.6693 71.3802 20.8672 70.9844 20.2734C70.5938 19.6745 69.9922 19.375 69.1797 19.375ZM82.5625 22.7031C82.5625 23.4062 82.4714 24.0339 82.2891 24.5859C82.1068 25.138 81.8438 25.6042 81.5 25.9844C81.1562 26.3646 80.7396 26.6562 80.25 26.8594C79.7656 27.0573 79.2161 27.1562 78.6016 27.1562C78.0286 27.1562 77.5026 27.0573 77.0234 26.8594C76.5495 26.6562 76.138 26.3646 75.7891 25.9844C75.4453 25.6042 75.1771 25.138 74.9844 24.5859C74.7969 24.0339 74.7031 23.4062 74.7031 22.7031C74.7031 21.7656 74.862 20.9688 75.1797 20.3125C75.4974 19.651 75.9505 19.1484 76.5391 18.8047C77.1328 18.4557 77.8385 18.2812 78.6562 18.2812C79.4375 18.2812 80.1198 18.4557 80.7031 18.8047C81.2917 19.1536 81.7474 19.6589 82.0703 20.3203C82.3984 20.9766 82.5625 21.7708 82.5625 22.7031ZM76.0469 22.7031C76.0469 23.3906 76.138 23.987 76.3203 24.4922C76.5026 24.9974 76.7839 25.388 77.1641 25.6641C77.5443 25.9401 78.0339 26.0781 78.6328 26.0781C79.2266 26.0781 79.7135 25.9401 80.0938 25.6641C80.4792 25.388 80.763 24.9974 80.9453 24.4922C81.1276 23.987 81.2188 23.3906 81.2188 22.7031C81.2188 22.0208 81.1276 21.4323 80.9453 20.9375C80.763 20.4375 80.4818 20.0521 80.1016 19.7812C79.7214 19.5104 79.2292 19.375 78.625 19.375C77.7344 19.375 77.0807 19.6693 76.6641 20.2578C76.2526 20.8464 76.0469 21.6615 76.0469 22.7031ZM88.6953 18.2812C88.8672 18.2812 89.0469 18.2917 89.2344 18.3125C89.4219 18.3281 89.5885 18.3516 89.7344 18.3828L89.5703 19.5859C89.4297 19.5495 89.2734 19.5208 89.1016 19.5C88.9297 19.4792 88.7682 19.4688 88.6172 19.4688C88.2734 19.4688 87.9479 19.5391 87.6406 19.6797C87.3385 19.8151 87.0729 20.013 86.8438 20.2734C86.6146 20.5286 86.4349 20.8385 86.3047 21.2031C86.1745 21.5625 86.1094 21.9635 86.1094 22.4062V27H84.8047V18.4375H85.8828L86.0234 20.0156H86.0781C86.2552 19.6979 86.4688 19.4089 86.7188 19.1484C86.9688 18.8828 87.2578 18.6719 87.5859 18.5156C87.9193 18.3594 88.2891 18.2812 88.6953 18.2812ZM94.1172 26.0938C94.3307 26.0938 94.5495 26.0755 94.7734 26.0391C94.9974 26.0026 95.1797 25.9583 95.3203 25.9062V26.9141C95.1693 26.9818 94.9583 27.0391 94.6875 27.0859C94.4219 27.1328 94.1615 27.1562 93.9062 27.1562C93.4531 27.1562 93.0417 27.0781 92.6719 26.9219C92.3021 26.7604 92.0052 26.4896 91.7812 26.1094C91.5625 25.7292 91.4531 25.2031 91.4531 24.5312V19.4531H90.2344V18.8203L91.4609 18.3125L91.9766 16.4531H92.7578V18.4375H95.2656V19.4531H92.7578V24.4922C92.7578 25.0286 92.8802 25.4297 93.125 25.6953C93.375 25.9609 93.7057 26.0938 94.1172 26.0938Z" fill="#3AAFA9"/>
</svg>
