<svg width="24" height="24" viewBox="0 0 24 24" fill="none" xmlns="http://www.w3.org/2000/svg">
<path d="M13.41 20.7878L12.0001 21.6978C10.6901 22.5078 8.87006 21.5978 8.87006 19.9778V14.6278C8.87006 13.9178 8.47006 13.0078 8.06006 12.5078L4.22003 8.4678C3.71003 7.9578 3.31006 7.05781 3.31006 6.44781V4.1278C3.31006 2.9178 4.22008 2.00781 5.33008 2.00781H18.67C19.78 2.00781 20.6901 2.9178 20.6901 4.0278V6.2478C20.6901 7.0578 20.1801 8.06781 19.6801 8.56781" stroke="#191919" stroke-width="2" stroke-miterlimit="10" stroke-linecap="round" stroke-linejoin="round"/>
<path d="M17.0799 11.8933L13.5399 15.4333C13.3999 15.5733 13.2699 15.8333 13.2399 16.0233L13.0499 17.3733C12.9799 17.8633 13.3199 18.2033 13.8099 18.1333L15.1599 17.9433C15.3499 17.9133 15.6199 17.7833 15.7499 17.6433L19.2899 14.1033C19.8999 13.4933 20.1899 12.7833 19.2899 11.8833C18.3999 10.9933 17.6899 11.2833 17.0799 11.8933Z" stroke="#191919" stroke-width="2" stroke-miterlimit="10" stroke-linecap="round" stroke-linejoin="round"/>
<path d="M16.58 12.3906C16.88 13.4706 17.7199 14.3106 18.7999 14.6106" stroke="#191919" stroke-width="2" stroke-miterlimit="10" stroke-linecap="round" stroke-linejoin="round"/>
</svg>
