<svg width="31" height="31" viewBox="0 0 31 31" fill="none" xmlns="http://www.w3.org/2000/svg">
<g clip-path="url(#clip0_7797_81108)">
<path d="M26.964 7.88229C24.1228 6.24229 20.4896 7.21666 18.8484 10.0579L14.709 17.2273C13.5115 19.2973 15.0534 20.021 16.7721 21.0517L20.7546 23.3504C22.1034 24.1285 23.8259 23.6667 24.6034 22.3198L28.8578 14.9517C30.2878 12.476 29.4396 9.31166 26.964 7.88229Z" fill="#E64A19"/>
<path d="M22.2809 10.8528L18.2984 8.55408C16.1003 7.33346 14.8553 7.25283 13.9522 8.68783L8.07841 18.8597C6.43841 21.6991 7.41466 25.3303 10.254 26.9666C12.7297 28.396 15.894 27.5478 17.3234 25.0722L23.3097 14.7035C24.0909 13.3553 23.6297 11.631 22.2809 10.8528Z" fill="#FBC02D"/>
<path d="M23.0471 5.62385L20.2496 4.00823C17.1559 2.2226 13.1996 3.28135 11.414 6.3751L6.08836 15.5995C5.30149 16.9601 5.76899 18.702 7.12961 19.487L10.2621 21.2957C11.809 22.1895 13.7865 21.6595 14.6802 20.112L20.7646 9.57448C22.0252 7.39198 24.8152 6.64385 26.9984 7.90448L23.0471 5.62385Z" fill="#43A047"/>
<path d="M12.1708 9.00973L9.14707 7.26785C7.79832 6.4916 6.07582 6.9516 5.29832 8.2966L1.67082 14.5654C-0.114801 17.6504 0.94395 21.5979 4.0377 23.3785L6.33957 24.7041L9.13145 26.3122L10.3433 27.0091C8.19207 25.5691 7.50895 22.6841 8.82457 20.4122L9.76395 18.7897L13.2039 12.846C13.9796 11.5054 13.5177 9.78598 12.1708 9.00973Z" fill="#1E88E5"/>
</g>
<defs>
<clipPath id="clip0_7797_81108">
<rect width="30" height="30" fill="white" transform="translate(0.177734 0.398438)"/>
</clipPath>
</defs>
</svg>
