<svg width="25" height="24" viewBox="0 0 25 24" fill="none" xmlns="http://www.w3.org/2000/svg">
<mask id="mask0_7090_146522" style="mask-type:alpha" maskUnits="userSpaceOnUse" x="0" y="0" width="25" height="24">
<rect x="0.75" width="24" height="24" fill="#D9D9D9"/>
</mask>
<g mask="url(#mask0_7090_146522)">
<path d="M8.375 6.4L11.175 2.775C11.375 2.50833 11.6125 2.3125 11.8875 2.1875C12.1625 2.0625 12.45 2 12.75 2C13.05 2 13.3375 2.0625 13.6125 2.1875C13.8875 2.3125 14.125 2.50833 14.325 2.775L17.125 6.4L21.375 7.825C21.8083 7.95833 22.15 8.20417 22.4 8.5625C22.65 8.92083 22.775 9.31667 22.775 9.75C22.775 9.95 22.7458 10.15 22.6875 10.35C22.6292 10.55 22.5333 10.7417 22.4 10.925L19.65 14.825L19.75 18.925C19.7667 19.5083 19.575 20 19.175 20.4C18.775 20.8 18.3083 21 17.775 21C17.7417 21 17.5583 20.975 17.225 20.925L12.75 19.675L8.275 20.925C8.19167 20.9583 8.1 20.9792 8 20.9875C7.9 20.9958 7.80833 21 7.725 21C7.19167 21 6.725 20.8 6.325 20.4C5.925 20 5.73333 19.5083 5.75 18.925L5.85 14.8L3.125 10.925C2.99167 10.7417 2.89583 10.55 2.8375 10.35C2.77917 10.15 2.75 9.95 2.75 9.75C2.75 9.33333 2.87083 8.94583 3.1125 8.5875C3.35417 8.22917 3.69167 7.975 4.125 7.825L8.375 6.4ZM9.6 8.125L4.75 9.725L7.85 14.2L7.75 18.975L12.75 17.6L17.75 19L17.65 14.2L20.75 9.775L15.9 8.125L12.75 4L9.6 8.125Z" fill="#484848"/>
</g>
</svg>
