<svg width="18" height="18" viewBox="0 0 18 18" fill="none" xmlns="http://www.w3.org/2000/svg">
<path fill-rule="evenodd" clip-rule="evenodd" d="M13.606 3.36128L13.1664 2.92163C12.3004 2.05563 10.8972 2.05563 10.0312 2.92163L2.69981 10.253L1.53678 9.09075C1.24786 8.80257 0.780137 8.80257 0.491964 9.09149C0.203792 9.37966 0.203792 9.84812 0.491964 10.1363L3.66113 13.3025L2.354 14.6126L1.25304 13.5124C0.964863 13.2242 0.496398 13.2242 0.208225 13.5131C-0.079948 13.8013 -0.079948 14.2697 0.208964 14.5579L3.4365 17.784C3.72541 18.0721 4.19388 18.0721 4.48205 17.7832C4.77022 17.495 4.77022 17.0266 4.48131 16.7384L3.39955 15.6567L4.70594 14.3473L7.87954 17.518C8.16845 17.8061 8.63617 17.8061 8.92435 17.518C9.21252 17.229 9.21252 16.7613 8.92435 16.4724L7.92683 15.4756L15.256 8.14643C16.122 7.28043 16.122 5.87725 15.256 5.01125L14.6509 4.40609L17.7919 1.26131C18.0801 0.972399 18.0794 0.503933 17.7912 0.21576C17.5023 -0.0724125 17.0338 -0.0716733 16.7457 0.2165L13.606 3.36128ZM6.88128 14.4316L14.2112 7.10161C14.5001 6.8127 14.5001 6.34498 14.2112 6.05606L12.1216 3.96644C11.8327 3.67753 11.365 3.67753 11.0768 3.96644L10.4428 4.59968L11.2615 5.41839C11.5497 5.70656 11.5497 6.17503 11.2615 6.4632C10.9733 6.75211 10.5049 6.75211 10.2167 6.4632L9.39798 5.64523L8.21574 6.82748L9.03444 7.64545C9.32262 7.93362 9.32262 8.40209 9.03444 8.69026C8.74553 8.97917 8.27781 8.97917 7.98963 8.69026L7.17093 7.87229L6.00937 9.03311L6.82807 9.85182C7.11625 10.14 7.11625 10.6085 6.82807 10.8966C6.5399 11.1855 6.07144 11.1855 5.78326 10.8966L4.96456 10.0787L3.74536 11.2979L6.88128 14.4316Z" fill="#191919"/>
</svg>
