<svg xmlns="http://www.w3.org/2000/svg" fill="none" viewBox="0 0 200 211.4975" style="max-height: 500px" width="200" height="211.4975">
<g clip-path="url(#clip0_1816_41113)">
<mask height="208" width="198" y="0" x="0" maskUnits="userSpaceOnUse" style="mask-type:luminance" id="mask0_1816_41113">
<path fill="white" d="M0.84375 0.242188H197.308V207.282H0.84375V0.242188Z"/>
</mask>
<g mask="url(#mask0_1816_41113)">
<path fill="#1E4D92" d="M99.1263 0.464924C99.1859 0.329453 99.286 0.261719 99.4266 0.261719C99.5649 0.261719 99.665 0.329453 99.7269 0.464924L154.141 114.812C154.28 115.107 154.47 115.351 154.716 115.547C154.961 115.742 155.233 115.867 155.533 115.919C170.036 118.452 183.743 123.024 196.653 129.636C197.347 129.993 197.309 130.17 196.541 130.162C185.099 130.058 173.218 130.67 160.898 132.004C155.047 132.637 149.279 133.53 143.595 134.682C121.57 139.142 100.847 146.093 81.4275 155.539C53.5542 169.097 26.9178 187.171 1.39212 206.94C1.04177 207.213 0.927365 207.127 1.04892 206.677C1.30632 205.674 1.65906 204.723 2.10474 203.819C5.33657 197.342 8.54695 190.759 11.7311 184.061C40.7818 122.956 69.9136 61.7573 99.1263 0.464924ZM99.031 62.294C89.6287 82.0544 80.3503 101.562 71.2006 120.815C70.8621 121.528 70.5928 122.286 70.3926 123.089C70.3545 123.243 70.3879 123.375 70.4951 123.487C70.6024 123.597 70.7263 123.628 70.8645 123.576C87.6314 117.469 104.904 114.122 122.683 113.533C122.805 113.533 122.907 113.53 122.993 113.525C123.058 113.52 123.122 113.507 123.184 113.486C123.246 113.463 123.305 113.434 123.36 113.395C123.415 113.358 123.465 113.314 123.51 113.262C123.556 113.21 123.594 113.153 123.627 113.09C123.658 113.03 123.682 112.962 123.701 112.895C123.718 112.827 123.725 112.757 123.727 112.684C123.727 112.613 123.72 112.543 123.706 112.473C123.692 112.405 123.668 112.337 123.639 112.275C116.263 96.8806 108.536 80.6606 100.459 63.6175C100.211 63.0912 99.8842 62.6223 99.4767 62.208C99.2956 62.0283 99.1454 62.0543 99.031 62.294Z"/>
</g>
<mask height="68" width="77" y="140" x="122" maskUnits="userSpaceOnUse" style="mask-type:luminance" id="mask1_1816_41113">
<path fill="white" d="M122.877 140.59H198.534V207.825H122.877V140.59Z"/>
</mask>
<g mask="url(#mask1_1816_41113)">
<path fill="#1E4D92" d="M197.608 207.426L123.717 181.796C123.443 181.702 123.366 181.515 123.493 181.233C123.974 180.15 124.508 179.141 125.092 178.209C134.204 163.753 145.451 152.555 158.836 144.62C161.255 143.192 163.54 142.075 165.695 141.267C165.824 141.218 165.957 141.197 166.093 141.199C166.231 141.202 166.362 141.233 166.489 141.288C166.615 141.343 166.729 141.421 166.832 141.52C166.932 141.619 167.015 141.736 167.08 141.869L198.037 206.871C198.302 207.437 198.159 207.621 197.608 207.426Z"/>
</g>
<path fill="#1E4D92" d="M45.6613 249.06H46.014V249.477H33.7541V249.06H34.1068C34.6645 249.06 35.0792 248.872 35.3461 248.497C35.6178 248.117 35.7561 247.757 35.7561 247.424C35.7561 247.085 35.6917 246.747 35.5654 246.413L33.6778 241.244H24.6973L22.6953 246.413C22.5666 246.775 22.5046 247.119 22.5046 247.445C22.5046 247.765 22.6429 248.117 22.9241 248.497C23.2101 248.872 23.6319 249.06 24.192 249.06H24.4971V249.477H16.2793V249.06H16.6225C17.2136 249.06 17.7999 248.867 18.3862 248.476C18.9773 248.08 19.4658 247.492 19.8543 246.705L28.7299 224.748C29.9312 221.976 30.5699 220.142 30.6462 219.246H30.9894L42.4009 246.621C42.7822 247.434 43.2684 248.047 43.8595 248.456C44.4505 248.859 45.0512 249.06 45.6613 249.06ZM25.3456 239.483H33.0295L29.3019 229.156L25.3456 239.483Z"/>
<path fill="#1E4D92" d="M65.6971 220.086H73.9149V220.503H73.5717C72.9806 220.503 72.3895 220.701 71.7985 221.097C71.2122 221.488 70.726 222.074 70.3399 222.858L61.2354 244.814C60.0581 247.586 59.4336 249.42 59.3574 250.317H59.0142L47.3739 222.9C46.9854 222.115 46.4968 221.521 45.9057 221.118C45.3194 220.709 44.7212 220.503 44.1039 220.503H43.7988V220.086H56.0111V220.503H55.7061C55.146 220.503 54.7289 220.696 54.4572 221.076C54.1903 221.451 54.0568 221.805 54.0568 222.139C54.0568 222.472 54.1068 222.811 54.2093 223.15L60.7397 240.49L67.4989 223.15C67.6252 222.782 67.6896 222.438 67.6896 222.118C67.6896 221.8 67.5561 221.451 67.2892 221.076C67.0222 220.696 66.6051 220.503 66.0403 220.503H65.6971V220.086Z"/>
<path fill="#1E4D92" d="M101.109 249.06H101.461V249.477H89.2013V249.06H89.5541C90.1118 249.06 90.5265 248.872 90.7934 248.497C91.0651 248.117 91.2033 247.757 91.2033 247.424C91.2033 247.085 91.139 246.747 91.0127 246.413L89.125 241.244H80.1446L78.1426 246.413C78.0139 246.775 77.9519 247.119 77.9519 247.445C77.9519 247.765 78.0901 248.117 78.3714 248.497C78.6574 248.872 79.0792 249.06 79.6393 249.06H79.9444V249.477H71.7266V249.06H72.0698C72.6608 249.06 73.2471 248.867 73.8334 248.476C74.4245 248.08 74.9131 247.492 75.3016 246.705L84.1772 224.748C85.3784 221.976 86.0172 220.142 86.0934 219.246H86.4366L97.8481 246.621C98.2295 247.434 98.7157 248.047 99.3067 248.456C99.8978 248.859 100.498 249.06 101.109 249.06ZM80.7928 239.483H88.4768L84.7492 229.156L80.7928 239.483Z"/>
<path fill="#1E4D92" d="M115.97 221.807V246.452C115.994 247.182 116.242 247.802 116.714 248.307C117.19 248.807 117.762 249.057 118.43 249.057H118.887L118.926 249.474H107.247V249.057H107.752C108.386 249.057 108.939 248.807 109.411 248.307C109.888 247.802 110.155 247.197 110.212 246.494V221.807H105.026C103.844 221.836 102.905 222.242 102.213 223.026C101.527 223.813 101.184 224.834 101.184 226.09V226.59H100.793V219.285C101.846 219.765 103.36 220.02 105.331 220.046H120.813C121.6 220.046 122.462 219.963 123.397 219.796C124.336 219.624 124.984 219.452 125.342 219.285V226.59H124.96V226.09C124.96 224.355 124.355 223.12 123.149 222.391C122.589 222.031 121.912 221.836 121.118 221.807H115.97Z"/>
<path fill="#1E4D92" d="M154.185 249.056H154.537V249.473H142.277V249.056H142.63C143.188 249.056 143.603 248.868 143.87 248.493C144.141 248.113 144.28 247.753 144.28 247.42C144.28 247.081 144.215 246.743 144.089 246.409L142.201 241.24H133.221L131.219 246.409C131.09 246.771 131.028 247.115 131.028 247.441C131.028 247.761 131.166 248.113 131.448 248.493C131.734 248.868 132.155 249.056 132.715 249.056H133.021V249.473H124.803V249.056H125.146C125.737 249.056 126.323 248.863 126.91 248.472C127.501 248.076 127.989 247.488 128.378 246.701L137.253 224.744C138.455 221.972 139.093 220.138 139.17 219.242H139.513L150.924 246.618C151.306 247.43 151.792 248.043 152.383 248.452C152.974 248.855 153.575 249.056 154.185 249.056ZM133.869 239.479H141.553L137.825 229.152L133.869 239.479Z"/>
<path fill="#1E4D92" d="M165.557 221.93H163.908C163.855 221.93 163.817 221.93 163.793 221.93V246.409C163.817 247.138 164.065 247.764 164.537 248.285C165.014 248.8 165.586 249.056 166.253 249.056H166.749V249.473H155.07V249.056H155.576C156.496 249.056 157.199 248.623 157.682 247.753C157.892 247.357 158.009 246.925 158.035 246.451V223.15C158.009 222.42 157.759 221.8 157.282 221.284C156.805 220.763 156.236 220.503 155.576 220.503H155.07V220.086H168.245C170.729 220.086 172.831 220.675 174.547 221.847C175.417 222.438 176.106 223.259 176.616 224.306C177.131 225.356 177.388 226.729 177.388 228.423C177.388 230.111 176.849 231.742 175.777 233.31C174.702 234.873 173.139 235.769 171.086 235.998C172.574 236.527 173.88 237.757 175.005 239.687C177.769 244.53 179.819 247.414 181.154 248.337C181.821 248.79 182.653 249.03 183.652 249.056V249.473H179.886C177.66 249.473 175.81 249.155 174.337 248.514C172.862 247.868 171.701 246.732 170.858 245.106C170.374 244.184 169.313 241.79 167.673 237.926C166.954 236.217 166.084 235.279 165.061 235.113V234.696H166.253C167.402 234.696 168.419 234.318 169.304 233.56C170.186 232.804 170.781 231.57 171.086 229.861C171.194 229.277 171.249 228.816 171.249 228.475C171.249 226.182 170.824 224.525 169.981 223.504C169.134 222.483 168.045 221.959 166.711 221.93C166.456 221.93 166.072 221.93 165.557 221.93Z"/>
</g>
<defs>
<clipPath id="clip0_1816_41113">
<rect fill="white" height="250" width="200"/>
</clipPath>
</defs>
</svg>