<svg width="24" height="24" viewBox="0 0 24 24" fill="none" xmlns="http://www.w3.org/2000/svg">
<path d="M11.1818 10.226C11.1818 10.6778 11.5481 11.0441 12 11.0441C12.4518 11.0441 12.8181 10.6778 12.8181 10.226H11.1818ZM12.8181 3.81816C12.8181 3.3663 12.4518 3 12 3C11.5481 3 11.1818 3.3663 11.1818 3.81816H12.8181ZM9.06642 6.72159C9.47766 6.53434 9.65918 6.04916 9.47199 5.63793C9.28469 5.22671 8.79952 5.04515 8.38829 5.23241L9.06642 6.72159ZM4.36386 12.7197L3.54559 12.7154L3.54576 12.7292L4.36386 12.7197ZM12 20.1813L12.0094 19.3631C12.0031 19.3631 11.9968 19.3631 11.9906 19.3631L12 20.1813ZM19.6361 12.7197L20.4544 12.7292L20.4543 12.7154L19.6361 12.7197ZM15.6117 5.23241C15.2004 5.04515 14.7153 5.22671 14.528 5.63793C14.3408 6.04916 14.5223 6.53434 14.9336 6.72159L15.6117 5.23241ZM12.8181 10.226V3.81816H11.1818V10.226H12.8181ZM8.38829 5.23241C5.45302 6.56903 3.56249 9.49017 3.54559 12.7154L5.182 12.724C5.19556 10.1369 6.71192 7.79374 9.06642 6.72159L8.38829 5.23241ZM3.54576 12.7292C3.59954 17.35 7.38862 21.0525 12.0094 20.9994L11.9906 19.3631C8.27338 19.4059 5.22522 16.4274 5.18196 12.7102L3.54576 12.7292ZM11.9906 20.9994C16.6113 21.0525 20.4007 17.35 20.4544 12.7292L18.8181 12.7102C18.7748 16.4274 15.7266 19.4059 12.0094 19.3631L11.9906 20.9994ZM20.4543 12.7154C20.4374 9.49017 18.547 6.56903 15.6117 5.23241L14.9336 6.72159C17.288 7.79374 18.8044 10.1369 18.818 12.724L20.4543 12.7154Z" fill="black"/>
<path d="M11.1818 10.226C11.1818 10.6778 11.5481 11.0441 12 11.0441C12.4518 11.0441 12.8181 10.6778 12.8181 10.226M11.1818 10.226H12.8181M11.1818 10.226V3.81816M12.8181 10.226V3.81816M12.8181 3.81816C12.8181 3.3663 12.4518 3 12 3C11.5481 3 11.1818 3.3663 11.1818 3.81816M12.8181 3.81816H11.1818M9.06642 6.72159C9.47766 6.53434 9.65918 6.04916 9.47199 5.63793C9.28469 5.22671 8.79952 5.04515 8.38829 5.23241M9.06642 6.72159L8.38829 5.23241M9.06642 6.72159C6.71192 7.79374 5.19556 10.1369 5.182 12.724L3.54559 12.7154M8.38829 5.23241C5.45302 6.56903 3.56249 9.49017 3.54559 12.7154M3.54559 12.7154L4.36386 12.7197L3.54576 12.7292M3.54559 12.7154L3.54576 12.7292M3.54576 12.7292C3.59954 17.35 7.38862 21.0525 12.0094 20.9994L11.9906 19.3631M3.54576 12.7292L5.18196 12.7102C5.22522 16.4274 8.27338 19.4059 11.9906 19.3631M12.0094 19.3631L12 20.1813L11.9906 19.3631M12.0094 19.3631C12.0031 19.3631 11.9968 19.3631 11.9906 19.3631M12.0094 19.3631C15.7266 19.4059 18.7748 16.4274 18.8181 12.7102L20.4544 12.7292M12.0094 19.3631L11.9906 20.9994C16.6113 21.0525 20.4007 17.35 20.4544 12.7292M20.4544 12.7292L19.6361 12.7197L20.4543 12.7154M20.4544 12.7292L20.4543 12.7154M20.4543 12.7154C20.4374 9.49017 18.547 6.56903 15.6117 5.23241M20.4543 12.7154L18.818 12.724C18.8044 10.1369 17.288 7.79374 14.9336 6.72159M15.6117 5.23241C15.2004 5.04515 14.7153 5.22671 14.528 5.63793C14.3408 6.04916 14.5223 6.53434 14.9336 6.72159M15.6117 5.23241L14.9336 6.72159" stroke="black"/>
</svg>
