<svg width="15" height="13" viewBox="0 0 15 13" fill="none" xmlns="http://www.w3.org/2000/svg">
<path d="M6.26367 9.99875C6.26367 10.0982 6.22416 10.1936 6.15384 10.2639C6.08351 10.3342 5.98813 10.3737 5.88867 10.3737H4.13867C4.03922 10.3737 3.94383 10.3342 3.87351 10.2639C3.80318 10.1936 3.76367 10.0982 3.76367 9.99875C3.76367 9.89929 3.80318 9.80391 3.87351 9.73358C3.94383 9.66326 4.03922 9.62375 4.13867 9.62375H5.88867C5.98813 9.62375 6.08351 9.66326 6.15384 9.73358C6.22416 9.80391 6.26367 9.89929 6.26367 9.99875ZM10.1387 9.62375H8.38867C8.28922 9.62375 8.19383 9.66326 8.12351 9.73358C8.05318 9.80391 8.01367 9.89929 8.01367 9.99875C8.01367 10.0982 8.05318 10.1936 8.12351 10.2639C8.19383 10.3342 8.28922 10.3737 8.38867 10.3737H10.1387C10.2381 10.3737 10.3335 10.3342 10.4038 10.2639C10.4742 10.1936 10.5137 10.0982 10.5137 9.99875C10.5137 9.89929 10.4742 9.80391 10.4038 9.73358C10.3335 9.66326 10.2381 9.62375 10.1387 9.62375ZM14.0137 12.4987C14.0137 12.5982 13.9742 12.6936 13.9038 12.7639C13.8335 12.8342 13.7381 12.8737 13.6387 12.8737H0.638672C0.539216 12.8737 0.443833 12.8342 0.373507 12.7639C0.303181 12.6936 0.263672 12.5982 0.263672 12.4987C0.263672 12.3993 0.303181 12.3039 0.373507 12.2336C0.443833 12.1633 0.539216 12.1237 0.638672 12.1237H1.26367V4.49875C1.26367 4.42911 1.28306 4.36084 1.31968 4.3016C1.35629 4.24236 1.40868 4.19448 1.47097 4.16334C1.53326 4.13219 1.60299 4.11901 1.67235 4.12527C1.74171 4.13152 1.80796 4.15696 1.86367 4.19875L5.26367 6.74875V4.49875C5.26367 4.42911 5.28306 4.36084 5.31968 4.3016C5.35629 4.24236 5.40868 4.19448 5.47097 4.16334C5.53326 4.13219 5.60299 4.11901 5.67235 4.12527C5.74171 4.13152 5.80796 4.15696 5.86367 4.19875L8.45117 6.14125L9.20117 0.875C9.23209 0.667091 9.33647 0.477134 9.49538 0.339549C9.65429 0.201963 9.85723 0.12585 10.0674 0.125H11.1999C11.4101 0.12585 11.6131 0.201963 11.772 0.339549C11.9309 0.477134 12.0352 0.667091 12.0662 0.875L13.0037 7.44562C13.0037 7.44562 13.0074 7.4825 13.0074 7.49875V12.1237H13.6324C13.6822 12.1229 13.7316 12.132 13.7778 12.1505C13.8241 12.169 13.8661 12.1964 13.9016 12.2313C13.9371 12.2663 13.9653 12.3079 13.9845 12.3538C14.0038 12.3997 14.0137 12.449 14.0137 12.4987ZM9.13867 6.65438L9.76367 7.12375H12.2062L11.3262 0.98125C11.3219 0.951215 11.3069 0.923749 11.2839 0.903971C11.2609 0.884192 11.2315 0.873451 11.2012 0.87375H10.0724C10.0421 0.873451 10.0127 0.884192 9.98969 0.903971C9.96669 0.923749 9.95167 0.951215 9.94742 0.98125L9.13867 6.65438ZM2.01367 12.1237H12.2637V7.87375H9.63867C9.55753 7.87375 9.47858 7.84743 9.41367 7.79875L8.51367 7.12375L6.01367 5.24875V7.49875C6.01367 7.56839 5.99428 7.63666 5.95767 7.6959C5.92105 7.75514 5.86867 7.80302 5.80638 7.83416C5.74409 7.8653 5.67436 7.87849 5.60499 7.87223C5.53563 7.86598 5.46939 7.84054 5.41367 7.79875L2.01367 5.24875V12.1237Z" fill="black"/>
</svg>
