<svg width="25" height="24" viewBox="0 0 25 24" fill="none" xmlns="http://www.w3.org/2000/svg">
<g clip-path="url(#clip0_7084_90378)">
<path d="M1 7.83158C1 5.96496 1 5.03165 1.49738 4.4873C1.67397 4.29403 1.88859 4.13934 2.12778 4.03293C2.80149 3.73322 3.6869 4.02836 5.45773 4.61863C6.80967 5.06928 7.48565 5.29461 8.1687 5.27127C8.41957 5.26271 8.66895 5.22932 8.91324 5.17157C9.57836 5.01435 10.1712 4.61911 11.357 3.82862L13.108 2.66119C14.627 1.6486 15.3864 1.14232 16.2582 1.02558C17.13 0.908832 17.9958 1.19746 19.7276 1.77472L21.2031 2.26654C22.4572 2.68458 23.0842 2.89361 23.443 3.39123C23.8016 3.88885 23.8016 4.54983 23.8016 5.87179V16.1685C23.8016 18.0351 23.8016 18.9684 23.3043 19.5127C23.1277 19.706 22.913 19.8607 22.6738 19.9671C22.0002 20.2668 21.1147 19.9717 19.3439 19.3814C17.9919 18.9308 17.3159 18.7054 16.6329 18.7287C16.3821 18.7374 16.1327 18.7707 15.8884 18.8284C15.2233 18.9856 14.6304 19.3809 13.4446 20.1715L11.6936 21.3388C10.1746 22.3514 9.4152 22.8577 8.54344 22.9744C7.67168 23.0912 6.80578 22.8025 5.074 22.2252L3.59852 21.7335C2.3444 21.3155 1.71733 21.1064 1.35867 20.6087C1 20.1112 1 19.4502 1 18.1282V7.83158Z" stroke="#5C5C5C" stroke-width="2"/>
<path d="M8.40625 5.52344V22.7682" stroke="#5C5C5C" stroke-width="2"/>
<path d="M15.8711 1V18.4173" stroke="#5C5C5C" stroke-width="2"/>
</g>
<defs>
<clipPath id="clip0_7084_90378">
<rect width="24" height="24" fill="white" transform="translate(0.25)"/>
</clipPath>
</defs>
</svg>
