<svg width="24" height="25" viewBox="0 0 24 25" fill="none" xmlns="http://www.w3.org/2000/svg">
<mask id="mask0_7268_20595" style="mask-type:alpha" maskUnits="userSpaceOnUse" x="0" y="0" width="24" height="25">
<rect y="0.5" width="24" height="24" fill="#D9D9D9"/>
</mask>
<g mask="url(#mask0_7268_20595)">
<path d="M4.35 21.2C4.01667 21.3333 3.70833 21.2958 3.425 21.0875C3.14167 20.8792 3 20.6 3 20.25V6.25C3 6.03333 3.0625 5.84167 3.1875 5.675C3.3125 5.50833 3.48333 5.38333 3.7 5.3L9 3.5L15 5.6L19.65 3.8C19.9833 3.66667 20.2917 3.70417 20.575 3.9125C20.8583 4.12083 21 4.4 21 4.75V13.175C20.75 12.7917 20.4542 12.4417 20.1125 12.125C19.7708 11.8083 19.4 11.5333 19 11.3V6.2L16 7.35V10.5C15.65 10.5 15.3083 10.5292 14.975 10.5875C14.6417 10.6458 14.3167 10.7333 14 10.85V7.35L10 5.95V19.025L4.35 21.2ZM5 18.8L8 17.65V5.95L5 6.95V18.8ZM16 18.5C16.5667 18.5 17.0375 18.3333 17.4125 18C17.7875 17.6667 17.9833 17.1667 18 16.5C18.0167 15.9333 17.8292 15.4583 17.4375 15.075C17.0458 14.6917 16.5667 14.5 16 14.5C15.4333 14.5 14.9583 14.6917 14.575 15.075C14.1917 15.4583 14 15.9333 14 16.5C14 17.0667 14.1917 17.5417 14.575 17.925C14.9583 18.3083 15.4333 18.5 16 18.5ZM16 20.5C14.9 20.5 13.9583 20.1083 13.175 19.325C12.3917 18.5417 12 17.6 12 16.5C12 15.4 12.3917 14.4583 13.175 13.675C13.9583 12.8917 14.9 12.5 16 12.5C17.1 12.5 18.0417 12.8917 18.825 13.675C19.6083 14.4583 20 15.4 20 16.5C20 16.8833 19.9542 17.2458 19.8625 17.5875C19.7708 17.9292 19.6333 18.25 19.45 18.55L22 21.1L20.6 22.5L18.05 19.95C17.75 20.1333 17.4292 20.2708 17.0875 20.3625C16.7458 20.4542 16.3833 20.5 16 20.5Z" fill="#484848"/>
</g>
</svg>
