<svg width="16" height="17" viewBox="0 0 16 17" fill="none" xmlns="http://www.w3.org/2000/svg">
<path d="M11.3333 15.1693C10.7778 15.1693 10.3055 14.9748 9.91665 14.5859C9.52776 14.197 9.33331 13.7248 9.33331 13.1693C9.33331 13.1026 9.34998 12.947 9.38331 12.7026L4.69998 9.96927C4.5222 10.1359 4.31665 10.2666 4.08331 10.3613C3.84998 10.4559 3.59998 10.503 3.33331 10.5026C2.77776 10.5026 2.30554 10.3082 1.91665 9.91927C1.52776 9.53038 1.33331 9.05816 1.33331 8.5026C1.33331 7.94705 1.52776 7.47483 1.91665 7.08594C2.30554 6.69705 2.77776 6.5026 3.33331 6.5026C3.59998 6.5026 3.84998 6.54994 4.08331 6.6446C4.31665 6.73927 4.5222 6.86972 4.69998 7.03594L9.38331 4.3026C9.36109 4.22483 9.34731 4.14994 9.34198 4.07794C9.33665 4.00594 9.33376 3.92527 9.33331 3.83594C9.33331 3.28038 9.52776 2.80816 9.91665 2.41927C10.3055 2.03038 10.7778 1.83594 11.3333 1.83594C11.8889 1.83594 12.3611 2.03038 12.75 2.41927C13.1389 2.80816 13.3333 3.28038 13.3333 3.83594C13.3333 4.39149 13.1389 4.86372 12.75 5.2526C12.3611 5.64149 11.8889 5.83594 11.3333 5.83594C11.0666 5.83594 10.8166 5.7886 10.5833 5.69394C10.35 5.59927 10.1444 5.46883 9.96665 5.3026L5.28331 8.03594C5.30554 8.11372 5.31954 8.18883 5.32531 8.26127C5.33109 8.33371 5.33376 8.41416 5.33331 8.5026C5.33287 8.59105 5.3302 8.67171 5.32531 8.7446C5.32042 8.81749 5.30642 8.89238 5.28331 8.96927L9.96665 11.7026C10.1444 11.5359 10.35 11.4055 10.5833 11.3113C10.8166 11.217 11.0666 11.1697 11.3333 11.1693C11.8889 11.1693 12.3611 11.3637 12.75 11.7526C13.1389 12.1415 13.3333 12.6137 13.3333 13.1693C13.3333 13.7248 13.1389 14.197 12.75 14.5859C12.3611 14.9748 11.8889 15.1693 11.3333 15.1693ZM11.3333 13.8359C11.5222 13.8359 11.6806 13.7722 11.8086 13.6446C11.9366 13.517 12.0004 13.3586 12 13.1693C11.9995 12.9799 11.9355 12.8217 11.808 12.6946C11.6804 12.5675 11.5222 12.5035 11.3333 12.5026C11.1444 12.5017 10.9862 12.5657 10.8586 12.6946C10.7311 12.8235 10.6671 12.9817 10.6666 13.1693C10.6662 13.3568 10.7302 13.5153 10.8586 13.6446C10.9871 13.7739 11.1453 13.8377 11.3333 13.8359ZM3.33331 9.16927C3.5222 9.16927 3.68065 9.10527 3.80865 8.97727C3.93665 8.84927 4.00042 8.69105 3.99998 8.5026C3.99954 8.31416 3.93554 8.15594 3.80798 8.02794C3.68042 7.89994 3.5222 7.83594 3.33331 7.83594C3.14442 7.83594 2.9862 7.89994 2.85865 8.02794C2.73109 8.15594 2.66709 8.31416 2.66665 8.5026C2.6662 8.69105 2.7302 8.84949 2.85865 8.97794C2.98709 9.10638 3.14531 9.17016 3.33331 9.16927ZM11.3333 4.5026C11.5222 4.5026 11.6806 4.4386 11.8086 4.3106C11.9366 4.1826 12.0004 4.02438 12 3.83594C11.9995 3.64749 11.9355 3.48927 11.808 3.36127C11.6804 3.23327 11.5222 3.16927 11.3333 3.16927C11.1444 3.16927 10.9862 3.23327 10.8586 3.36127C10.7311 3.48927 10.6671 3.64749 10.6666 3.83594C10.6662 4.02438 10.7302 4.18283 10.8586 4.31127C10.9871 4.43971 11.1453 4.50349 11.3333 4.5026Z" fill="#484848"/>
</svg>
