<svg width="23" height="22" viewBox="0 0 23 22" fill="none" xmlns="http://www.w3.org/2000/svg">
<path d="M6.00058 11.2109H1.56049C1.32317 11.2109 1.1308 11.0185 1.1308 10.7812V6.98569C1.1308 5.52462 2.31949 4.33594 3.78055 4.33594C5.24162 4.33594 6.43031 5.52462 6.43031 6.98569V10.7812C6.43026 11.0185 6.23789 11.2109 6.00058 11.2109ZM1.99017 10.3516H5.57089V6.98569C5.57089 5.99848 4.76776 5.19531 3.78051 5.19531C2.79326 5.19531 1.99013 5.99844 1.99013 6.98569L1.99017 10.3516Z" fill="black"/>
<path d="M3.78055 17.2266C2.31949 17.2266 1.1308 16.0379 1.1308 14.5768V10.7812C1.1308 10.5439 1.32317 10.3516 1.56049 10.3516H6.00058C6.23789 10.3516 6.43026 10.5439 6.43026 10.7812V14.5768C6.43026 16.0379 5.24162 17.2266 3.78055 17.2266ZM1.99017 11.211V14.5768C1.99017 15.5641 2.79335 16.3672 3.78055 16.3672C4.76776 16.3672 5.57093 15.5641 5.57093 14.5768V11.211H1.99017Z" fill="black"/>
<path d="M11.3609 18.204C11.247 18.204 11.1377 18.1587 11.0571 18.0781L8.38517 15.4062C7.88471 14.9057 7.60907 14.2403 7.60907 13.5326C7.60907 12.8247 7.88471 12.1594 8.38517 11.6589C8.88563 11.1585 9.55104 10.8828 10.2588 10.8828C10.9665 10.8828 11.6319 11.1585 12.1324 11.6589L14.8044 14.3308C14.8849 14.4114 14.9302 14.5207 14.9302 14.6347C14.9302 14.7486 14.8849 14.8579 14.8044 14.9385L11.6648 18.0781C11.5842 18.1587 11.4749 18.204 11.3609 18.204ZM10.2588 11.7422C9.78058 11.7422 9.33096 11.9284 8.99279 12.2666C8.65463 12.6047 8.4684 13.0543 8.4684 13.5326C8.4684 14.0108 8.65463 14.4604 8.99279 14.7985L11.3609 17.1666L13.8928 14.6346L11.5247 12.2666C11.1866 11.9284 10.737 11.7422 10.2588 11.7422Z" fill="black"/>
<path d="M15.6026 21.5244C14.8948 21.5244 14.2294 21.2487 13.729 20.7483L11.0571 18.0763C10.8893 17.9085 10.8893 17.6365 11.0571 17.4686L14.1967 14.329C14.2773 14.2484 14.3865 14.2031 14.5005 14.2031C14.6144 14.2031 14.7237 14.2484 14.8043 14.329L17.4762 17.0009C17.9767 17.5014 18.2523 18.1668 18.2523 18.8746C18.2523 19.5824 17.9767 20.2478 17.4762 20.7482C16.9758 21.2487 16.3104 21.5244 15.6026 21.5244ZM11.9686 17.7725L14.3366 20.1406C14.6748 20.4788 15.1244 20.665 15.6026 20.665C16.0808 20.665 16.5305 20.4788 16.8686 20.1406C17.2067 19.8025 17.393 19.3528 17.393 18.8746C17.393 18.3964 17.2067 17.9468 16.8686 17.6087L14.5005 15.2406L11.9686 17.7725Z" fill="black"/>
<path d="M18.2023 7.73477C18.0923 7.73477 17.9823 7.69283 17.8984 7.60891L14.7588 4.46931C14.6782 4.38875 14.6329 4.27943 14.6329 4.16548C14.6329 4.05153 14.6782 3.94221 14.7588 3.86165L17.3756 1.24485C17.876 0.744395 18.5415 0.46875 19.2492 0.46875C19.957 0.46875 20.6224 0.744395 21.1228 1.24485C22.1559 2.27795 22.1559 3.95902 21.1228 4.99211L18.5061 7.60891C18.4222 7.69278 18.3123 7.73477 18.2023 7.73477ZM15.6703 4.16544L18.2023 6.69737L20.5152 4.38445C21.2133 3.68638 21.2133 2.55054 20.5152 1.85247C20.1771 1.51431 19.7275 1.32808 19.2493 1.32808C18.771 1.32808 18.3214 1.51431 17.9833 1.85247L15.6703 4.16544Z" fill="black"/>
<path d="M14.0157 11.0004C13.3079 11.0004 12.6425 10.7247 12.1421 10.2243C11.109 9.19116 11.109 7.5101 12.1421 6.477L14.7588 3.8602C14.9267 3.69245 15.1987 3.69241 15.3665 3.8602L18.5062 6.9998C18.5867 7.08037 18.632 7.18968 18.632 7.30363C18.632 7.41759 18.5867 7.5269 18.5062 7.60747L15.8894 10.2243C15.3889 10.7248 14.7235 11.0004 14.0157 11.0004ZM15.0627 4.7717L12.7497 7.08462C12.0517 7.78269 12.0517 8.91853 12.7497 9.6166C13.0879 9.95476 13.5375 10.141 14.0157 10.141C14.4939 10.141 14.9435 9.95476 15.2817 9.6166L17.5946 7.30363L15.0627 4.7717Z" fill="black"/>
</svg>
