<svg width="16" height="16" viewBox="0 0 16 16" fill="none" xmlns="http://www.w3.org/2000/svg">
<path d="M14.0717 8.59592L14.075 8.59907L7.117 1.68392L7.11723 1.68439C6.3331 0.895643 5.30063 0.499353 4.27275 0.500001C3.24478 0.499353 2.21254 0.895613 1.4282 1.68439C0.643486 2.47288 0.249298 3.51089 0.250001 4.54437C0.249298 5.57761 0.643486 6.61559 1.4282 7.40411L8.38441 14.3177L8.3825 14.3156C9.16684 15.1044 10.1991 15.5007 11.2273 15.5C12.2551 15.5007 13.2873 15.1044 14.0717 14.3159C14.8565 13.5271 15.2506 12.4891 15.25 11.4557C15.2506 10.4222 14.8565 9.3842 14.0717 8.59592ZM5.07059 9.64586C5.06857 9.65217 5.0671 9.65803 5.06499 9.66436L2.10528 6.72271L2.10551 6.72318C1.50628 6.12028 1.20845 5.33447 1.20798 4.54437C1.20842 3.75403 1.50625 2.96843 2.10551 2.36555C2.70522 1.76312 3.48674 1.46358 4.27278 1.46314C5.05869 1.46358 5.84024 1.76312 6.43992 2.36555L6.44308 2.36873L9.51201 5.41859C8.90668 5.54627 8.36006 5.77091 7.88006 6.06008C6.8412 6.68666 6.10263 7.5929 5.61621 8.44212C5.3729 8.86748 5.19261 9.28 5.07059 9.64586ZM13.3943 13.6347C12.7946 14.2369 12.0132 14.5364 11.2273 14.5369C10.441 14.5364 9.65949 14.2371 9.05979 13.6345L9.058 13.6327L5.85267 10.447C5.86222 10.385 5.87634 10.3121 5.89684 10.2314C5.97099 9.93294 6.12032 9.53079 6.34555 9.10564C6.6832 8.46665 7.19182 7.77424 7.86398 7.24011C8.53312 6.70937 9.35393 6.33025 10.3713 6.27273L13.393 9.2757L13.3943 9.27682C13.9938 9.87972 14.2915 10.6655 14.292 11.4556C14.2915 12.2457 13.9938 13.0316 13.3943 13.6347Z" fill="#484848"/>
<path d="M2.63476 5.4935L3.68203 2.97656C3.28895 2.97656 2.91955 3.13019 2.64191 3.4094C2.06848 3.98589 2.06848 4.9242 2.63476 5.4935Z" fill="#484848"/>
</svg>
