<svg width="22" height="22" viewBox="0 0 22 22" fill="none" xmlns="http://www.w3.org/2000/svg">
<path d="M11.3188 12.5048C11.3188 12.7331 11.1284 12.9181 10.8935 12.9181H7.97738C7.74251 12.9181 7.55211 12.7331 7.55211 12.5048C7.55211 12.2766 7.74251 12.0916 7.97738 12.0916H10.8935C11.1284 12.0916 11.3188 12.2766 11.3188 12.5048ZM10.8935 13.6773H7.97738C7.74251 13.6773 7.55211 13.8623 7.55211 14.0905C7.55211 14.3188 7.74251 14.5038 7.97738 14.5038H10.8935C11.1284 14.5038 11.3188 14.3188 11.3188 14.0905C11.3188 13.8623 11.1284 13.6773 10.8935 13.6773ZM7.94702 7.19727H8.68324V7.91276C8.68324 8.14101 8.87363 8.32603 9.10851 8.32603C9.34338 8.32603 9.53377 8.14101 9.53377 7.91276V7.19727H10.27C10.5049 7.19727 10.6953 7.01225 10.6953 6.784C10.6953 6.55576 10.5049 6.37074 10.27 6.37074H9.53377V5.65525C9.53377 5.427 9.34338 5.24198 9.10851 5.24198C8.87363 5.24198 8.68324 5.427 8.68324 5.65525V6.37069H7.94702C7.71214 6.37069 7.52175 6.55572 7.52175 6.78396C7.52175 7.01221 7.71214 7.19727 7.94702 7.19727ZM7.55216 10.9192C7.55216 11.1475 7.74255 11.3325 7.97742 11.3325H14.3525C14.5874 11.3325 14.7777 11.1475 14.7777 10.9192C14.7777 10.691 14.5874 10.506 14.3525 10.506H7.97742C7.74255 10.506 7.55216 10.691 7.55216 10.9192ZM17.33 6.2501V19.4004C17.33 19.6286 17.1396 19.8136 16.9047 19.8136H5.42527C5.19039 19.8136 5 19.6286 5 19.4004V3.41327C5 3.18502 5.19039 3 5.42527 3H13.9855C14.0023 3.00008 14.0183 3.0007 14.0345 3.00244C14.035 3.00248 14.0355 3.0026 14.0359 3.00256C14.0364 3.00264 14.0368 3.00269 14.0373 3.00273C14.0378 3.00277 14.0382 3.00281 14.0387 3.00289C14.0391 3.00289 14.0396 3.00298 14.04 3.00306C14.0579 3.00517 14.0755 3.00835 14.0927 3.0126C14.0929 3.01265 14.0932 3.01269 14.0934 3.01277H14.0934C14.164 3.03021 14.2301 3.0653 14.2845 3.11654C14.2845 3.11658 14.2846 3.11662 14.2846 3.11671C14.2849 3.11695 14.2852 3.11716 14.2854 3.11741C14.2855 3.11753 14.2857 3.1177 14.2858 3.11782C14.286 3.11799 14.2862 3.11815 14.2863 3.11832C14.2866 3.11853 14.2868 3.11873 14.287 3.11894C14.2871 3.11902 14.2872 3.1191 14.2873 3.11919C14.2879 3.11981 14.2886 3.12043 14.2892 3.121L17.2054 5.95486C17.2057 5.95515 17.206 5.9554 17.2063 5.95569C17.2064 5.95577 17.2064 5.95586 17.2065 5.95594C17.2067 5.95615 17.207 5.95635 17.2072 5.95656C17.2072 5.95664 17.2073 5.95668 17.2074 5.95677C17.208 5.95734 17.2085 5.95792 17.2091 5.9585C17.2091 5.9585 17.2092 5.95854 17.2092 5.95858C17.2095 5.95887 17.2098 5.95916 17.2101 5.95945C17.2609 6.01041 17.2963 6.07199 17.3148 6.13774C17.3148 6.13778 17.3148 6.13786 17.3148 6.1379C17.3149 6.13819 17.315 6.13852 17.3151 6.13881C17.3151 6.13902 17.3152 6.13922 17.3153 6.13943C17.3153 6.13964 17.3154 6.1398 17.3154 6.14001C17.3155 6.14026 17.3156 6.14055 17.3157 6.14084C17.3157 6.14088 17.3157 6.14092 17.3157 6.14096C17.321 6.16042 17.3249 6.1803 17.3272 6.20047C17.3272 6.20064 17.3273 6.2008 17.3273 6.20097C17.3273 6.20113 17.3273 6.2013 17.3273 6.20146C17.3273 6.20175 17.3274 6.20208 17.3274 6.20237C17.3274 6.20237 17.3274 6.20245 17.3274 6.2025C17.3293 6.21828 17.3301 6.23415 17.33 6.2501ZM14.4138 5.83382H15.878L14.4138 4.41098V5.83382ZM16.4795 6.66035H13.9886C13.7537 6.66035 13.5633 6.47533 13.5633 6.24709V3.82654H5.85053V18.9871H16.4795V6.66035ZM14.3524 12.0916H12.7405C12.5056 12.0916 12.3152 12.2766 12.3152 12.5048C12.3152 12.7331 12.5056 12.9181 12.7405 12.9181H14.3524C14.5873 12.9181 14.7777 12.7331 14.7777 12.5048C14.7777 12.2766 14.5873 12.0916 14.3524 12.0916ZM14.3524 16.5802H12.7405C12.5056 16.5802 12.3152 16.7652 12.3152 16.9935C12.3152 17.2217 12.5056 17.4067 12.7405 17.4067H14.3524C14.5873 17.4067 14.7777 17.2217 14.7777 16.9935C14.7777 16.7652 14.5873 16.5802 14.3524 16.5802ZM14.3524 13.6773H12.7405C12.5056 13.6773 12.3152 13.8623 12.3152 14.0905C12.3152 14.3188 12.5056 14.5038 12.7405 14.5038H14.3524C14.5873 14.5038 14.7777 14.3188 14.7777 14.0905C14.7777 13.8623 14.5873 13.6773 14.3524 13.6773Z" fill="white"/>
</svg>
