<svg width="31" height="31" viewBox="0 0 31 31" fill="none" xmlns="http://www.w3.org/2000/svg">
<g clip-path="url(#clip0_7797_81549)">
<path d="M19.4726 10.053V3.97078C19.4656 3.70426 19.3538 3.45125 19.1615 3.26661C18.9692 3.08198 18.7118 2.9806 18.4452 2.98448H6.36919C6.10261 2.9806 5.84525 3.08198 5.65292 3.26661C5.46059 3.45125 5.3488 3.70426 5.3418 3.97078V26.6557C5.3488 26.9222 5.46059 27.1752 5.65292 27.3599C5.84525 27.5445 6.10261 27.6459 6.36919 27.642H18.437C18.7036 27.6459 18.961 27.5445 19.1533 27.3599C19.3456 27.1752 19.4574 26.9222 19.4644 26.6557V20.0804" fill="#FFC107"/>
<path d="M17.9957 20.0033V23.2909C17.9951 23.3131 17.9903 23.3349 17.9813 23.3551C17.9723 23.3753 17.9595 23.3936 17.9434 23.4089C17.9274 23.4242 17.9085 23.4361 17.8879 23.4441C17.8672 23.452 17.8452 23.4559 17.8231 23.4553H7.47924C7.45711 23.4559 7.4351 23.452 7.41444 23.4441C7.39379 23.4361 7.37491 23.4242 7.35888 23.4089C7.34285 23.3936 7.32999 23.3753 7.32103 23.3551C7.31206 23.3349 7.30717 23.3131 7.30664 23.2909V6.52381C7.30717 6.50168 7.31206 6.47987 7.32103 6.45964C7.32999 6.4394 7.34285 6.42112 7.35888 6.40586C7.37491 6.39059 7.39379 6.37863 7.41444 6.37067C7.4351 6.3627 7.45711 6.35888 7.47924 6.35943H17.8231C17.8452 6.35888 17.8672 6.3627 17.8879 6.37067C17.9085 6.37863 17.9274 6.39059 17.9434 6.40586C17.9595 6.42112 17.9723 6.4394 17.9813 6.45964C17.9903 6.47987 17.9951 6.50168 17.9957 6.52381V9.81148H12.4786C12.4122 9.80984 12.3461 9.8213 12.2842 9.8452C12.2222 9.8691 12.1656 9.90497 12.1175 9.95077C12.0694 9.99657 12.0308 10.0514 12.0039 10.1121C11.977 10.1728 11.9623 10.2382 11.9608 10.3046V19.5101C11.9623 19.5765 11.977 19.6419 12.0039 19.7026C12.0308 19.7634 12.0694 19.8182 12.1175 19.864C12.1656 19.9098 12.2222 19.9456 12.2842 19.9695C12.3461 19.9934 12.4122 20.0049 12.4786 20.0033H17.9957Z" fill="#EBF3FA"/>
<path d="M11.0059 4.875H14.1291" stroke="#637CA4" stroke-opacity="0.18" stroke-width="1.51" stroke-miterlimit="10" stroke-linecap="round"/>
<path d="M17.8223 6.35953H7.47845C7.38393 6.35953 7.16406 6.4335 7.16406 6.52391V7.18145H18.0545V6.52391C18.0392 6.47483 18.0082 6.43214 17.9662 6.40244C17.9242 6.37273 17.8737 6.35765 17.8223 6.35953Z" fill="#85BEE1"/>
<path d="M16.4727 0.6875L17.1302 1.34503" stroke="#EA9080" stroke-width="1.67414" stroke-miterlimit="10" stroke-linecap="round"/>
<path d="M17.1302 0.6875L16.4727 1.34503" stroke="#EA9080" stroke-width="1.67414" stroke-miterlimit="10" stroke-linecap="round"/>
<path d="M3.69205 30.1107C3.87362 30.1107 4.02082 29.9635 4.02082 29.7819C4.02082 29.6003 3.87362 29.4531 3.69205 29.4531C3.51048 29.4531 3.36328 29.6003 3.36328 29.7819C3.36328 29.9635 3.51048 30.1107 3.69205 30.1107Z" fill="#B8B9BA"/>
<path d="M6.73322 30.111C6.96019 30.111 7.14418 29.927 7.14418 29.7C7.14418 29.4731 6.96019 29.2891 6.73322 29.2891C6.50626 29.2891 6.32227 29.4731 6.32227 29.7C6.32227 29.927 6.50626 30.111 6.73322 30.111Z" stroke="#B8B9BA" stroke-width="1.67414" stroke-miterlimit="10" stroke-linecap="round"/>
<path d="M20.6237 2.00128C20.8053 2.00128 20.9525 1.85409 20.9525 1.67252C20.9525 1.49094 20.8053 1.34375 20.6237 1.34375C20.4421 1.34375 20.2949 1.49094 20.2949 1.67252C20.2949 1.85409 20.4421 2.00128 20.6237 2.00128Z" fill="#B8B9BA"/>
<path d="M2.9558 25.9508L3.4058 25.7145C3.41124 25.7117 3.41734 25.7105 3.42342 25.7111C3.42949 25.7116 3.43531 25.7138 3.44021 25.7174C3.44511 25.721 3.44891 25.7259 3.45118 25.7316C3.45345 25.7372 3.4541 25.7434 3.45306 25.7494L3.36676 26.2487L3.73046 26.6022C3.73469 26.6065 3.73764 26.6119 3.73899 26.6178C3.74035 26.6237 3.74006 26.6298 3.73814 26.6355C3.73623 26.6413 3.73278 26.6464 3.72816 26.6503C3.72354 26.6542 3.71794 26.6567 3.71197 26.6576L3.2106 26.7316L2.98662 27.1857C2.98398 27.1914 2.97977 27.1962 2.97449 27.1996C2.96922 27.2029 2.96309 27.2047 2.95683 27.2047C2.95057 27.2047 2.94445 27.2029 2.93917 27.1996C2.93389 27.1962 2.92968 27.1914 2.92704 27.1857L2.70306 26.7316L2.20169 26.6576C2.19572 26.6567 2.19012 26.6542 2.1855 26.6503C2.18088 26.6464 2.17743 26.6413 2.17552 26.6355C2.1736 26.6298 2.17331 26.6237 2.17467 26.6178C2.17602 26.6119 2.17897 26.6065 2.1832 26.6022L2.5469 26.2487L2.4606 25.7494C2.45956 25.7434 2.46021 25.7372 2.46248 25.7316C2.46475 25.7259 2.46855 25.721 2.47345 25.7174C2.47835 25.7138 2.48417 25.7116 2.49024 25.7111C2.49632 25.7105 2.50242 25.7117 2.50786 25.7145L2.9558 25.9508Z" fill="#A8CBEB"/>
<path d="M21.5262 4.79848C21.7532 4.79848 21.9372 4.61449 21.9372 4.38752C21.9372 4.16056 21.7532 3.97656 21.5262 3.97656C21.2992 3.97656 21.1152 4.16056 21.1152 4.38752C21.1152 4.61449 21.2992 4.79848 21.5262 4.79848Z" stroke="#B8B9BA" stroke-width="1.67414" stroke-miterlimit="10" stroke-linecap="round"/>
<path d="M27.8561 21.5638C28.0377 21.5638 28.1849 21.4166 28.1849 21.235C28.1849 21.0534 28.0377 20.9062 27.8561 20.9062C27.6745 20.9062 27.5273 21.0534 27.5273 21.235C27.5273 21.4166 27.6745 21.5638 27.8561 21.5638Z" fill="#B8B9BA"/>
<path d="M14.1504 18.0703H16.6161" stroke="#343F43" stroke-width="2.09268" stroke-miterlimit="10" stroke-linecap="round"/>
<path d="M12.4853 20.1664C12.3545 20.1664 12.2291 20.1145 12.1366 20.022C12.0441 19.9295 11.9922 19.8041 11.9922 19.6733V10.9609H11.499C11.3682 10.9609 11.2428 11.0129 11.1503 11.1054C11.0578 11.1979 11.0059 11.3233 11.0059 11.4541V20.6596C11.0059 20.7904 11.0578 20.9158 11.1503 21.0083C11.2428 21.1008 11.3682 21.1527 11.499 21.1527H19.5538V20.1664H12.4853Z" fill="#C3C7CD"/>
<path d="M17.91 20.1664H12.4853C12.3545 20.1664 12.2291 20.1145 12.1366 20.022C12.0441 19.9295 11.9922 19.8041 11.9922 19.6733V10.9609H11.499C11.3682 10.9609 11.2428 11.0129 11.1503 11.1054C11.0578 11.1979 11.0059 11.3233 11.0059 11.4541V20.6596C11.0059 20.7904 11.0578 20.9158 11.1503 21.0083C11.2428 21.1008 11.3682 21.1527 11.499 21.1527H17.91L17.7456 20.1664H17.91Z" fill="#85BEE1"/>
<path d="M26.7867 11.9453H11.9922V14.5754H26.7867V11.9453Z" fill="white"/>
<path d="M26.7867 10.4697V11.9492H11.9922V10.4697C11.9922 10.3389 12.0441 10.2135 12.1366 10.121C12.2291 10.0285 12.3545 9.97656 12.4853 9.97656H26.2936C26.4243 9.97656 26.5498 10.0285 26.6423 10.121C26.7348 10.2135 26.7867 10.3389 26.7867 10.4697Z" fill="#FFC107"/>
<path d="M26.7867 14.5781V19.674C26.7867 19.8048 26.7348 19.9302 26.6423 20.0227C26.5498 20.1152 26.4243 20.1672 26.2936 20.1672H12.4853C12.3545 20.1672 12.2291 20.1152 12.1366 20.0227C12.0441 19.9302 11.9922 19.8048 11.9922 19.674V14.5781H26.7867Z" fill="#FFC107"/>
<path d="M12.7125 19.674V14.5781H11.8906V19.674C11.8906 19.9473 12.2132 20.1261 12.4865 20.1261H13.3084C13.0351 20.1261 12.7125 19.9473 12.7125 19.674Z" fill="#CCA400"/>
<path d="M12.5071 11.4543C12.5071 11.181 12.7762 11.029 13.0475 11.029L26.6851 10.7002V10.468C26.6851 10.1947 26.568 9.85156 26.2947 9.85156H12.4865C12.3334 9.87482 12.1921 9.94775 12.0844 10.0591C11.9768 10.1705 11.9087 10.3142 11.8906 10.468V11.9064H12.5071V11.4543Z" fill="#E39E11"/>
</g>
<defs>
<clipPath id="clip0_7797_81549">
<rect width="30" height="30" fill="white" transform="translate(0.177734 0.398438)"/>
</clipPath>
</defs>
</svg>
