<svg width="24" height="24" viewBox="0 0 24 24" fill="none" xmlns="http://www.w3.org/2000/svg">
<rect width="24" height="24" rx="12" fill="#F79E1B"/>
<mask id="mask0_7084_89850" style="mask-type:alpha" maskUnits="userSpaceOnUse" x="5" y="5" width="14" height="14">
<rect x="5.45508" y="5.45312" width="13.0909" height="13.0909" fill="#D9D9D9"/>
</mask>
<g mask="url(#mask0_7084_89850)">
<path d="M7.63672 15.8196V14.7287H8.72763V10.9105C8.72763 10.156 8.9549 9.48551 9.40945 8.89915C9.86399 8.31278 10.4549 7.92869 11.1822 7.74688V7.36506C11.1822 7.13778 11.2617 6.9446 11.4208 6.78551C11.5799 6.62642 11.7731 6.54688 12.0004 6.54688C12.2276 6.54688 12.4208 6.62642 12.5799 6.78551C12.739 6.9446 12.8185 7.13778 12.8185 7.36506V7.74688C13.5458 7.92869 14.1367 8.31278 14.5913 8.89915C15.0458 9.48551 15.2731 10.156 15.2731 10.9105V14.7287H16.364V15.8196H7.63672ZM12.0004 17.456C11.7004 17.456 11.4435 17.3491 11.2299 17.1355C11.0163 16.9219 10.9094 16.6651 10.9094 16.3651H13.0913C13.0913 16.6651 12.9844 16.9219 12.7708 17.1355C12.5572 17.3491 12.3004 17.456 12.0004 17.456ZM9.81854 14.7287H14.1822V10.9105C14.1822 10.3105 13.9685 9.79688 13.5413 9.3696C13.114 8.94233 12.6004 8.72869 12.0004 8.72869C11.4004 8.72869 10.8867 8.94233 10.4594 9.3696C10.0322 9.79688 9.81854 10.3105 9.81854 10.9105V14.7287Z" fill="white"/>
</g>
</svg>
