<svg width="14" height="14" viewBox="0 0 14 14" fill="none" xmlns="http://www.w3.org/2000/svg">
<path d="M8.03961 0.981558C7.372 0.714481 6.62722 0.714481 5.95961 0.981558L1.35401 2.82556C1.13154 2.91453 0.940793 3.06807 0.806342 3.26639C0.67189 3.46472 0.599889 3.69875 0.599609 3.93836V10.0552C0.599569 10.295 0.671422 10.5294 0.805893 10.7281C0.940365 10.9267 1.13128 11.0805 1.35401 11.1696L5.95961 13.012C6.62722 13.279 7.372 13.279 8.03961 13.012L12.6452 11.1696C12.8679 11.0805 13.0589 10.9267 13.1933 10.7281C13.3278 10.5294 13.3996 10.295 13.3996 10.0552V3.93836C13.3995 3.69862 13.3276 3.46441 13.1931 3.26592C13.0586 3.06744 12.8678 2.91378 12.6452 2.82476L8.03961 0.981558ZM6.25721 1.72556C6.73404 1.53482 7.26598 1.53482 7.74281 1.72556L11.9228 3.39756L10.0996 4.12556L5.17641 2.15756L6.25721 1.72556ZM4.09961 2.58716L9.02281 4.55596L6.99961 5.36636L2.07641 3.39676L4.09961 2.58716ZM7.39961 6.06716L12.5996 3.98716V10.0544C12.5998 10.1344 12.5759 10.2126 12.5311 10.2789C12.4863 10.3452 12.4227 10.3966 12.3484 10.4264L7.74281 12.2688C7.63081 12.313 7.51641 12.3472 7.39961 12.3712V6.06716ZM6.59961 6.06716V12.3712C6.48265 12.3473 6.36806 12.313 6.25721 12.2688L1.65081 10.4264C1.57666 10.3966 1.51311 10.3454 1.46833 10.2792C1.42356 10.2131 1.39963 10.135 1.39961 10.0552V3.98796L6.59961 6.06716Z" fill="black"/>
</svg>
