<svg width="31" height="31" viewBox="0 0 31 31" fill="none" xmlns="http://www.w3.org/2000/svg">
<g clip-path="url(#clip0_7797_81101)">
<path d="M3.58149 11.6547H0.520237C0.347112 11.6547 0.206487 11.7591 0.205862 11.9684L0.177737 19.4728C0.177112 19.6603 0.300237 19.7541 0.468362 19.7541C0.927737 19.7541 1.30274 19.7541 1.76211 19.7541C1.92149 19.7541 2.05274 19.6759 2.05274 19.5197C2.05274 18.8253 2.05274 17.9678 2.05274 17.2734L3.38149 17.2791C4.25586 17.2216 4.84086 16.8153 5.08461 15.9966C5.15774 15.7509 5.17211 15.5384 5.17211 15.2859L5.24086 13.4972C5.17711 12.2397 4.52086 11.7616 3.58149 11.6547ZM3.29961 15.0641C3.29961 15.2478 3.14899 15.3984 2.96586 15.3984H2.05274V13.5234H2.96586C3.14899 13.5234 3.29961 13.6734 3.29961 13.8578V15.0641ZM8.88899 11.6484H6.74961C6.58711 11.6484 6.44774 11.6984 6.44774 11.8678C6.44774 12.3091 6.44774 12.8022 6.44774 13.2434C6.46524 13.4272 6.59211 13.5234 6.77274 13.5234H8.55711C8.92836 13.5234 8.88961 14.1309 8.55711 14.1484H7.57774C6.49086 14.1484 5.80274 15.1247 5.80274 16.1091C5.80274 16.3716 5.80586 16.9878 5.80274 17.2734C5.79774 17.6803 5.79399 18.0928 5.87274 18.4603C6.01274 19.1103 6.57461 19.7734 7.42586 19.7734H10.0684C10.4065 19.7734 10.8015 19.4772 10.8015 19.0853V13.9141C10.819 12.5503 10.1415 11.7216 8.88899 11.6484ZM8.92774 17.6172C8.92774 17.7722 8.80149 17.8984 8.64774 17.8984H7.95711C7.80336 17.8984 7.67774 17.7722 7.67774 17.6172V16.3041C7.67774 16.1497 7.80336 16.0234 7.95711 16.0234H8.64774C8.80149 16.0234 8.92774 16.1497 8.92774 16.3041V17.6172ZM11.4277 12.0197V15.5247C11.5052 16.5247 12.4327 17.2734 13.4096 17.2734H14.2934C14.6665 17.2734 14.644 17.8791 14.2934 17.8791H12.359C12.1471 17.8791 12.0702 17.9897 12.0702 18.1766V19.5216C12.0702 19.6628 12.1846 19.7691 12.334 19.7691H14.1834C15.6934 19.7691 16.4284 19.0447 16.4277 17.4209V11.8959C16.4277 11.7234 16.3184 11.6566 16.214 11.6566H14.7752C14.6352 11.6566 14.5534 11.8084 14.5534 11.9203V15.1816C14.5534 15.3059 14.484 15.3791 14.3721 15.3791H13.559C13.394 15.3791 13.3034 15.2897 13.3034 15.1316V11.9703C13.3027 11.7847 13.2277 11.6484 13.0227 11.6484C12.5365 11.6484 12.1215 11.6484 11.6352 11.6484C11.4696 11.6484 11.4277 11.8128 11.4277 12.0197Z" fill="#0D47A1"/>
<path d="M17.0765 13.2553V11.919C17.0765 11.7709 17.1978 11.6497 17.3453 11.6497H17.6778C18.5328 11.4715 18.8347 11.2622 19.3578 10.6984C19.679 10.3503 19.9615 10.2584 20.169 10.6278L20.1778 11.6497H21.1584C21.3072 11.6497 21.4278 11.7709 21.4278 11.919V13.2553C21.4278 13.4028 21.3065 13.5247 21.1584 13.5247H20.1778V19.5053C20.1778 19.654 20.0565 19.7747 19.909 19.7747H18.5715C18.4234 19.7747 18.3028 19.654 18.3028 19.5053V13.5247H17.3459C17.199 13.5247 17.0765 13.4034 17.0765 13.2553ZM27.0472 19.4403C27.0472 19.624 26.8947 19.7747 26.7103 19.7747H25.5165C25.3309 19.7747 25.179 19.624 25.179 19.4403V15.3009V14.1315C25.179 13.329 23.9278 13.329 23.9278 14.1315V19.4403C23.9278 19.624 23.7765 19.7747 23.5909 19.7747H22.3903C22.2047 19.7747 22.0528 19.624 22.0528 19.4403V11.9853C22.0528 11.8003 22.2047 11.6497 22.3903 11.6497H23.6253C23.8109 11.6497 23.9622 11.8003 23.9622 11.9853V12.1678C24.7872 11.3765 26.0259 11.5597 26.7222 12.3103C28.0328 10.8072 30.2784 12.1465 30.174 13.7947C30.174 15.6172 30.1578 17.6028 30.1578 19.4403C30.1578 19.624 30.0053 19.7747 29.8215 19.7747H28.6397C28.454 19.7747 28.3028 19.624 28.3028 19.4403C28.3028 17.699 28.3028 15.8772 28.3028 14.1653C28.3028 13.3484 27.0528 13.309 27.0528 14.1653V19.4403H27.0472Z" fill="#00ADEE"/>
</g>
<defs>
<clipPath id="clip0_7797_81101">
<rect width="30" height="30" fill="white" transform="translate(0.177734 0.398438)"/>
</clipPath>
</defs>
</svg>
