<svg width="18" height="18" viewBox="0 0 18 18" fill="none" xmlns="http://www.w3.org/2000/svg">
<path fill-rule="evenodd" clip-rule="evenodd" d="M9 0C4.03264 0 0 4.03264 0 9C0 13.9667 4.03264 18 9 18C13.9667 18 18 13.9667 18 9C18 4.03264 13.9667 0 9 0ZM9 1.28571C13.2576 1.28571 16.7143 4.74236 16.7143 9C16.7143 13.2576 13.2576 16.7143 9 16.7143C4.74236 16.7143 1.28571 13.2576 1.28571 9C1.28571 4.74236 4.74236 1.28571 9 1.28571Z" fill="#191919"/>
<path fill-rule="evenodd" clip-rule="evenodd" d="M6.41984 6.42849H4.5067C3.44148 6.42849 2.57812 7.29185 2.57812 8.35706V9.65756C2.57812 10.7228 3.44148 11.5861 4.5067 11.5861H6.41984V13.5134C6.41984 14.5786 7.2832 15.442 8.34841 15.442H9.64891C10.7141 15.442 11.5775 14.5786 11.5775 13.5134V11.5861H13.5067C14.5719 11.5861 15.4353 10.7228 15.4353 9.65756V8.35706C15.4353 7.29185 14.5719 6.42849 13.5067 6.42849H11.5775V4.53013C11.5775 3.46492 10.7141 2.60156 9.64891 2.60156H8.34841C7.2832 2.60156 6.41984 3.46492 6.41984 4.53013V6.42849ZM7.0627 7.71421C7.41755 7.71421 7.70555 7.42621 7.70555 7.07135V4.53013C7.70555 4.17463 7.99291 3.88728 8.34841 3.88728H9.64891C10.0038 3.88728 10.2918 4.17463 10.2918 4.53013V7.07135C10.2918 7.42621 10.5791 7.71421 10.9346 7.71421H13.5067C13.8616 7.71421 14.1496 8.00156 14.1496 8.35706V9.65756C14.1496 10.0124 13.8616 10.3004 13.5067 10.3004H10.9346C10.5791 10.3004 10.2918 10.5878 10.2918 10.9433V13.5134C10.2918 13.8689 10.0038 14.1563 9.64891 14.1563H8.34841C7.99291 14.1563 7.70555 13.8689 7.70555 13.5134V10.9433C7.70555 10.5878 7.41755 10.3004 7.0627 10.3004H4.5067C4.15184 10.3004 3.86384 10.0124 3.86384 9.65756V8.35706C3.86384 8.00156 4.15184 7.71421 4.5067 7.71421H7.0627Z" fill="#191919"/>
</svg>
