<svg width="31" height="31" viewBox="0 0 31 31" fill="none" xmlns="http://www.w3.org/2000/svg">
<path d="M26.4277 23.5234C26.4277 25.2497 25.029 26.6484 23.3027 26.6484H7.05273C5.32711 26.6484 3.92773 25.2497 3.92773 23.5234V7.27344C3.92773 5.54719 5.32711 4.14844 7.05273 4.14844H23.3027C25.029 4.14844 26.4277 5.54719 26.4277 7.27344V23.5234Z" fill="#4527A0"/>
<path d="M20.3446 13.0051C20.3446 12.5795 19.9796 12.2151 19.5546 12.2151H18.0959L14.7521 8.30889C14.4484 7.94389 13.9621 7.82264 13.4753 7.94389L12.3203 8.30889C12.1378 8.36951 12.0771 8.61264 12.1984 8.73451L15.8459 12.2758H10.314C10.1315 12.2758 10.0103 12.3976 10.0103 12.5795V13.1876C10.0103 13.6133 10.3753 14.1289 10.8003 14.1289H12.0328V16.8195C12.0328 19.0083 13.0396 20.2845 14.9846 20.2845C15.5928 20.2845 15.8459 20.2239 16.4534 19.9808V21.9258C16.4534 22.4726 16.879 22.8983 17.4259 22.8983H17.9171C18.0996 22.8983 18.2821 22.7158 18.2821 22.5333V14.1289H20.0396C20.2221 14.1289 20.3434 14.007 20.3434 13.8251V13.0051H20.3446ZM16.4546 18.1564C16.0896 18.3389 15.6034 18.3995 15.239 18.3995C14.2665 18.3995 13.9284 17.9133 13.9284 16.8189V14.1283H16.4553V18.1564H16.4546Z" fill="white"/>
</svg>
