<svg width="25" height="24" viewBox="0 0 25 24" fill="none" xmlns="http://www.w3.org/2000/svg">
<path d="M5.58301 1.66406H19.333C21.2521 1.66406 22.9169 3.3433 22.917 5.55273V17.7754C22.9169 19.9849 21.2521 21.6641 19.333 21.6641H5.58301C3.66399 21.6639 2.00011 19.9848 2 17.7754V5.55273C2.00011 3.4123 3.56186 1.76948 5.4043 1.66895L5.58301 1.66406Z" stroke="#5C5C5C" stroke-width="2" stroke-linecap="round" stroke-linejoin="round"/>
<mask id="path-2-inside-1_7084_90392" fill="white">
<path d="M1 8.0625H5.11897C6.09143 8.0625 7.024 8.44876 7.71163 9.13638C8.39927 9.82401 8.78564 10.7567 8.78564 11.7292C8.78564 12.7016 8.39927 13.6343 7.71163 14.3219C7.024 15.0095 6.09143 15.3959 5.11897 15.3959H1"/>
</mask>
<path d="M1 6.0625C-0.10457 6.0625 -1 6.95793 -1 8.0625C-1 9.16707 -0.10457 10.0625 1 10.0625V6.0625ZM1 13.3959C-0.10457 13.3959 -1 14.2913 -1 15.3959C-1 16.5004 -0.10457 17.3959 1 17.3959V13.3959ZM1 8.0625V10.0625H5.11897V8.0625V6.0625H1V8.0625ZM5.11897 8.0625V10.0625C5.56103 10.0625 5.98489 10.2381 6.29743 10.5506L7.71163 9.13638L9.12583 7.72216C8.06311 6.65945 6.62183 6.0625 5.11897 6.0625V8.0625ZM7.71163 9.13638L6.29743 10.5506C6.61001 10.8632 6.78564 11.2872 6.78564 11.7292H8.78564H10.7856C10.7856 10.2262 10.1885 8.78483 9.12583 7.72216L7.71163 9.13638ZM8.78564 11.7292H6.78564C6.78564 12.1711 6.61003 12.5951 6.29743 12.9077L7.71163 14.3219L9.12583 15.7361C10.1885 14.6735 10.7856 13.2321 10.7856 11.7292H8.78564ZM7.71163 14.3219L6.29743 12.9077C5.9848 13.2203 5.56091 13.3959 5.11897 13.3959V15.3959V17.3959C6.62195 17.3959 8.06319 16.7988 9.12583 15.7361L7.71163 14.3219ZM5.11897 15.3959V13.3959H1V15.3959V17.3959H5.11897V15.3959Z" fill="#5C5C5C" mask="url(#path-2-inside-1_7084_90392)"/>
</svg>
