<svg width="18" height="18" viewBox="0 0 18 18" fill="none" xmlns="http://www.w3.org/2000/svg">
<g clip-path="url(#clip0_7458_80051)">
<path d="M8.4375 2.25C9.18342 2.25 9.89879 2.54632 10.4262 3.07376C10.9537 3.60121 11.25 4.31658 11.25 5.0625C11.25 5.65088 11.0621 6.10087 10.7741 6.4575C10.5708 6.69972 10.3345 6.91218 10.0721 7.08862L9.88425 7.22025C9.5895 7.425 9.37687 7.57688 9.225 7.76363C9.06947 7.95238 8.98932 8.19203 9 8.43638V9.56137C9 9.71056 8.94074 9.85363 8.83525 9.95912C8.72976 10.0646 8.58668 10.1239 8.4375 10.1239C8.28832 10.1239 8.14524 10.0646 8.03975 9.95912C7.93426 9.85363 7.875 9.71056 7.875 9.56137V8.43638C7.875 7.8525 8.064 7.40588 8.35313 7.05263C8.56125 6.79838 8.81775 6.59812 9.04613 6.43388L9.24075 6.29775C9.53325 6.09413 9.74588 5.94112 9.89775 5.75212C10.0562 5.55825 10.1371 5.31256 10.125 5.0625C10.125 4.61495 9.94721 4.18572 9.63074 3.86926C9.31428 3.55279 8.88505 3.375 8.4375 3.375C7.98995 3.375 7.56072 3.55279 7.24426 3.86926C6.92779 4.18572 6.75 4.61495 6.75 5.0625C6.75 5.21168 6.69074 5.35476 6.58525 5.46025C6.47976 5.56574 6.33668 5.625 6.1875 5.625C6.03832 5.625 5.89524 5.56574 5.78975 5.46025C5.68426 5.35476 5.625 5.21168 5.625 5.0625C5.625 4.31658 5.92132 3.60121 6.44876 3.07376C6.97621 2.54632 7.69158 2.25 8.4375 2.25ZM8.4375 11.3625C8.69857 11.3625 8.94895 11.4662 9.13356 11.6508C9.31816 11.8354 9.42188 12.0858 9.42188 12.3469C9.42188 12.6079 9.31816 12.8583 9.13356 13.0429C8.94895 13.2275 8.69857 13.3313 8.4375 13.3313C8.17643 13.3313 7.92605 13.2275 7.74144 13.0429C7.55684 12.8583 7.45312 12.6079 7.45312 12.3469C7.45312 12.0858 7.55684 11.8354 7.74144 11.6508C7.92605 11.4662 8.17643 11.3625 8.4375 11.3625Z" fill="#484848"/>
<path fill-rule="evenodd" clip-rule="evenodd" d="M8.43752 15.7489C9.76502 15.7489 10.9013 15.5947 11.8688 15.3112C12.9938 16.0976 14.49 16.9087 16.425 17.865C17.4555 18.378 18.4388 17.2148 17.7863 16.2675C16.9684 15.0638 16.2563 13.8937 15.6938 12.5662C16.5218 11.25 16.8638 9.63 16.8638 7.875C16.8638 3.52125 14.7488 0 8.42627 0C2.10377 0 -0.0112305 3.5325 -0.0112305 7.875C-0.0112305 12.2288 2.10377 15.75 8.42627 15.75L8.43752 15.7489ZM14.7488 11.9689C14.6522 12.1217 14.5939 12.2956 14.5789 12.4758C14.5638 12.6559 14.5924 12.8371 14.6621 13.0039C15.2426 14.3876 15.9784 15.6026 16.7884 16.7951C14.9321 15.8693 13.5484 15.1076 12.5134 14.3876C12.3755 14.2914 12.2179 14.2274 12.052 14.2001C11.8861 14.1728 11.7163 14.1831 11.5549 14.2301C10.7021 14.4787 9.67614 14.6227 8.43864 14.6227C5.47989 14.6227 3.71364 13.8038 2.66739 12.6765C1.60877 11.529 1.12502 9.8865 1.12502 7.87275C1.12502 5.859 1.61327 4.20525 2.66627 3.069C3.70914 1.944 5.47877 1.12275 8.43752 1.12275C11.3963 1.12275 13.1625 1.94175 14.2088 3.069C15.2663 4.2165 15.75 5.859 15.75 7.87275C15.75 9.49275 15.4305 10.8877 14.751 11.9677L14.7488 11.9689Z" fill="#484848"/>
</g>
<defs>
<clipPath id="clip0_7458_80051">
<rect width="18" height="18" fill="white"/>
</clipPath>
</defs>
</svg>
