<svg width="108" height="42" viewBox="0 0 108 42" fill="none" xmlns="http://www.w3.org/2000/svg">
<rect x="1.25" y="0.5" width="106" height="41" rx="9.5" stroke="#3AAFA9"/>
<mask id="mask0_7090_146575" style="mask-type:alpha" maskUnits="userSpaceOnUse" x="16" y="9" width="25" height="24">
<rect x="16.75" y="9" width="24" height="24" fill="#D9D9D9"/>
</mask>
<g mask="url(#mask0_7090_146575)">
<path d="M28.7508 23.9719C28.6174 23.9719 28.4924 23.951 28.3758 23.9094C28.2591 23.8677 28.1508 23.7969 28.0508 23.6969L23.4508 19.0969C23.2674 18.9135 23.1758 18.6802 23.1758 18.3969C23.1758 18.1135 23.2674 17.8802 23.4508 17.6969C23.6341 17.5135 23.8674 17.4219 24.1508 17.4219C24.4341 17.4219 24.6674 17.5135 24.8508 17.6969L28.7508 21.5969L32.6508 17.6969C32.8341 17.5135 33.0674 17.4219 33.3508 17.4219C33.6341 17.4219 33.8674 17.5135 34.0508 17.6969C34.2341 17.8802 34.3258 18.1135 34.3258 18.3969C34.3258 18.6802 34.2341 18.9135 34.0508 19.0969L29.4508 23.6969C29.3508 23.7969 29.2424 23.8677 29.1258 23.9094C29.0091 23.951 28.8841 23.9719 28.7508 23.9719Z" fill="#3AAFA9"/>
</g>
<path d="M54.7578 23.9609C54.7578 24.638 54.5885 25.2161 54.25 25.6953C53.9167 26.1693 53.4479 26.5312 52.8438 26.7812C52.2396 27.0312 51.5286 27.1562 50.7109 27.1562C50.2786 27.1562 49.8698 27.1354 49.4844 27.0938C49.099 27.0521 48.7448 26.9922 48.4219 26.9141C48.099 26.8359 47.8151 26.7396 47.5703 26.625V25.3516C47.9609 25.513 48.4375 25.6641 49 25.8047C49.5625 25.9401 50.151 26.0078 50.7656 26.0078C51.3385 26.0078 51.8229 25.9323 52.2188 25.7812C52.6146 25.625 52.9141 25.4036 53.1172 25.1172C53.3255 24.8255 53.4297 24.4766 53.4297 24.0703C53.4297 23.6797 53.3438 23.3542 53.1719 23.0938C53 22.8281 52.7135 22.5885 52.3125 22.375C51.9167 22.1562 51.375 21.9245 50.6875 21.6797C50.2031 21.5078 49.776 21.3203 49.4062 21.1172C49.0365 20.9089 48.7266 20.6745 48.4766 20.4141C48.2266 20.1536 48.0365 19.8516 47.9062 19.5078C47.7812 19.1641 47.7188 18.7708 47.7188 18.3281C47.7188 17.7188 47.8724 17.1979 48.1797 16.7656C48.4922 16.3281 48.9219 15.9948 49.4688 15.7656C50.0208 15.5312 50.6536 15.4141 51.3672 15.4141C51.9766 15.4141 52.5391 15.4714 53.0547 15.5859C53.5755 15.7005 54.0521 15.8542 54.4844 16.0469L54.0703 17.1875C53.6589 17.0156 53.2214 16.8724 52.7578 16.7578C52.2995 16.6432 51.8255 16.5859 51.3359 16.5859C50.8464 16.5859 50.4323 16.6589 50.0938 16.8047C49.7604 16.9453 49.5052 17.1458 49.3281 17.4062C49.151 17.6667 49.0625 17.9766 49.0625 18.3359C49.0625 18.737 49.1458 19.0703 49.3125 19.3359C49.4844 19.6016 49.7552 19.8385 50.125 20.0469C50.5 20.25 50.9948 20.4635 51.6094 20.6875C52.2812 20.9323 52.8516 21.1927 53.3203 21.4688C53.7891 21.7396 54.1458 22.0729 54.3906 22.4688C54.6354 22.8594 54.7578 23.3568 54.7578 23.9609ZM60.1953 18.2812C60.9245 18.2812 61.5495 18.4427 62.0703 18.7656C62.5911 19.0885 62.9896 19.5417 63.2656 20.125C63.5417 20.7031 63.6797 21.3802 63.6797 22.1562V22.9609H57.7656C57.7812 23.9661 58.0312 24.7318 58.5156 25.2578C59 25.7839 59.6823 26.0469 60.5625 26.0469C61.1042 26.0469 61.5833 25.9974 62 25.8984C62.4167 25.7995 62.849 25.6536 63.2969 25.4609V26.6016C62.8646 26.7943 62.4349 26.9349 62.0078 27.0234C61.5859 27.112 61.0859 27.1562 60.5078 27.1562C59.6849 27.1562 58.9661 26.9896 58.3516 26.6562C57.7422 26.3177 57.2682 25.8229 56.9297 25.1719C56.5911 24.5208 56.4219 23.724 56.4219 22.7812C56.4219 21.8594 56.5755 21.0625 56.8828 20.3906C57.1953 19.7135 57.6328 19.1927 58.1953 18.8281C58.763 18.4635 59.4297 18.2812 60.1953 18.2812ZM60.1797 19.3438C59.487 19.3438 58.9349 19.5703 58.5234 20.0234C58.112 20.4766 57.8672 21.1094 57.7891 21.9219H62.3203C62.3151 21.4115 62.2344 20.9635 62.0781 20.5781C61.9271 20.1875 61.6953 19.8854 61.3828 19.6719C61.0703 19.4531 60.6693 19.3438 60.1797 19.3438ZM67.1875 27H65.8828V14.8438H67.1875V27ZM73.2266 18.2812C73.9557 18.2812 74.5807 18.4427 75.1016 18.7656C75.6224 19.0885 76.0208 19.5417 76.2969 20.125C76.5729 20.7031 76.7109 21.3802 76.7109 22.1562V22.9609H70.7969C70.8125 23.9661 71.0625 24.7318 71.5469 25.2578C72.0312 25.7839 72.7135 26.0469 73.5938 26.0469C74.1354 26.0469 74.6146 25.9974 75.0312 25.8984C75.4479 25.7995 75.8802 25.6536 76.3281 25.4609V26.6016C75.8958 26.7943 75.4661 26.9349 75.0391 27.0234C74.6172 27.112 74.1172 27.1562 73.5391 27.1562C72.7161 27.1562 71.9974 26.9896 71.3828 26.6562C70.7734 26.3177 70.2995 25.8229 69.9609 25.1719C69.6224 24.5208 69.4531 23.724 69.4531 22.7812C69.4531 21.8594 69.6068 21.0625 69.9141 20.3906C70.2266 19.7135 70.6641 19.1927 71.2266 18.8281C71.7943 18.4635 72.4609 18.2812 73.2266 18.2812ZM73.2109 19.3438C72.5182 19.3438 71.9661 19.5703 71.5547 20.0234C71.1432 20.4766 70.8984 21.1094 70.8203 21.9219H75.3516C75.3464 21.4115 75.2656 20.9635 75.1094 20.5781C74.9583 20.1875 74.7266 19.8854 74.4141 19.6719C74.1016 19.4531 73.7005 19.3438 73.2109 19.3438ZM82.3438 27.1562C81.5729 27.1562 80.8932 26.9974 80.3047 26.6797C79.7161 26.362 79.2578 25.8776 78.9297 25.2266C78.6016 24.5755 78.4375 23.7552 78.4375 22.7656C78.4375 21.7292 78.6094 20.8828 78.9531 20.2266C79.3021 19.5651 79.7812 19.0755 80.3906 18.7578C81 18.4401 81.6927 18.2812 82.4688 18.2812C82.8958 18.2812 83.3073 18.3255 83.7031 18.4141C84.1042 18.4974 84.4323 18.6042 84.6875 18.7344L84.2969 19.8203C84.0365 19.7161 83.7344 19.6224 83.3906 19.5391C83.0521 19.4557 82.7344 19.4141 82.4375 19.4141C81.8438 19.4141 81.349 19.5417 80.9531 19.7969C80.5625 20.0521 80.2682 20.4271 80.0703 20.9219C79.8776 21.4167 79.7812 22.026 79.7812 22.75C79.7812 23.4427 79.875 24.0339 80.0625 24.5234C80.2552 25.013 80.5391 25.388 80.9141 25.6484C81.2943 25.9036 81.7682 26.0312 82.3359 26.0312C82.7891 26.0312 83.1979 25.9844 83.5625 25.8906C83.9271 25.7917 84.2578 25.6771 84.5547 25.5469V26.7031C84.2682 26.849 83.9479 26.9609 83.5938 27.0391C83.2448 27.1172 82.8281 27.1562 82.3438 27.1562ZM89.3516 26.0938C89.5651 26.0938 89.7839 26.0755 90.0078 26.0391C90.2318 26.0026 90.4141 25.9583 90.5547 25.9062V26.9141C90.4036 26.9818 90.1927 27.0391 89.9219 27.0859C89.6562 27.1328 89.3958 27.1562 89.1406 27.1562C88.6875 27.1562 88.276 27.0781 87.9062 26.9219C87.5365 26.7604 87.2396 26.4896 87.0156 26.1094C86.7969 25.7292 86.6875 25.2031 86.6875 24.5312V19.4531H85.4688V18.8203L86.6953 18.3125L87.2109 16.4531H87.9922V18.4375H90.5V19.4531H87.9922V24.4922C87.9922 25.0286 88.1146 25.4297 88.3594 25.6953C88.6094 25.9609 88.9401 26.0938 89.3516 26.0938Z" fill="#3AAFA9"/>
</svg>
