<svg width="25" height="24" viewBox="0 0 25 24" fill="none" xmlns="http://www.w3.org/2000/svg">
<rect x="0.75" width="24" height="24" rx="6" fill="#3AAFA9"/>
<mask id="mask0_7090_144360" style="mask-type:alpha" maskUnits="userSpaceOnUse" x="4" y="4" width="17" height="16">
<rect x="4.75" y="4" width="16" height="16" fill="#FF6F61"/>
</mask>
<g mask="url(#mask0_7090_144360)">
<path d="M16.084 18.6693C15.5284 18.6693 15.0562 18.4748 14.6673 18.0859C14.2784 17.697 14.084 17.2248 14.084 16.6693C14.084 16.6026 14.1007 16.4471 14.134 16.2026L9.45065 13.4693C9.27287 13.6359 9.06732 13.7665 8.83398 13.8609C8.60065 13.9554 8.35065 14.0026 8.08398 14.0026C7.52843 14.0026 7.05621 13.8082 6.66732 13.4193C6.27843 13.0304 6.08398 12.5582 6.08398 12.0026C6.08398 11.447 6.27843 10.9748 6.66732 10.5859C7.05621 10.197 7.52843 10.0026 8.08398 10.0026C8.35065 10.0026 8.60065 10.0498 8.83398 10.1443C9.06732 10.2387 9.27287 10.3693 9.45065 10.5359L14.134 7.8026C14.1118 7.72483 14.0979 7.64983 14.0923 7.5776C14.0868 7.50538 14.084 7.42483 14.084 7.33594C14.084 6.78038 14.2784 6.30816 14.6673 5.91927C15.0562 5.53038 15.5284 5.33594 16.084 5.33594C16.6395 5.33594 17.1118 5.53038 17.5007 5.91927C17.8895 6.30816 18.084 6.78038 18.084 7.33594C18.084 7.89149 17.8895 8.36372 17.5007 8.7526C17.1118 9.14149 16.6395 9.33594 16.084 9.33594C15.8173 9.33594 15.5673 9.28872 15.334 9.19427C15.1007 9.09983 14.8951 8.96927 14.7173 8.8026L10.034 11.5359C10.0562 11.6137 10.0701 11.6887 10.0757 11.7609C10.0812 11.8332 10.084 11.9137 10.084 12.0026C10.084 12.0915 10.0812 12.172 10.0757 12.2443C10.0701 12.3165 10.0562 12.3915 10.034 12.4693L14.7173 15.2026C14.8951 15.0359 15.1007 14.9054 15.334 14.8109C15.5673 14.7165 15.8173 14.6693 16.084 14.6693C16.6395 14.6693 17.1118 14.8637 17.5007 15.2526C17.8895 15.6415 18.084 16.1137 18.084 16.6693C18.084 17.2248 17.8895 17.697 17.5007 18.0859C17.1118 18.4748 16.6395 18.6693 16.084 18.6693ZM16.084 17.3359C16.2729 17.3359 16.4312 17.272 16.559 17.1443C16.6868 17.0165 16.7507 16.8582 16.7507 16.6693C16.7507 16.4804 16.6868 16.322 16.559 16.1943C16.4312 16.0665 16.2729 16.0026 16.084 16.0026C15.8951 16.0026 15.7368 16.0665 15.609 16.1943C15.4812 16.322 15.4173 16.4804 15.4173 16.6693C15.4173 16.8582 15.4812 17.0165 15.609 17.1443C15.7368 17.272 15.8951 17.3359 16.084 17.3359ZM8.08398 12.6693C8.27287 12.6693 8.43121 12.6054 8.55898 12.4776C8.68676 12.3498 8.75065 12.1915 8.75065 12.0026C8.75065 11.8137 8.68676 11.6554 8.55898 11.5276C8.43121 11.3998 8.27287 11.3359 8.08398 11.3359C7.8951 11.3359 7.73676 11.3998 7.60898 11.5276C7.48121 11.6554 7.41732 11.8137 7.41732 12.0026C7.41732 12.1915 7.48121 12.3498 7.60898 12.4776C7.73676 12.6054 7.8951 12.6693 8.08398 12.6693ZM16.084 8.0026C16.2729 8.0026 16.4312 7.93872 16.559 7.81094C16.6868 7.68316 16.7507 7.52483 16.7507 7.33594C16.7507 7.14705 16.6868 6.98872 16.559 6.86094C16.4312 6.73316 16.2729 6.66927 16.084 6.66927C15.8951 6.66927 15.7368 6.73316 15.609 6.86094C15.4812 6.98872 15.4173 7.14705 15.4173 7.33594C15.4173 7.52483 15.4812 7.68316 15.609 7.81094C15.7368 7.93872 15.8951 8.0026 16.084 8.0026Z" fill="white"/>
</g>
</svg>
