<svg width="25" height="24" viewBox="0 0 25 24" fill="none" xmlns="http://www.w3.org/2000/svg">
<g clip-path="url(#clip0_7084_90385)">
<path d="M12.0004 18.0016V9.60156M12.0004 9.60156L15.6004 13.2016M12.0004 9.60156L8.40039 13.2016" stroke="#5C5C5C" stroke-width="2" stroke-linecap="round" stroke-linejoin="round"/>
<path d="M16.7992 6H11.9992H7.19922" stroke="#5C5C5C" stroke-width="2" stroke-linecap="round"/>
<path d="M12 1C14.8566 1 16.8984 1.00233 18.4502 1.21094C19.9732 1.4157 20.8733 1.80295 21.5352 2.46484C22.1971 3.12675 22.5843 4.02682 22.7891 5.5498C22.9977 7.10154 23 9.1434 23 12C23 14.8566 22.9977 16.8984 22.7891 18.4502C22.5843 19.9732 22.1971 20.8733 21.5352 21.5352C20.8733 22.1971 19.9732 22.5843 18.4502 22.7891C16.8984 22.9977 14.8566 23 12 23C9.1434 23 7.10154 22.9977 5.5498 22.7891C4.12207 22.5971 3.24166 22.2449 2.5918 21.6562L2.46484 21.5352L2.34375 21.4082C1.75512 20.7584 1.4029 19.878 1.21094 18.4502C1.00233 16.8984 1 14.8566 1 12C1 9.1434 1.00233 7.10155 1.21094 5.5498C1.4157 4.02681 1.80293 3.12675 2.46484 2.46484C3.12675 1.80293 4.02681 1.4157 5.5498 1.21094C7.10155 1.00233 9.1434 1 12 1Z" stroke="#5C5C5C" stroke-width="2"/>
</g>
<defs>
<clipPath id="clip0_7084_90385">
<rect width="24" height="24" fill="white" transform="translate(0.25)"/>
</clipPath>
</defs>
</svg>
