<svg width="19" height="18" viewBox="0 0 19 18" fill="none" xmlns="http://www.w3.org/2000/svg">
<path d="M9.5 5.25V9.75" stroke="#484848" stroke-width="1.5" stroke-linecap="round"/>
<path d="M9.5 12.75C9.91421 12.75 10.25 12.4142 10.25 12C10.25 11.5858 9.91421 11.25 9.5 11.25C9.08579 11.25 8.75 11.5858 8.75 12C8.75 12.4142 9.08579 12.75 9.5 12.75Z" fill="#484848"/>
<path d="M7.412 2.25C8.297 1.74975 8.8775 1.5 9.5 1.5C10.3355 1.5 11.096 1.95 12.6177 2.8515L13.1323 3.156C14.654 4.0575 15.4145 4.50825 15.8323 5.25C16.25 5.9925 16.25 6.8925 16.25 8.6955V9.3045C16.25 11.1068 16.25 12.0082 15.8323 12.75C15.4145 13.4918 14.654 13.9425 13.1323 14.8433L12.6177 15.1485C11.096 16.0492 10.3355 16.5 9.5 16.5C8.6645 16.5 7.904 16.05 6.38225 15.1485L5.86775 14.8433C4.346 13.9433 3.5855 13.4918 3.16775 12.75C2.75 12.0075 2.75 11.1075 2.75 9.3045V8.6955C2.75 6.8925 2.75 5.99175 3.16775 5.25C3.497 4.665 4.03925 4.2615 5 3.675" stroke="#484848" stroke-width="1.5" stroke-linecap="round"/>
</svg>
