<svg width="33" height="32" viewBox="0 0 33 32" fill="none" xmlns="http://www.w3.org/2000/svg">
<rect x="1.5" y="1" width="30" height="30" rx="15" stroke="#1E4D92" stroke-width="2"/>
<path d="M18.5 8H14.5C10.7288 8 8.84315 8 7.67157 9.17157C6.82803 10.0151 6.59185 11.2288 6.52572 13.25H26.4743C26.4082 11.2288 26.172 10.0151 25.3284 9.17157C24.1569 8 22.2712 8 18.5 8Z" fill="#1E4D92"/>
<path fill-rule="evenodd" clip-rule="evenodd" d="M18.5 24H14.5C10.7288 24 8.84315 24 7.67157 22.8284C6.5 21.6569 6.5 19.7712 6.5 16C6.5 15.5581 6.5 15.142 6.50189 14.75H26.4981C26.5 15.142 26.5 15.5581 26.5 16C26.5 19.7712 26.5 21.6569 25.3284 22.8284C24.1569 24 22.2712 24 18.5 24ZM20.5447 16.25C20.9776 16.2499 21.3744 16.2499 21.6972 16.2933C22.0527 16.3411 22.4284 16.4535 22.7374 16.7626C23.0465 17.0716 23.1589 17.4473 23.2067 17.8028C23.2501 18.1256 23.2501 18.5224 23.25 18.9553V19.0447C23.2501 19.4776 23.2501 19.8744 23.2067 20.1972C23.1589 20.5527 23.0465 20.9284 22.7374 21.2374C22.4284 21.5465 22.0527 21.6589 21.6972 21.7067C21.3744 21.7501 20.9776 21.7501 20.5447 21.75L20.5 21.75L20.4553 21.75C20.0224 21.7501 19.6256 21.7501 19.3028 21.7067C18.9473 21.6589 18.5716 21.5465 18.2626 21.2374C17.9535 20.9284 17.8411 20.5527 17.7933 20.1972C17.7499 19.8744 17.7499 19.4776 17.75 19.0447L17.75 19L17.75 18.9553C17.7499 18.5224 17.7499 18.1256 17.7933 17.8028C17.8411 17.4473 17.9535 17.0716 18.2626 16.7626C18.5716 16.4535 18.9473 16.3411 19.3028 16.2933C19.6256 16.2499 20.0224 16.2499 20.4553 16.25H20.5447ZM9.75 17.5C9.75 17.0858 10.0858 16.75 10.5 16.75H12.5C12.9142 16.75 13.25 17.0858 13.25 17.5C13.25 17.9142 12.9142 18.25 12.5 18.25H10.5C10.0858 18.25 9.75 17.9142 9.75 17.5ZM9.75 20.5C9.75 20.0858 10.0858 19.75 10.5 19.75H14.5C14.9142 19.75 15.25 20.0858 15.25 20.5C15.25 20.9142 14.9142 21.25 14.5 21.25H10.5C10.0858 21.25 9.75 20.9142 9.75 20.5Z" fill="#1E4D92"/>
<path d="M19.3233 17.8232L19.3257 17.8219C19.3276 17.8209 19.3309 17.8192 19.336 17.8172C19.3577 17.8082 19.4061 17.7929 19.5027 17.7799C19.7134 17.7516 20.0074 17.75 20.5 17.75C20.9926 17.75 21.2866 17.7516 21.4973 17.7799C21.5939 17.7929 21.6423 17.8082 21.664 17.8172C21.6691 17.8192 21.6724 17.8209 21.6743 17.8219L21.6768 17.8232L21.6781 17.8257C21.6791 17.8276 21.6808 17.8309 21.6828 17.836C21.6918 17.8577 21.7071 17.9061 21.7201 18.0027C21.7484 18.2134 21.75 18.5074 21.75 19C21.75 19.4926 21.7484 19.7866 21.7201 19.9973C21.7071 20.0939 21.6918 20.1423 21.6828 20.164C21.6808 20.1691 21.6791 20.1724 21.6781 20.1743L21.6768 20.1768L21.6743 20.1781C21.6724 20.1791 21.6691 20.1808 21.664 20.1828C21.6423 20.1918 21.5939 20.2071 21.4973 20.2201C21.2866 20.2484 20.9926 20.25 20.5 20.25C20.0074 20.25 19.7134 20.2484 19.5027 20.2201C19.4061 20.2071 19.3577 20.1918 19.336 20.1828C19.3309 20.1808 19.3276 20.1791 19.3257 20.1781L19.3232 20.1768L19.3219 20.1743C19.3209 20.1724 19.3192 20.1691 19.3172 20.164C19.3082 20.1423 19.2929 20.0939 19.2799 19.9973C19.2516 19.7866 19.25 19.4926 19.25 19C19.25 18.5074 19.2516 18.2134 19.2799 18.0027C19.2929 17.9061 19.3082 17.8577 19.3172 17.836C19.3192 17.8309 19.3209 17.8276 19.3219 17.8257L19.3233 17.8232Z" fill="#1E4D92"/>
</svg>
