<svg width="32" height="32" viewBox="0 0 32 32" fill="none" xmlns="http://www.w3.org/2000/svg">
<rect x="1" y="1" width="30" height="30" rx="15" stroke="#1E4D92" stroke-width="2"/>
<path fill-rule="evenodd" clip-rule="evenodd" d="M14 8H18C21.7712 8 23.6569 8 24.8284 9.17157C26 10.3431 26 12.2288 26 16C26 19.7712 26 21.6569 24.8284 22.8284C23.6569 24 21.7712 24 18 24H14C10.2288 24 8.34315 24 7.17157 22.8284C6 21.6569 6 19.7712 6 16C6 12.2288 6 10.3431 7.17157 9.17157C8.34315 8 10.2288 8 14 8ZM17.25 13C17.25 12.5858 17.5858 12.25 18 12.25H23C23.4142 12.25 23.75 12.5858 23.75 13C23.75 13.4142 23.4142 13.75 23 13.75H18C17.5858 13.75 17.25 13.4142 17.25 13ZM18.25 16C18.25 15.5858 18.5858 15.25 19 15.25H23C23.4142 15.25 23.75 15.5858 23.75 16C23.75 16.4142 23.4142 16.75 23 16.75H19C18.5858 16.75 18.25 16.4142 18.25 16ZM19.25 19C19.25 18.5858 19.5858 18.25 20 18.25H23C23.4142 18.25 23.75 18.5858 23.75 19C23.75 19.4142 23.4142 19.75 23 19.75H20C19.5858 19.75 19.25 19.4142 19.25 19ZM15 13C15 14.1046 14.1046 15 13 15C11.8954 15 11 14.1046 11 13C11 11.8954 11.8954 11 13 11C14.1046 11 15 11.8954 15 13ZM13 21C17 21 17 20.1046 17 19C17 17.8954 15.2091 17 13 17C10.7909 17 9 17.8954 9 19C9 20.1046 9 21 13 21Z" fill="#1E4D92"/>
</svg>
