<svg width="23" height="22" viewBox="0 0 23 22" fill="none" xmlns="http://www.w3.org/2000/svg">
<path fill-rule="evenodd" clip-rule="evenodd" d="M11.25 2C11.5968 2 11.8779 2.28113 11.8779 2.6279V2.8384C11.971 2.83981 12.0505 2.84286 12.1245 2.84941C13.6401 2.98342 14.8413 4.18471 14.9753 5.70018C14.9876 5.83869 14.9876 5.99561 14.9876 6.22609V7.25012C14.9876 10.4895 12.5227 13.1532 9.36629 13.4681V15.1861C9.36629 17.1512 10.9593 18.7442 12.9244 18.7442H13.6632C14.7098 18.7442 15.6242 18.1735 16.1106 17.3257C14.8669 16.9082 13.9709 15.7331 13.9709 14.3488C13.9709 12.6148 15.3765 11.2093 17.1105 11.2093C18.8444 11.2093 20.25 12.6148 20.25 14.3488C20.25 15.9734 19.016 17.3097 17.4343 17.4718C16.8251 18.9549 15.3669 20 13.6632 20H12.9244C10.2658 20 8.11048 17.8447 8.11048 15.1861V13.4693C4.82166 13.1534 2.25001 10.3825 2.25001 7.01092L2.25 6.22614C2.24998 5.99564 2.24996 5.8387 2.26221 5.70018C2.39622 4.18471 3.59752 2.98342 5.113 2.84941C5.24333 2.83788 5.38996 2.83722 5.59885 2.8372V2.6279C5.59885 2.28113 5.87997 2 6.22675 2C6.57353 2 6.85466 2.28113 6.85466 2.6279V4.30231C6.85466 4.64909 6.57353 4.93022 6.22675 4.93022C5.87997 4.93022 5.59885 4.64909 5.59885 4.30231V4.09303C5.37832 4.09318 5.29236 4.09425 5.22361 4.10034C4.31433 4.18074 3.59355 4.90152 3.51314 5.8108C3.50644 5.88664 3.50582 5.98344 3.50582 6.25878V7.01092C3.50582 9.90079 5.84852 12.2435 8.73838 12.2435C11.4961 12.2435 13.7317 10.0079 13.7317 7.25012V6.25878C13.7317 5.98344 13.7312 5.88664 13.7244 5.8108C13.644 4.90152 12.9232 4.18074 12.014 4.10034C11.9785 4.0972 11.9385 4.0954 11.8779 4.09437V4.30231C11.8779 4.64909 11.5968 4.93022 11.25 4.93022C10.9032 4.93022 10.6221 4.64909 10.6221 4.30231V2.6279C10.6221 2.28113 10.9032 2 11.25 2ZM15.2267 14.3488C15.2267 13.3085 16.0701 12.4651 17.1105 12.4651C18.1508 12.4651 18.9942 13.3085 18.9942 14.3488C18.9942 15.3891 18.1508 16.2325 17.1105 16.2325C16.0701 16.2325 15.2267 15.3891 15.2267 14.3488Z" fill="#484848"/>
</svg>
