<svg width="16" height="16" viewBox="0 0 16 16" fill="none" xmlns="http://www.w3.org/2000/svg">
<path d="M5.1657 10.8605L10.88 5.14621M0.571411 12.5748C0.571411 12.8775 0.691505 13.1678 0.905338 13.3821C1.11917 13.5964 1.40927 13.717 1.71198 13.7176H14.288C14.5907 13.717 14.8808 13.5964 15.0946 13.3821C15.3085 13.1678 15.4286 12.8775 15.4286 12.5748V10.2502C14.9351 10.1164 14.4994 9.82386 14.1888 9.41777C13.8781 9.01168 13.7098 8.51463 13.7098 8.00335C13.7098 7.49207 13.8781 6.99501 14.1888 6.58892C14.4994 6.18284 14.9351 5.8903 15.4286 5.75649V3.43192C15.4286 3.12921 15.3085 2.83887 15.0946 2.6246C14.8808 2.41034 14.5907 2.28967 14.288 2.28906H1.71198C1.40927 2.28967 1.11917 2.41034 0.905338 2.6246C0.691505 2.83887 0.571411 3.12921 0.571411 3.43192V5.75192C1.0688 5.88274 1.50888 6.17459 1.82291 6.5819C2.13694 6.98921 2.30725 7.48904 2.30725 8.00335C2.30725 8.51766 2.13694 9.01749 1.82291 9.4248C1.50888 9.8321 1.0688 10.124 0.571411 10.2548V12.5748Z" stroke="#484848" stroke-linecap="round" stroke-linejoin="round"/>
<path d="M5.73714 6.29129C5.88869 6.29129 6.03404 6.23109 6.1412 6.12393C6.24836 6.01676 6.30857 5.87142 6.30857 5.71987C6.30857 5.56831 6.24836 5.42297 6.1412 5.31581C6.03404 5.20864 5.88869 5.14844 5.73714 5.14844C5.58559 5.14844 5.44024 5.20864 5.33308 5.31581C5.22591 5.42297 5.16571 5.56831 5.16571 5.71987C5.16571 5.87142 5.22591 6.01676 5.33308 6.12393C5.44024 6.23109 5.58559 6.29129 5.73714 6.29129ZM10.3086 10.8627C10.4601 10.8627 10.6055 10.8025 10.7126 10.6954C10.8198 10.5882 10.88 10.4428 10.88 10.2913C10.88 10.1397 10.8198 9.9944 10.7126 9.88723C10.6055 9.78007 10.4601 9.71987 10.3086 9.71987C10.157 9.71987 10.0117 9.78007 9.90451 9.88723C9.79734 9.9944 9.73714 10.1397 9.73714 10.2913C9.73714 10.4428 9.79734 10.5882 9.90451 10.6954C10.0117 10.8025 10.157 10.8627 10.3086 10.8627Z" stroke="#484848" stroke-linecap="round" stroke-linejoin="round"/>
</svg>
