<svg width="73" height="72" viewBox="0 0 73 72" fill="none" xmlns="http://www.w3.org/2000/svg">
<path d="M38.8553 64.052C39.7898 64.2774 39.8754 65.5462 38.9651 65.8608L33.5906 67.6944C20.0861 72.2079 12.9767 68.4349 8.58856 54.4359L4.23447 40.5074C-0.119622 26.5083 3.48611 19.1033 16.9906 14.5897L18.773 13.9778C20.1434 13.5074 21.4771 14.9322 21.088 16.3733C20.8951 17.0876 20.7095 17.833 20.5283 18.6096L17.1947 33.3844C13.4529 49.9929 18.9295 59.161 34.9512 63.1103L38.8553 64.052Z" fill="#F79E1B"/>
<path d="M54.1364 4.99847L48.4557 3.62325C37.0942 0.837547 30.325 3.12958 26.3451 11.663C25.3246 13.814 24.5082 16.4234 23.8279 19.4207L20.4943 34.1955C17.1607 48.935 21.5488 56.199 35.7336 59.6899L41.4483 61.1004C43.4213 61.5941 45.2582 61.9114 46.959 62.0525C57.5721 63.1103 63.2188 57.9621 66.0762 45.2325L69.4098 30.4929C72.7434 15.7534 68.3893 8.45415 54.1364 4.99847ZM47.7414 40.6837C47.4352 41.8826 46.4147 42.6583 45.2582 42.6583C45.0541 42.6583 44.85 42.6231 44.6119 42.5878L34.7131 39.9784C33.3525 39.6258 32.5361 38.1801 32.8762 36.7696C33.2164 35.3591 34.6111 34.5128 35.9717 34.8654L45.8705 37.4748C47.2651 37.8274 48.0815 39.2732 47.7414 40.6837ZM57.7081 28.7651C57.402 29.964 56.3815 30.7398 55.225 30.7398C55.0209 30.7398 54.8168 30.7045 54.5786 30.6692L38.0807 26.332C36.7201 25.9794 35.9037 24.5336 36.2438 23.1232C36.584 21.7127 37.9787 20.8664 39.3393 21.219L55.8372 25.5562C57.2319 25.8736 58.0483 27.3193 57.7081 28.7651Z" fill="#F79E1B"/>
</svg>
