<svg width="72" height="72" viewBox="0 0 72 72" fill="none" xmlns="http://www.w3.org/2000/svg">
<path d="M38.3536 64.052C39.2882 64.2774 39.3738 65.5462 38.4635 65.8608L33.089 67.6944C19.5845 72.2079 12.4751 68.4349 8.08695 54.4359L3.73286 40.5074C-0.621232 26.5083 2.9845 19.1033 16.489 14.5897L18.2714 13.9778C19.6418 13.5074 20.9755 14.9322 20.5864 16.3733C20.3935 17.0876 20.2079 17.833 20.0267 18.6096L16.6931 33.3844C12.9513 49.9929 18.4279 59.161 34.4496 63.1103L38.3536 64.052Z" fill="#FF6F61"/>
<path d="M53.6348 4.99847L47.9541 3.62325C36.5926 0.837547 29.8234 3.12958 25.8435 11.663C24.823 13.814 24.0066 16.4234 23.3263 19.4207L19.9927 34.1955C16.6591 48.935 21.0472 56.199 35.232 59.6899L40.9467 61.1004C42.9197 61.5941 44.7566 61.9114 46.4574 62.0525C57.0705 63.1103 62.7172 57.9621 65.5746 45.2325L68.9082 30.4929C72.2418 15.7534 67.8877 8.45415 53.6348 4.99847ZM47.2398 40.6837C46.9336 41.8826 45.9131 42.6583 44.7566 42.6583C44.5525 42.6583 44.3484 42.6231 44.1102 42.5878L34.2115 39.9784C32.8508 39.6258 32.0345 38.1801 32.3746 36.7696C32.7148 35.3591 34.1094 34.5128 35.4701 34.8654L45.3689 37.4748C46.7635 37.8274 47.5799 39.2732 47.2398 40.6837ZM57.2065 28.7651C56.9004 29.964 55.8799 30.7398 54.7233 30.7398C54.5192 30.7398 54.3151 30.7045 54.077 30.6692L37.5791 26.332C36.2185 25.9794 35.4021 24.5336 35.7422 23.1232C36.0824 21.7127 37.4771 20.8664 38.8377 21.219L55.3356 25.5562C56.7303 25.8736 57.5467 27.3193 57.2065 28.7651Z" fill="#FF6F61"/>
</svg>
