<svg width="44" height="20" viewBox="0 0 44 20" fill="none" xmlns="http://www.w3.org/2000/svg">
<path d="M4.2585 14.6234H4.52889L4.27567 15.6749C4.23705 15.8294 4.24563 15.9495 4.29713 16.0268C4.34863 16.104 4.44305 16.1427 4.58468 16.1427C4.72202 16.1427 4.8379 16.104 4.92803 16.0268C5.01816 15.9495 5.07825 15.8294 5.11687 15.6749L5.37009 14.6234H5.64477L5.38726 15.7006C5.33147 15.9324 5.23275 16.1083 5.08683 16.2242C4.9452 16.3401 4.75636 16.4002 4.5246 16.4002C4.29284 16.4002 4.13404 16.3444 4.0482 16.2285C3.96237 16.1126 3.9452 15.9367 4.00099 15.7049L4.2585 14.6234ZM5.60614 16.353L6.03533 14.5547L6.85078 15.6105C6.87224 15.6405 6.8937 15.6706 6.91516 15.7049C6.93662 15.7392 6.95808 15.7779 6.98383 15.8208L7.27138 14.6234H7.5246L7.09541 16.4173L6.2628 15.3401L6.19842 15.25C6.17696 15.2156 6.15979 15.1856 6.14692 15.147L5.85936 16.3487H5.60614V16.353ZM7.50314 16.353L7.91516 14.6234H8.18983L7.77782 16.353H7.50314ZM8.16838 16.353L8.58039 14.6234H9.52031L9.46451 14.8637H8.79928L8.69627 15.2929H9.36151L9.30142 15.5375H8.63619L8.44305 16.3487H8.16838V16.353ZM9.41301 16.353L9.82503 14.6234H10.0997L9.68769 16.353H9.41301ZM10.0782 16.353L10.4903 14.6234H11.4302L11.3744 14.8637H10.7091L10.6061 15.2972H11.2714L11.2113 15.5418H10.5461L10.413 16.0998H11.0782L11.0182 16.353H10.0782ZM11.3358 16.353L11.7478 14.6234H12.1169C12.3572 14.6234 12.5246 14.6362 12.6147 14.662C12.7049 14.6877 12.7821 14.7264 12.8422 14.7864C12.9194 14.8637 12.971 14.9624 12.9924 15.0783C13.0139 15.1985 13.0053 15.3358 12.971 15.486C12.9323 15.6405 12.8765 15.7736 12.7993 15.8937C12.722 16.0139 12.6233 16.1083 12.5074 16.1856C12.4216 16.2457 12.3272 16.2843 12.2242 16.3101C12.1255 16.3358 11.9752 16.3487 11.7778 16.3487H11.3358V16.353ZM11.6705 16.0955H11.9023C12.0267 16.0955 12.1255 16.0869 12.1941 16.0697C12.2628 16.0525 12.3229 16.0225 12.3787 15.9839C12.4559 15.9281 12.5203 15.8594 12.5718 15.7736C12.6233 15.692 12.6619 15.5933 12.6877 15.4817C12.7134 15.3701 12.722 15.2757 12.7091 15.1942C12.6963 15.1126 12.6662 15.0397 12.6147 14.9839C12.5761 14.941 12.5289 14.9152 12.4645 14.898C12.4001 14.8809 12.3014 14.8723 12.1598 14.8723H11.9624L11.6705 16.0955ZM14.2328 15.5761L14.0482 16.353H13.7907L14.2027 14.6234H14.619C14.7435 14.6234 14.8293 14.6319 14.8851 14.6448C14.9409 14.6577 14.9838 14.6792 15.0182 14.7135C15.0611 14.7521 15.0911 14.8079 15.104 14.8766C15.1169 14.9452 15.1126 15.0182 15.0954 15.0998C15.074 15.1813 15.0439 15.2586 14.9967 15.3272C14.9495 15.3959 14.8937 15.4517 14.8336 15.4903C14.7821 15.5204 14.7263 15.5461 14.6662 15.559C14.6061 15.5719 14.5117 15.5804 14.3916 15.5804H14.2328V15.5761ZM14.3057 15.3444H14.3744C14.5246 15.3444 14.6319 15.3272 14.692 15.2929C14.7521 15.2585 14.7907 15.1985 14.8122 15.1126C14.8336 15.0225 14.8207 14.9538 14.7778 14.9195C14.7306 14.8809 14.6362 14.8637 14.4946 14.8637H14.4259L14.3057 15.3444ZM16.0267 16.353L15.9409 15.9066H15.2714L14.971 16.353H14.6834L15.928 14.5547L16.3143 16.353H16.0267ZM15.4345 15.6706H15.9023L15.825 15.2757C15.8207 15.25 15.8164 15.2199 15.8164 15.1899C15.8122 15.1555 15.8122 15.1212 15.8122 15.0826C15.795 15.1212 15.7778 15.1555 15.7564 15.1899C15.7392 15.2242 15.722 15.2543 15.7049 15.28L15.4345 15.6706ZM16.7091 16.353L16.898 15.5633L16.5546 14.6276H16.8422L17.0568 15.2156C17.0611 15.2328 17.0654 15.25 17.074 15.2757C17.0825 15.3015 17.0868 15.3272 17.0954 15.353L17.1469 15.2757C17.1641 15.25 17.1813 15.2285 17.1984 15.207L17.7006 14.6276H17.9752L17.1727 15.559L16.9838 16.3487H16.7091V16.353ZM19.3229 15.4989C19.3229 15.486 19.3272 15.4474 19.3358 15.3873C19.34 15.3358 19.3443 15.2972 19.3486 15.2628C19.3315 15.3015 19.3143 15.3401 19.2928 15.383C19.2714 15.4216 19.2456 15.4646 19.2156 15.5032L18.5546 16.4259L18.34 15.486C18.3315 15.4474 18.3229 15.4088 18.3186 15.3744C18.3143 15.3401 18.31 15.3015 18.31 15.2671C18.3014 15.3015 18.2885 15.3401 18.2757 15.383C18.2628 15.4216 18.2456 15.4646 18.2242 15.5075L17.8379 16.3573H17.5847L18.413 14.5547L18.6491 15.6448C18.6534 15.662 18.6576 15.692 18.6619 15.7307C18.6662 15.7693 18.6748 15.8208 18.6834 15.8809C18.7134 15.8294 18.7521 15.7693 18.8036 15.692C18.8164 15.6706 18.8293 15.6577 18.8336 15.6448L19.5804 14.5547L19.5546 16.3573H19.3014L19.3229 15.4989ZM19.7778 16.353L20.1898 14.6234H21.1297L21.074 14.8637H20.4087L20.3057 15.2972H20.971L20.9109 15.5418H20.2456L20.1126 16.0998H20.7778L20.7177 16.353H19.7778ZM21.031 16.353L21.4602 14.5547L22.2757 15.6105C22.2971 15.6405 22.3186 15.6706 22.34 15.7049C22.3615 15.7392 22.383 15.7779 22.4087 15.8208L22.6963 14.6234H22.9495L22.5203 16.4173L21.6877 15.3401L21.6233 15.25C21.6019 15.2156 21.5847 15.1856 21.5718 15.147L21.2843 16.3487H21.031V16.353ZM23.825 14.8594L23.4688 16.3487H23.1941L23.5503 14.8594H23.104L23.1598 14.6191H24.3272L24.2714 14.8594H23.825ZM24.1126 16.0053L24.3572 15.9023C24.3615 15.9796 24.383 16.0397 24.4302 16.0783C24.4774 16.1169 24.5418 16.1384 24.6276 16.1384C24.7091 16.1384 24.7778 16.1169 24.8379 16.0697C24.898 16.0225 24.9366 15.9624 24.9538 15.8852C24.9795 15.7822 24.9194 15.692 24.7735 15.6148C24.7521 15.6019 24.7392 15.5933 24.7263 15.589C24.5632 15.4946 24.4602 15.4131 24.4173 15.3358C24.3744 15.2585 24.3658 15.1684 24.3916 15.0611C24.4259 14.9195 24.4988 14.8079 24.6147 14.7178C24.7306 14.6319 24.8594 14.5847 25.0139 14.5847C25.1383 14.5847 25.237 14.6105 25.31 14.6577C25.383 14.7049 25.4216 14.7779 25.4345 14.868L25.1941 14.9796C25.1727 14.9238 25.1469 14.8852 25.1126 14.8594C25.0782 14.8337 25.0353 14.8208 24.9838 14.8208C24.9109 14.8208 24.8465 14.8422 24.795 14.8809C24.7435 14.9195 24.7091 14.971 24.692 15.0397C24.6662 15.1427 24.7392 15.2414 24.9066 15.3315C24.9194 15.3401 24.928 15.3444 24.9366 15.3487C25.0825 15.4259 25.1812 15.5032 25.2242 15.5804C25.2671 15.6577 25.2757 15.7478 25.2499 15.8637C25.2113 16.0268 25.1297 16.1555 25.0053 16.2543C24.8808 16.3487 24.7349 16.4002 24.5632 16.4002C24.4216 16.4002 24.31 16.3658 24.2328 16.2972C24.1469 16.2285 24.1083 16.1298 24.1126 16.0053ZM26.134 16.353L26.5461 14.6234H26.8207L26.4087 16.353H26.134ZM26.8036 16.353L27.2328 14.5547L28.0482 15.6105C28.0697 15.6405 28.0911 15.6706 28.1126 15.7049C28.134 15.7392 28.1555 15.7779 28.1813 15.8208L28.4688 14.6234H28.722L28.2928 16.4173L27.4602 15.3401L27.3958 15.25C27.3744 15.2156 27.3572 15.1856 27.3443 15.147L27.0568 16.3487H26.8036V16.353ZM29.5976 14.8594L29.2413 16.3487H28.9667L29.3229 14.8594H28.8765L28.9323 14.6191H30.0997L30.0439 14.8594H29.5976ZM29.8937 16.353L30.3057 14.6234H31.2499L31.1941 14.8637H30.5289L30.4259 15.2972H31.0911L31.031 15.5418H30.3658L30.2328 16.0998H30.898L30.8379 16.353H29.8937ZM31.589 15.5761L31.4044 16.3487H31.1469L31.5589 14.6191H31.9409C32.0525 14.6191 32.1383 14.6276 32.1941 14.6405C32.2542 14.6534 32.3014 14.6792 32.3358 14.7135C32.3787 14.7564 32.4044 14.8079 32.4173 14.8766C32.4302 14.941 32.4259 15.0139 32.4087 15.0955C32.3744 15.2328 32.3186 15.3444 32.2328 15.4216C32.1469 15.4989 32.0396 15.5461 31.9109 15.5633L32.3014 16.3487H31.9924L31.619 15.5761H31.589ZM31.6576 15.3573H31.7092C31.8551 15.3573 31.9538 15.3401 32.0096 15.3058C32.0654 15.2714 32.104 15.2113 32.1255 15.1212C32.1469 15.0268 32.1383 14.9581 32.0954 14.9195C32.0525 14.8809 31.9624 14.8594 31.825 14.8594H31.7735L31.6576 15.3573ZM32.4688 16.353L32.8808 14.6234H33.8207L33.7649 14.8637H33.0997L32.9967 15.2929H33.6619L33.6019 15.5375H32.9366L32.7435 16.3487H32.4688V16.353ZM34.7349 16.353L34.6491 15.9066H33.9795L33.6791 16.353H33.3916L34.6362 14.5547L35.0225 16.353H34.7349ZM34.1383 15.6706H34.6061L34.5289 15.2757C34.5246 15.25 34.5203 15.2199 34.5203 15.1899C34.516 15.1555 34.516 15.1212 34.516 15.0826C34.4988 15.1212 34.4817 15.1555 34.4602 15.1899C34.4431 15.2242 34.4259 15.2543 34.4087 15.28L34.1383 15.6706ZM36.8079 15.044C36.7478 14.9753 36.6748 14.9238 36.5976 14.8937C36.5203 14.8594 36.4345 14.8422 36.3358 14.8422C36.1512 14.8422 35.9881 14.9023 35.8422 15.0225C35.6963 15.1427 35.6019 15.3015 35.5546 15.4946C35.5117 15.6792 35.5289 15.8337 35.6147 15.9581C35.6963 16.0783 35.825 16.1384 35.9967 16.1384C36.0954 16.1384 36.1941 16.1212 36.2928 16.0826C36.3916 16.0482 36.4903 15.9925 36.5933 15.9195L36.516 16.2371C36.4302 16.2929 36.3401 16.3315 36.2456 16.3573C36.1512 16.383 36.0568 16.3959 35.9538 16.3959C35.825 16.3959 35.7091 16.3744 35.6104 16.3315C35.5117 16.2886 35.4302 16.2242 35.3658 16.1384C35.3014 16.0568 35.2628 15.9581 35.2456 15.8465C35.2285 15.7349 35.2328 15.6148 35.2671 15.486C35.2971 15.3573 35.3486 15.2414 35.4173 15.1298C35.486 15.0182 35.5761 14.9195 35.6791 14.8379C35.7821 14.7521 35.8937 14.6877 36.0139 14.6448C36.134 14.6019 36.2542 14.5804 36.3787 14.5804C36.4774 14.5804 36.5675 14.5933 36.6534 14.6234C36.7349 14.6534 36.8122 14.6963 36.8808 14.7564L36.8079 15.044ZM36.8336 16.353L37.2456 14.6234H38.1855L38.1297 14.8637H37.4645L37.3615 15.2972H38.0267L37.9667 15.5418H37.3014L37.1684 16.0998H37.8336L37.7735 16.353H36.8336Z" fill="#3D3D3C"/>
<path d="M31.8395 13.1112H29.9554L32.5734 3.65625H34.4576L31.8395 13.1112ZM30.861 3.95239C30.7322 3.77213 30.5305 3.682 30.2558 3.682H19.9039L19.3932 5.53608H28.8095L28.2601 7.51462H20.7279V7.51033H18.8438L17.2816 13.1541H19.1657L20.2129 9.3687H28.6807C28.9468 9.3687 29.1958 9.27857 29.4275 9.09831C29.6593 8.91805 29.8138 8.69488 29.8867 8.42878L30.934 4.64337C31.0155 4.36011 30.9898 4.13264 30.861 3.95239ZM16.1829 12.5189C16.0799 12.8923 15.7365 13.1541 15.3503 13.1541H5.63782C5.37173 13.1541 5.1743 13.064 5.04555 12.8837C4.91679 12.7035 4.88675 12.4803 4.964 12.2142L7.3331 3.682H9.21722L7.10134 11.3043H14.6378L16.7537 3.682H18.6378L16.1829 12.5189Z" fill="#70706E"/>
<path d="M37.7125 3.67969L40.0945 8.41789L35.0859 13.1561L37.7125 3.67969Z" fill="#098041"/>
<path d="M36.0372 3.67969L38.4191 8.41789L33.4062 13.1561L36.0372 3.67969Z" fill="#E97626"/>
</svg>
