<svg width="24" height="24" viewBox="0 0 24 24" fill="none" xmlns="http://www.w3.org/2000/svg">
<path d="M2.29886 17.5512H2.44651L2.30823 18.813C2.28714 18.9984 2.29183 19.1426 2.31995 19.2353C2.34808 19.328 2.39964 19.3743 2.47698 19.3743C2.55198 19.3743 2.61526 19.328 2.66448 19.2353C2.7137 19.1426 2.74651 18.9984 2.76761 18.813L2.90589 17.5512H3.05589L2.91526 18.8439C2.8848 19.122 2.83089 19.3331 2.7512 19.4722C2.67386 19.6112 2.57073 19.6833 2.44417 19.6833C2.31761 19.6833 2.23089 19.6164 2.18401 19.4773C2.13714 19.3383 2.12776 19.1271 2.15823 18.849L2.29886 17.5512ZM3.0348 19.6267L3.26917 17.4688L3.71448 18.7357C3.7262 18.7718 3.73792 18.8078 3.74964 18.849C3.76136 18.8902 3.77308 18.9366 3.78714 18.9881L3.94417 17.5512H4.08245L3.84808 19.7039L3.39339 18.4112L3.35823 18.3031C3.34651 18.2619 3.33714 18.2258 3.33011 18.1795L3.17308 19.6215H3.0348V19.6267ZM4.07073 19.6267L4.29573 17.5512H4.44573L4.22073 19.6267H4.07073ZM4.43401 19.6267L4.65901 17.5512H5.1723L5.14183 17.8396H4.77855L4.7223 18.3546H5.08558L5.05276 18.6481H4.68948L4.58401 19.6215H4.43401V19.6267ZM5.1137 19.6267L5.3387 17.5512H5.4887L5.2637 19.6267H5.1137ZM5.47698 19.6267L5.70198 17.5512H6.21526L6.1848 17.8396H5.82151L5.76526 18.3597H6.12855L6.09573 18.6533H5.73245L5.6598 19.3228H6.02308L5.99026 19.6267H5.47698ZM6.1637 19.6267L6.3887 17.5512H6.59026C6.72151 17.5512 6.81292 17.5666 6.86214 17.5975C6.91136 17.6284 6.95355 17.6748 6.98636 17.7469C7.02855 17.8396 7.05667 17.958 7.06839 18.0971C7.08011 18.2413 7.07542 18.4061 7.05667 18.5863C7.03558 18.7718 7.00511 18.9314 6.96292 19.0756C6.92073 19.2198 6.86683 19.3331 6.80354 19.4258C6.75667 19.4979 6.70511 19.5443 6.64886 19.5752C6.59495 19.6061 6.51292 19.6215 6.40511 19.6215H6.1637V19.6267ZM6.34651 19.3177H6.47308C6.54105 19.3177 6.59495 19.3074 6.63245 19.2868C6.66995 19.2662 6.70276 19.2301 6.73323 19.1838C6.77542 19.1168 6.81058 19.0344 6.8387 18.9314C6.86683 18.8336 6.88792 18.7151 6.90198 18.5812C6.91605 18.4473 6.92073 18.334 6.9137 18.2361C6.90667 18.1383 6.89026 18.0507 6.86214 17.9838C6.84105 17.9323 6.81526 17.9014 6.78011 17.8808C6.74495 17.8602 6.69105 17.8499 6.6137 17.8499H6.50589L6.34651 19.3177ZM7.74573 18.6945L7.64495 19.6267H7.50433L7.72933 17.5512H7.95667C8.02464 17.5512 8.07151 17.5615 8.10198 17.5769C8.13245 17.5924 8.15589 17.6181 8.17464 17.6593C8.19808 17.7057 8.21448 17.7726 8.22151 17.855C8.22855 17.9374 8.2262 18.025 8.21683 18.1228C8.20511 18.2207 8.1887 18.3134 8.16292 18.3958C8.13714 18.4782 8.10667 18.5451 8.07386 18.5915C8.04573 18.6275 8.01526 18.6584 7.98245 18.6739C7.94964 18.6894 7.89808 18.6997 7.83245 18.6997H7.74573V18.6945ZM7.78558 18.4164H7.82308C7.90511 18.4164 7.9637 18.3958 7.99651 18.3546C8.02933 18.3134 8.05042 18.2413 8.06214 18.1383C8.07386 18.0301 8.06683 17.9477 8.04339 17.9065C8.01761 17.8602 7.96605 17.8396 7.8887 17.8396H7.8512L7.78558 18.4164ZM8.72542 19.6267L8.67854 19.0911H8.31292L8.14886 19.6267H7.99183L8.67151 17.4688L8.88245 19.6267H8.72542ZM8.40198 18.8078H8.65745L8.61526 18.334C8.61292 18.3031 8.61058 18.267 8.61058 18.231C8.60823 18.1898 8.60823 18.1486 8.60823 18.1022C8.59886 18.1486 8.58948 18.1898 8.57776 18.231C8.56839 18.2722 8.55901 18.3082 8.54964 18.3391L8.40198 18.8078ZM9.09808 19.6267L9.2012 18.6791L9.0137 17.5563H9.17073L9.28792 18.2619C9.29026 18.2825 9.29261 18.3031 9.2973 18.334C9.30198 18.3649 9.30433 18.3958 9.30901 18.4267L9.33714 18.334C9.34651 18.3031 9.35589 18.2773 9.36526 18.2516L9.63948 17.5563H9.78948L9.3512 18.6739L9.24808 19.6215H9.09808V19.6267ZM10.5254 18.6018C10.5254 18.5863 10.5278 18.54 10.5325 18.4679C10.5348 18.4061 10.5371 18.3597 10.5395 18.3185C10.5301 18.3649 10.5207 18.4112 10.509 18.4627C10.4973 18.5091 10.4832 18.5606 10.4668 18.6069L10.1059 19.7142L9.9887 18.5863C9.98401 18.54 9.97933 18.4936 9.97698 18.4524C9.97464 18.4112 9.9723 18.3649 9.9723 18.3237C9.96761 18.3649 9.96058 18.4112 9.95355 18.4627C9.94651 18.5091 9.93714 18.5606 9.92542 18.6121L9.71448 19.6318H9.5762L10.0285 17.4688L10.1575 18.7769C10.1598 18.7975 10.1621 18.8336 10.1645 18.8799C10.1668 18.9263 10.1715 18.9881 10.1762 19.0602C10.1926 18.9984 10.2137 18.9263 10.2418 18.8336C10.2489 18.8078 10.2559 18.7924 10.2582 18.7769L10.666 17.4688L10.652 19.6318H10.5137L10.5254 18.6018ZM10.7739 19.6267L10.9989 17.5512H11.5121L11.4817 17.8396H11.1184L11.0621 18.3597H11.4254L11.3926 18.6533H11.0293L10.9567 19.3228H11.32L11.2871 19.6267H10.7739ZM11.4582 19.6267L11.6926 17.4688L12.1379 18.7357C12.1496 18.7718 12.1614 18.8078 12.1731 18.849C12.1848 18.8902 12.1965 18.9366 12.2106 18.9881L12.3676 17.5512H12.5059L12.2715 19.7039L11.8168 18.4112L11.7817 18.3031C11.77 18.2619 11.7606 18.2258 11.7535 18.1795L11.5965 19.6215H11.4582V19.6267ZM12.984 17.8344L12.7895 19.6215H12.6395L12.834 17.8344H12.5903L12.6207 17.546H13.2582L13.2278 17.8344H12.984ZM13.141 19.2095L13.2746 19.0859C13.277 19.1786 13.2887 19.2507 13.3145 19.2971C13.3403 19.3434 13.3754 19.3692 13.4223 19.3692C13.4668 19.3692 13.5043 19.3434 13.5371 19.2868C13.57 19.2301 13.591 19.158 13.6004 19.0653C13.6145 18.9417 13.5817 18.8336 13.502 18.7409C13.4903 18.7254 13.4832 18.7151 13.4762 18.71C13.3871 18.5966 13.3309 18.4988 13.3075 18.4061C13.284 18.3134 13.2793 18.2052 13.2934 18.0765C13.3121 17.9065 13.352 17.7726 13.4153 17.6645C13.4785 17.5615 13.5489 17.5048 13.6332 17.5048C13.7012 17.5048 13.7551 17.5357 13.795 17.5924C13.8348 17.649 13.8559 17.7366 13.8629 17.8447L13.7317 17.9786C13.72 17.9117 13.7059 17.8653 13.6871 17.8344C13.6684 17.8035 13.645 17.7881 13.6168 17.7881C13.577 17.7881 13.5418 17.8138 13.5137 17.8602C13.4856 17.9065 13.4668 17.9683 13.4575 18.0507C13.4434 18.1743 13.4832 18.2928 13.5746 18.4009C13.5817 18.4112 13.5864 18.4164 13.591 18.4215C13.6707 18.5142 13.7246 18.6069 13.7481 18.6997C13.7715 18.7924 13.7762 18.9005 13.7621 19.0396C13.741 19.2353 13.6965 19.3898 13.6285 19.5082C13.5606 19.6215 13.4809 19.6833 13.3871 19.6833C13.3098 19.6833 13.2489 19.6421 13.2067 19.5597C13.1598 19.4773 13.1387 19.3589 13.141 19.2095ZM14.245 19.6267L14.47 17.5512H14.62L14.395 19.6267H14.245ZM14.6106 19.6267L14.845 17.4688L15.2903 18.7357C15.302 18.7718 15.3137 18.8078 15.3254 18.849C15.3371 18.8902 15.3489 18.9366 15.3629 18.9881L15.52 17.5512H15.6582L15.4239 19.7039L14.9692 18.4112L14.934 18.3031C14.9223 18.2619 14.9129 18.2258 14.9059 18.1795L14.7489 19.6215H14.6106V19.6267ZM16.1364 17.8344L15.9418 19.6215H15.7918L15.9864 17.8344H15.7426L15.7731 17.546H16.4106L16.3801 17.8344H16.1364ZM16.2981 19.6267L16.5231 17.5512H17.0387L17.0082 17.8396H16.645L16.5887 18.3597H16.952L16.9192 18.6533H16.5559L16.4832 19.3228H16.8465L16.8137 19.6267H16.2981ZM17.2239 18.6945L17.1231 19.6215H16.9825L17.2075 17.546H17.416C17.477 17.546 17.5239 17.5563 17.5543 17.5718C17.5871 17.5872 17.6129 17.6181 17.6317 17.6593C17.6551 17.7108 17.6692 17.7726 17.6762 17.855C17.6832 17.9323 17.6809 18.0198 17.6715 18.1177C17.6528 18.2825 17.6223 18.4164 17.5754 18.5091C17.5285 18.6018 17.47 18.6584 17.3996 18.6791L17.6129 19.6215H17.4442L17.2403 18.6945H17.2239ZM17.2614 18.4318H17.2895C17.3692 18.4318 17.4231 18.4112 17.4535 18.37C17.484 18.3288 17.5051 18.2567 17.5168 18.1486C17.5285 18.0353 17.5239 17.9529 17.5004 17.9065C17.477 17.8602 17.4278 17.8344 17.3528 17.8344H17.3246L17.2614 18.4318ZM17.7043 19.6267L17.9293 17.5512H18.4426L18.4121 17.8396H18.0489L17.9926 18.3546H18.3559L18.3231 18.6481H17.9598L17.8543 19.6215H17.7043V19.6267ZM18.9418 19.6267L18.895 19.0911H18.5293L18.3653 19.6267H18.2082L18.8879 17.4688L19.0989 19.6267H18.9418ZM18.616 18.8078H18.8715L18.8293 18.334C18.827 18.3031 18.8246 18.267 18.8246 18.231C18.8223 18.1898 18.8223 18.1486 18.8223 18.1022C18.8129 18.1486 18.8035 18.1898 18.7918 18.231C18.7825 18.2722 18.7731 18.3082 18.7637 18.3391L18.616 18.8078ZM20.0739 18.0559C20.041 17.9735 20.0012 17.9117 19.959 17.8756C19.9168 17.8344 19.87 17.8138 19.816 17.8138C19.7153 17.8138 19.6262 17.8859 19.5465 18.0301C19.4668 18.1743 19.4153 18.3649 19.3895 18.5966C19.366 18.8181 19.3754 19.0035 19.4223 19.1529C19.4668 19.2971 19.5371 19.3692 19.6309 19.3692C19.6848 19.3692 19.7387 19.3486 19.7926 19.3022C19.8465 19.261 19.9004 19.1941 19.9567 19.1065L19.9145 19.4876C19.8676 19.5546 19.8184 19.6009 19.7668 19.6318C19.7153 19.6627 19.6637 19.6782 19.6075 19.6782C19.5371 19.6782 19.4739 19.6524 19.42 19.6009C19.366 19.5494 19.3215 19.4722 19.2864 19.3692C19.2512 19.2713 19.2301 19.1529 19.2207 19.019C19.2114 18.8851 19.2137 18.7409 19.2325 18.5863C19.2489 18.4318 19.277 18.2928 19.3145 18.1589C19.352 18.025 19.4012 17.9065 19.4575 17.8087C19.5137 17.7057 19.5746 17.6284 19.6403 17.5769C19.7059 17.5254 19.7715 17.4997 19.8395 17.4997C19.8934 17.4997 19.9426 17.5151 19.9895 17.5512C20.034 17.5872 20.0762 17.6387 20.1137 17.7108L20.0739 18.0559ZM20.0879 19.6267L20.3129 17.5512H20.8262L20.7957 17.8396H20.4325L20.3762 18.3597H20.7395L20.7067 18.6533H20.3434L20.2707 19.3228H20.634L20.6012 19.6267H20.0879Z" fill="black"/>
<path d="M17.3596 15.7365H16.3307L17.7604 4.39062H18.7893L17.3596 15.7365ZM16.8252 4.74599C16.7549 4.52968 16.6448 4.42153 16.4948 4.42153H10.8416L10.5627 6.64642H15.7049L15.4049 9.02067H11.2916V9.01552H10.2627L9.4096 15.788H10.4385L11.0104 11.2456H15.6346C15.7799 11.2456 15.9159 11.1374 16.0424 10.9211C16.169 10.7048 16.2534 10.437 16.2932 10.1177L16.8651 5.57517C16.9096 5.23526 16.8955 4.9623 16.8252 4.74599ZM8.8096 15.0258C8.75335 15.4739 8.56585 15.788 8.35491 15.788H3.05101C2.9057 15.788 2.79788 15.6799 2.72757 15.4636C2.65726 15.2473 2.64085 14.9795 2.68304 14.6602L3.97679 4.42153H5.0057L3.85023 13.5683H7.96585L9.12132 4.42153H10.1502L8.8096 15.0258Z" fill="black"/>
<path d="M20.5658 4.41406L21.8666 10.0999L19.1315 15.7857L20.5658 4.41406Z" fill="#28A745"/>
<path d="M19.6519 4.41406L20.9527 10.0999L18.2152 15.7857L19.6519 4.41406Z" fill="#E97626"/>
</svg>
