<svg width="76" height="22" viewBox="0 0 76 22" fill="none" xmlns="http://www.w3.org/2000/svg">
<path d="M30.9177 14.2674H29.0335L31.6516 4.8125H33.5357L30.9177 14.2674ZM29.9391 5.10864C29.8104 4.92838 29.6087 4.83825 29.334 4.83825H18.982L18.4713 6.69233H27.8876L27.3383 8.67087H19.8061V8.66658H17.922L16.3597 14.3104H18.2438L19.2911 10.5249H27.7589C28.025 10.5249 28.2739 10.4348 28.5056 10.2546C28.7374 10.0743 28.8919 9.85113 28.9649 9.58503L30.0121 5.79962C30.0936 5.51636 30.0679 5.28889 29.9391 5.10864ZM15.261 13.6752C15.158 14.0486 14.8147 14.3104 14.4284 14.3104H4.71595C4.44985 14.3104 4.25243 14.2202 4.12367 14.04C3.99492 13.8597 3.96487 13.6365 4.04213 13.3704L6.41122 4.83825H8.29535L6.17947 12.4606H13.7159L15.8318 4.83825H17.7159L15.261 13.6752Z" fill="#484848"/>
<path d="M35.1661 4.8125L37.548 9.5507L32.5352 14.2889L35.1661 4.8125Z" fill="#E97626"/>
<path d="M39.1735 4.8125L41.5555 9.5507L36.5469 14.2889L39.1735 4.8125Z" fill="#28A745"/>
<path d="M4.28975 15.3812H4.56014L4.30692 16.4327C4.2683 16.5872 4.27688 16.7073 4.32838 16.7846C4.37988 16.8619 4.4743 16.9005 4.61593 16.9005C4.75327 16.9005 4.86915 16.8619 4.95928 16.7846C5.04941 16.7073 5.1095 16.5872 5.14812 16.4327L5.40134 15.3812H5.67602L5.41851 16.4584C5.36272 16.6902 5.264 16.8661 5.11808 16.982C4.97645 17.0979 4.78761 17.158 4.55585 17.158C4.32409 17.158 4.16529 17.1022 4.07945 16.9863C3.99362 16.8704 3.97645 16.6945 4.03224 16.4627L4.28975 15.3812ZM5.63739 17.1108L6.06658 15.3125L6.88203 16.3683C6.90349 16.3983 6.92495 16.4284 6.94641 16.4627C6.96787 16.497 6.98933 16.5357 7.01508 16.5786L7.30263 15.3812H7.55585L7.12666 17.1752L6.29405 16.0979L6.22967 16.0078C6.20821 15.9734 6.19104 15.9434 6.17817 15.9048L5.89061 17.1065H5.63739V17.1108ZM7.53439 17.1108L7.94641 15.3812H8.22108L7.80907 17.1108H7.53439ZM8.19963 17.1108L8.61164 15.3812H9.55156L9.49576 15.6215H8.83053L8.72752 16.0507H9.39276L9.33267 16.2953H8.66744L8.4743 17.1065H8.19963V17.1108ZM9.44426 17.1108L9.85628 15.3812H10.131L9.71894 17.1108H9.44426ZM10.1095 17.1108L10.5215 15.3812H11.4614L11.4056 15.6215H10.7404L10.6374 16.055H11.3026L11.2425 16.2996H10.5773L10.4443 16.8576H11.1095L11.0494 17.1108H10.1095ZM11.367 17.1108L11.779 15.3812H12.1481C12.3885 15.3812 12.5558 15.394 12.646 15.4198C12.7361 15.4455 12.8134 15.4842 12.8734 15.5443C12.9507 15.6215 13.0022 15.7202 13.0237 15.8361C13.0451 15.9563 13.0365 16.0936 13.0022 16.2438C12.9636 16.3983 12.9078 16.5314 12.8305 16.6516C12.7533 16.7717 12.6546 16.8661 12.5387 16.9434C12.4528 17.0035 12.3584 17.0421 12.2554 17.0679C12.1567 17.0936 12.0065 17.1065 11.8091 17.1065H11.367V17.1108ZM11.7018 16.8533H11.9335C12.058 16.8533 12.1567 16.8447 12.2254 16.8275C12.294 16.8104 12.3541 16.7803 12.4099 16.7417C12.4872 16.6859 12.5516 16.6172 12.6031 16.5314C12.6546 16.4498 12.6932 16.3511 12.7189 16.2395C12.7447 16.128 12.7533 16.0335 12.7404 15.952C12.7275 15.8704 12.6975 15.7975 12.646 15.7417C12.6074 15.6988 12.5601 15.673 12.4958 15.6558C12.4314 15.6387 12.3327 15.6301 12.191 15.6301H11.9936L11.7018 16.8533ZM14.264 16.334L14.0795 17.1108H13.8219L14.234 15.3812H14.6503C14.7747 15.3812 14.8606 15.3898 14.9164 15.4026C14.9722 15.4155 15.0151 15.437 15.0494 15.4713C15.0923 15.5099 15.1224 15.5657 15.1352 15.6344C15.1481 15.7031 15.1438 15.776 15.1267 15.8576C15.1052 15.9391 15.0752 16.0164 15.028 16.085C14.9807 16.1537 14.9249 16.2095 14.8649 16.2481C14.8134 16.2782 14.7576 16.3039 14.6975 16.3168C14.6374 16.3297 14.543 16.3383 14.4228 16.3383H14.264V16.334ZM14.337 16.1022H14.4056C14.5558 16.1022 14.6631 16.085 14.7232 16.0507C14.7833 16.0164 14.8219 15.9563 14.8434 15.8704C14.8649 15.7803 14.852 15.7116 14.8091 15.6773C14.7619 15.6387 14.6674 15.6215 14.5258 15.6215H14.4571L14.337 16.1022ZM16.058 17.1108L15.9722 16.6644H15.3026L15.0022 17.1108H14.7146L15.9593 15.3125L16.3455 17.1108H16.058ZM15.4657 16.4284H15.9335L15.8563 16.0335C15.852 16.0078 15.8477 15.9777 15.8477 15.9477C15.8434 15.9134 15.8434 15.879 15.8434 15.8404C15.8262 15.879 15.8091 15.9134 15.7876 15.9477C15.7704 15.982 15.7533 16.0121 15.7361 16.0378L15.4657 16.4284ZM16.7404 17.1108L16.9292 16.3211L16.5859 15.3855H16.8734L17.088 15.9734C17.0923 15.9906 17.0966 16.0078 17.1052 16.0335C17.1138 16.0593 17.1181 16.085 17.1267 16.1108L17.1782 16.0335C17.1953 16.0078 17.2125 15.9863 17.2297 15.9649L17.7318 15.3855H18.0065L17.2039 16.3168L17.0151 17.1065H16.7404V17.1108ZM19.3541 16.2567C19.3541 16.2438 19.3584 16.2052 19.367 16.1451C19.3713 16.0936 19.3756 16.055 19.3799 16.0207C19.3627 16.0593 19.3455 16.0979 19.3241 16.1408C19.3026 16.1795 19.2769 16.2224 19.2468 16.261L18.5859 17.1837L18.3713 16.2438C18.3627 16.2052 18.3541 16.1666 18.3498 16.1322C18.3455 16.0979 18.3413 16.0593 18.3413 16.0249C18.3327 16.0593 18.3198 16.0979 18.3069 16.1408C18.294 16.1795 18.2769 16.2224 18.2554 16.2653L17.8692 17.1151H17.6159L18.4443 15.3125L18.6803 16.4026C18.6846 16.4198 18.6889 16.4498 18.6932 16.4885C18.6975 16.5271 18.7061 16.5786 18.7146 16.6387C18.7447 16.5872 18.7833 16.5271 18.8348 16.4498C18.8477 16.4284 18.8606 16.4155 18.8649 16.4026L19.6116 15.3125L19.5859 17.1151H19.3327L19.3541 16.2567ZM19.8091 17.1108L20.2211 15.3812H21.161L21.1052 15.6215H20.44L20.337 16.055H21.0022L20.9421 16.2996H20.2769L20.1438 16.8576H20.8091L20.749 17.1108H19.8091ZM21.0623 17.1108L21.4915 15.3125L22.3069 16.3683C22.3284 16.3983 22.3498 16.4284 22.3713 16.4627C22.3928 16.497 22.4142 16.5357 22.44 16.5786L22.7275 15.3812H22.9807L22.5516 17.1752L21.7189 16.0979L21.6546 16.0078C21.6331 15.9734 21.6159 15.9434 21.6031 15.9048L21.3155 17.1065H21.0623V17.1108ZM23.8563 15.6172L23.5001 17.1065H23.2254L23.5816 15.6172H23.1352L23.191 15.3769H24.3584L24.3026 15.6172H23.8563ZM24.1438 16.7631L24.3885 16.6601C24.3928 16.7374 24.4142 16.7975 24.4614 16.8361C24.5086 16.8747 24.573 16.8962 24.6589 16.8962C24.7404 16.8962 24.8091 16.8747 24.8692 16.8275C24.9292 16.7803 24.9679 16.7202 24.985 16.643C25.0108 16.54 24.9507 16.4498 24.8048 16.3726C24.7833 16.3597 24.7704 16.3511 24.7576 16.3468C24.5945 16.2524 24.4915 16.1709 24.4486 16.0936C24.4056 16.0164 24.3971 15.9262 24.4228 15.8189C24.4571 15.6773 24.5301 15.5657 24.646 15.4756C24.7619 15.3898 24.8906 15.3425 25.0451 15.3425C25.1696 15.3425 25.2683 15.3683 25.3413 15.4155C25.4142 15.4627 25.4528 15.5357 25.4657 15.6258L25.2254 15.7374C25.2039 15.6816 25.1782 15.643 25.1438 15.6172C25.1095 15.5915 25.0666 15.5786 25.0151 15.5786C24.9421 15.5786 24.8777 15.6001 24.8262 15.6387C24.7747 15.6773 24.7404 15.7288 24.7232 15.7975C24.6975 15.9005 24.7704 15.9992 24.9378 16.0893C24.9507 16.0979 24.9593 16.1022 24.9679 16.1065C25.1138 16.1837 25.2125 16.261 25.2554 16.3383C25.2983 16.4155 25.3069 16.5056 25.2812 16.6215C25.2425 16.7846 25.161 16.9134 25.0365 17.0121C24.9121 17.1065 24.7661 17.158 24.5945 17.158C24.4528 17.158 24.3413 17.1237 24.264 17.055C24.1782 16.9863 24.1395 16.8876 24.1438 16.7631ZM26.1653 17.1108L26.5773 15.3812H26.852L26.44 17.1108H26.1653ZM26.8348 17.1108L27.264 15.3125L28.0795 16.3683C28.1009 16.3983 28.1224 16.4284 28.1438 16.4627C28.1653 16.497 28.1868 16.5357 28.2125 16.5786L28.5001 15.3812H28.7533L28.3241 17.1752L27.4915 16.0979L27.4271 16.0078C27.4056 15.9734 27.3885 15.9434 27.3756 15.9048L27.088 17.1065H26.8348V17.1108ZM29.6288 15.6172L29.2726 17.1065H28.9979L29.3541 15.6172H28.9078L28.9636 15.3769H30.131L30.0752 15.6172H29.6288ZM29.9249 17.1108L30.337 15.3812H31.2812L31.2254 15.6215H30.5601L30.4571 16.055H31.1224L31.0623 16.2996H30.3971L30.264 16.8576H30.9292L30.8692 17.1108H29.9249ZM31.6202 16.334L31.4357 17.1065H31.1782L31.5902 15.3769H31.9722C32.0837 15.3769 32.1696 15.3855 32.2254 15.3983C32.2855 15.4112 32.3327 15.437 32.367 15.4713C32.4099 15.5142 32.4357 15.5657 32.4486 15.6344C32.4614 15.6988 32.4571 15.7717 32.44 15.8533C32.4056 15.9906 32.3498 16.1022 32.264 16.1795C32.1782 16.2567 32.0709 16.3039 31.9421 16.3211L32.3327 17.1065H32.0237L31.6503 16.334H31.6202ZM31.6889 16.1151H31.7404C31.8863 16.1151 31.985 16.0979 32.0408 16.0636C32.0966 16.0292 32.1353 15.9692 32.1567 15.879C32.1782 15.7846 32.1696 15.7159 32.1267 15.6773C32.0837 15.6387 31.9936 15.6172 31.8563 15.6172H31.8048L31.6889 16.1151ZM32.5001 17.1108L32.9121 15.3812H33.852L33.7962 15.6215H33.131L33.028 16.0507H33.6932L33.6331 16.2953H32.9679L32.7747 17.1065H32.5001V17.1108ZM34.7662 17.1108L34.6803 16.6644H34.0108L33.7104 17.1108H33.4228L34.6674 15.3125L35.0537 17.1108H34.7662ZM34.1696 16.4284H34.6374L34.5601 16.0335C34.5559 16.0078 34.5516 15.9777 34.5516 15.9477C34.5473 15.9134 34.5473 15.879 34.5473 15.8404C34.5301 15.879 34.5129 15.9134 34.4915 15.9477C34.4743 15.982 34.4571 16.0121 34.44 16.0378L34.1696 16.4284ZM36.8391 15.8018C36.779 15.7331 36.7061 15.6816 36.6288 15.6516C36.5516 15.6172 36.4657 15.6001 36.367 15.6001C36.1825 15.6001 36.0194 15.6601 35.8734 15.7803C35.7275 15.9005 35.6331 16.0593 35.5859 16.2524C35.543 16.437 35.5601 16.5915 35.646 16.7159C35.7275 16.8361 35.8563 16.8962 36.028 16.8962C36.1267 16.8962 36.2254 16.879 36.3241 16.8404C36.4228 16.8061 36.5215 16.7503 36.6245 16.6773L36.5473 16.9949C36.4614 17.0507 36.3713 17.0893 36.2769 17.1151C36.1825 17.1408 36.088 17.1537 35.985 17.1537C35.8563 17.1537 35.7404 17.1322 35.6417 17.0893C35.543 17.0464 35.4614 16.982 35.3971 16.8962C35.3327 16.8146 35.294 16.7159 35.2769 16.6043C35.2597 16.4928 35.264 16.3726 35.2983 16.2438C35.3284 16.1151 35.3799 15.9992 35.4486 15.8876C35.5172 15.776 35.6074 15.6773 35.7104 15.5958C35.8134 15.5099 35.9249 15.4455 36.0451 15.4026C36.1653 15.3597 36.2855 15.3383 36.4099 15.3383C36.5086 15.3383 36.5988 15.3511 36.6846 15.3812C36.7662 15.4112 36.8434 15.4541 36.9121 15.5142L36.8391 15.8018ZM36.8649 17.1108L37.2769 15.3812H38.2168L38.161 15.6215H37.4958L37.3928 16.055H38.058L37.9979 16.2996H37.3327L37.1996 16.8576H37.8649L37.8048 17.1108H36.8649Z" fill="#1F1F1F"/>
</svg>
