<svg width="17" height="16" viewBox="0 0 17 16" fill="none" xmlns="http://www.w3.org/2000/svg">
<path d="M10.8479 11.9315C10.7341 11.9315 10.6218 11.8794 10.549 11.7808C10.4271 11.6159 10.462 11.3834 10.627 11.2615C12.233 10.0749 13.3261 9.03504 13.788 8.25427C14.2127 7.53635 14.3939 6.87382 14.3939 6.039C14.3939 4.03717 12.9806 3.14111 11.58 3.14111C10.2894 3.14111 9.71928 3.84735 9.49432 4.26829C9.41445 4.41776 9.25933 4.51069 9.08945 4.51082C9.08935 4.51082 9.08922 4.51082 9.08907 4.51082C8.91934 4.51082 8.76422 4.41814 8.6842 4.2689C8.45837 3.84769 7.88647 3.14109 6.59361 3.14109C5.23348 3.14109 4.19318 3.92211 3.87865 5.17935C3.82889 5.37826 3.62731 5.4992 3.42833 5.44945C3.22939 5.3997 3.10845 5.19804 3.15823 4.99913C3.55345 3.41929 4.90189 2.39844 6.59361 2.39844C7.92749 2.39844 8.68219 2.99896 9.08874 3.53038C9.49432 2.99888 10.2475 2.39844 11.5799 2.39844C12.5382 2.39844 13.4201 2.73372 14.0633 3.34252C14.7654 4.00708 15.1365 4.93947 15.1365 6.03892C15.1365 7.00315 14.9177 7.80293 14.4271 8.63228C13.7801 9.72583 12.2434 10.9904 11.0682 11.8587C11.0019 11.9078 10.9245 11.9315 10.8479 11.9315Z" fill="#484848"/>
<path d="M6.15395 13.5941C6.05582 13.5941 5.96008 13.5663 5.87707 13.5136C5.6154 13.3476 3.29937 11.856 2.57714 10.6351C2.24718 10.0773 2.10004 9.53857 2.10004 8.88812C2.10004 8.13892 2.35499 7.50191 2.83724 7.04586C3.27875 6.62836 3.88235 6.39844 4.53691 6.39844C5.3575 6.39844 5.8622 6.74324 6.15359 7.06249C6.44439 6.74317 6.94824 6.39844 7.76796 6.39844C8.42244 6.39844 9.02581 6.62839 9.46696 7.04596C9.94865 7.50189 10.2033 8.13892 10.2033 8.88809C10.2033 9.53763 10.0559 10.0764 9.7254 10.6351C9.00844 11.847 6.69356 13.3459 6.43197 13.5128C6.34858 13.566 6.25249 13.5941 6.15395 13.5941ZM4.53691 7.14106C3.69358 7.14106 2.84266 7.68129 2.84266 8.88812C2.84266 9.40489 2.95441 9.8143 3.21632 10.257C3.7087 11.0894 5.2391 12.2158 6.15354 12.8086C7.0205 12.2423 8.59782 11.0825 9.08618 10.257C9.34862 9.81336 9.46057 9.40395 9.46057 8.88812C9.46057 7.68129 8.61042 7.14106 7.76788 7.14106C7.03822 7.14106 6.6929 7.50066 6.53173 7.80236C6.4572 7.9419 6.3124 8.02864 6.1539 8.02864C5.99568 8.02864 5.85103 7.94218 5.7764 7.803C5.61446 7.50097 5.26805 7.14106 4.53691 7.14106Z" fill="#484848"/>
</svg>
