<svg width="24" height="25" viewBox="0 0 24 25" fill="none" xmlns="http://www.w3.org/2000/svg">
<mask id="mask0_7268_20600" style="mask-type:alpha" maskUnits="userSpaceOnUse" x="0" y="0" width="24" height="25">
<rect y="0.5" width="24" height="24" fill="#D9D9D9"/>
</mask>
<g mask="url(#mask0_7268_20600)">
<path d="M6 20.4969C5.45 20.4969 4.97917 20.301 4.5875 19.9094C4.19583 19.5177 4 19.0469 4 18.4969V16.4969C4 16.2135 4.09583 15.976 4.2875 15.7844C4.47917 15.5927 4.71667 15.4969 5 15.4969C5.28333 15.4969 5.52083 15.5927 5.7125 15.7844C5.90417 15.976 6 16.2135 6 16.4969V18.4969H18V16.4969C18 16.2135 18.0958 15.976 18.2875 15.7844C18.4792 15.5927 18.7167 15.4969 19 15.4969C19.2833 15.4969 19.5208 15.5927 19.7125 15.7844C19.9042 15.976 20 16.2135 20 16.4969V18.4969C20 19.0469 19.8042 19.5177 19.4125 19.9094C19.0208 20.301 18.55 20.4969 18 20.4969H6ZM11 8.34687L9.125 10.2219C8.925 10.4219 8.6875 10.5177 8.4125 10.5094C8.1375 10.501 7.9 10.3969 7.7 10.1969C7.51667 9.99688 7.42083 9.76354 7.4125 9.49688C7.40417 9.23021 7.5 8.99687 7.7 8.79688L11.3 5.19688C11.4 5.09688 11.5083 5.02604 11.625 4.98438C11.7417 4.94271 11.8667 4.92188 12 4.92188C12.1333 4.92188 12.2583 4.94271 12.375 4.98438C12.4917 5.02604 12.6 5.09688 12.7 5.19688L16.3 8.79688C16.5 8.99687 16.5958 9.23021 16.5875 9.49688C16.5792 9.76354 16.4833 9.99688 16.3 10.1969C16.1 10.3969 15.8625 10.501 15.5875 10.5094C15.3125 10.5177 15.075 10.4219 14.875 10.2219L13 8.34687V15.4969C13 15.7802 12.9042 16.0177 12.7125 16.2094C12.5208 16.401 12.2833 16.4969 12 16.4969C11.7167 16.4969 11.4792 16.401 11.2875 16.2094C11.0958 16.0177 11 15.7802 11 15.4969V8.34687Z" fill="#484848"/>
</g>
</svg>
