<svg width="32" height="32" viewBox="0 0 32 32" fill="none" xmlns="http://www.w3.org/2000/svg">
<mask id="mask0_2380_43376" style="mask-type:alpha" maskUnits="userSpaceOnUse" x="0" y="0" width="32" height="32">
<rect width="32" height="32" fill="#D9D9D9"/>
</mask>
<g mask="url(#mask0_2380_43376)">
<path d="M8.00065 26.6651C7.26732 26.6651 6.63954 26.404 6.11732 25.8818C5.5951 25.3595 5.33398 24.7318 5.33398 23.9984V21.3318C5.33398 20.954 5.46176 20.6373 5.71732 20.3818C5.97287 20.1262 6.28954 19.9984 6.66732 19.9984C7.0451 19.9984 7.36176 20.1262 7.61732 20.3818C7.87287 20.6373 8.00065 20.954 8.00065 21.3318V23.9984H24.0007V21.3318C24.0007 20.954 24.1284 20.6373 24.384 20.3818C24.6395 20.1262 24.9562 19.9984 25.334 19.9984C25.7118 19.9984 26.0284 20.1262 26.284 20.3818C26.5395 20.6373 26.6673 20.954 26.6673 21.3318V23.9984C26.6673 24.7318 26.4062 25.3595 25.884 25.8818C25.3618 26.404 24.734 26.6651 24.0007 26.6651H8.00065ZM14.6673 10.4651L12.1673 12.9651C11.9007 13.2318 11.584 13.3595 11.2173 13.3484C10.8507 13.3373 10.534 13.1984 10.2673 12.9318C10.0229 12.6651 9.8951 12.354 9.88398 11.9984C9.87287 11.6429 10.0007 11.3318 10.2673 11.0651L15.0673 6.2651C15.2007 6.13177 15.3451 6.03733 15.5007 5.98177C15.6562 5.92622 15.8229 5.89844 16.0007 5.89844C16.1784 5.89844 16.3451 5.92622 16.5007 5.98177C16.6562 6.03733 16.8006 6.13177 16.934 6.2651L21.734 11.0651C22.0007 11.3318 22.1284 11.6429 22.1173 11.9984C22.1062 12.354 21.9784 12.6651 21.734 12.9318C21.4673 13.1984 21.1507 13.3373 20.784 13.3484C20.4173 13.3595 20.1006 13.2318 19.834 12.9651L17.334 10.4651V19.9984C17.334 20.3762 17.2062 20.6929 16.9507 20.9484C16.6951 21.204 16.3784 21.3318 16.0007 21.3318C15.6229 21.3318 15.3062 21.204 15.0507 20.9484C14.7951 20.6929 14.6673 20.3762 14.6673 19.9984V10.4651Z" fill="#1E4D92"/>
</g>
</svg>
