<svg width="29" height="29" viewBox="0 0 29 29" fill="none" xmlns="http://www.w3.org/2000/svg">
<g clip-path="url(#clip0_7797_81532)">
<path d="M23.361 4.68395L22.5849 0.6875L2.4043 4.68395V13.4281H23.361V4.68395Z" fill="#5C996D"/>
<path d="M26.0372 18.9905V25.8832C26.0372 27.108 25.0351 28.11 23.8103 28.11H2.40455C1.17977 28.11 0.177734 27.108 0.177734 25.8832V6.91432C0.177734 5.68959 1.17977 4.6875 2.40455 4.6875H12.6896H17.435H23.8103C25.0351 4.6875 26.0372 5.68954 26.0372 6.91432V11.5956V18.9905Z" fill="#FFC107"/>
<path opacity="0.27" d="M23.8103 4.6875H22.071V7.62958V15.0244V21.9171C22.071 23.1419 21.069 24.1439 19.8442 24.1439H0.177734V25.8832C0.177734 27.108 1.17977 28.11 2.40455 28.11H23.8103C25.0351 28.11 26.0372 27.108 26.0372 25.8832V18.9905V11.5956V6.91427C26.0372 5.68954 25.0351 4.6875 23.8103 4.6875Z" fill="#96412B"/>
<path d="M19.8112 11.5938H27.6092C27.9216 11.5938 28.1774 11.8494 28.1774 12.162V18.4203C28.1774 18.7328 27.9217 18.9885 27.6092 18.9885H16.6385C16.326 18.9885 16.0703 18.7328 16.0703 18.4203V12.162C16.0703 11.8495 16.326 11.5938 16.6385 11.5938H19.8112Z" fill="#EEBF00"/>
<path opacity="0.12" d="M27.6092 11.5938H26.1724V16.4153C26.1724 16.7278 25.9167 16.9835 25.6042 16.9835H16.0703V18.4203C16.0703 18.7328 16.326 18.9885 16.6385 18.9885H27.6092C27.9216 18.9885 28.1774 18.7328 28.1774 18.4203V12.162C28.1774 11.8494 27.9217 11.5938 27.6092 11.5938Z" fill="#891C00"/>
<path d="M20.0056 16.9487C20.9191 16.9487 21.6596 16.2081 21.6596 15.2946C21.6596 14.3812 20.9191 13.6406 20.0056 13.6406C19.0921 13.6406 18.3516 14.3812 18.3516 15.2946C18.3516 16.2081 19.0921 16.9487 20.0056 16.9487Z" fill="#CCA400"/>
<g opacity="0.2">
<path d="M2.40464 11.5469C2.16932 11.5469 1.97852 11.3561 1.97852 11.1208V8.35971C1.97852 7.36008 2.79177 6.54688 3.79135 6.54688H6.48493C6.72025 6.54688 6.91106 6.73763 6.91106 6.973C6.91106 7.20837 6.72025 7.39912 6.48493 7.39912H3.79135C3.2617 7.39912 2.83077 7.83006 2.83077 8.35971V11.1208C2.83082 11.3561 2.64002 11.5469 2.40464 11.5469Z" fill="#891C00"/>
</g>
<path d="M10.5156 4.6862L21.1808 2.64844L21.659 4.6862H10.5156Z" fill="#376642"/>
</g>
<defs>
<clipPath id="clip0_7797_81532">
<rect width="28" height="28" fill="white" transform="translate(0.177734 0.398438)"/>
</clipPath>
</defs>
</svg>
