<svg width="16" height="16" viewBox="0 0 16 16" fill="none" xmlns="http://www.w3.org/2000/svg">
<path fill-rule="evenodd" clip-rule="evenodd" d="M3.09458 14.6667H13.4054C13.8534 14.6667 14.2233 14.3212 14.2482 13.8795L14.9046 2.21287C14.9315 1.73522 14.5464 1.33333 14.0619 1.33333H2.43813C1.95358 1.33333 1.56851 1.73522 1.59539 2.21287L2.25186 13.8795C2.27671 14.3212 2.64665 14.6667 3.09458 14.6667ZM13.4054 15.5C14.3013 15.5 15.0412 14.809 15.0909 13.9258L15.7473 2.25912C15.8011 1.30378 15.031 0.5 14.0619 0.5H2.43813C1.46903 0.5 0.698896 1.30378 0.752653 2.25912L1.40912 13.9258C1.45882 14.809 2.19868 15.5 3.09458 15.5H13.4054Z" fill="#333333"/>
<path fill-rule="evenodd" clip-rule="evenodd" d="M12.5535 5.24717C12.1112 4.78317 11.5937 4.39246 11.0203 4.09205C10.1967 3.66051 9.28133 3.42759 8.34905 3.41226C7.41681 3.39696 6.49411 3.59971 5.65644 4.00392C5.07325 4.28534 4.54278 4.65884 4.08514 5.10805L6.04213 6.56159C6.0485 6.56363 6.06491 6.56676 6.09745 6.56384C6.16362 6.55796 6.25647 6.52796 6.3464 6.46788C6.47786 6.37996 6.61582 6.30105 6.75926 6.2318C7.24087 5.99942 7.77131 5.88288 8.30727 5.89167C8.84323 5.90046 9.36949 6.03438 9.84296 6.28246C9.98404 6.35638 10.1192 6.4398 10.2477 6.53196C10.3355 6.59501 10.4273 6.62805 10.4932 6.63605C10.5257 6.64001 10.5422 6.63742 10.5486 6.63559L12.5535 5.24717ZM10.5518 6.63426C10.5519 6.63434 10.5507 6.63496 10.5486 6.63559C10.5504 6.63455 10.5517 6.63413 10.5518 6.63426ZM6.03896 6.56009C6.03904 6.56001 6.04031 6.56046 6.04213 6.56159C6.03997 6.56084 6.03883 6.56021 6.03896 6.56009ZM13.2522 4.76588C13.5654 5.1068 13.4694 5.63076 13.0878 5.89505L11.0316 7.31901C10.6499 7.5833 10.1285 7.47663 9.75146 7.20609C9.65494 7.1368 9.55332 7.07413 9.44731 7.01859C9.09147 6.83213 8.69599 6.73151 8.29322 6.72488C7.89044 6.71826 7.4918 6.80588 7.12988 6.98051C7.02205 7.03255 6.91841 7.09184 6.81961 7.15792C6.43363 7.41596 5.90889 7.50542 5.53642 7.22876L3.52934 5.73801C3.15682 5.46134 3.07854 4.93451 3.40303 4.60409C3.94537 4.05184 4.58198 3.59484 5.28582 3.25521C6.24317 2.79326 7.29767 2.56155 8.3631 2.57905C9.42853 2.59655 10.4747 2.86276 11.4159 3.35592C12.1079 3.71846 12.7288 4.19613 13.2522 4.76588Z" fill="#333333"/>
<path d="M9.59074 4.48698C9.74372 4.31335 10.0103 4.29502 10.1861 4.44602C10.362 4.59706 10.3806 4.86023 10.2276 5.03385L9.06858 6.34964C8.91564 6.52327 8.64905 6.5416 8.47319 6.3906C8.29734 6.23956 8.27877 5.97639 8.43171 5.80277L9.59074 4.48698Z" fill="#333333"/>
</svg>
